G75*
%MOIN*%
%OFA0B0*%
%FSLAX25Y25*%
%IPPOS*%
%LPD*%
%AMOC8*
5,1,8,0,0,1.08239X$1,22.5*
%
%ADD10C,0.06000*%
%ADD11C,0.05937*%
%ADD12C,0.12661*%
%ADD13R,0.16500X0.10500*%
%ADD14C,0.02387*%
%ADD15C,0.01000*%
%ADD16C,0.02781*%
%ADD17C,0.01600*%
D10*
X0147219Y0083688D02*
X0147219Y0089687D01*
X0157219Y0089687D02*
X0157219Y0083688D01*
X0167219Y0083688D02*
X0167219Y0089687D01*
X0177219Y0089687D02*
X0177219Y0083688D01*
D11*
X0029719Y0077967D03*
X0029719Y0068125D03*
X0029719Y0060250D03*
X0029719Y0050408D03*
D12*
X0021451Y0041156D03*
X0021451Y0087219D03*
D13*
X0298290Y0076597D03*
X0298290Y0049081D03*
D14*
X0287179Y0049689D03*
X0283242Y0049689D03*
X0287179Y0046737D03*
X0287179Y0043784D03*
X0283242Y0042800D03*
X0289148Y0040831D03*
X0292100Y0040831D03*
X0295053Y0040831D03*
X0298006Y0040831D03*
X0300959Y0040831D03*
X0283242Y0034926D03*
X0277337Y0032957D03*
X0269689Y0035438D03*
X0254689Y0039188D03*
X0248793Y0038863D03*
X0241904Y0041815D03*
X0236982Y0039847D03*
X0227140Y0037878D03*
X0218281Y0037878D03*
X0213439Y0039188D03*
X0203518Y0038863D03*
X0195644Y0038863D03*
X0209423Y0042800D03*
X0217297Y0044768D03*
X0209423Y0049689D03*
X0197612Y0054611D03*
X0192189Y0055437D03*
X0178547Y0059187D03*
X0183547Y0064187D03*
X0183813Y0067938D03*
X0192189Y0067938D03*
X0197612Y0070359D03*
X0203439Y0065437D03*
X0208439Y0065437D03*
X0214344Y0070359D03*
X0214344Y0073312D03*
X0186785Y0076264D03*
X0181864Y0079217D03*
X0181864Y0072327D03*
X0163469Y0067938D03*
X0166116Y0064453D03*
X0157258Y0064453D03*
X0154719Y0059187D03*
X0161195Y0058548D03*
X0149719Y0054187D03*
X0154305Y0052642D03*
X0166116Y0052642D03*
X0138557Y0043784D03*
X0129699Y0044768D03*
X0119856Y0046737D03*
X0102219Y0051687D03*
X0119856Y0055595D03*
X0099719Y0059187D03*
X0103124Y0064453D03*
X0109030Y0070359D03*
X0109030Y0075280D03*
X0103124Y0075280D03*
X0114935Y0076264D03*
X0115919Y0079217D03*
X0115919Y0084138D03*
X0121825Y0085123D03*
X0141510Y0087091D03*
X0141510Y0081186D03*
X0152337Y0081186D03*
X0152337Y0093981D03*
X0141510Y0093981D03*
X0099187Y0089060D03*
X0078518Y0082170D03*
X0051943Y0085123D03*
X0051943Y0089060D03*
X0051943Y0092997D03*
X0030289Y0088075D03*
X0030289Y0083154D03*
X0043085Y0081186D03*
X0035211Y0078233D03*
X0034226Y0073312D03*
X0035211Y0064453D03*
X0039148Y0064453D03*
X0048006Y0060516D03*
X0059817Y0061500D03*
X0059817Y0058548D03*
X0072612Y0061500D03*
X0059817Y0064453D03*
X0058833Y0072327D03*
X0085407Y0065437D03*
X0132219Y0064187D03*
X0078518Y0047721D03*
X0071628Y0041815D03*
X0071628Y0036894D03*
X0064738Y0032957D03*
X0092297Y0034926D03*
X0119856Y0037878D03*
X0123793Y0038863D03*
X0135604Y0038863D03*
X0149384Y0034926D03*
X0157219Y0031687D03*
X0159719Y0034188D03*
X0163469Y0036688D03*
X0170053Y0042800D03*
X0181864Y0042800D03*
X0229689Y0052937D03*
X0232189Y0052937D03*
X0254689Y0054936D03*
X0259610Y0054936D03*
X0271431Y0053626D03*
X0271431Y0047721D03*
X0269689Y0042938D03*
X0299974Y0032957D03*
X0300959Y0056579D03*
X0298006Y0056579D03*
X0295053Y0056579D03*
X0292100Y0056579D03*
X0271431Y0059532D03*
X0271431Y0065437D03*
X0271431Y0071343D03*
X0263557Y0073312D03*
X0271431Y0077249D03*
X0277337Y0077249D03*
X0287179Y0077249D03*
X0287179Y0080201D03*
X0289148Y0084138D03*
X0292100Y0084138D03*
X0295053Y0084138D03*
X0298006Y0084138D03*
X0300959Y0084138D03*
X0299974Y0092997D03*
X0273400Y0092997D03*
X0248793Y0092997D03*
X0248793Y0083154D03*
X0257652Y0083154D03*
X0263557Y0081186D03*
X0239935Y0083154D03*
X0231077Y0083154D03*
X0222219Y0083154D03*
X0215329Y0083154D03*
X0215329Y0091028D03*
X0208439Y0092997D03*
X0201549Y0091028D03*
X0238941Y0063794D03*
X0242878Y0061825D03*
X0208439Y0060437D03*
X0203439Y0060437D03*
X0129699Y0033941D03*
X0048006Y0047721D03*
X0036195Y0045752D03*
X0030289Y0041815D03*
X0012573Y0041815D03*
X0014541Y0047721D03*
X0014541Y0034926D03*
X0021431Y0031973D03*
X0028321Y0034926D03*
X0036195Y0032957D03*
X0014541Y0081186D03*
X0012573Y0088075D03*
X0014541Y0093981D03*
X0028321Y0093981D03*
X0076549Y0093981D03*
X0298006Y0069375D03*
D15*
X0007968Y0095741D02*
X0007968Y0029937D01*
X0154903Y0029937D01*
X0154781Y0030059D01*
X0154344Y0031116D01*
X0154344Y0032259D01*
X0154781Y0033316D01*
X0155590Y0034125D01*
X0156647Y0034562D01*
X0156844Y0034562D01*
X0156844Y0034759D01*
X0157281Y0035816D01*
X0158090Y0036625D01*
X0159147Y0037062D01*
X0160290Y0037062D01*
X0160594Y0036937D01*
X0160594Y0037259D01*
X0161031Y0038316D01*
X0161840Y0039125D01*
X0162897Y0039562D01*
X0164040Y0039562D01*
X0165097Y0039125D01*
X0165906Y0038316D01*
X0166194Y0037619D01*
X0208786Y0037619D01*
X0210564Y0039397D01*
X0210564Y0039759D01*
X0211002Y0040816D01*
X0211811Y0041625D01*
X0212867Y0042062D01*
X0214011Y0042062D01*
X0215067Y0041625D01*
X0215876Y0040816D01*
X0216314Y0039759D01*
X0216314Y0038616D01*
X0215876Y0037559D01*
X0215067Y0036750D01*
X0214011Y0036313D01*
X0213649Y0036313D01*
X0212455Y0035119D01*
X0261286Y0035119D01*
X0267364Y0041197D01*
X0267252Y0041309D01*
X0266814Y0042366D01*
X0266814Y0043509D01*
X0267252Y0044566D01*
X0268061Y0045375D01*
X0269117Y0045812D01*
X0270261Y0045812D01*
X0271317Y0045375D01*
X0272126Y0044566D01*
X0272564Y0043509D01*
X0272564Y0042366D01*
X0272126Y0041309D01*
X0271870Y0041053D01*
X0271870Y0039534D01*
X0270535Y0038199D01*
X0271317Y0037875D01*
X0272126Y0037066D01*
X0272564Y0036009D01*
X0272564Y0034866D01*
X0272126Y0033809D01*
X0271870Y0033553D01*
X0271870Y0033284D01*
X0268523Y0029937D01*
X0302118Y0029937D01*
X0302118Y0042331D01*
X0298790Y0042331D01*
X0298790Y0048581D01*
X0297790Y0048581D01*
X0297790Y0042331D01*
X0289842Y0042331D01*
X0289461Y0042433D01*
X0289119Y0042631D01*
X0288839Y0042910D01*
X0288642Y0043252D01*
X0288540Y0043633D01*
X0288540Y0048581D01*
X0297790Y0048581D01*
X0297790Y0049581D01*
X0297790Y0055831D01*
X0289842Y0055831D01*
X0289461Y0055729D01*
X0289119Y0055531D01*
X0288839Y0055252D01*
X0288642Y0054910D01*
X0288540Y0054528D01*
X0288540Y0049581D01*
X0297790Y0049581D01*
X0298790Y0049581D01*
X0298790Y0055831D01*
X0302118Y0055831D01*
X0302118Y0069847D01*
X0298790Y0069847D01*
X0298790Y0076097D01*
X0297790Y0076097D01*
X0297790Y0069847D01*
X0289842Y0069847D01*
X0289461Y0069950D01*
X0289119Y0070147D01*
X0288839Y0070426D01*
X0288642Y0070768D01*
X0288540Y0071150D01*
X0288540Y0076097D01*
X0297790Y0076097D01*
X0297790Y0077097D01*
X0288540Y0077097D01*
X0288540Y0082045D01*
X0288642Y0082426D01*
X0288839Y0082768D01*
X0289119Y0083048D01*
X0289461Y0083245D01*
X0289842Y0083347D01*
X0297790Y0083347D01*
X0297790Y0077097D01*
X0298790Y0077097D01*
X0298790Y0083347D01*
X0302118Y0083347D01*
X0302118Y0095741D01*
X0007968Y0095741D01*
X0007968Y0095333D02*
X0302118Y0095333D01*
X0302118Y0094335D02*
X0178231Y0094335D01*
X0178150Y0094369D02*
X0176287Y0094369D01*
X0174567Y0093656D01*
X0173250Y0092339D01*
X0172537Y0090619D01*
X0172537Y0082756D01*
X0173250Y0081036D01*
X0174567Y0079719D01*
X0176287Y0079006D01*
X0178150Y0079006D01*
X0179870Y0079719D01*
X0181187Y0081036D01*
X0181900Y0082756D01*
X0181900Y0090619D01*
X0181187Y0092339D01*
X0179870Y0093656D01*
X0178150Y0094369D01*
X0176206Y0094335D02*
X0168231Y0094335D01*
X0168150Y0094369D02*
X0166287Y0094369D01*
X0164567Y0093656D01*
X0163250Y0092339D01*
X0162537Y0090619D01*
X0162537Y0082756D01*
X0163250Y0081036D01*
X0164567Y0079719D01*
X0166287Y0079006D01*
X0168150Y0079006D01*
X0169870Y0079719D01*
X0171187Y0081036D01*
X0171900Y0082756D01*
X0171900Y0090619D01*
X0171187Y0092339D01*
X0169870Y0093656D01*
X0168150Y0094369D01*
X0166206Y0094335D02*
X0158231Y0094335D01*
X0158150Y0094369D02*
X0156287Y0094369D01*
X0154567Y0093656D01*
X0153250Y0092339D01*
X0152537Y0090619D01*
X0152537Y0082756D01*
X0153250Y0081036D01*
X0154567Y0079719D01*
X0154637Y0079690D01*
X0153815Y0078869D01*
X0133815Y0078869D01*
X0131315Y0076369D01*
X0130037Y0075091D01*
X0130037Y0066072D01*
X0129781Y0065816D01*
X0129344Y0064759D01*
X0129344Y0063616D01*
X0129781Y0062559D01*
X0130590Y0061750D01*
X0131512Y0061369D01*
X0101603Y0061369D01*
X0101347Y0061625D01*
X0100290Y0062062D01*
X0099147Y0062062D01*
X0098090Y0061625D01*
X0097281Y0060816D01*
X0096844Y0059759D01*
X0096844Y0058616D01*
X0097281Y0057559D01*
X0098090Y0056750D01*
X0099147Y0056313D01*
X0100290Y0056313D01*
X0101347Y0056750D01*
X0101603Y0057006D01*
X0149012Y0057006D01*
X0148090Y0056625D01*
X0147281Y0055816D01*
X0146844Y0054759D01*
X0146844Y0054397D01*
X0146315Y0053869D01*
X0104103Y0053869D01*
X0103847Y0054125D01*
X0102790Y0054562D01*
X0101647Y0054562D01*
X0100590Y0054125D01*
X0099781Y0053316D01*
X0099344Y0052259D01*
X0099344Y0051116D01*
X0099781Y0050059D01*
X0100590Y0049250D01*
X0101647Y0048813D01*
X0102790Y0048813D01*
X0103847Y0049250D01*
X0104103Y0049506D01*
X0148122Y0049506D01*
X0149928Y0051313D01*
X0150290Y0051313D01*
X0151347Y0051750D01*
X0152156Y0052559D01*
X0152593Y0053616D01*
X0152593Y0054759D01*
X0152156Y0055816D01*
X0151347Y0056625D01*
X0150425Y0057006D01*
X0152834Y0057006D01*
X0153090Y0056750D01*
X0154147Y0056313D01*
X0155290Y0056313D01*
X0156347Y0056750D01*
X0157156Y0057559D01*
X0157593Y0058616D01*
X0157593Y0059759D01*
X0157156Y0060816D01*
X0156347Y0061625D01*
X0155290Y0062062D01*
X0154147Y0062062D01*
X0153090Y0061625D01*
X0152834Y0061369D01*
X0132925Y0061369D01*
X0133847Y0061750D01*
X0134656Y0062559D01*
X0135093Y0063616D01*
X0135093Y0064759D01*
X0134656Y0065816D01*
X0134400Y0066072D01*
X0134400Y0073284D01*
X0135622Y0074506D01*
X0155622Y0074506D01*
X0156900Y0075784D01*
X0159400Y0078284D01*
X0159400Y0079524D01*
X0159870Y0079719D01*
X0161187Y0081036D01*
X0161900Y0082756D01*
X0161900Y0090619D01*
X0161187Y0092339D01*
X0159870Y0093656D01*
X0158150Y0094369D01*
X0156206Y0094335D02*
X0024734Y0094335D01*
X0024922Y0094257D02*
X0023973Y0094650D01*
X0022982Y0094916D01*
X0021964Y0095050D01*
X0021951Y0095050D01*
X0021951Y0087719D01*
X0029281Y0087719D01*
X0029281Y0087732D01*
X0029148Y0088750D01*
X0028882Y0089741D01*
X0028489Y0090690D01*
X0027976Y0091579D01*
X0027351Y0092393D01*
X0026625Y0093119D01*
X0025811Y0093744D01*
X0024922Y0094257D01*
X0026342Y0093336D02*
X0144585Y0093336D01*
X0144860Y0093536D02*
X0144287Y0093120D01*
X0143786Y0092619D01*
X0143370Y0092046D01*
X0143048Y0091415D01*
X0142829Y0090741D01*
X0142719Y0090042D01*
X0142719Y0087187D01*
X0146718Y0087187D01*
X0146718Y0086188D01*
X0142719Y0086188D01*
X0142719Y0083333D01*
X0142829Y0082634D01*
X0143048Y0081960D01*
X0143370Y0081329D01*
X0143786Y0080756D01*
X0144287Y0080255D01*
X0144860Y0079839D01*
X0145491Y0079517D01*
X0146165Y0079298D01*
X0146719Y0079211D01*
X0146719Y0086187D01*
X0147718Y0086187D01*
X0147718Y0079211D01*
X0148272Y0079298D01*
X0148946Y0079517D01*
X0149577Y0079839D01*
X0150150Y0080255D01*
X0150651Y0080756D01*
X0151067Y0081329D01*
X0151389Y0081960D01*
X0151608Y0082634D01*
X0151718Y0083333D01*
X0151718Y0086188D01*
X0147719Y0086188D01*
X0147719Y0087187D01*
X0151718Y0087187D01*
X0151718Y0090042D01*
X0151608Y0090741D01*
X0151389Y0091415D01*
X0151067Y0092046D01*
X0150651Y0092619D01*
X0150150Y0093120D01*
X0149577Y0093536D01*
X0148946Y0093858D01*
X0148272Y0094077D01*
X0147718Y0094164D01*
X0147718Y0087188D01*
X0146719Y0087188D01*
X0146719Y0094164D01*
X0146165Y0094077D01*
X0145491Y0093858D01*
X0144860Y0093536D01*
X0143582Y0092338D02*
X0027393Y0092338D01*
X0028114Y0091339D02*
X0143024Y0091339D01*
X0142766Y0090341D02*
X0028634Y0090341D01*
X0028989Y0089342D02*
X0142719Y0089342D01*
X0142719Y0088344D02*
X0029201Y0088344D01*
X0029281Y0086719D02*
X0021951Y0086719D01*
X0021951Y0087719D01*
X0020951Y0087719D01*
X0020951Y0095050D01*
X0020938Y0095050D01*
X0019920Y0094916D01*
X0018928Y0094650D01*
X0017980Y0094257D01*
X0017091Y0093744D01*
X0016277Y0093119D01*
X0015551Y0092393D01*
X0014926Y0091579D01*
X0014413Y0090690D01*
X0014020Y0089741D01*
X0013754Y0088750D01*
X0013620Y0087732D01*
X0013620Y0087719D01*
X0020951Y0087719D01*
X0020951Y0086719D01*
X0013620Y0086719D01*
X0013620Y0086706D01*
X0013754Y0085688D01*
X0014020Y0084696D01*
X0014413Y0083748D01*
X0014926Y0082859D01*
X0015551Y0082045D01*
X0016277Y0081319D01*
X0017091Y0080694D01*
X0017980Y0080181D01*
X0018928Y0079788D01*
X0019167Y0079724D01*
X0017564Y0079060D01*
X0015633Y0077130D01*
X0014589Y0074608D01*
X0014589Y0071878D01*
X0015633Y0069355D01*
X0017564Y0067425D01*
X0020086Y0066380D01*
X0022816Y0066380D01*
X0025069Y0067314D01*
X0025069Y0067200D01*
X0025777Y0065491D01*
X0027080Y0064187D01*
X0025777Y0062884D01*
X0025069Y0061175D01*
X0025069Y0061061D01*
X0022816Y0061995D01*
X0020086Y0061995D01*
X0017564Y0060950D01*
X0015633Y0059020D01*
X0014589Y0056497D01*
X0014589Y0053767D01*
X0015633Y0051245D01*
X0017564Y0049315D01*
X0019167Y0048651D01*
X0018928Y0048587D01*
X0017980Y0048194D01*
X0017091Y0047681D01*
X0016277Y0047056D01*
X0015551Y0046330D01*
X0014926Y0045516D01*
X0014413Y0044627D01*
X0014020Y0043678D01*
X0013754Y0042687D01*
X0013620Y0041669D01*
X0013620Y0041656D01*
X0020951Y0041656D01*
X0020951Y0040656D01*
X0021951Y0040656D01*
X0021951Y0041656D01*
X0029281Y0041656D01*
X0029281Y0041669D01*
X0029148Y0042687D01*
X0028882Y0043678D01*
X0028489Y0044627D01*
X0027976Y0045516D01*
X0027351Y0046330D01*
X0027307Y0046374D01*
X0028794Y0045758D01*
X0030643Y0045758D01*
X0032352Y0046466D01*
X0033660Y0047774D01*
X0034368Y0049483D01*
X0034368Y0051333D01*
X0033660Y0053042D01*
X0032352Y0054350D01*
X0030643Y0055058D01*
X0028794Y0055058D01*
X0028313Y0054858D01*
X0028313Y0055800D01*
X0028794Y0055601D01*
X0030643Y0055601D01*
X0032352Y0056309D01*
X0033660Y0057617D01*
X0034368Y0059326D01*
X0034368Y0061175D01*
X0033660Y0062884D01*
X0032357Y0064187D01*
X0033660Y0065491D01*
X0034368Y0067200D01*
X0034368Y0069049D01*
X0033660Y0070758D01*
X0032352Y0072066D01*
X0030643Y0072774D01*
X0028794Y0072774D01*
X0028313Y0072575D01*
X0028313Y0073725D01*
X0028672Y0073609D01*
X0029234Y0073520D01*
X0029234Y0077483D01*
X0030203Y0077483D01*
X0030203Y0078451D01*
X0034166Y0078451D01*
X0034077Y0079013D01*
X0033860Y0079682D01*
X0033540Y0080309D01*
X0033127Y0080878D01*
X0032630Y0081375D01*
X0032061Y0081789D01*
X0031434Y0082108D01*
X0030765Y0082325D01*
X0030203Y0082415D01*
X0030203Y0078451D01*
X0029234Y0078451D01*
X0029234Y0082415D01*
X0028672Y0082325D01*
X0028003Y0082108D01*
X0027376Y0081789D01*
X0026807Y0081375D01*
X0026310Y0080878D01*
X0025897Y0080309D01*
X0025577Y0079682D01*
X0025366Y0079032D01*
X0025338Y0079060D01*
X0023735Y0079724D01*
X0023973Y0079788D01*
X0024922Y0080181D01*
X0025811Y0080694D01*
X0026625Y0081319D01*
X0027351Y0082045D01*
X0027976Y0082859D01*
X0028489Y0083748D01*
X0028882Y0084696D01*
X0029148Y0085688D01*
X0029281Y0086706D01*
X0029281Y0086719D01*
X0029234Y0086347D02*
X0146718Y0086347D01*
X0146719Y0087345D02*
X0147718Y0087345D01*
X0147719Y0086347D02*
X0152537Y0086347D01*
X0152537Y0087345D02*
X0151718Y0087345D01*
X0151718Y0088344D02*
X0152537Y0088344D01*
X0152537Y0089342D02*
X0151718Y0089342D01*
X0151671Y0090341D02*
X0152537Y0090341D01*
X0152836Y0091339D02*
X0151413Y0091339D01*
X0150855Y0092338D02*
X0153249Y0092338D01*
X0154247Y0093336D02*
X0149852Y0093336D01*
X0147718Y0093336D02*
X0146719Y0093336D01*
X0146719Y0092338D02*
X0147718Y0092338D01*
X0147718Y0091339D02*
X0146719Y0091339D01*
X0146719Y0090341D02*
X0147718Y0090341D01*
X0147718Y0089342D02*
X0146719Y0089342D01*
X0146719Y0088344D02*
X0147718Y0088344D01*
X0142719Y0087345D02*
X0021951Y0087345D01*
X0021951Y0088344D02*
X0020951Y0088344D01*
X0020951Y0089342D02*
X0021951Y0089342D01*
X0021951Y0090341D02*
X0020951Y0090341D01*
X0020951Y0091339D02*
X0021951Y0091339D01*
X0021951Y0092338D02*
X0020951Y0092338D01*
X0020951Y0093336D02*
X0021951Y0093336D01*
X0021951Y0094335D02*
X0020951Y0094335D01*
X0018167Y0094335D02*
X0007968Y0094335D01*
X0007968Y0093336D02*
X0016560Y0093336D01*
X0015508Y0092338D02*
X0007968Y0092338D01*
X0007968Y0091339D02*
X0014787Y0091339D01*
X0014268Y0090341D02*
X0007968Y0090341D01*
X0007968Y0089342D02*
X0013913Y0089342D01*
X0013701Y0088344D02*
X0007968Y0088344D01*
X0007968Y0087345D02*
X0020951Y0087345D01*
X0013845Y0085348D02*
X0007968Y0085348D01*
X0007968Y0084350D02*
X0014163Y0084350D01*
X0014642Y0083351D02*
X0007968Y0083351D01*
X0007968Y0082353D02*
X0015314Y0082353D01*
X0016241Y0081354D02*
X0007968Y0081354D01*
X0007968Y0080356D02*
X0017677Y0080356D01*
X0018281Y0079357D02*
X0007968Y0079357D01*
X0007968Y0078359D02*
X0016862Y0078359D01*
X0015864Y0077360D02*
X0007968Y0077360D01*
X0007968Y0076362D02*
X0015315Y0076362D01*
X0014902Y0075363D02*
X0007968Y0075363D01*
X0007968Y0074365D02*
X0014589Y0074365D01*
X0014589Y0073366D02*
X0007968Y0073366D01*
X0007968Y0072368D02*
X0014589Y0072368D01*
X0014799Y0071369D02*
X0007968Y0071369D01*
X0007968Y0070371D02*
X0015213Y0070371D01*
X0015626Y0069372D02*
X0007968Y0069372D01*
X0007968Y0068373D02*
X0016615Y0068373D01*
X0017685Y0067375D02*
X0007968Y0067375D01*
X0007968Y0066376D02*
X0025410Y0066376D01*
X0025890Y0065378D02*
X0007968Y0065378D01*
X0007968Y0064379D02*
X0026888Y0064379D01*
X0026273Y0063381D02*
X0007968Y0063381D01*
X0007968Y0062382D02*
X0025569Y0062382D01*
X0025155Y0061384D02*
X0024290Y0061384D01*
X0018612Y0061384D02*
X0007968Y0061384D01*
X0007968Y0060385D02*
X0016999Y0060385D01*
X0016001Y0059387D02*
X0007968Y0059387D01*
X0007968Y0058388D02*
X0015372Y0058388D01*
X0014958Y0057390D02*
X0007968Y0057390D01*
X0007968Y0056391D02*
X0014589Y0056391D01*
X0014589Y0055393D02*
X0007968Y0055393D01*
X0007968Y0054394D02*
X0014589Y0054394D01*
X0014742Y0053396D02*
X0007968Y0053396D01*
X0007968Y0052397D02*
X0015156Y0052397D01*
X0015570Y0051399D02*
X0007968Y0051399D01*
X0007968Y0050400D02*
X0016478Y0050400D01*
X0017477Y0049402D02*
X0007968Y0049402D01*
X0007968Y0048403D02*
X0018485Y0048403D01*
X0016731Y0047405D02*
X0007968Y0047405D01*
X0007968Y0046406D02*
X0015627Y0046406D01*
X0014863Y0045408D02*
X0007968Y0045408D01*
X0007968Y0044409D02*
X0014322Y0044409D01*
X0013948Y0043411D02*
X0007968Y0043411D01*
X0007968Y0042412D02*
X0013718Y0042412D01*
X0013620Y0040656D02*
X0013620Y0040643D01*
X0013754Y0039625D01*
X0014020Y0038634D01*
X0014413Y0037685D01*
X0014926Y0036796D01*
X0015551Y0035982D01*
X0016277Y0035256D01*
X0017091Y0034631D01*
X0017980Y0034118D01*
X0018928Y0033725D01*
X0019920Y0033459D01*
X0020938Y0033325D01*
X0020951Y0033325D01*
X0020951Y0040656D01*
X0013620Y0040656D01*
X0013650Y0040415D02*
X0007968Y0040415D01*
X0007968Y0039417D02*
X0013810Y0039417D01*
X0014109Y0038418D02*
X0007968Y0038418D01*
X0007968Y0037420D02*
X0014566Y0037420D01*
X0015214Y0036421D02*
X0007968Y0036421D01*
X0007968Y0035423D02*
X0016110Y0035423D01*
X0017449Y0034424D02*
X0007968Y0034424D01*
X0007968Y0033426D02*
X0020176Y0033426D01*
X0020951Y0033426D02*
X0021951Y0033426D01*
X0021951Y0033325D02*
X0021964Y0033325D01*
X0022982Y0033459D01*
X0023973Y0033725D01*
X0024922Y0034118D01*
X0025811Y0034631D01*
X0026625Y0035256D01*
X0027351Y0035982D01*
X0027976Y0036796D01*
X0028489Y0037685D01*
X0028882Y0038634D01*
X0029148Y0039625D01*
X0029281Y0040643D01*
X0029281Y0040656D01*
X0021951Y0040656D01*
X0021951Y0033325D01*
X0022726Y0033426D02*
X0154891Y0033426D01*
X0154413Y0032427D02*
X0007968Y0032427D01*
X0007968Y0031429D02*
X0154344Y0031429D01*
X0154628Y0030430D02*
X0007968Y0030430D01*
X0020951Y0034424D02*
X0021951Y0034424D01*
X0021951Y0035423D02*
X0020951Y0035423D01*
X0020951Y0036421D02*
X0021951Y0036421D01*
X0021951Y0037420D02*
X0020951Y0037420D01*
X0020951Y0038418D02*
X0021951Y0038418D01*
X0021951Y0039417D02*
X0020951Y0039417D01*
X0020951Y0040415D02*
X0021951Y0040415D01*
X0021951Y0041414D02*
X0211600Y0041414D01*
X0210836Y0040415D02*
X0029252Y0040415D01*
X0029092Y0039417D02*
X0162545Y0039417D01*
X0161134Y0038418D02*
X0028793Y0038418D01*
X0028336Y0037420D02*
X0160660Y0037420D01*
X0163469Y0036688D02*
X0164719Y0035438D01*
X0209689Y0035438D01*
X0213439Y0039188D01*
X0216042Y0040415D02*
X0266582Y0040415D01*
X0267208Y0041414D02*
X0215278Y0041414D01*
X0216314Y0039417D02*
X0265584Y0039417D01*
X0264585Y0038418D02*
X0216232Y0038418D01*
X0215737Y0037420D02*
X0263587Y0037420D01*
X0262588Y0036421D02*
X0214273Y0036421D01*
X0212759Y0035423D02*
X0261590Y0035423D01*
X0264955Y0032619D02*
X0266928Y0034592D01*
X0266951Y0034534D01*
X0265036Y0032619D01*
X0264955Y0032619D01*
X0265762Y0033426D02*
X0265843Y0033426D01*
X0266760Y0034424D02*
X0266841Y0034424D01*
X0269689Y0034188D02*
X0265939Y0030437D01*
X0158469Y0030437D01*
X0157219Y0031687D01*
X0159719Y0034188D02*
X0160969Y0032938D01*
X0262189Y0032938D01*
X0269689Y0040438D01*
X0269689Y0042938D01*
X0272191Y0044409D02*
X0288540Y0044409D01*
X0288540Y0045408D02*
X0271238Y0045408D01*
X0268140Y0045408D02*
X0190094Y0045408D01*
X0190248Y0045471D02*
X0191112Y0046335D01*
X0191580Y0047464D01*
X0191580Y0048686D01*
X0191112Y0049815D01*
X0190989Y0049938D01*
X0190989Y0052823D01*
X0191617Y0052563D01*
X0192761Y0052563D01*
X0193817Y0053000D01*
X0194626Y0053809D01*
X0195064Y0054866D01*
X0195064Y0056009D01*
X0194626Y0057066D01*
X0194370Y0057322D01*
X0194370Y0066053D01*
X0194626Y0066309D01*
X0195064Y0067366D01*
X0195064Y0068509D01*
X0194626Y0069566D01*
X0193817Y0070375D01*
X0192761Y0070812D01*
X0191617Y0070812D01*
X0190989Y0070552D01*
X0190989Y0070670D01*
X0192488Y0072169D01*
X0198844Y0072169D01*
X0199756Y0072547D01*
X0200740Y0073531D01*
X0201438Y0074229D01*
X0201816Y0075141D01*
X0201816Y0080661D01*
X0201939Y0080784D01*
X0202406Y0081913D01*
X0202406Y0083135D01*
X0201939Y0084264D01*
X0201075Y0085128D01*
X0199946Y0085596D01*
X0198724Y0085596D01*
X0197595Y0085128D01*
X0196731Y0084264D01*
X0196263Y0083135D01*
X0196263Y0081913D01*
X0196731Y0080784D01*
X0196854Y0080661D01*
X0196854Y0077131D01*
X0190967Y0077131D01*
X0190055Y0076753D01*
X0189357Y0076056D01*
X0186404Y0073103D01*
X0186027Y0072191D01*
X0186027Y0069789D01*
X0185441Y0070375D01*
X0184385Y0070812D01*
X0183241Y0070812D01*
X0182185Y0070375D01*
X0181929Y0070119D01*
X0165353Y0070119D01*
X0165097Y0070375D01*
X0164040Y0070812D01*
X0162897Y0070812D01*
X0161840Y0070375D01*
X0161031Y0069566D01*
X0160594Y0068509D01*
X0160594Y0067366D01*
X0161031Y0066309D01*
X0161840Y0065500D01*
X0162897Y0065063D01*
X0164040Y0065063D01*
X0165097Y0065500D01*
X0165353Y0065756D01*
X0181085Y0065756D01*
X0180672Y0064759D01*
X0180672Y0064397D01*
X0178337Y0062062D01*
X0177975Y0062062D01*
X0176919Y0061625D01*
X0176110Y0060816D01*
X0175672Y0059759D01*
X0175672Y0058616D01*
X0176110Y0057559D01*
X0176919Y0056750D01*
X0177975Y0056313D01*
X0179119Y0056313D01*
X0180176Y0056750D01*
X0180984Y0057559D01*
X0181422Y0058616D01*
X0181422Y0058978D01*
X0183757Y0061313D01*
X0184119Y0061313D01*
X0185176Y0061750D01*
X0185984Y0062559D01*
X0186027Y0062661D01*
X0186027Y0049938D01*
X0185904Y0049815D01*
X0185436Y0048686D01*
X0185436Y0047464D01*
X0185904Y0046335D01*
X0186768Y0045471D01*
X0187897Y0045004D01*
X0189119Y0045004D01*
X0190248Y0045471D01*
X0191141Y0046406D02*
X0288540Y0046406D01*
X0288540Y0047405D02*
X0191555Y0047405D01*
X0191580Y0048403D02*
X0288540Y0048403D01*
X0288540Y0050400D02*
X0190989Y0050400D01*
X0190989Y0051399D02*
X0288540Y0051399D01*
X0288540Y0052397D02*
X0190989Y0052397D01*
X0194213Y0053396D02*
X0288540Y0053396D01*
X0288540Y0054394D02*
X0194869Y0054394D01*
X0195064Y0055393D02*
X0288980Y0055393D01*
X0297790Y0055393D02*
X0298790Y0055393D01*
X0298790Y0054394D02*
X0297790Y0054394D01*
X0297790Y0053396D02*
X0298790Y0053396D01*
X0298790Y0052397D02*
X0297790Y0052397D01*
X0297790Y0051399D02*
X0298790Y0051399D01*
X0298790Y0050400D02*
X0297790Y0050400D01*
X0297790Y0049402D02*
X0191283Y0049402D01*
X0186027Y0050400D02*
X0149016Y0050400D01*
X0150498Y0051399D02*
X0186027Y0051399D01*
X0186027Y0052397D02*
X0151994Y0052397D01*
X0152502Y0053396D02*
X0186027Y0053396D01*
X0186027Y0054394D02*
X0152593Y0054394D01*
X0152331Y0055393D02*
X0186027Y0055393D01*
X0186027Y0056391D02*
X0179309Y0056391D01*
X0177786Y0056391D02*
X0155480Y0056391D01*
X0153957Y0056391D02*
X0151580Y0056391D01*
X0147857Y0056391D02*
X0100480Y0056391D01*
X0098957Y0056391D02*
X0032435Y0056391D01*
X0033433Y0057390D02*
X0097451Y0057390D01*
X0096938Y0058388D02*
X0033980Y0058388D01*
X0034368Y0059387D02*
X0096844Y0059387D01*
X0097103Y0060385D02*
X0034368Y0060385D01*
X0034282Y0061384D02*
X0097849Y0061384D01*
X0101588Y0061384D02*
X0131475Y0061384D01*
X0132962Y0061384D02*
X0152849Y0061384D01*
X0156588Y0061384D02*
X0176678Y0061384D01*
X0175932Y0060385D02*
X0157334Y0060385D01*
X0157593Y0059387D02*
X0175672Y0059387D01*
X0175767Y0058388D02*
X0157499Y0058388D01*
X0156986Y0057390D02*
X0176279Y0057390D01*
X0180815Y0057390D02*
X0186027Y0057390D01*
X0186027Y0058388D02*
X0181328Y0058388D01*
X0181831Y0059387D02*
X0186027Y0059387D01*
X0186027Y0060385D02*
X0182830Y0060385D01*
X0184291Y0061384D02*
X0186027Y0061384D01*
X0186027Y0062382D02*
X0185808Y0062382D01*
X0183547Y0064187D02*
X0178547Y0059187D01*
X0178658Y0062382D02*
X0134479Y0062382D01*
X0134996Y0063381D02*
X0179656Y0063381D01*
X0180655Y0064379D02*
X0135093Y0064379D01*
X0134837Y0065378D02*
X0162136Y0065378D01*
X0161003Y0066376D02*
X0134400Y0066376D01*
X0134400Y0067375D02*
X0160594Y0067375D01*
X0160594Y0068373D02*
X0134400Y0068373D01*
X0134400Y0069372D02*
X0160951Y0069372D01*
X0161836Y0070371D02*
X0134400Y0070371D01*
X0134400Y0071369D02*
X0186027Y0071369D01*
X0186027Y0070371D02*
X0185446Y0070371D01*
X0182180Y0070371D02*
X0165101Y0070371D01*
X0163469Y0067938D02*
X0183813Y0067938D01*
X0185871Y0065930D02*
X0186027Y0066086D01*
X0186027Y0065714D01*
X0185984Y0065816D01*
X0185871Y0065930D01*
X0180929Y0065378D02*
X0164801Y0065378D01*
X0154719Y0059187D02*
X0099719Y0059187D01*
X0101241Y0054394D02*
X0032245Y0054394D01*
X0033306Y0053396D02*
X0099861Y0053396D01*
X0099401Y0052397D02*
X0033927Y0052397D01*
X0034341Y0051399D02*
X0099344Y0051399D01*
X0099640Y0050400D02*
X0034368Y0050400D01*
X0034334Y0049402D02*
X0100439Y0049402D01*
X0103998Y0049402D02*
X0185733Y0049402D01*
X0185436Y0048403D02*
X0033921Y0048403D01*
X0033291Y0047405D02*
X0185461Y0047405D01*
X0185874Y0046406D02*
X0032207Y0046406D01*
X0028038Y0045408D02*
X0186921Y0045408D01*
X0165803Y0038418D02*
X0209585Y0038418D01*
X0210564Y0039417D02*
X0164392Y0039417D01*
X0157887Y0036421D02*
X0027688Y0036421D01*
X0026792Y0035423D02*
X0157118Y0035423D01*
X0156313Y0034424D02*
X0025452Y0034424D01*
X0020951Y0041414D02*
X0007968Y0041414D01*
X0024922Y0048194D02*
X0025811Y0047681D01*
X0026066Y0047485D01*
X0025777Y0047774D01*
X0025168Y0049244D01*
X0023735Y0048651D01*
X0023973Y0048587D01*
X0024922Y0048194D01*
X0024417Y0048403D02*
X0025516Y0048403D01*
X0028579Y0044409D02*
X0267187Y0044409D01*
X0266814Y0043411D02*
X0028954Y0043411D01*
X0029184Y0042412D02*
X0266814Y0042412D01*
X0272169Y0041414D02*
X0302118Y0041414D01*
X0302118Y0040415D02*
X0271870Y0040415D01*
X0271753Y0039417D02*
X0302118Y0039417D01*
X0302118Y0038418D02*
X0270754Y0038418D01*
X0271772Y0037420D02*
X0302118Y0037420D01*
X0302118Y0036421D02*
X0272393Y0036421D01*
X0272564Y0035423D02*
X0302118Y0035423D01*
X0302118Y0034424D02*
X0272381Y0034424D01*
X0271870Y0033426D02*
X0302118Y0033426D01*
X0302118Y0032427D02*
X0271013Y0032427D01*
X0270015Y0031429D02*
X0302118Y0031429D01*
X0302118Y0030430D02*
X0269016Y0030430D01*
X0269689Y0034188D02*
X0269689Y0035438D01*
X0272564Y0042412D02*
X0289539Y0042412D01*
X0288599Y0043411D02*
X0272564Y0043411D01*
X0297790Y0043411D02*
X0298790Y0043411D01*
X0298790Y0044409D02*
X0297790Y0044409D01*
X0297790Y0045408D02*
X0298790Y0045408D01*
X0298790Y0046406D02*
X0297790Y0046406D01*
X0297790Y0047405D02*
X0298790Y0047405D01*
X0298790Y0048403D02*
X0297790Y0048403D01*
X0297790Y0042412D02*
X0298790Y0042412D01*
X0302118Y0056391D02*
X0194906Y0056391D01*
X0194370Y0057390D02*
X0302118Y0057390D01*
X0302118Y0058388D02*
X0194370Y0058388D01*
X0194370Y0059387D02*
X0302118Y0059387D01*
X0302118Y0060385D02*
X0194370Y0060385D01*
X0194370Y0061384D02*
X0302118Y0061384D01*
X0302118Y0062382D02*
X0194370Y0062382D01*
X0194370Y0063381D02*
X0302118Y0063381D01*
X0302118Y0064379D02*
X0194370Y0064379D01*
X0194370Y0065378D02*
X0302118Y0065378D01*
X0302118Y0066376D02*
X0194654Y0066376D01*
X0195064Y0067375D02*
X0302118Y0067375D01*
X0302118Y0068373D02*
X0195064Y0068373D01*
X0194706Y0069372D02*
X0302118Y0069372D01*
X0298790Y0070371D02*
X0297790Y0070371D01*
X0297790Y0071369D02*
X0298790Y0071369D01*
X0298790Y0072368D02*
X0297790Y0072368D01*
X0297790Y0073366D02*
X0298790Y0073366D01*
X0298790Y0074365D02*
X0297790Y0074365D01*
X0297790Y0075363D02*
X0298790Y0075363D01*
X0297790Y0076362D02*
X0201816Y0076362D01*
X0201816Y0077360D02*
X0288540Y0077360D01*
X0288540Y0078359D02*
X0201816Y0078359D01*
X0201816Y0079357D02*
X0288540Y0079357D01*
X0288540Y0080356D02*
X0201816Y0080356D01*
X0202175Y0081354D02*
X0288540Y0081354D01*
X0288622Y0082353D02*
X0202406Y0082353D01*
X0202317Y0083351D02*
X0302118Y0083351D01*
X0302118Y0084350D02*
X0201853Y0084350D01*
X0200543Y0085348D02*
X0302118Y0085348D01*
X0302118Y0086347D02*
X0181900Y0086347D01*
X0181900Y0087345D02*
X0302118Y0087345D01*
X0302118Y0088344D02*
X0181900Y0088344D01*
X0181900Y0089342D02*
X0302118Y0089342D01*
X0302118Y0090341D02*
X0181900Y0090341D01*
X0181601Y0091339D02*
X0302118Y0091339D01*
X0302118Y0092338D02*
X0181188Y0092338D01*
X0180190Y0093336D02*
X0302118Y0093336D01*
X0298790Y0082353D02*
X0297790Y0082353D01*
X0297790Y0081354D02*
X0298790Y0081354D01*
X0298790Y0080356D02*
X0297790Y0080356D01*
X0297790Y0079357D02*
X0298790Y0079357D01*
X0298790Y0078359D02*
X0297790Y0078359D01*
X0297790Y0077360D02*
X0298790Y0077360D01*
X0288540Y0075363D02*
X0201816Y0075363D01*
X0201494Y0074365D02*
X0288540Y0074365D01*
X0288540Y0073366D02*
X0200575Y0073366D01*
X0199323Y0072368D02*
X0288540Y0072368D01*
X0288540Y0071369D02*
X0191688Y0071369D01*
X0193822Y0070371D02*
X0288895Y0070371D01*
X0198126Y0085348D02*
X0181900Y0085348D01*
X0181900Y0084350D02*
X0196816Y0084350D01*
X0196352Y0083351D02*
X0181900Y0083351D01*
X0181732Y0082353D02*
X0196263Y0082353D01*
X0196495Y0081354D02*
X0181319Y0081354D01*
X0180507Y0080356D02*
X0196854Y0080356D01*
X0196854Y0079357D02*
X0178996Y0079357D01*
X0175441Y0079357D02*
X0168996Y0079357D01*
X0170507Y0080356D02*
X0173930Y0080356D01*
X0173118Y0081354D02*
X0171319Y0081354D01*
X0171732Y0082353D02*
X0172705Y0082353D01*
X0172537Y0083351D02*
X0171900Y0083351D01*
X0171900Y0084350D02*
X0172537Y0084350D01*
X0172537Y0085348D02*
X0171900Y0085348D01*
X0171900Y0086347D02*
X0172537Y0086347D01*
X0172537Y0087345D02*
X0171900Y0087345D01*
X0171900Y0088344D02*
X0172537Y0088344D01*
X0172537Y0089342D02*
X0171900Y0089342D01*
X0171900Y0090341D02*
X0172537Y0090341D01*
X0172836Y0091339D02*
X0171601Y0091339D01*
X0171188Y0092338D02*
X0173249Y0092338D01*
X0174247Y0093336D02*
X0170190Y0093336D01*
X0164247Y0093336D02*
X0160190Y0093336D01*
X0161188Y0092338D02*
X0163249Y0092338D01*
X0162836Y0091339D02*
X0161601Y0091339D01*
X0161900Y0090341D02*
X0162537Y0090341D01*
X0162537Y0089342D02*
X0161900Y0089342D01*
X0161900Y0088344D02*
X0162537Y0088344D01*
X0162537Y0087345D02*
X0161900Y0087345D01*
X0161900Y0086347D02*
X0162537Y0086347D01*
X0162537Y0085348D02*
X0161900Y0085348D01*
X0161900Y0084350D02*
X0162537Y0084350D01*
X0162537Y0083351D02*
X0161900Y0083351D01*
X0161732Y0082353D02*
X0162705Y0082353D01*
X0163118Y0081354D02*
X0161319Y0081354D01*
X0160507Y0080356D02*
X0163930Y0080356D01*
X0165441Y0079357D02*
X0159400Y0079357D01*
X0159400Y0078359D02*
X0196854Y0078359D01*
X0196854Y0077360D02*
X0158476Y0077360D01*
X0157477Y0076362D02*
X0189663Y0076362D01*
X0188665Y0075363D02*
X0156479Y0075363D01*
X0154719Y0076688D02*
X0134719Y0076688D01*
X0132219Y0074188D01*
X0132219Y0064187D01*
X0129344Y0064379D02*
X0032549Y0064379D01*
X0033164Y0063381D02*
X0129441Y0063381D01*
X0129958Y0062382D02*
X0033868Y0062382D01*
X0033547Y0065378D02*
X0129600Y0065378D01*
X0130037Y0066376D02*
X0034027Y0066376D01*
X0034368Y0067375D02*
X0130037Y0067375D01*
X0130037Y0068373D02*
X0034368Y0068373D01*
X0034234Y0069372D02*
X0130037Y0069372D01*
X0130037Y0070371D02*
X0033821Y0070371D01*
X0033050Y0071369D02*
X0130037Y0071369D01*
X0130037Y0072368D02*
X0031625Y0072368D01*
X0031434Y0073826D02*
X0030765Y0073609D01*
X0030203Y0073520D01*
X0030203Y0077483D01*
X0034166Y0077483D01*
X0034077Y0076921D01*
X0033860Y0076252D01*
X0033540Y0075625D01*
X0033127Y0075056D01*
X0032630Y0074559D01*
X0032061Y0074145D01*
X0031434Y0073826D01*
X0032362Y0074365D02*
X0130037Y0074365D01*
X0130037Y0073366D02*
X0028313Y0073366D01*
X0029234Y0074365D02*
X0030203Y0074365D01*
X0030203Y0075363D02*
X0029234Y0075363D01*
X0029234Y0076362D02*
X0030203Y0076362D01*
X0030203Y0077360D02*
X0029234Y0077360D01*
X0030203Y0078359D02*
X0133305Y0078359D01*
X0132307Y0077360D02*
X0034147Y0077360D01*
X0033895Y0076362D02*
X0131308Y0076362D01*
X0130310Y0075363D02*
X0033350Y0075363D01*
X0033965Y0079357D02*
X0145984Y0079357D01*
X0146719Y0079357D02*
X0147718Y0079357D01*
X0148453Y0079357D02*
X0154304Y0079357D01*
X0153930Y0080356D02*
X0150251Y0080356D01*
X0151080Y0081354D02*
X0153118Y0081354D01*
X0152705Y0082353D02*
X0151516Y0082353D01*
X0151718Y0083351D02*
X0152537Y0083351D01*
X0152537Y0084350D02*
X0151718Y0084350D01*
X0151718Y0085348D02*
X0152537Y0085348D01*
X0157219Y0086687D02*
X0157219Y0079188D01*
X0154719Y0076688D01*
X0147718Y0080356D02*
X0146719Y0080356D01*
X0146719Y0081354D02*
X0147718Y0081354D01*
X0147718Y0082353D02*
X0146719Y0082353D01*
X0146719Y0083351D02*
X0147718Y0083351D01*
X0147718Y0084350D02*
X0146719Y0084350D01*
X0146719Y0085348D02*
X0147718Y0085348D01*
X0142719Y0085348D02*
X0029056Y0085348D01*
X0028738Y0084350D02*
X0142719Y0084350D01*
X0142719Y0083351D02*
X0028260Y0083351D01*
X0028844Y0082353D02*
X0027587Y0082353D01*
X0026786Y0081354D02*
X0026660Y0081354D01*
X0025931Y0080356D02*
X0025224Y0080356D01*
X0025472Y0079357D02*
X0024621Y0079357D01*
X0029234Y0079357D02*
X0030203Y0079357D01*
X0030203Y0080356D02*
X0029234Y0080356D01*
X0029234Y0081354D02*
X0030203Y0081354D01*
X0030203Y0082353D02*
X0029234Y0082353D01*
X0030593Y0082353D02*
X0142921Y0082353D01*
X0143357Y0081354D02*
X0032651Y0081354D01*
X0033506Y0080356D02*
X0144186Y0080356D01*
X0135480Y0074365D02*
X0187666Y0074365D01*
X0186668Y0073366D02*
X0134482Y0073366D01*
X0134400Y0072368D02*
X0186100Y0072368D01*
X0192189Y0067938D02*
X0192189Y0055437D01*
X0149719Y0054187D02*
X0147219Y0051687D01*
X0102219Y0051687D01*
X0103196Y0054394D02*
X0146841Y0054394D01*
X0147106Y0055393D02*
X0028313Y0055393D01*
X0013667Y0086347D02*
X0007968Y0086347D01*
D16*
X0188508Y0048075D03*
X0199335Y0082524D03*
D17*
X0199335Y0075634D01*
X0198350Y0074650D01*
X0191461Y0074650D01*
X0188508Y0071697D01*
X0188508Y0048075D01*
M02*
