G75*
%MOIN*%
%OFA0B0*%
%FSLAX25Y25*%
%IPPOS*%
%LPD*%
%AMOC8*
5,1,8,0,0,1.08239X$1,22.5*
%
%ADD10R,0.05906X0.05118*%
%ADD11R,0.06299X0.07087*%
%ADD12R,0.05118X0.05906*%
%ADD13R,0.05906X0.01575*%
%ADD14C,0.06000*%
%ADD15R,0.07874X0.06693*%
%ADD16R,0.06299X0.05906*%
%ADD17R,0.03543X0.02559*%
%ADD18C,0.05937*%
%ADD19C,0.12661*%
%ADD20C,0.00553*%
%ADD21R,0.10236X0.10236*%
%ADD22R,0.02362X0.02362*%
%ADD23R,0.02362X0.01575*%
%ADD24R,0.04724X0.01575*%
%ADD25R,0.01575X0.04724*%
%ADD26R,0.16500X0.07000*%
%ADD27R,0.16500X0.10500*%
%ADD28C,0.02387*%
%ADD29C,0.01000*%
%ADD30C,0.01600*%
%ADD31C,0.02781*%
D10*
X0188439Y0040447D03*
X0188439Y0047928D03*
X0222189Y0052947D03*
X0230939Y0052947D03*
X0239689Y0055428D03*
X0248439Y0051678D03*
X0239689Y0047947D03*
X0248439Y0044197D03*
X0277189Y0046678D03*
X0277189Y0039197D03*
X0277189Y0055447D03*
X0285939Y0055447D03*
X0265939Y0057947D03*
X0277189Y0062928D03*
X0285939Y0062928D03*
X0265939Y0065428D03*
X0257189Y0069197D03*
X0248439Y0069197D03*
X0239689Y0069197D03*
X0230939Y0069197D03*
X0222189Y0069197D03*
X0222189Y0076678D03*
X0230939Y0076678D03*
X0239689Y0076678D03*
X0248439Y0076678D03*
X0257189Y0076678D03*
X0208439Y0079197D03*
X0208439Y0086678D03*
X0127219Y0070428D03*
X0114719Y0070428D03*
X0114719Y0062947D03*
X0127219Y0062947D03*
X0222189Y0060428D03*
X0230939Y0060428D03*
D11*
X0198951Y0082938D03*
X0187927Y0082938D03*
X0132730Y0079188D03*
X0121707Y0079188D03*
X0065230Y0039188D03*
X0054207Y0039188D03*
D12*
X0043459Y0039188D03*
X0035978Y0039188D03*
X0058478Y0089187D03*
X0065959Y0089187D03*
X0085978Y0089187D03*
X0093459Y0089187D03*
X0223449Y0044187D03*
X0230929Y0044187D03*
X0258449Y0049187D03*
X0265929Y0049187D03*
X0255929Y0060437D03*
X0248449Y0060437D03*
X0277199Y0071688D03*
X0284679Y0071688D03*
D13*
X0093990Y0070585D03*
X0093990Y0073144D03*
X0093990Y0075703D03*
X0093990Y0078262D03*
X0093990Y0080821D03*
X0065447Y0080821D03*
X0065447Y0078262D03*
X0065447Y0075703D03*
X0065447Y0073144D03*
X0065447Y0070585D03*
X0065447Y0068026D03*
X0065447Y0065467D03*
X0065447Y0062908D03*
X0065447Y0060349D03*
X0065447Y0057790D03*
X0065447Y0055231D03*
X0065447Y0052672D03*
X0065447Y0050113D03*
X0065447Y0047554D03*
X0093990Y0047554D03*
X0093990Y0050113D03*
X0093990Y0052672D03*
X0093990Y0055231D03*
X0093990Y0057790D03*
X0093990Y0060349D03*
X0093990Y0062908D03*
X0093990Y0065467D03*
X0093990Y0068026D03*
D14*
X0147219Y0083688D02*
X0147219Y0089687D01*
X0157219Y0089687D02*
X0157219Y0083688D01*
X0167219Y0083688D02*
X0167219Y0089687D01*
X0177219Y0089687D02*
X0177219Y0083688D01*
D15*
X0055093Y0051687D03*
X0039344Y0051687D03*
D16*
X0109679Y0054168D03*
X0129758Y0054168D03*
X0129758Y0039207D03*
X0109679Y0039207D03*
D17*
X0195555Y0043439D03*
X0203823Y0043439D03*
X0203823Y0049936D03*
X0195555Y0049936D03*
D18*
X0029719Y0050408D03*
X0029719Y0060250D03*
X0029719Y0068125D03*
X0029719Y0077967D03*
D19*
X0021451Y0087219D03*
X0021451Y0041156D03*
D20*
X0199698Y0058764D02*
X0199698Y0059236D01*
X0199698Y0058764D02*
X0196944Y0058764D01*
X0196944Y0059236D01*
X0199698Y0059236D01*
X0199698Y0060733D02*
X0199698Y0061205D01*
X0199698Y0060733D02*
X0196944Y0060733D01*
X0196944Y0061205D01*
X0199698Y0061205D01*
X0199698Y0062701D02*
X0199698Y0063173D01*
X0199698Y0062701D02*
X0196944Y0062701D01*
X0196944Y0063173D01*
X0199698Y0063173D01*
X0199698Y0064670D02*
X0199698Y0065142D01*
X0199698Y0064670D02*
X0196944Y0064670D01*
X0196944Y0065142D01*
X0199698Y0065142D01*
X0199698Y0066639D02*
X0199698Y0067111D01*
X0199698Y0066639D02*
X0196944Y0066639D01*
X0196944Y0067111D01*
X0199698Y0067111D01*
X0201766Y0069179D02*
X0202238Y0069179D01*
X0201766Y0069179D02*
X0201766Y0071933D01*
X0202238Y0071933D01*
X0202238Y0069179D01*
X0202238Y0069731D02*
X0201766Y0069731D01*
X0201766Y0070283D02*
X0202238Y0070283D01*
X0202238Y0070835D02*
X0201766Y0070835D01*
X0201766Y0071387D02*
X0202238Y0071387D01*
X0203734Y0069179D02*
X0204206Y0069179D01*
X0203734Y0069179D02*
X0203734Y0071933D01*
X0204206Y0071933D01*
X0204206Y0069179D01*
X0204206Y0069731D02*
X0203734Y0069731D01*
X0203734Y0070283D02*
X0204206Y0070283D01*
X0204206Y0070835D02*
X0203734Y0070835D01*
X0203734Y0071387D02*
X0204206Y0071387D01*
X0205703Y0069179D02*
X0206175Y0069179D01*
X0205703Y0069179D02*
X0205703Y0071933D01*
X0206175Y0071933D01*
X0206175Y0069179D01*
X0206175Y0069731D02*
X0205703Y0069731D01*
X0205703Y0070283D02*
X0206175Y0070283D01*
X0206175Y0070835D02*
X0205703Y0070835D01*
X0205703Y0071387D02*
X0206175Y0071387D01*
X0207671Y0069179D02*
X0208143Y0069179D01*
X0207671Y0069179D02*
X0207671Y0071933D01*
X0208143Y0071933D01*
X0208143Y0069179D01*
X0208143Y0069731D02*
X0207671Y0069731D01*
X0207671Y0070283D02*
X0208143Y0070283D01*
X0208143Y0070835D02*
X0207671Y0070835D01*
X0207671Y0071387D02*
X0208143Y0071387D01*
X0209640Y0069179D02*
X0210112Y0069179D01*
X0209640Y0069179D02*
X0209640Y0071933D01*
X0210112Y0071933D01*
X0210112Y0069179D01*
X0210112Y0069731D02*
X0209640Y0069731D01*
X0209640Y0070283D02*
X0210112Y0070283D01*
X0210112Y0070835D02*
X0209640Y0070835D01*
X0209640Y0071387D02*
X0210112Y0071387D01*
X0212180Y0067111D02*
X0212180Y0066639D01*
X0212180Y0067111D02*
X0214934Y0067111D01*
X0214934Y0066639D01*
X0212180Y0066639D01*
X0212180Y0065142D02*
X0212180Y0064670D01*
X0212180Y0065142D02*
X0214934Y0065142D01*
X0214934Y0064670D01*
X0212180Y0064670D01*
X0212180Y0063173D02*
X0212180Y0062701D01*
X0212180Y0063173D02*
X0214934Y0063173D01*
X0214934Y0062701D01*
X0212180Y0062701D01*
X0212180Y0061205D02*
X0212180Y0060733D01*
X0212180Y0061205D02*
X0214934Y0061205D01*
X0214934Y0060733D01*
X0212180Y0060733D01*
X0212180Y0059236D02*
X0212180Y0058764D01*
X0212180Y0059236D02*
X0214934Y0059236D01*
X0214934Y0058764D01*
X0212180Y0058764D01*
X0210112Y0056696D02*
X0209640Y0056696D01*
X0210112Y0056696D02*
X0210112Y0053942D01*
X0209640Y0053942D01*
X0209640Y0056696D01*
X0209640Y0054494D02*
X0210112Y0054494D01*
X0210112Y0055046D02*
X0209640Y0055046D01*
X0209640Y0055598D02*
X0210112Y0055598D01*
X0210112Y0056150D02*
X0209640Y0056150D01*
X0208143Y0056696D02*
X0207671Y0056696D01*
X0208143Y0056696D02*
X0208143Y0053942D01*
X0207671Y0053942D01*
X0207671Y0056696D01*
X0207671Y0054494D02*
X0208143Y0054494D01*
X0208143Y0055046D02*
X0207671Y0055046D01*
X0207671Y0055598D02*
X0208143Y0055598D01*
X0208143Y0056150D02*
X0207671Y0056150D01*
X0206175Y0056696D02*
X0205703Y0056696D01*
X0206175Y0056696D02*
X0206175Y0053942D01*
X0205703Y0053942D01*
X0205703Y0056696D01*
X0205703Y0054494D02*
X0206175Y0054494D01*
X0206175Y0055046D02*
X0205703Y0055046D01*
X0205703Y0055598D02*
X0206175Y0055598D01*
X0206175Y0056150D02*
X0205703Y0056150D01*
X0204206Y0056696D02*
X0203734Y0056696D01*
X0204206Y0056696D02*
X0204206Y0053942D01*
X0203734Y0053942D01*
X0203734Y0056696D01*
X0203734Y0054494D02*
X0204206Y0054494D01*
X0204206Y0055046D02*
X0203734Y0055046D01*
X0203734Y0055598D02*
X0204206Y0055598D01*
X0204206Y0056150D02*
X0203734Y0056150D01*
X0202238Y0056696D02*
X0201766Y0056696D01*
X0202238Y0056696D02*
X0202238Y0053942D01*
X0201766Y0053942D01*
X0201766Y0056696D01*
X0201766Y0054494D02*
X0202238Y0054494D01*
X0202238Y0055046D02*
X0201766Y0055046D01*
X0201766Y0055598D02*
X0202238Y0055598D01*
X0202238Y0056150D02*
X0201766Y0056150D01*
D21*
X0205939Y0062937D03*
D22*
X0258646Y0042140D03*
X0265732Y0042140D03*
X0265732Y0036235D03*
X0258646Y0036235D03*
D23*
X0258646Y0039188D03*
X0265732Y0039188D03*
D24*
X0171648Y0048164D03*
X0171648Y0051313D03*
X0171648Y0054463D03*
X0171648Y0057613D03*
X0171648Y0060762D03*
X0171648Y0063912D03*
X0171648Y0067062D03*
X0171648Y0070211D03*
X0137789Y0070211D03*
X0137789Y0067062D03*
X0137789Y0063912D03*
X0137789Y0060762D03*
X0137789Y0057613D03*
X0137789Y0054463D03*
X0137789Y0051313D03*
X0137789Y0048164D03*
D25*
X0143695Y0042258D03*
X0146844Y0042258D03*
X0149994Y0042258D03*
X0153144Y0042258D03*
X0156293Y0042258D03*
X0159443Y0042258D03*
X0162593Y0042258D03*
X0165742Y0042258D03*
X0165742Y0076117D03*
X0162593Y0076117D03*
X0159443Y0076117D03*
X0156293Y0076117D03*
X0153144Y0076117D03*
X0149994Y0076117D03*
X0146844Y0076117D03*
X0143695Y0076117D03*
D26*
X0298290Y0062839D03*
D27*
X0298290Y0049081D03*
X0298290Y0076597D03*
D28*
X0287179Y0077249D03*
X0287179Y0080201D03*
X0277337Y0077249D03*
X0271431Y0077249D03*
X0263557Y0081186D03*
X0257652Y0083154D03*
X0248793Y0083154D03*
X0239935Y0083154D03*
X0231077Y0083154D03*
X0222219Y0083154D03*
X0215329Y0083154D03*
X0215329Y0091028D03*
X0208439Y0092997D03*
X0201549Y0091028D03*
X0181864Y0079217D03*
X0186785Y0076264D03*
X0181864Y0072327D03*
X0183813Y0067938D03*
X0192189Y0067938D03*
X0197612Y0070359D03*
X0203439Y0065437D03*
X0208439Y0065437D03*
X0214344Y0070359D03*
X0214344Y0073312D03*
X0238941Y0063794D03*
X0242878Y0061825D03*
X0254689Y0054936D03*
X0259610Y0054936D03*
X0271431Y0053626D03*
X0283242Y0049689D03*
X0287179Y0049689D03*
X0287179Y0046737D03*
X0287179Y0043784D03*
X0283242Y0042800D03*
X0289148Y0040831D03*
X0292100Y0040831D03*
X0295053Y0040831D03*
X0298006Y0040831D03*
X0300959Y0040831D03*
X0283242Y0034926D03*
X0277337Y0032957D03*
X0269689Y0035438D03*
X0254689Y0039188D03*
X0248793Y0038863D03*
X0241904Y0041815D03*
X0236982Y0039847D03*
X0227140Y0037878D03*
X0218281Y0037878D03*
X0213439Y0039188D03*
X0203518Y0038863D03*
X0195644Y0038863D03*
X0209423Y0042800D03*
X0217297Y0044768D03*
X0209423Y0049689D03*
X0197612Y0054611D03*
X0192189Y0055437D03*
X0178547Y0059187D03*
X0183547Y0064187D03*
X0166116Y0064453D03*
X0163469Y0067938D03*
X0157258Y0064453D03*
X0154719Y0059187D03*
X0161195Y0058548D03*
X0149719Y0054187D03*
X0154305Y0052642D03*
X0166116Y0052642D03*
X0138557Y0043784D03*
X0129699Y0044768D03*
X0119856Y0046737D03*
X0102219Y0051687D03*
X0119856Y0055595D03*
X0099719Y0059187D03*
X0103124Y0064453D03*
X0109030Y0070359D03*
X0109030Y0075280D03*
X0103124Y0075280D03*
X0114935Y0076264D03*
X0115919Y0079217D03*
X0115919Y0084138D03*
X0121825Y0085123D03*
X0141510Y0087091D03*
X0141510Y0081186D03*
X0152337Y0081186D03*
X0152337Y0093981D03*
X0141510Y0093981D03*
X0099187Y0089060D03*
X0078518Y0082170D03*
X0051943Y0085123D03*
X0051943Y0089060D03*
X0051943Y0092997D03*
X0030289Y0088075D03*
X0030289Y0083154D03*
X0043085Y0081186D03*
X0035211Y0078233D03*
X0034226Y0073312D03*
X0035211Y0064453D03*
X0039148Y0064453D03*
X0048006Y0060516D03*
X0059817Y0061500D03*
X0059817Y0058548D03*
X0072612Y0061500D03*
X0059817Y0064453D03*
X0058833Y0072327D03*
X0085407Y0065437D03*
X0132219Y0064187D03*
X0078518Y0047721D03*
X0071628Y0041815D03*
X0071628Y0036894D03*
X0064738Y0032957D03*
X0092297Y0034926D03*
X0119856Y0037878D03*
X0123793Y0038863D03*
X0135604Y0038863D03*
X0149384Y0034926D03*
X0157219Y0031687D03*
X0159719Y0034188D03*
X0163469Y0036688D03*
X0170053Y0042800D03*
X0181864Y0042800D03*
X0229689Y0052937D03*
X0232189Y0052937D03*
X0208439Y0060437D03*
X0203439Y0060437D03*
X0263557Y0073312D03*
X0271431Y0071343D03*
X0271431Y0065437D03*
X0271431Y0059532D03*
X0292100Y0056579D03*
X0295053Y0056579D03*
X0298006Y0056579D03*
X0300959Y0056579D03*
X0271431Y0047721D03*
X0269689Y0042938D03*
X0299974Y0032957D03*
X0298006Y0069375D03*
X0298006Y0084138D03*
X0300959Y0084138D03*
X0295053Y0084138D03*
X0292100Y0084138D03*
X0289148Y0084138D03*
X0299974Y0092997D03*
X0273400Y0092997D03*
X0248793Y0092997D03*
X0076549Y0093981D03*
X0028321Y0093981D03*
X0014541Y0093981D03*
X0012573Y0088075D03*
X0014541Y0081186D03*
X0014541Y0047721D03*
X0012573Y0041815D03*
X0030289Y0041815D03*
X0036195Y0045752D03*
X0048006Y0047721D03*
X0028321Y0034926D03*
X0036195Y0032957D03*
X0021431Y0031973D03*
X0014541Y0034926D03*
X0129699Y0033941D03*
D29*
X0154903Y0029937D02*
X0007968Y0029937D01*
X0007968Y0095741D01*
X0302118Y0095741D01*
X0302118Y0083347D01*
X0298790Y0083347D01*
X0298790Y0077097D01*
X0297790Y0077097D01*
X0297790Y0076097D01*
X0298790Y0076097D01*
X0298790Y0069847D01*
X0302118Y0069847D01*
X0302118Y0068020D01*
X0289343Y0068020D01*
X0288491Y0067168D01*
X0288420Y0067168D01*
X0288420Y0067539D01*
X0288919Y0068038D01*
X0288919Y0070347D01*
X0289119Y0070147D01*
X0289461Y0069950D01*
X0289842Y0069847D01*
X0297790Y0069847D01*
X0297790Y0076097D01*
X0288540Y0076097D01*
X0288540Y0075716D01*
X0287935Y0076321D01*
X0281424Y0076321D01*
X0280811Y0075709D01*
X0280679Y0075841D01*
X0280337Y0076038D01*
X0279955Y0076140D01*
X0277699Y0076140D01*
X0277699Y0072188D01*
X0276699Y0072188D01*
X0276699Y0076140D01*
X0274442Y0076140D01*
X0274061Y0076038D01*
X0273719Y0075841D01*
X0273439Y0075561D01*
X0273242Y0075219D01*
X0273140Y0074838D01*
X0273140Y0072187D01*
X0276699Y0072187D01*
X0276699Y0071188D01*
X0273140Y0071188D01*
X0273140Y0068537D01*
X0273242Y0068156D01*
X0273439Y0067814D01*
X0273719Y0067534D01*
X0274061Y0067337D01*
X0274442Y0067235D01*
X0276699Y0067235D01*
X0276699Y0071187D01*
X0277699Y0071187D01*
X0277699Y0067235D01*
X0279955Y0067235D01*
X0280337Y0067337D01*
X0280679Y0067534D01*
X0280811Y0067666D01*
X0281424Y0067054D01*
X0282176Y0067054D01*
X0281411Y0066289D01*
X0281342Y0066408D01*
X0281063Y0066687D01*
X0280721Y0066884D01*
X0280339Y0066987D01*
X0277689Y0066987D01*
X0277689Y0063428D01*
X0276689Y0063428D01*
X0276689Y0066987D01*
X0274039Y0066987D01*
X0273657Y0066884D01*
X0273315Y0066687D01*
X0273036Y0066408D01*
X0272838Y0066066D01*
X0272736Y0065684D01*
X0272736Y0063428D01*
X0276689Y0063428D01*
X0276689Y0062428D01*
X0272736Y0062428D01*
X0272736Y0060171D01*
X0272838Y0059790D01*
X0273036Y0059448D01*
X0273168Y0059316D01*
X0272555Y0058703D01*
X0272555Y0052192D01*
X0273540Y0051207D01*
X0274708Y0051207D01*
X0274708Y0050918D01*
X0273540Y0050918D01*
X0272555Y0049933D01*
X0272555Y0043530D01*
X0272126Y0044566D01*
X0271317Y0045375D01*
X0270261Y0045812D01*
X0270169Y0045812D01*
X0270169Y0052837D01*
X0269299Y0053707D01*
X0269588Y0053707D01*
X0270573Y0054692D01*
X0270573Y0061203D01*
X0270088Y0061687D01*
X0270573Y0062172D01*
X0270573Y0068683D01*
X0269588Y0069668D01*
X0267293Y0069668D01*
X0266842Y0070119D01*
X0265583Y0071378D01*
X0261823Y0071378D01*
X0261823Y0072453D01*
X0261210Y0073066D01*
X0261342Y0073198D01*
X0261539Y0073540D01*
X0261642Y0073921D01*
X0261642Y0076178D01*
X0257689Y0076178D01*
X0257689Y0077178D01*
X0256689Y0077178D01*
X0256689Y0080737D01*
X0254039Y0080737D01*
X0253657Y0080634D01*
X0253315Y0080437D01*
X0253036Y0080158D01*
X0252838Y0079816D01*
X0252814Y0079724D01*
X0252789Y0079816D01*
X0252592Y0080158D01*
X0252313Y0080437D01*
X0251971Y0080634D01*
X0251589Y0080737D01*
X0248939Y0080737D01*
X0248939Y0077178D01*
X0247939Y0077178D01*
X0247939Y0080737D01*
X0245289Y0080737D01*
X0244907Y0080634D01*
X0244565Y0080437D01*
X0244286Y0080158D01*
X0244217Y0080039D01*
X0243338Y0080918D01*
X0236040Y0080918D01*
X0235314Y0080192D01*
X0234588Y0080918D01*
X0227290Y0080918D01*
X0226564Y0080192D01*
X0225838Y0080918D01*
X0218540Y0080918D01*
X0217555Y0079933D01*
X0217555Y0078859D01*
X0216852Y0078859D01*
X0215620Y0080091D01*
X0214342Y0081369D01*
X0213073Y0081369D01*
X0213073Y0082453D01*
X0212460Y0083066D01*
X0212592Y0083198D01*
X0212789Y0083540D01*
X0212892Y0083921D01*
X0212892Y0086178D01*
X0208939Y0086178D01*
X0208939Y0087178D01*
X0207939Y0087178D01*
X0207939Y0090737D01*
X0205289Y0090737D01*
X0204907Y0090634D01*
X0204565Y0090437D01*
X0204286Y0090158D01*
X0204088Y0089816D01*
X0203986Y0089434D01*
X0203986Y0087178D01*
X0207939Y0087178D01*
X0207939Y0086178D01*
X0203986Y0086178D01*
X0203986Y0083921D01*
X0204088Y0083540D01*
X0204286Y0083198D01*
X0204418Y0083066D01*
X0203805Y0082453D01*
X0203805Y0080119D01*
X0203781Y0080119D01*
X0203781Y0087177D01*
X0202797Y0088162D01*
X0195105Y0088162D01*
X0194120Y0087177D01*
X0194120Y0078698D01*
X0195105Y0077713D01*
X0196829Y0077713D01*
X0197508Y0077034D01*
X0198786Y0075756D01*
X0203991Y0075756D01*
X0204790Y0074957D01*
X0204874Y0074957D01*
X0203807Y0073890D01*
X0200956Y0073890D01*
X0199809Y0072744D01*
X0199809Y0069165D01*
X0199711Y0069067D01*
X0196133Y0069067D01*
X0196121Y0069056D01*
X0194837Y0069056D01*
X0194626Y0069566D01*
X0193817Y0070375D01*
X0192761Y0070812D01*
X0191617Y0070812D01*
X0190561Y0070375D01*
X0189752Y0069566D01*
X0189314Y0068509D01*
X0189314Y0067366D01*
X0189430Y0067087D01*
X0187748Y0067087D01*
X0186688Y0068147D01*
X0186688Y0068509D01*
X0186250Y0069566D01*
X0185441Y0070375D01*
X0184385Y0070812D01*
X0183241Y0070812D01*
X0182185Y0070375D01*
X0181376Y0069566D01*
X0180938Y0068509D01*
X0180938Y0067366D01*
X0181376Y0066309D01*
X0181490Y0066195D01*
X0181110Y0065816D01*
X0180672Y0064759D01*
X0180672Y0064163D01*
X0180020Y0064815D01*
X0178742Y0066093D01*
X0177209Y0066093D01*
X0178122Y0067006D01*
X0179400Y0068284D01*
X0179400Y0079524D01*
X0179870Y0079719D01*
X0181187Y0081036D01*
X0181900Y0082756D01*
X0181900Y0090619D01*
X0181187Y0092339D01*
X0179870Y0093656D01*
X0178150Y0094369D01*
X0176287Y0094369D01*
X0174567Y0093656D01*
X0173250Y0092339D01*
X0172537Y0090619D01*
X0172537Y0082756D01*
X0173105Y0081385D01*
X0171851Y0082639D01*
X0171900Y0082756D01*
X0171900Y0090619D01*
X0171187Y0092339D01*
X0169870Y0093656D01*
X0168150Y0094369D01*
X0166287Y0094369D01*
X0164567Y0093656D01*
X0163250Y0092339D01*
X0162537Y0090619D01*
X0162537Y0082756D01*
X0163250Y0081036D01*
X0164192Y0080094D01*
X0164167Y0080069D01*
X0164076Y0080160D01*
X0161109Y0080160D01*
X0161018Y0080069D01*
X0160927Y0080160D01*
X0160311Y0080160D01*
X0161187Y0081036D01*
X0161900Y0082756D01*
X0161900Y0090619D01*
X0161187Y0092339D01*
X0159870Y0093656D01*
X0158150Y0094369D01*
X0156287Y0094369D01*
X0154567Y0093656D01*
X0153250Y0092339D01*
X0152537Y0090619D01*
X0152537Y0082756D01*
X0153250Y0081036D01*
X0154126Y0080160D01*
X0151660Y0080160D01*
X0151569Y0080069D01*
X0151478Y0080160D01*
X0150019Y0080160D01*
X0150150Y0080255D01*
X0150651Y0080756D01*
X0151067Y0081329D01*
X0151389Y0081960D01*
X0151608Y0082634D01*
X0151718Y0083333D01*
X0151718Y0086188D01*
X0147719Y0086188D01*
X0147719Y0087187D01*
X0151718Y0087187D01*
X0151718Y0090042D01*
X0151608Y0090741D01*
X0151389Y0091415D01*
X0151067Y0092046D01*
X0150651Y0092619D01*
X0150150Y0093120D01*
X0149577Y0093536D01*
X0148946Y0093858D01*
X0148272Y0094077D01*
X0147718Y0094164D01*
X0147718Y0087188D01*
X0146719Y0087188D01*
X0146719Y0094164D01*
X0146165Y0094077D01*
X0145491Y0093858D01*
X0144860Y0093536D01*
X0144287Y0093120D01*
X0143786Y0092619D01*
X0143370Y0092046D01*
X0143048Y0091415D01*
X0142829Y0090741D01*
X0142719Y0090042D01*
X0142719Y0087187D01*
X0146718Y0087187D01*
X0146718Y0086188D01*
X0142719Y0086188D01*
X0142719Y0083333D01*
X0142829Y0082634D01*
X0143048Y0081960D01*
X0143370Y0081329D01*
X0143786Y0080756D01*
X0144287Y0080255D01*
X0144667Y0079979D01*
X0143695Y0079979D01*
X0143695Y0076117D01*
X0143695Y0076117D01*
X0143695Y0079979D01*
X0142710Y0079979D01*
X0142328Y0079877D01*
X0141986Y0079679D01*
X0141707Y0079400D01*
X0141510Y0079058D01*
X0141407Y0078676D01*
X0141407Y0076117D01*
X0143695Y0076117D01*
X0145982Y0076117D01*
X0146844Y0076117D01*
X0146844Y0076117D01*
X0146844Y0079979D01*
X0146719Y0079979D01*
X0146719Y0086187D01*
X0147718Y0086187D01*
X0147718Y0079979D01*
X0146845Y0079979D01*
X0146845Y0076117D01*
X0146844Y0076117D01*
X0143695Y0076117D01*
X0143695Y0076117D01*
X0143695Y0076117D01*
X0141407Y0076117D01*
X0141407Y0073557D01*
X0141510Y0073175D01*
X0141707Y0072833D01*
X0141848Y0072692D01*
X0134723Y0072692D01*
X0134700Y0072715D01*
X0134700Y0073963D01*
X0136576Y0073963D01*
X0137561Y0074948D01*
X0137561Y0083427D01*
X0136576Y0084412D01*
X0128884Y0084412D01*
X0127900Y0083427D01*
X0127900Y0074948D01*
X0128180Y0074668D01*
X0126001Y0074668D01*
X0126057Y0074723D01*
X0126254Y0075065D01*
X0126356Y0075447D01*
X0126356Y0078688D01*
X0122207Y0078688D01*
X0122207Y0079687D01*
X0126356Y0079687D01*
X0126356Y0082928D01*
X0126254Y0083310D01*
X0126057Y0083652D01*
X0125777Y0083931D01*
X0125435Y0084129D01*
X0125054Y0084231D01*
X0122207Y0084231D01*
X0122207Y0079688D01*
X0121207Y0079688D01*
X0121207Y0084231D01*
X0118360Y0084231D01*
X0117978Y0084129D01*
X0117636Y0083931D01*
X0117357Y0083652D01*
X0117159Y0083310D01*
X0117057Y0082928D01*
X0117057Y0079687D01*
X0121207Y0079687D01*
X0121207Y0078688D01*
X0117057Y0078688D01*
X0117057Y0075447D01*
X0117159Y0075065D01*
X0117357Y0074723D01*
X0117593Y0074487D01*
X0115218Y0074487D01*
X0115218Y0070928D01*
X0114219Y0070928D01*
X0114219Y0074487D01*
X0111568Y0074487D01*
X0111187Y0074384D01*
X0110845Y0074187D01*
X0110565Y0073908D01*
X0110368Y0073566D01*
X0110266Y0073184D01*
X0110266Y0070928D01*
X0114218Y0070928D01*
X0114218Y0069928D01*
X0110266Y0069928D01*
X0110266Y0067671D01*
X0110368Y0067290D01*
X0110565Y0066948D01*
X0110697Y0066816D01*
X0110085Y0066203D01*
X0110085Y0065128D01*
X0110075Y0065128D01*
X0108815Y0063869D01*
X0107537Y0062591D01*
X0107537Y0058802D01*
X0105833Y0058802D01*
X0104848Y0057817D01*
X0104848Y0057712D01*
X0102219Y0057712D01*
X0102593Y0058616D01*
X0102593Y0059759D01*
X0102156Y0060816D01*
X0101347Y0061625D01*
X0100290Y0062062D01*
X0099147Y0062062D01*
X0098615Y0061842D01*
X0098443Y0062014D01*
X0098443Y0062908D01*
X0098443Y0063802D01*
X0098624Y0063983D01*
X0098624Y0082305D01*
X0097639Y0083290D01*
X0096471Y0083290D01*
X0096471Y0084554D01*
X0096714Y0084554D01*
X0097699Y0085538D01*
X0097699Y0092837D01*
X0096714Y0093821D01*
X0090203Y0093821D01*
X0089719Y0093337D01*
X0089234Y0093821D01*
X0082723Y0093821D01*
X0081738Y0092837D01*
X0081738Y0091669D01*
X0070199Y0091669D01*
X0070199Y0092837D01*
X0069214Y0093821D01*
X0062703Y0093821D01*
X0062090Y0093209D01*
X0061958Y0093341D01*
X0061616Y0093538D01*
X0061235Y0093640D01*
X0058978Y0093640D01*
X0058978Y0089688D01*
X0057978Y0089688D01*
X0057978Y0093640D01*
X0055722Y0093640D01*
X0055340Y0093538D01*
X0054998Y0093341D01*
X0054719Y0093061D01*
X0054522Y0092719D01*
X0054419Y0092338D01*
X0027393Y0092338D01*
X0027351Y0092393D02*
X0026625Y0093119D01*
X0025811Y0093744D01*
X0024922Y0094257D01*
X0023973Y0094650D01*
X0022982Y0094916D01*
X0021964Y0095050D01*
X0021951Y0095050D01*
X0021951Y0087719D01*
X0029281Y0087719D01*
X0029281Y0087732D01*
X0029148Y0088750D01*
X0028882Y0089741D01*
X0028489Y0090690D01*
X0027976Y0091579D01*
X0027351Y0092393D01*
X0028114Y0091339D02*
X0054419Y0091339D01*
X0054419Y0090341D02*
X0028634Y0090341D01*
X0028989Y0089342D02*
X0057978Y0089342D01*
X0057978Y0089687D02*
X0057978Y0088688D01*
X0054419Y0088688D01*
X0054419Y0086037D01*
X0054522Y0085656D01*
X0054719Y0085314D01*
X0054998Y0085034D01*
X0055340Y0084837D01*
X0055722Y0084735D01*
X0057978Y0084735D01*
X0057978Y0088687D01*
X0058978Y0088687D01*
X0058978Y0084735D01*
X0061235Y0084735D01*
X0061616Y0084837D01*
X0061958Y0085034D01*
X0062090Y0085166D01*
X0062703Y0084554D01*
X0069214Y0084554D01*
X0069737Y0085077D01*
X0069737Y0082648D01*
X0069096Y0083290D01*
X0061798Y0083290D01*
X0061510Y0083002D01*
X0055449Y0083002D01*
X0054171Y0081725D01*
X0042752Y0070306D01*
X0033848Y0070306D01*
X0033660Y0070758D01*
X0032352Y0072066D01*
X0030643Y0072774D01*
X0028794Y0072774D01*
X0028313Y0072575D01*
X0028313Y0073725D01*
X0028672Y0073609D01*
X0029234Y0073520D01*
X0029234Y0077483D01*
X0030203Y0077483D01*
X0030203Y0078451D01*
X0034166Y0078451D01*
X0034077Y0079013D01*
X0033860Y0079682D01*
X0033540Y0080309D01*
X0033127Y0080878D01*
X0032630Y0081375D01*
X0032061Y0081789D01*
X0031434Y0082108D01*
X0030765Y0082325D01*
X0030203Y0082415D01*
X0030203Y0078451D01*
X0029234Y0078451D01*
X0029234Y0082415D01*
X0028672Y0082325D01*
X0028003Y0082108D01*
X0027376Y0081789D01*
X0026807Y0081375D01*
X0026310Y0080878D01*
X0025897Y0080309D01*
X0025577Y0079682D01*
X0025366Y0079032D01*
X0025338Y0079060D01*
X0023735Y0079724D01*
X0023973Y0079788D01*
X0024922Y0080181D01*
X0025811Y0080694D01*
X0026625Y0081319D01*
X0027351Y0082045D01*
X0027976Y0082859D01*
X0028489Y0083748D01*
X0028882Y0084696D01*
X0029148Y0085688D01*
X0029281Y0086706D01*
X0029281Y0086719D01*
X0021951Y0086719D01*
X0021951Y0087719D01*
X0020951Y0087719D01*
X0020951Y0095050D01*
X0020938Y0095050D01*
X0019920Y0094916D01*
X0018928Y0094650D01*
X0017980Y0094257D01*
X0017091Y0093744D01*
X0016277Y0093119D01*
X0015551Y0092393D01*
X0014926Y0091579D01*
X0014413Y0090690D01*
X0014020Y0089741D01*
X0013754Y0088750D01*
X0013620Y0087732D01*
X0013620Y0087719D01*
X0020951Y0087719D01*
X0020951Y0086719D01*
X0013620Y0086719D01*
X0013620Y0086706D01*
X0013754Y0085688D01*
X0014020Y0084696D01*
X0014413Y0083748D01*
X0014926Y0082859D01*
X0015551Y0082045D01*
X0016277Y0081319D01*
X0017091Y0080694D01*
X0017980Y0080181D01*
X0018928Y0079788D01*
X0019167Y0079724D01*
X0017564Y0079060D01*
X0015633Y0077130D01*
X0014589Y0074608D01*
X0014589Y0071878D01*
X0015633Y0069355D01*
X0017564Y0067425D01*
X0020086Y0066380D01*
X0022816Y0066380D01*
X0025069Y0067314D01*
X0025069Y0067200D01*
X0025777Y0065491D01*
X0027080Y0064187D01*
X0025777Y0062884D01*
X0025069Y0061175D01*
X0025069Y0061061D01*
X0022816Y0061995D01*
X0020086Y0061995D01*
X0017564Y0060950D01*
X0015633Y0059020D01*
X0014589Y0056497D01*
X0014589Y0053767D01*
X0015633Y0051245D01*
X0017564Y0049315D01*
X0019167Y0048651D01*
X0018928Y0048587D01*
X0017980Y0048194D01*
X0017091Y0047681D01*
X0016277Y0047056D01*
X0015551Y0046330D01*
X0014926Y0045516D01*
X0014413Y0044627D01*
X0014020Y0043678D01*
X0013754Y0042687D01*
X0013620Y0041669D01*
X0013620Y0041656D01*
X0020951Y0041656D01*
X0020951Y0040656D01*
X0021951Y0040656D01*
X0021951Y0041656D01*
X0029281Y0041656D01*
X0029281Y0041669D01*
X0029148Y0042687D01*
X0028882Y0043678D01*
X0028489Y0044627D01*
X0027976Y0045516D01*
X0027351Y0046330D01*
X0027307Y0046374D01*
X0028794Y0045758D01*
X0030643Y0045758D01*
X0032352Y0046466D01*
X0033660Y0047774D01*
X0033723Y0047927D01*
X0033726Y0047927D01*
X0033726Y0047645D01*
X0034711Y0046660D01*
X0037237Y0046660D01*
X0037237Y0046194D01*
X0037615Y0045282D01*
X0038313Y0044584D01*
X0039640Y0043258D01*
X0039590Y0043209D01*
X0039458Y0043341D01*
X0039116Y0043538D01*
X0038735Y0043640D01*
X0036478Y0043640D01*
X0036478Y0039688D01*
X0035478Y0039688D01*
X0035478Y0043640D01*
X0033222Y0043640D01*
X0032840Y0043538D01*
X0032498Y0043341D01*
X0032219Y0043061D01*
X0032022Y0042719D01*
X0031919Y0042338D01*
X0031919Y0039687D01*
X0035478Y0039687D01*
X0035478Y0038688D01*
X0031919Y0038688D01*
X0031919Y0036037D01*
X0032022Y0035656D01*
X0032219Y0035314D01*
X0032498Y0035034D01*
X0032840Y0034837D01*
X0033222Y0034735D01*
X0035478Y0034735D01*
X0035478Y0038687D01*
X0036478Y0038687D01*
X0036478Y0034735D01*
X0038735Y0034735D01*
X0039116Y0034837D01*
X0039458Y0035034D01*
X0039590Y0035166D01*
X0040203Y0034554D01*
X0046714Y0034554D01*
X0047699Y0035538D01*
X0047699Y0042837D01*
X0046714Y0043821D01*
X0045782Y0043821D01*
X0045562Y0044353D01*
X0043255Y0046660D01*
X0043978Y0046660D01*
X0044963Y0047645D01*
X0044963Y0055730D01*
X0043978Y0056715D01*
X0034711Y0056715D01*
X0033726Y0055730D01*
X0033726Y0052889D01*
X0033723Y0052889D01*
X0033660Y0053042D01*
X0032352Y0054350D01*
X0030643Y0055058D01*
X0028794Y0055058D01*
X0028313Y0054858D01*
X0028313Y0055800D01*
X0028794Y0055601D01*
X0030643Y0055601D01*
X0032352Y0056309D01*
X0033660Y0057617D01*
X0033848Y0058069D01*
X0041685Y0058069D01*
X0042963Y0059347D01*
X0059697Y0076081D01*
X0060813Y0076081D01*
X0060813Y0074220D01*
X0060994Y0074038D01*
X0060994Y0073144D01*
X0060994Y0072250D01*
X0060813Y0072069D01*
X0060813Y0070507D01*
X0058064Y0070507D01*
X0057152Y0070129D01*
X0056454Y0069432D01*
X0052989Y0065967D01*
X0052611Y0065055D01*
X0052611Y0056715D01*
X0050459Y0056715D01*
X0049474Y0055730D01*
X0049474Y0047645D01*
X0050459Y0046660D01*
X0052611Y0046660D01*
X0052611Y0044412D01*
X0050361Y0044412D01*
X0049376Y0043427D01*
X0049376Y0034948D01*
X0050361Y0033963D01*
X0058053Y0033963D01*
X0059037Y0034948D01*
X0059037Y0043427D01*
X0058053Y0044412D01*
X0057574Y0044412D01*
X0057574Y0046660D01*
X0059726Y0046660D01*
X0060711Y0047645D01*
X0060711Y0055730D01*
X0059726Y0056715D01*
X0057574Y0056715D01*
X0057574Y0063534D01*
X0059585Y0065545D01*
X0060994Y0065545D01*
X0060994Y0065467D01*
X0060994Y0064573D01*
X0060813Y0064392D01*
X0060813Y0056306D01*
X0060994Y0056125D01*
X0060994Y0055231D01*
X0065447Y0055231D01*
X0069900Y0055231D01*
X0069900Y0056125D01*
X0070081Y0056306D01*
X0070081Y0064392D01*
X0069900Y0064573D01*
X0069900Y0065467D01*
X0069900Y0066361D01*
X0070081Y0066542D01*
X0070081Y0067865D01*
X0070115Y0067782D01*
X0070813Y0067084D01*
X0084770Y0053127D01*
X0085682Y0052750D01*
X0089356Y0052750D01*
X0089356Y0046070D01*
X0090341Y0045085D01*
X0097639Y0045085D01*
X0097927Y0045373D01*
X0098988Y0045373D01*
X0102428Y0048813D01*
X0102790Y0048813D01*
X0103847Y0049250D01*
X0104656Y0050059D01*
X0104848Y0050525D01*
X0104848Y0050519D01*
X0105833Y0049534D01*
X0107237Y0049534D01*
X0107237Y0043841D01*
X0105833Y0043841D01*
X0104848Y0042856D01*
X0104848Y0035558D01*
X0105833Y0034573D01*
X0113525Y0034573D01*
X0114510Y0035558D01*
X0114510Y0042856D01*
X0113525Y0043841D01*
X0112200Y0043841D01*
X0112200Y0049534D01*
X0113525Y0049534D01*
X0114510Y0050519D01*
X0114510Y0057817D01*
X0113620Y0058707D01*
X0118368Y0058707D01*
X0119352Y0059692D01*
X0119352Y0060766D01*
X0121882Y0060766D01*
X0122585Y0061469D01*
X0122585Y0059692D01*
X0123569Y0058707D01*
X0125817Y0058707D01*
X0124927Y0057817D01*
X0124927Y0050519D01*
X0125912Y0049534D01*
X0133604Y0049534D01*
X0133823Y0049753D01*
X0133837Y0049739D01*
X0133746Y0049648D01*
X0133746Y0046680D01*
X0134731Y0045695D01*
X0140848Y0045695D01*
X0141833Y0046680D01*
X0141833Y0049648D01*
X0141742Y0049739D01*
X0141833Y0049830D01*
X0141833Y0052797D01*
X0141742Y0052888D01*
X0141833Y0052979D01*
X0141833Y0055132D01*
X0142237Y0055132D01*
X0142237Y0048694D01*
X0142615Y0047782D01*
X0143313Y0047084D01*
X0144096Y0046302D01*
X0142211Y0046302D01*
X0141226Y0045317D01*
X0141226Y0039200D01*
X0142211Y0038215D01*
X0145179Y0038215D01*
X0145270Y0038306D01*
X0145361Y0038215D01*
X0148328Y0038215D01*
X0148419Y0038306D01*
X0148510Y0038215D01*
X0151478Y0038215D01*
X0151569Y0038306D01*
X0151660Y0038215D01*
X0154112Y0038215D01*
X0154112Y0031709D01*
X0154344Y0031478D01*
X0154344Y0031116D01*
X0154781Y0030059D01*
X0154903Y0029937D01*
X0154628Y0030430D02*
X0007968Y0030430D01*
X0007968Y0031429D02*
X0154344Y0031429D01*
X0154112Y0032427D02*
X0007968Y0032427D01*
X0007968Y0033426D02*
X0020176Y0033426D01*
X0019920Y0033459D02*
X0020938Y0033325D01*
X0020951Y0033325D01*
X0020951Y0040656D01*
X0013620Y0040656D01*
X0013620Y0040643D01*
X0013754Y0039625D01*
X0014020Y0038634D01*
X0014413Y0037685D01*
X0014926Y0036796D01*
X0015551Y0035982D01*
X0016277Y0035256D01*
X0017091Y0034631D01*
X0017980Y0034118D01*
X0018928Y0033725D01*
X0019920Y0033459D01*
X0020951Y0033426D02*
X0021951Y0033426D01*
X0021951Y0033325D02*
X0021964Y0033325D01*
X0022982Y0033459D01*
X0023973Y0033725D01*
X0024922Y0034118D01*
X0025811Y0034631D01*
X0026625Y0035256D01*
X0027351Y0035982D01*
X0027976Y0036796D01*
X0028489Y0037685D01*
X0028882Y0038634D01*
X0029148Y0039625D01*
X0029281Y0040643D01*
X0029281Y0040656D01*
X0021951Y0040656D01*
X0021951Y0033325D01*
X0022726Y0033426D02*
X0154112Y0033426D01*
X0154112Y0034424D02*
X0069267Y0034424D01*
X0069301Y0034444D02*
X0069580Y0034723D01*
X0069778Y0035065D01*
X0069880Y0035447D01*
X0069880Y0038688D01*
X0065730Y0038688D01*
X0065730Y0039687D01*
X0069880Y0039687D01*
X0069880Y0042928D01*
X0069778Y0043310D01*
X0069580Y0043652D01*
X0069301Y0043931D01*
X0068959Y0044129D01*
X0068577Y0044231D01*
X0065730Y0044231D01*
X0065730Y0039688D01*
X0064730Y0039688D01*
X0064730Y0044231D01*
X0061883Y0044231D01*
X0061502Y0044129D01*
X0061160Y0043931D01*
X0060880Y0043652D01*
X0060683Y0043310D01*
X0060581Y0042928D01*
X0060581Y0039687D01*
X0064730Y0039687D01*
X0064730Y0038688D01*
X0060581Y0038688D01*
X0060581Y0035447D01*
X0060683Y0035065D01*
X0060880Y0034723D01*
X0061160Y0034444D01*
X0061502Y0034246D01*
X0061883Y0034144D01*
X0064730Y0034144D01*
X0064730Y0038687D01*
X0065730Y0038687D01*
X0065730Y0034144D01*
X0068577Y0034144D01*
X0068959Y0034246D01*
X0069301Y0034444D01*
X0069873Y0035423D02*
X0104984Y0035423D01*
X0104848Y0036421D02*
X0069880Y0036421D01*
X0069880Y0037420D02*
X0104848Y0037420D01*
X0104848Y0038418D02*
X0069880Y0038418D01*
X0069880Y0040415D02*
X0104848Y0040415D01*
X0104848Y0039417D02*
X0065730Y0039417D01*
X0065730Y0040415D02*
X0064730Y0040415D01*
X0064730Y0039417D02*
X0059037Y0039417D01*
X0059037Y0040415D02*
X0060581Y0040415D01*
X0060581Y0041414D02*
X0059037Y0041414D01*
X0059037Y0042412D02*
X0060581Y0042412D01*
X0060741Y0043411D02*
X0059037Y0043411D01*
X0058055Y0044409D02*
X0107237Y0044409D01*
X0107237Y0045408D02*
X0099023Y0045408D01*
X0100022Y0046406D02*
X0107237Y0046406D01*
X0107237Y0047405D02*
X0101020Y0047405D01*
X0102019Y0048403D02*
X0107237Y0048403D01*
X0107237Y0049402D02*
X0103998Y0049402D01*
X0104797Y0050400D02*
X0104967Y0050400D01*
X0102219Y0051687D02*
X0098085Y0047554D01*
X0093990Y0047554D01*
X0090018Y0045408D02*
X0069419Y0045408D01*
X0069096Y0045085D02*
X0070081Y0046070D01*
X0070081Y0051596D01*
X0069900Y0051778D01*
X0069900Y0052672D01*
X0069900Y0053657D01*
X0069821Y0053951D01*
X0069900Y0054246D01*
X0069900Y0055231D01*
X0065447Y0055231D01*
X0065447Y0055231D01*
X0065447Y0055231D01*
X0065447Y0052672D01*
X0065447Y0052672D01*
X0069900Y0052672D01*
X0065447Y0052672D01*
X0065447Y0052672D01*
X0065447Y0054959D01*
X0065447Y0055231D01*
X0065447Y0055231D01*
X0060994Y0055231D01*
X0060994Y0054246D01*
X0061073Y0053951D01*
X0060994Y0053657D01*
X0060994Y0052672D01*
X0065447Y0052672D01*
X0065447Y0052672D01*
X0060994Y0052672D01*
X0060994Y0051778D01*
X0060813Y0051596D01*
X0060813Y0046070D01*
X0061798Y0045085D01*
X0069096Y0045085D01*
X0070081Y0046406D02*
X0089356Y0046406D01*
X0089356Y0047405D02*
X0070081Y0047405D01*
X0070081Y0048403D02*
X0089356Y0048403D01*
X0089356Y0049402D02*
X0070081Y0049402D01*
X0070081Y0050400D02*
X0089356Y0050400D01*
X0089356Y0051399D02*
X0070081Y0051399D01*
X0069900Y0052397D02*
X0089356Y0052397D01*
X0084501Y0053396D02*
X0069900Y0053396D01*
X0069900Y0054394D02*
X0083503Y0054394D01*
X0082504Y0055393D02*
X0069900Y0055393D01*
X0070081Y0056391D02*
X0081506Y0056391D01*
X0080507Y0057390D02*
X0070081Y0057390D01*
X0070081Y0058388D02*
X0079509Y0058388D01*
X0078510Y0059387D02*
X0070081Y0059387D01*
X0070081Y0060385D02*
X0077512Y0060385D01*
X0076513Y0061384D02*
X0070081Y0061384D01*
X0070081Y0062382D02*
X0075515Y0062382D01*
X0074516Y0063381D02*
X0070081Y0063381D01*
X0070081Y0064379D02*
X0073518Y0064379D01*
X0072519Y0065378D02*
X0069900Y0065378D01*
X0069900Y0065467D02*
X0065447Y0065467D01*
X0065447Y0065467D01*
X0069900Y0065467D01*
X0069915Y0066376D02*
X0071521Y0066376D01*
X0070522Y0067375D02*
X0070081Y0067375D01*
X0065447Y0065467D02*
X0065447Y0065467D01*
X0060994Y0065467D01*
X0065447Y0065467D01*
X0060994Y0065378D02*
X0059418Y0065378D01*
X0058419Y0064379D02*
X0060813Y0064379D01*
X0060813Y0063381D02*
X0057574Y0063381D01*
X0057574Y0062382D02*
X0060813Y0062382D01*
X0060813Y0061384D02*
X0057574Y0061384D01*
X0057574Y0060385D02*
X0060813Y0060385D01*
X0060813Y0059387D02*
X0057574Y0059387D01*
X0057574Y0058388D02*
X0060813Y0058388D01*
X0060813Y0057390D02*
X0057574Y0057390D01*
X0060050Y0056391D02*
X0060813Y0056391D01*
X0060711Y0055393D02*
X0060994Y0055393D01*
X0060994Y0054394D02*
X0060711Y0054394D01*
X0060711Y0053396D02*
X0060994Y0053396D01*
X0060994Y0052397D02*
X0060711Y0052397D01*
X0060711Y0051399D02*
X0060813Y0051399D01*
X0060813Y0050400D02*
X0060711Y0050400D01*
X0060711Y0049402D02*
X0060813Y0049402D01*
X0060813Y0048403D02*
X0060711Y0048403D01*
X0060813Y0047405D02*
X0060471Y0047405D01*
X0060813Y0046406D02*
X0057574Y0046406D01*
X0057574Y0045408D02*
X0061475Y0045408D01*
X0064730Y0043411D02*
X0065730Y0043411D01*
X0065730Y0042412D02*
X0064730Y0042412D01*
X0064730Y0041414D02*
X0065730Y0041414D01*
X0069880Y0041414D02*
X0104848Y0041414D01*
X0104848Y0042412D02*
X0069880Y0042412D01*
X0069719Y0043411D02*
X0105403Y0043411D01*
X0112200Y0044409D02*
X0141226Y0044409D01*
X0141226Y0043411D02*
X0133741Y0043411D01*
X0133828Y0043360D02*
X0133486Y0043558D01*
X0133105Y0043660D01*
X0130258Y0043660D01*
X0130258Y0039707D01*
X0134407Y0039707D01*
X0134407Y0042357D01*
X0134305Y0042739D01*
X0134108Y0043081D01*
X0133828Y0043360D01*
X0134393Y0042412D02*
X0141226Y0042412D01*
X0141226Y0041414D02*
X0134407Y0041414D01*
X0134407Y0040415D02*
X0141226Y0040415D01*
X0141226Y0039417D02*
X0130258Y0039417D01*
X0130258Y0039707D02*
X0130258Y0038707D01*
X0134407Y0038707D01*
X0134407Y0036057D01*
X0134305Y0035675D01*
X0134108Y0035333D01*
X0133828Y0035054D01*
X0133486Y0034857D01*
X0133105Y0034754D01*
X0130258Y0034754D01*
X0130258Y0038707D01*
X0129258Y0038707D01*
X0129258Y0034754D01*
X0126411Y0034754D01*
X0126029Y0034857D01*
X0125687Y0035054D01*
X0125408Y0035333D01*
X0125210Y0035675D01*
X0125108Y0036057D01*
X0125108Y0038707D01*
X0129258Y0038707D01*
X0129258Y0039707D01*
X0125108Y0039707D01*
X0125108Y0042357D01*
X0125210Y0042739D01*
X0125408Y0043081D01*
X0125687Y0043360D01*
X0126029Y0043558D01*
X0126411Y0043660D01*
X0129258Y0043660D01*
X0129258Y0039707D01*
X0130258Y0039707D01*
X0130258Y0040415D02*
X0129258Y0040415D01*
X0129258Y0039417D02*
X0114510Y0039417D01*
X0114510Y0040415D02*
X0125108Y0040415D01*
X0125108Y0041414D02*
X0114510Y0041414D01*
X0114510Y0042412D02*
X0125123Y0042412D01*
X0125775Y0043411D02*
X0113955Y0043411D01*
X0112200Y0045408D02*
X0141317Y0045408D01*
X0141559Y0046406D02*
X0143991Y0046406D01*
X0142992Y0047405D02*
X0141833Y0047405D01*
X0141833Y0048403D02*
X0142358Y0048403D01*
X0142237Y0049402D02*
X0141833Y0049402D01*
X0141833Y0050400D02*
X0142237Y0050400D01*
X0142237Y0051399D02*
X0141833Y0051399D01*
X0141833Y0052397D02*
X0142237Y0052397D01*
X0142237Y0053396D02*
X0141833Y0053396D01*
X0141833Y0054394D02*
X0142237Y0054394D01*
X0147200Y0055619D02*
X0147200Y0057181D01*
X0146886Y0057937D01*
X0147200Y0058694D01*
X0147200Y0069681D01*
X0146822Y0070593D01*
X0146124Y0071291D01*
X0145100Y0072314D01*
X0145023Y0072346D01*
X0145061Y0072357D01*
X0145270Y0072477D01*
X0145478Y0072357D01*
X0145860Y0072254D01*
X0146844Y0072254D01*
X0146844Y0076116D01*
X0146845Y0076116D01*
X0146845Y0072254D01*
X0147813Y0072254D01*
X0147813Y0056348D01*
X0147281Y0055816D01*
X0147200Y0055619D01*
X0147200Y0056391D02*
X0147813Y0056391D01*
X0147813Y0057390D02*
X0147113Y0057390D01*
X0147073Y0058388D02*
X0147813Y0058388D01*
X0147813Y0059387D02*
X0147200Y0059387D01*
X0147200Y0060385D02*
X0147813Y0060385D01*
X0147813Y0061384D02*
X0147200Y0061384D01*
X0147200Y0062382D02*
X0147813Y0062382D01*
X0147813Y0063381D02*
X0147200Y0063381D01*
X0147200Y0064379D02*
X0147813Y0064379D01*
X0147813Y0065378D02*
X0147200Y0065378D01*
X0147200Y0066376D02*
X0147813Y0066376D01*
X0147813Y0067375D02*
X0147200Y0067375D01*
X0147200Y0068373D02*
X0147813Y0068373D01*
X0147813Y0069372D02*
X0147200Y0069372D01*
X0146914Y0070371D02*
X0147813Y0070371D01*
X0147813Y0071369D02*
X0146046Y0071369D01*
X0145459Y0072368D02*
X0145080Y0072368D01*
X0146844Y0072368D02*
X0146845Y0072368D01*
X0146844Y0073366D02*
X0146845Y0073366D01*
X0146844Y0074365D02*
X0146845Y0074365D01*
X0146844Y0075363D02*
X0146845Y0075363D01*
X0146844Y0076362D02*
X0146845Y0076362D01*
X0146844Y0077360D02*
X0146845Y0077360D01*
X0146844Y0078359D02*
X0146845Y0078359D01*
X0146844Y0079357D02*
X0146845Y0079357D01*
X0146719Y0080356D02*
X0147718Y0080356D01*
X0147718Y0081354D02*
X0146719Y0081354D01*
X0146719Y0082353D02*
X0147718Y0082353D01*
X0147718Y0083351D02*
X0146719Y0083351D01*
X0146719Y0084350D02*
X0147718Y0084350D01*
X0147718Y0085348D02*
X0146719Y0085348D01*
X0146718Y0086347D02*
X0097699Y0086347D01*
X0097699Y0087345D02*
X0142719Y0087345D01*
X0142719Y0088344D02*
X0097699Y0088344D01*
X0097699Y0089342D02*
X0142719Y0089342D01*
X0142766Y0090341D02*
X0097699Y0090341D01*
X0097699Y0091339D02*
X0143024Y0091339D01*
X0143582Y0092338D02*
X0097699Y0092338D01*
X0097199Y0093336D02*
X0144585Y0093336D01*
X0146719Y0093336D02*
X0147718Y0093336D01*
X0147718Y0092338D02*
X0146719Y0092338D01*
X0146719Y0091339D02*
X0147718Y0091339D01*
X0147718Y0090341D02*
X0146719Y0090341D01*
X0146719Y0089342D02*
X0147718Y0089342D01*
X0147718Y0088344D02*
X0146719Y0088344D01*
X0146719Y0087345D02*
X0147718Y0087345D01*
X0147719Y0086347D02*
X0152537Y0086347D01*
X0152537Y0087345D02*
X0151718Y0087345D01*
X0151718Y0088344D02*
X0152537Y0088344D01*
X0152537Y0089342D02*
X0151718Y0089342D01*
X0151671Y0090341D02*
X0152537Y0090341D01*
X0152836Y0091339D02*
X0151413Y0091339D01*
X0150855Y0092338D02*
X0153249Y0092338D01*
X0154247Y0093336D02*
X0149852Y0093336D01*
X0156206Y0094335D02*
X0024734Y0094335D01*
X0026342Y0093336D02*
X0054994Y0093336D01*
X0054419Y0092338D02*
X0054419Y0089687D01*
X0057978Y0089687D01*
X0057978Y0090341D02*
X0058978Y0090341D01*
X0058978Y0091339D02*
X0057978Y0091339D01*
X0057978Y0092338D02*
X0058978Y0092338D01*
X0058978Y0093336D02*
X0057978Y0093336D01*
X0061963Y0093336D02*
X0062218Y0093336D01*
X0069699Y0093336D02*
X0082238Y0093336D01*
X0081738Y0092338D02*
X0070199Y0092338D01*
X0058978Y0088344D02*
X0057978Y0088344D01*
X0057978Y0087345D02*
X0058978Y0087345D01*
X0058978Y0086347D02*
X0057978Y0086347D01*
X0057978Y0085348D02*
X0058978Y0085348D01*
X0054699Y0085348D02*
X0029056Y0085348D01*
X0029234Y0086347D02*
X0054419Y0086347D01*
X0054419Y0087345D02*
X0021951Y0087345D01*
X0021951Y0088344D02*
X0020951Y0088344D01*
X0020951Y0089342D02*
X0021951Y0089342D01*
X0021951Y0090341D02*
X0020951Y0090341D01*
X0020951Y0091339D02*
X0021951Y0091339D01*
X0021951Y0092338D02*
X0020951Y0092338D01*
X0020951Y0093336D02*
X0021951Y0093336D01*
X0021951Y0094335D02*
X0020951Y0094335D01*
X0018167Y0094335D02*
X0007968Y0094335D01*
X0007968Y0095333D02*
X0302118Y0095333D01*
X0302118Y0094335D02*
X0178231Y0094335D01*
X0176206Y0094335D02*
X0168231Y0094335D01*
X0166206Y0094335D02*
X0158231Y0094335D01*
X0160190Y0093336D02*
X0164247Y0093336D01*
X0163249Y0092338D02*
X0161188Y0092338D01*
X0161601Y0091339D02*
X0162836Y0091339D01*
X0162537Y0090341D02*
X0161900Y0090341D01*
X0161900Y0089342D02*
X0162537Y0089342D01*
X0162537Y0088344D02*
X0161900Y0088344D01*
X0161900Y0087345D02*
X0162537Y0087345D01*
X0162537Y0086347D02*
X0161900Y0086347D01*
X0161900Y0085348D02*
X0162537Y0085348D01*
X0162537Y0084350D02*
X0161900Y0084350D01*
X0161900Y0083351D02*
X0162537Y0083351D01*
X0162705Y0082353D02*
X0161732Y0082353D01*
X0161319Y0081354D02*
X0163118Y0081354D01*
X0163930Y0080356D02*
X0160507Y0080356D01*
X0153930Y0080356D02*
X0150251Y0080356D01*
X0151080Y0081354D02*
X0153118Y0081354D01*
X0152705Y0082353D02*
X0151516Y0082353D01*
X0151718Y0083351D02*
X0152537Y0083351D01*
X0152537Y0084350D02*
X0151718Y0084350D01*
X0151718Y0085348D02*
X0152537Y0085348D01*
X0142719Y0085348D02*
X0097509Y0085348D01*
X0096471Y0084350D02*
X0128822Y0084350D01*
X0127900Y0083351D02*
X0126230Y0083351D01*
X0126356Y0082353D02*
X0127900Y0082353D01*
X0127900Y0081354D02*
X0126356Y0081354D01*
X0126356Y0080356D02*
X0127900Y0080356D01*
X0127900Y0079357D02*
X0122207Y0079357D01*
X0122207Y0078687D02*
X0122207Y0074144D01*
X0123046Y0074144D01*
X0122585Y0073683D01*
X0122585Y0072609D01*
X0122555Y0072609D01*
X0121315Y0071369D01*
X0120037Y0070091D01*
X0120037Y0065128D01*
X0119352Y0065128D01*
X0119352Y0066203D01*
X0118740Y0066816D01*
X0118872Y0066948D01*
X0119069Y0067290D01*
X0119171Y0067671D01*
X0119171Y0069928D01*
X0115219Y0069928D01*
X0115219Y0070928D01*
X0119171Y0070928D01*
X0119171Y0073184D01*
X0119069Y0073566D01*
X0118872Y0073908D01*
X0118635Y0074144D01*
X0121207Y0074144D01*
X0121207Y0078687D01*
X0122207Y0078687D01*
X0122207Y0078359D02*
X0121207Y0078359D01*
X0121207Y0079357D02*
X0098624Y0079357D01*
X0098624Y0078359D02*
X0117057Y0078359D01*
X0117057Y0077360D02*
X0098624Y0077360D01*
X0098624Y0076362D02*
X0117057Y0076362D01*
X0117079Y0075363D02*
X0098624Y0075363D01*
X0098624Y0074365D02*
X0111152Y0074365D01*
X0110314Y0073366D02*
X0098624Y0073366D01*
X0098624Y0072368D02*
X0110266Y0072368D01*
X0110266Y0071369D02*
X0098624Y0071369D01*
X0098624Y0070371D02*
X0114218Y0070371D01*
X0114219Y0071369D02*
X0115218Y0071369D01*
X0115219Y0070371D02*
X0120317Y0070371D01*
X0120037Y0069372D02*
X0119171Y0069372D01*
X0119171Y0068373D02*
X0120037Y0068373D01*
X0120037Y0067375D02*
X0119092Y0067375D01*
X0119179Y0066376D02*
X0120037Y0066376D01*
X0120037Y0065378D02*
X0119352Y0065378D01*
X0120978Y0062947D02*
X0122219Y0064187D01*
X0122219Y0069188D01*
X0123459Y0070428D01*
X0127219Y0070428D01*
X0130959Y0070428D01*
X0132219Y0071688D01*
X0134700Y0073366D02*
X0141459Y0073366D01*
X0141407Y0074365D02*
X0136978Y0074365D01*
X0137561Y0075363D02*
X0141407Y0075363D01*
X0141407Y0076362D02*
X0137561Y0076362D01*
X0137561Y0077360D02*
X0141407Y0077360D01*
X0141407Y0078359D02*
X0137561Y0078359D01*
X0137561Y0079357D02*
X0141683Y0079357D01*
X0143695Y0079357D02*
X0143695Y0079357D01*
X0143695Y0078359D02*
X0143695Y0078359D01*
X0143695Y0077360D02*
X0143695Y0077360D01*
X0143695Y0076362D02*
X0143695Y0076362D01*
X0149994Y0076117D02*
X0149994Y0054463D01*
X0149719Y0054187D01*
X0152331Y0055393D02*
X0167604Y0055393D01*
X0167604Y0055947D02*
X0167604Y0052979D01*
X0167695Y0052888D01*
X0167604Y0052797D01*
X0167604Y0050645D01*
X0147200Y0050645D01*
X0147200Y0052756D01*
X0147281Y0052559D01*
X0148090Y0051750D01*
X0149147Y0051313D01*
X0150290Y0051313D01*
X0151347Y0051750D01*
X0152156Y0052559D01*
X0152593Y0053616D01*
X0152593Y0054759D01*
X0152175Y0055769D01*
X0152175Y0057815D01*
X0152281Y0057559D01*
X0153090Y0056750D01*
X0154147Y0056313D01*
X0155290Y0056313D01*
X0156347Y0056750D01*
X0157156Y0057559D01*
X0157593Y0058616D01*
X0157593Y0059759D01*
X0157156Y0060816D01*
X0156347Y0061625D01*
X0155325Y0062048D01*
X0155325Y0072073D01*
X0157777Y0072073D01*
X0157868Y0072164D01*
X0157959Y0072073D01*
X0160411Y0072073D01*
X0160411Y0067910D01*
X0160594Y0067728D01*
X0160594Y0067366D01*
X0161031Y0066309D01*
X0161840Y0065500D01*
X0162897Y0065063D01*
X0164040Y0065063D01*
X0165097Y0065500D01*
X0165906Y0066309D01*
X0166343Y0067366D01*
X0166343Y0068509D01*
X0165906Y0069566D01*
X0165097Y0070375D01*
X0164774Y0070509D01*
X0164774Y0072073D01*
X0167226Y0072073D01*
X0168211Y0073058D01*
X0168211Y0079032D01*
X0168974Y0079348D01*
X0169467Y0078855D01*
X0169467Y0072680D01*
X0168589Y0072680D01*
X0167604Y0071695D01*
X0167604Y0068727D01*
X0167695Y0068636D01*
X0167604Y0068545D01*
X0167604Y0065578D01*
X0167695Y0065487D01*
X0167604Y0065396D01*
X0167604Y0062428D01*
X0167695Y0062337D01*
X0167604Y0062246D01*
X0167604Y0059279D01*
X0167695Y0059187D01*
X0167604Y0059096D01*
X0167604Y0056129D01*
X0167695Y0056038D01*
X0167604Y0055947D01*
X0167604Y0056391D02*
X0155480Y0056391D01*
X0153957Y0056391D02*
X0152175Y0056391D01*
X0152175Y0057390D02*
X0152451Y0057390D01*
X0156986Y0057390D02*
X0167604Y0057390D01*
X0167604Y0058388D02*
X0157499Y0058388D01*
X0157593Y0059387D02*
X0167604Y0059387D01*
X0167604Y0060385D02*
X0157334Y0060385D01*
X0156588Y0061384D02*
X0167604Y0061384D01*
X0167650Y0062382D02*
X0155325Y0062382D01*
X0155325Y0063381D02*
X0167604Y0063381D01*
X0167604Y0064379D02*
X0155325Y0064379D01*
X0155325Y0065378D02*
X0162136Y0065378D01*
X0161003Y0066376D02*
X0155325Y0066376D01*
X0155325Y0067375D02*
X0160594Y0067375D01*
X0160411Y0068373D02*
X0155325Y0068373D01*
X0155325Y0069372D02*
X0160411Y0069372D01*
X0160411Y0070371D02*
X0155325Y0070371D01*
X0155325Y0071369D02*
X0160411Y0071369D01*
X0164774Y0071369D02*
X0167604Y0071369D01*
X0167604Y0070371D02*
X0165101Y0070371D01*
X0165986Y0069372D02*
X0167604Y0069372D01*
X0167604Y0068373D02*
X0166343Y0068373D01*
X0166343Y0067375D02*
X0167604Y0067375D01*
X0167604Y0066376D02*
X0165934Y0066376D01*
X0164801Y0065378D02*
X0167604Y0065378D01*
X0171648Y0067062D02*
X0175093Y0067062D01*
X0177219Y0069188D01*
X0177219Y0086687D01*
X0181900Y0086347D02*
X0183278Y0086347D01*
X0183278Y0086678D02*
X0183278Y0083437D01*
X0187427Y0083437D01*
X0187427Y0082438D01*
X0183278Y0082438D01*
X0183278Y0079197D01*
X0183380Y0078815D01*
X0183577Y0078473D01*
X0183857Y0078194D01*
X0184199Y0077996D01*
X0184580Y0077894D01*
X0187427Y0077894D01*
X0187427Y0082437D01*
X0188427Y0082437D01*
X0188427Y0077894D01*
X0191274Y0077894D01*
X0191656Y0077996D01*
X0191998Y0078194D01*
X0192277Y0078473D01*
X0192475Y0078815D01*
X0192577Y0079197D01*
X0192577Y0082438D01*
X0188427Y0082438D01*
X0188427Y0083437D01*
X0192577Y0083437D01*
X0192577Y0086678D01*
X0192475Y0087060D01*
X0192277Y0087402D01*
X0191998Y0087681D01*
X0191656Y0087879D01*
X0191274Y0087981D01*
X0188427Y0087981D01*
X0188427Y0083438D01*
X0187427Y0083438D01*
X0187427Y0087981D01*
X0184580Y0087981D01*
X0184199Y0087879D01*
X0183857Y0087681D01*
X0183577Y0087402D01*
X0183380Y0087060D01*
X0183278Y0086678D01*
X0183545Y0087345D02*
X0181900Y0087345D01*
X0181900Y0088344D02*
X0203986Y0088344D01*
X0203986Y0089342D02*
X0181900Y0089342D01*
X0181900Y0090341D02*
X0204469Y0090341D01*
X0207939Y0090341D02*
X0208939Y0090341D01*
X0208939Y0090737D02*
X0208939Y0087178D01*
X0212892Y0087178D01*
X0212892Y0089434D01*
X0212789Y0089816D01*
X0212592Y0090158D01*
X0212313Y0090437D01*
X0211971Y0090634D01*
X0211589Y0090737D01*
X0208939Y0090737D01*
X0208939Y0089342D02*
X0207939Y0089342D01*
X0207939Y0088344D02*
X0208939Y0088344D01*
X0208939Y0087345D02*
X0207939Y0087345D01*
X0207939Y0086347D02*
X0203781Y0086347D01*
X0203781Y0085348D02*
X0203986Y0085348D01*
X0203986Y0084350D02*
X0203781Y0084350D01*
X0203781Y0083351D02*
X0204197Y0083351D01*
X0203805Y0082353D02*
X0203781Y0082353D01*
X0203781Y0081354D02*
X0203805Y0081354D01*
X0203781Y0080356D02*
X0203805Y0080356D01*
X0207179Y0077938D02*
X0208439Y0079197D01*
X0208449Y0079188D01*
X0213439Y0079188D01*
X0215949Y0076678D01*
X0222189Y0076678D01*
X0217555Y0074497D02*
X0215045Y0074497D01*
X0213073Y0076469D01*
X0213073Y0075942D01*
X0212088Y0074957D01*
X0212004Y0074957D01*
X0212057Y0074904D01*
X0212057Y0072755D01*
X0212069Y0072744D01*
X0212069Y0069165D01*
X0212167Y0069067D01*
X0215234Y0069067D01*
X0216286Y0070119D01*
X0217545Y0071378D01*
X0217555Y0071378D01*
X0217555Y0072453D01*
X0218040Y0072937D01*
X0217555Y0073422D01*
X0217555Y0074497D01*
X0217555Y0074365D02*
X0212057Y0074365D01*
X0212057Y0073366D02*
X0217611Y0073366D01*
X0217555Y0072368D02*
X0212069Y0072368D01*
X0212069Y0071369D02*
X0217536Y0071369D01*
X0216537Y0070371D02*
X0212069Y0070371D01*
X0212069Y0069372D02*
X0215539Y0069372D01*
X0217189Y0067938D02*
X0217189Y0065437D01*
X0216657Y0064906D01*
X0213557Y0064906D01*
X0213557Y0062937D02*
X0217189Y0062937D01*
X0218439Y0061687D01*
X0220929Y0061687D01*
X0222189Y0060428D01*
X0230939Y0060428D01*
X0238449Y0060428D01*
X0239689Y0059187D01*
X0239689Y0055428D01*
X0244323Y0055451D02*
X0244323Y0056674D01*
X0245079Y0055918D01*
X0244790Y0055918D01*
X0244323Y0055451D01*
X0244323Y0056391D02*
X0244606Y0056391D01*
X0244209Y0058797D02*
X0243338Y0059668D01*
X0241870Y0059668D01*
X0241870Y0060091D01*
X0239352Y0062609D01*
X0235573Y0062609D01*
X0235573Y0063683D01*
X0234588Y0064668D01*
X0227290Y0064668D01*
X0226564Y0063942D01*
X0225838Y0064668D01*
X0219370Y0064668D01*
X0219370Y0064957D01*
X0225838Y0064957D01*
X0226564Y0065683D01*
X0227290Y0064957D01*
X0234588Y0064957D01*
X0235314Y0065683D01*
X0236040Y0064957D01*
X0243338Y0064957D01*
X0244064Y0065683D01*
X0244790Y0064957D01*
X0245079Y0064957D01*
X0244209Y0064087D01*
X0244209Y0058797D01*
X0244209Y0059387D02*
X0243619Y0059387D01*
X0244209Y0060385D02*
X0241576Y0060385D01*
X0240577Y0061384D02*
X0244209Y0061384D01*
X0244209Y0062382D02*
X0239579Y0062382D01*
X0235573Y0063381D02*
X0244209Y0063381D01*
X0244502Y0064379D02*
X0234876Y0064379D01*
X0235009Y0065378D02*
X0235619Y0065378D01*
X0243759Y0065378D02*
X0244369Y0065378D01*
X0251818Y0064957D02*
X0252189Y0064587D01*
X0252674Y0065071D01*
X0253426Y0065071D01*
X0252814Y0065683D01*
X0252088Y0064957D01*
X0251818Y0064957D01*
X0252509Y0065378D02*
X0253119Y0065378D01*
X0255929Y0067938D02*
X0257189Y0069197D01*
X0264679Y0069197D01*
X0265939Y0067938D01*
X0265939Y0065428D01*
X0270573Y0065378D02*
X0272736Y0065378D01*
X0272736Y0064379D02*
X0270573Y0064379D01*
X0270573Y0063381D02*
X0276689Y0063381D01*
X0276689Y0064379D02*
X0277689Y0064379D01*
X0277689Y0065378D02*
X0276689Y0065378D01*
X0276689Y0066376D02*
X0277689Y0066376D01*
X0277699Y0067375D02*
X0276699Y0067375D01*
X0276699Y0068373D02*
X0277699Y0068373D01*
X0277699Y0069372D02*
X0276699Y0069372D01*
X0276699Y0070371D02*
X0277699Y0070371D01*
X0276699Y0071369D02*
X0265592Y0071369D01*
X0266590Y0070371D02*
X0273140Y0070371D01*
X0273140Y0069372D02*
X0269884Y0069372D01*
X0270573Y0068373D02*
X0273184Y0068373D01*
X0273995Y0067375D02*
X0270573Y0067375D01*
X0270573Y0066376D02*
X0273018Y0066376D01*
X0280403Y0067375D02*
X0281102Y0067375D01*
X0281360Y0066376D02*
X0281499Y0066376D01*
X0288420Y0067375D02*
X0288698Y0067375D01*
X0288919Y0068373D02*
X0302118Y0068373D01*
X0302118Y0069372D02*
X0288919Y0069372D01*
X0285939Y0070428D02*
X0284679Y0071688D01*
X0277699Y0072368D02*
X0276699Y0072368D01*
X0276699Y0073366D02*
X0277699Y0073366D01*
X0277699Y0074365D02*
X0276699Y0074365D01*
X0276699Y0075363D02*
X0277699Y0075363D01*
X0273325Y0075363D02*
X0261642Y0075363D01*
X0261642Y0074365D02*
X0273140Y0074365D01*
X0273140Y0073366D02*
X0261439Y0073366D01*
X0261823Y0072368D02*
X0273140Y0072368D01*
X0261642Y0077178D02*
X0257689Y0077178D01*
X0257689Y0080737D01*
X0260339Y0080737D01*
X0260721Y0080634D01*
X0261063Y0080437D01*
X0261342Y0080158D01*
X0261539Y0079816D01*
X0261642Y0079434D01*
X0261642Y0077178D01*
X0261642Y0077360D02*
X0288540Y0077360D01*
X0288540Y0077097D02*
X0297790Y0077097D01*
X0297790Y0083347D01*
X0289842Y0083347D01*
X0289461Y0083245D01*
X0289119Y0083048D01*
X0288839Y0082768D01*
X0288642Y0082426D01*
X0288540Y0082045D01*
X0288540Y0077097D01*
X0288540Y0078359D02*
X0261642Y0078359D01*
X0261642Y0079357D02*
X0288540Y0079357D01*
X0288540Y0080356D02*
X0261144Y0080356D01*
X0257689Y0080356D02*
X0256689Y0080356D01*
X0256689Y0079357D02*
X0257689Y0079357D01*
X0257689Y0078359D02*
X0256689Y0078359D01*
X0256689Y0077360D02*
X0257689Y0077360D01*
X0257689Y0076362D02*
X0297790Y0076362D01*
X0297790Y0077360D02*
X0298790Y0077360D01*
X0298790Y0078359D02*
X0297790Y0078359D01*
X0297790Y0079357D02*
X0298790Y0079357D01*
X0298790Y0080356D02*
X0297790Y0080356D01*
X0297790Y0081354D02*
X0298790Y0081354D01*
X0298790Y0082353D02*
X0297790Y0082353D01*
X0302118Y0083351D02*
X0212681Y0083351D01*
X0212892Y0084350D02*
X0302118Y0084350D01*
X0302118Y0085348D02*
X0212892Y0085348D01*
X0208939Y0086347D02*
X0302118Y0086347D01*
X0302118Y0087345D02*
X0212892Y0087345D01*
X0212892Y0088344D02*
X0302118Y0088344D01*
X0302118Y0089342D02*
X0212892Y0089342D01*
X0212409Y0090341D02*
X0302118Y0090341D01*
X0302118Y0091339D02*
X0181601Y0091339D01*
X0181188Y0092338D02*
X0302118Y0092338D01*
X0302118Y0093336D02*
X0180190Y0093336D01*
X0174247Y0093336D02*
X0170190Y0093336D01*
X0171188Y0092338D02*
X0173249Y0092338D01*
X0172836Y0091339D02*
X0171601Y0091339D01*
X0171900Y0090341D02*
X0172537Y0090341D01*
X0172537Y0089342D02*
X0171900Y0089342D01*
X0171900Y0088344D02*
X0172537Y0088344D01*
X0172537Y0087345D02*
X0171900Y0087345D01*
X0171900Y0086347D02*
X0172537Y0086347D01*
X0172537Y0085348D02*
X0171900Y0085348D01*
X0171900Y0084350D02*
X0172537Y0084350D01*
X0172537Y0083351D02*
X0171900Y0083351D01*
X0172138Y0082353D02*
X0172705Y0082353D01*
X0173829Y0080457D02*
X0174567Y0079719D01*
X0175037Y0079524D01*
X0175037Y0072348D01*
X0174706Y0072680D01*
X0173829Y0072680D01*
X0173829Y0080457D01*
X0173829Y0080356D02*
X0173930Y0080356D01*
X0173829Y0079357D02*
X0175037Y0079357D01*
X0175037Y0078359D02*
X0173829Y0078359D01*
X0173829Y0077360D02*
X0175037Y0077360D01*
X0175037Y0076362D02*
X0173829Y0076362D01*
X0173829Y0075363D02*
X0175037Y0075363D01*
X0175037Y0074365D02*
X0173829Y0074365D01*
X0173829Y0073366D02*
X0175037Y0073366D01*
X0175018Y0072368D02*
X0175037Y0072368D01*
X0179400Y0072368D02*
X0199809Y0072368D01*
X0199809Y0071369D02*
X0179400Y0071369D01*
X0179400Y0070371D02*
X0182180Y0070371D01*
X0181296Y0069372D02*
X0179400Y0069372D01*
X0179400Y0068373D02*
X0180938Y0068373D01*
X0180938Y0067375D02*
X0178491Y0067375D01*
X0177492Y0066376D02*
X0181348Y0066376D01*
X0180929Y0065378D02*
X0179457Y0065378D01*
X0180456Y0064379D02*
X0180672Y0064379D01*
X0177839Y0063912D02*
X0171648Y0063912D01*
X0177839Y0063912D02*
X0180781Y0060969D01*
X0198321Y0060969D01*
X0198321Y0059000D02*
X0188281Y0059000D01*
X0183744Y0054463D01*
X0171648Y0054463D01*
X0167604Y0054394D02*
X0152593Y0054394D01*
X0152502Y0053396D02*
X0167604Y0053396D01*
X0167604Y0052397D02*
X0151994Y0052397D01*
X0150498Y0051399D02*
X0167604Y0051399D01*
X0171648Y0051313D02*
X0184344Y0051313D01*
X0188469Y0055437D01*
X0192189Y0055437D01*
X0195064Y0055393D02*
X0199809Y0055393D01*
X0199809Y0056391D02*
X0194906Y0056391D01*
X0195064Y0056009D02*
X0194728Y0056819D01*
X0196121Y0056819D01*
X0196133Y0056808D01*
X0199711Y0056808D01*
X0199809Y0056710D01*
X0199809Y0053131D01*
X0200700Y0052241D01*
X0200370Y0051911D01*
X0200370Y0047960D01*
X0201355Y0046975D01*
X0206291Y0046975D01*
X0207276Y0047960D01*
X0207276Y0051911D01*
X0207202Y0051985D01*
X0210922Y0051985D01*
X0211376Y0052439D01*
X0211376Y0041190D01*
X0211002Y0040816D01*
X0210564Y0039759D01*
X0210564Y0038616D01*
X0211002Y0037559D01*
X0211811Y0036750D01*
X0212867Y0036313D01*
X0214011Y0036313D01*
X0215067Y0036750D01*
X0215876Y0037559D01*
X0216314Y0038616D01*
X0216314Y0039759D01*
X0215876Y0040816D01*
X0215738Y0040954D01*
X0215738Y0052554D01*
X0216258Y0052034D01*
X0217536Y0050756D01*
X0217555Y0050756D01*
X0217555Y0049692D01*
X0218540Y0048707D01*
X0220008Y0048707D01*
X0220008Y0048636D01*
X0219209Y0047837D01*
X0219209Y0040538D01*
X0220193Y0039554D01*
X0226704Y0039554D01*
X0227189Y0040038D01*
X0227674Y0039554D01*
X0234185Y0039554D01*
X0235169Y0040538D01*
X0235169Y0042006D01*
X0239342Y0042006D01*
X0240592Y0043256D01*
X0241043Y0043707D01*
X0243338Y0043707D01*
X0243805Y0044174D01*
X0243805Y0040942D01*
X0244790Y0039957D01*
X0252088Y0039957D01*
X0253073Y0040942D01*
X0253073Y0041469D01*
X0254583Y0039959D01*
X0255965Y0039959D01*
X0255965Y0039188D01*
X0258646Y0039188D01*
X0258646Y0039187D01*
X0255965Y0039187D01*
X0255965Y0038293D01*
X0255783Y0038112D01*
X0255783Y0034357D01*
X0256768Y0033373D01*
X0260523Y0033373D01*
X0261204Y0034054D01*
X0261390Y0034054D01*
X0262870Y0035534D01*
X0262870Y0034357D01*
X0263855Y0033373D01*
X0267610Y0033373D01*
X0267649Y0033412D01*
X0268061Y0033000D01*
X0269117Y0032563D01*
X0270261Y0032563D01*
X0271317Y0033000D01*
X0272126Y0033809D01*
X0272564Y0034866D01*
X0272564Y0035933D01*
X0273540Y0034957D01*
X0280838Y0034957D01*
X0281823Y0035942D01*
X0281823Y0042453D01*
X0281338Y0042937D01*
X0281823Y0043422D01*
X0281823Y0049933D01*
X0280838Y0050918D01*
X0279670Y0050918D01*
X0279670Y0051207D01*
X0280838Y0051207D01*
X0281564Y0051933D01*
X0282290Y0051207D01*
X0288540Y0051207D01*
X0288540Y0049581D01*
X0297790Y0049581D01*
X0297790Y0055831D01*
X0290573Y0055831D01*
X0290573Y0057658D01*
X0302118Y0057658D01*
X0302118Y0055831D01*
X0298790Y0055831D01*
X0298790Y0049581D01*
X0297790Y0049581D01*
X0297790Y0048581D01*
X0298790Y0048581D01*
X0298790Y0042331D01*
X0302118Y0042331D01*
X0302118Y0029937D01*
X0159534Y0029937D01*
X0159656Y0030059D01*
X0160093Y0031116D01*
X0160093Y0031313D01*
X0160290Y0031313D01*
X0161347Y0031750D01*
X0162156Y0032559D01*
X0162593Y0033616D01*
X0162593Y0033938D01*
X0162897Y0033813D01*
X0164040Y0033813D01*
X0165097Y0034250D01*
X0165906Y0035059D01*
X0166343Y0036116D01*
X0166343Y0037259D01*
X0165906Y0038316D01*
X0165825Y0038396D01*
X0166727Y0038396D01*
X0167109Y0038498D01*
X0167451Y0038696D01*
X0167730Y0038975D01*
X0167927Y0039317D01*
X0168030Y0039699D01*
X0168030Y0042258D01*
X0165742Y0042258D01*
X0165742Y0042258D01*
X0168030Y0042258D01*
X0168030Y0044818D01*
X0167927Y0045200D01*
X0167730Y0045542D01*
X0167589Y0045683D01*
X0183805Y0045683D01*
X0183805Y0044672D01*
X0184418Y0044059D01*
X0184286Y0043927D01*
X0184088Y0043585D01*
X0183986Y0043204D01*
X0183986Y0040947D01*
X0187939Y0040947D01*
X0187939Y0039947D01*
X0188939Y0039947D01*
X0188939Y0036388D01*
X0191589Y0036388D01*
X0191971Y0036491D01*
X0192313Y0036688D01*
X0192592Y0036967D01*
X0192789Y0037309D01*
X0192892Y0037691D01*
X0192892Y0039947D01*
X0188939Y0039947D01*
X0188939Y0040947D01*
X0192619Y0040947D01*
X0193087Y0040479D01*
X0198023Y0040479D01*
X0199008Y0041464D01*
X0199008Y0045415D01*
X0198023Y0046400D01*
X0193087Y0046400D01*
X0193073Y0046386D01*
X0193073Y0046989D01*
X0193087Y0046975D01*
X0198023Y0046975D01*
X0199008Y0047960D01*
X0199008Y0051911D01*
X0198023Y0052896D01*
X0193566Y0052896D01*
X0193817Y0053000D01*
X0194626Y0053809D01*
X0195064Y0054866D01*
X0195064Y0056009D01*
X0194869Y0054394D02*
X0199809Y0054394D01*
X0199809Y0053396D02*
X0194213Y0053396D01*
X0192754Y0052563D02*
X0192308Y0052117D01*
X0192139Y0052117D01*
X0192088Y0052168D01*
X0188283Y0052168D01*
X0189372Y0053256D01*
X0190304Y0053256D01*
X0190561Y0053000D01*
X0191617Y0052563D01*
X0192754Y0052563D01*
X0192588Y0052397D02*
X0188513Y0052397D01*
X0190447Y0049936D02*
X0188439Y0047928D01*
X0188203Y0048164D01*
X0190447Y0049936D02*
X0195555Y0049936D01*
X0199008Y0050400D02*
X0200370Y0050400D01*
X0200370Y0049402D02*
X0199008Y0049402D01*
X0199008Y0048403D02*
X0200370Y0048403D01*
X0200925Y0047405D02*
X0198453Y0047405D01*
X0200851Y0045640D02*
X0200653Y0045298D01*
X0200551Y0044916D01*
X0200551Y0043579D01*
X0203683Y0043579D01*
X0203683Y0043300D01*
X0200551Y0043300D01*
X0200551Y0041962D01*
X0200653Y0041581D01*
X0200851Y0041239D01*
X0201130Y0040960D01*
X0201472Y0040762D01*
X0201854Y0040660D01*
X0203683Y0040660D01*
X0203683Y0043300D01*
X0203963Y0043300D01*
X0203963Y0043579D01*
X0207094Y0043579D01*
X0207094Y0044916D01*
X0206992Y0045298D01*
X0206795Y0045640D01*
X0206516Y0045919D01*
X0206173Y0046117D01*
X0205792Y0046219D01*
X0203963Y0046219D01*
X0203963Y0043579D01*
X0203683Y0043579D01*
X0203683Y0046219D01*
X0201854Y0046219D01*
X0201472Y0046117D01*
X0201130Y0045919D01*
X0200851Y0045640D01*
X0200717Y0045408D02*
X0199008Y0045408D01*
X0199008Y0044409D02*
X0200551Y0044409D01*
X0199008Y0043411D02*
X0203683Y0043411D01*
X0203963Y0043411D02*
X0211376Y0043411D01*
X0211376Y0044409D02*
X0207094Y0044409D01*
X0206929Y0045408D02*
X0211376Y0045408D01*
X0211376Y0046406D02*
X0193073Y0046406D01*
X0184068Y0044409D02*
X0168030Y0044409D01*
X0168030Y0043411D02*
X0184042Y0043411D01*
X0183986Y0042412D02*
X0168030Y0042412D01*
X0168030Y0041414D02*
X0183986Y0041414D01*
X0183986Y0039947D02*
X0183986Y0037691D01*
X0184088Y0037309D01*
X0184286Y0036967D01*
X0184565Y0036688D01*
X0184907Y0036491D01*
X0185289Y0036388D01*
X0187939Y0036388D01*
X0187939Y0039947D01*
X0183986Y0039947D01*
X0183986Y0039417D02*
X0167954Y0039417D01*
X0168030Y0040415D02*
X0187939Y0040415D01*
X0187939Y0039417D02*
X0188939Y0039417D01*
X0188939Y0040415D02*
X0210836Y0040415D01*
X0210564Y0039417D02*
X0192892Y0039417D01*
X0192892Y0038418D02*
X0210646Y0038418D01*
X0211141Y0037420D02*
X0192819Y0037420D01*
X0191712Y0036421D02*
X0212605Y0036421D01*
X0214273Y0036421D02*
X0255783Y0036421D01*
X0255783Y0035423D02*
X0166056Y0035423D01*
X0166343Y0036421D02*
X0185166Y0036421D01*
X0184059Y0037420D02*
X0166277Y0037420D01*
X0166809Y0038418D02*
X0183986Y0038418D01*
X0187939Y0038418D02*
X0188939Y0038418D01*
X0188939Y0037420D02*
X0187939Y0037420D01*
X0187939Y0036421D02*
X0188939Y0036421D01*
X0198958Y0041414D02*
X0200750Y0041414D01*
X0200551Y0042412D02*
X0199008Y0042412D01*
X0203683Y0042412D02*
X0203963Y0042412D01*
X0203963Y0043300D02*
X0203963Y0040660D01*
X0205792Y0040660D01*
X0206173Y0040762D01*
X0206516Y0040960D01*
X0206795Y0041239D01*
X0206992Y0041581D01*
X0207094Y0041962D01*
X0207094Y0043300D01*
X0203963Y0043300D01*
X0203963Y0044409D02*
X0203683Y0044409D01*
X0203683Y0045408D02*
X0203963Y0045408D01*
X0206721Y0047405D02*
X0211376Y0047405D01*
X0211376Y0048403D02*
X0207276Y0048403D01*
X0207276Y0049402D02*
X0211376Y0049402D01*
X0211376Y0050400D02*
X0207276Y0050400D01*
X0207276Y0051399D02*
X0211376Y0051399D01*
X0211335Y0052397D02*
X0211376Y0052397D01*
X0215738Y0052397D02*
X0215895Y0052397D01*
X0215738Y0051399D02*
X0216893Y0051399D01*
X0217555Y0050400D02*
X0215738Y0050400D01*
X0215738Y0049402D02*
X0217845Y0049402D01*
X0219775Y0048403D02*
X0215738Y0048403D01*
X0215738Y0047405D02*
X0219209Y0047405D01*
X0219209Y0046406D02*
X0215738Y0046406D01*
X0215738Y0045408D02*
X0219209Y0045408D01*
X0219209Y0044409D02*
X0215738Y0044409D01*
X0215738Y0043411D02*
X0219209Y0043411D01*
X0219209Y0042412D02*
X0215738Y0042412D01*
X0215738Y0041414D02*
X0219209Y0041414D01*
X0219332Y0040415D02*
X0216042Y0040415D01*
X0216314Y0039417D02*
X0255965Y0039417D01*
X0255965Y0038418D02*
X0216232Y0038418D01*
X0215737Y0037420D02*
X0255783Y0037420D01*
X0260486Y0036235D02*
X0262189Y0037938D01*
X0262189Y0044187D01*
X0258449Y0047928D01*
X0258449Y0049187D01*
X0254209Y0049402D02*
X0253073Y0049402D01*
X0253073Y0048422D02*
X0253073Y0054933D01*
X0252088Y0055918D01*
X0251818Y0055918D01*
X0252189Y0056288D01*
X0252674Y0055804D01*
X0259185Y0055804D01*
X0260169Y0056788D01*
X0260169Y0064087D01*
X0259299Y0064957D01*
X0260838Y0064957D01*
X0261305Y0065424D01*
X0261305Y0062172D01*
X0261790Y0061687D01*
X0261305Y0061203D01*
X0261305Y0054692D01*
X0262290Y0053707D01*
X0262560Y0053707D01*
X0262189Y0053337D01*
X0261704Y0053821D01*
X0255193Y0053821D01*
X0254209Y0052837D01*
X0254209Y0046369D01*
X0253073Y0046369D01*
X0253073Y0047453D01*
X0252588Y0047937D01*
X0253073Y0048422D01*
X0253054Y0048403D02*
X0254209Y0048403D01*
X0254209Y0047405D02*
X0253073Y0047405D01*
X0253073Y0046406D02*
X0254209Y0046406D01*
X0253439Y0044187D02*
X0248449Y0044187D01*
X0248439Y0044197D01*
X0243805Y0043411D02*
X0240747Y0043411D01*
X0239748Y0042412D02*
X0243805Y0042412D01*
X0243805Y0041414D02*
X0235169Y0041414D01*
X0235046Y0040415D02*
X0244332Y0040415D01*
X0252546Y0040415D02*
X0254127Y0040415D01*
X0253128Y0041414D02*
X0253073Y0041414D01*
X0255486Y0042140D02*
X0253439Y0044187D01*
X0256157Y0044554D02*
X0256319Y0044554D01*
X0256238Y0044473D01*
X0256157Y0044554D01*
X0255486Y0042140D02*
X0258646Y0042140D01*
X0265732Y0042140D02*
X0268892Y0042140D01*
X0269689Y0042938D01*
X0272275Y0041669D02*
X0272555Y0042345D01*
X0272555Y0041669D01*
X0272275Y0041669D01*
X0272564Y0042461D02*
X0272564Y0043414D01*
X0273040Y0042937D01*
X0272564Y0042461D01*
X0272564Y0043411D02*
X0272567Y0043411D01*
X0272555Y0044409D02*
X0272191Y0044409D01*
X0272555Y0045408D02*
X0271238Y0045408D01*
X0270169Y0046406D02*
X0272555Y0046406D01*
X0272555Y0047405D02*
X0270169Y0047405D01*
X0270169Y0048403D02*
X0272555Y0048403D01*
X0272555Y0049402D02*
X0270169Y0049402D01*
X0270169Y0050400D02*
X0273022Y0050400D01*
X0273348Y0051399D02*
X0270169Y0051399D01*
X0270169Y0052397D02*
X0272555Y0052397D01*
X0272555Y0053396D02*
X0269610Y0053396D01*
X0270275Y0054394D02*
X0272555Y0054394D01*
X0272555Y0055393D02*
X0270573Y0055393D01*
X0270573Y0056391D02*
X0272555Y0056391D01*
X0272555Y0057390D02*
X0270573Y0057390D01*
X0270573Y0058388D02*
X0272555Y0058388D01*
X0273097Y0059387D02*
X0270573Y0059387D01*
X0270573Y0060385D02*
X0272736Y0060385D01*
X0272736Y0061384D02*
X0270392Y0061384D01*
X0270573Y0062382D02*
X0272736Y0062382D01*
X0281210Y0059316D02*
X0281342Y0059448D01*
X0281411Y0059567D01*
X0281790Y0059187D01*
X0281564Y0058962D01*
X0281210Y0059316D01*
X0281281Y0059387D02*
X0281590Y0059387D01*
X0290573Y0057390D02*
X0302118Y0057390D01*
X0302118Y0056391D02*
X0290573Y0056391D01*
X0297790Y0055393D02*
X0298790Y0055393D01*
X0298790Y0054394D02*
X0297790Y0054394D01*
X0297790Y0053396D02*
X0298790Y0053396D01*
X0298790Y0052397D02*
X0297790Y0052397D01*
X0297790Y0051399D02*
X0298790Y0051399D01*
X0298790Y0050400D02*
X0297790Y0050400D01*
X0297790Y0049402D02*
X0281823Y0049402D01*
X0281823Y0048403D02*
X0288540Y0048403D01*
X0288540Y0048581D02*
X0288540Y0043633D01*
X0288642Y0043252D01*
X0288839Y0042910D01*
X0289119Y0042631D01*
X0289461Y0042433D01*
X0289842Y0042331D01*
X0297790Y0042331D01*
X0297790Y0048581D01*
X0288540Y0048581D01*
X0288540Y0047405D02*
X0281823Y0047405D01*
X0281823Y0046406D02*
X0288540Y0046406D01*
X0288540Y0045408D02*
X0281823Y0045408D01*
X0281823Y0044409D02*
X0288540Y0044409D01*
X0288599Y0043411D02*
X0281811Y0043411D01*
X0281823Y0042412D02*
X0289539Y0042412D01*
X0281823Y0041414D02*
X0302118Y0041414D01*
X0302118Y0040415D02*
X0281823Y0040415D01*
X0281823Y0039417D02*
X0302118Y0039417D01*
X0302118Y0038418D02*
X0281823Y0038418D01*
X0281823Y0037420D02*
X0302118Y0037420D01*
X0302118Y0036421D02*
X0281823Y0036421D01*
X0281303Y0035423D02*
X0302118Y0035423D01*
X0302118Y0034424D02*
X0272381Y0034424D01*
X0272564Y0035423D02*
X0273074Y0035423D01*
X0272555Y0036030D02*
X0272275Y0036706D01*
X0272555Y0036706D01*
X0272555Y0036030D01*
X0272555Y0036421D02*
X0272393Y0036421D01*
X0269689Y0035438D02*
X0268892Y0036235D01*
X0265732Y0036235D01*
X0262870Y0035423D02*
X0262759Y0035423D01*
X0262870Y0034424D02*
X0261760Y0034424D01*
X0260576Y0033426D02*
X0263802Y0033426D01*
X0260486Y0036235D02*
X0258646Y0036235D01*
X0255783Y0034424D02*
X0165271Y0034424D01*
X0162515Y0033426D02*
X0256715Y0033426D01*
X0271743Y0033426D02*
X0302118Y0033426D01*
X0302118Y0032427D02*
X0162024Y0032427D01*
X0160570Y0031429D02*
X0302118Y0031429D01*
X0302118Y0030430D02*
X0159809Y0030430D01*
X0157219Y0031687D02*
X0156293Y0032613D01*
X0156293Y0042258D01*
X0159443Y0042258D02*
X0159443Y0034463D01*
X0159719Y0034188D01*
X0154112Y0035423D02*
X0134159Y0035423D01*
X0134407Y0036421D02*
X0154112Y0036421D01*
X0154112Y0037420D02*
X0134407Y0037420D01*
X0134407Y0038418D02*
X0142008Y0038418D01*
X0130258Y0038418D02*
X0129258Y0038418D01*
X0129258Y0037420D02*
X0130258Y0037420D01*
X0130258Y0036421D02*
X0129258Y0036421D01*
X0129258Y0035423D02*
X0130258Y0035423D01*
X0125356Y0035423D02*
X0114374Y0035423D01*
X0114510Y0036421D02*
X0125108Y0036421D01*
X0125108Y0037420D02*
X0114510Y0037420D01*
X0114510Y0038418D02*
X0125108Y0038418D01*
X0129258Y0041414D02*
X0130258Y0041414D01*
X0130258Y0042412D02*
X0129258Y0042412D01*
X0129258Y0043411D02*
X0130258Y0043411D01*
X0134020Y0046406D02*
X0112200Y0046406D01*
X0112200Y0047405D02*
X0133746Y0047405D01*
X0133746Y0048403D02*
X0112200Y0048403D01*
X0112200Y0049402D02*
X0133746Y0049402D01*
X0125046Y0050400D02*
X0114391Y0050400D01*
X0114510Y0051399D02*
X0124927Y0051399D01*
X0124927Y0052397D02*
X0114510Y0052397D01*
X0114510Y0053396D02*
X0124927Y0053396D01*
X0124927Y0054394D02*
X0114510Y0054394D01*
X0114510Y0055393D02*
X0124927Y0055393D01*
X0124927Y0056391D02*
X0114510Y0056391D01*
X0114510Y0057390D02*
X0124927Y0057390D01*
X0125499Y0058388D02*
X0113938Y0058388D01*
X0119047Y0059387D02*
X0122890Y0059387D01*
X0122585Y0060385D02*
X0119352Y0060385D01*
X0122499Y0061384D02*
X0122585Y0061384D01*
X0120978Y0062947D02*
X0114719Y0062947D01*
X0110978Y0062947D01*
X0109719Y0061687D01*
X0109719Y0054207D01*
X0109679Y0054168D01*
X0099547Y0052750D02*
X0099344Y0052259D01*
X0099344Y0051897D01*
X0098624Y0051178D01*
X0098624Y0052750D01*
X0099547Y0052750D01*
X0099401Y0052397D02*
X0098624Y0052397D01*
X0098624Y0051399D02*
X0098845Y0051399D01*
X0098321Y0057790D02*
X0093990Y0057790D01*
X0098321Y0057790D02*
X0099719Y0059187D01*
X0102334Y0060385D02*
X0107537Y0060385D01*
X0107537Y0059387D02*
X0102593Y0059387D01*
X0102499Y0058388D02*
X0105420Y0058388D01*
X0107537Y0061384D02*
X0101588Y0061384D01*
X0098443Y0062382D02*
X0107537Y0062382D01*
X0108327Y0063381D02*
X0098443Y0063381D01*
X0098443Y0062908D02*
X0093990Y0062908D01*
X0093990Y0062908D01*
X0089537Y0062908D01*
X0089537Y0063802D01*
X0089356Y0063983D01*
X0089356Y0082305D01*
X0090341Y0083290D01*
X0091509Y0083290D01*
X0091509Y0084554D01*
X0090203Y0084554D01*
X0089719Y0085038D01*
X0089234Y0084554D01*
X0082723Y0084554D01*
X0081738Y0085538D01*
X0081738Y0086706D01*
X0074700Y0086706D01*
X0074700Y0076194D01*
X0074496Y0075703D01*
X0074700Y0075213D01*
X0074700Y0070215D01*
X0087203Y0057712D01*
X0089356Y0057712D01*
X0089356Y0061833D01*
X0089537Y0062014D01*
X0089537Y0062908D01*
X0093990Y0062908D01*
X0093990Y0062908D01*
X0098443Y0062908D01*
X0098624Y0064379D02*
X0109326Y0064379D01*
X0110085Y0065378D02*
X0098624Y0065378D01*
X0098624Y0066376D02*
X0110258Y0066376D01*
X0110345Y0067375D02*
X0098624Y0067375D01*
X0098624Y0068373D02*
X0110266Y0068373D01*
X0110266Y0069372D02*
X0098624Y0069372D01*
X0089356Y0069372D02*
X0075543Y0069372D01*
X0074700Y0070371D02*
X0089356Y0070371D01*
X0089356Y0071369D02*
X0074700Y0071369D01*
X0074700Y0072368D02*
X0089356Y0072368D01*
X0089356Y0073366D02*
X0074700Y0073366D01*
X0074700Y0074365D02*
X0089356Y0074365D01*
X0089356Y0075363D02*
X0074637Y0075363D01*
X0074700Y0076362D02*
X0089356Y0076362D01*
X0089356Y0077360D02*
X0074700Y0077360D01*
X0074700Y0078359D02*
X0089356Y0078359D01*
X0089356Y0079357D02*
X0074700Y0079357D01*
X0074700Y0080356D02*
X0089356Y0080356D01*
X0089356Y0081354D02*
X0074700Y0081354D01*
X0074700Y0082353D02*
X0089404Y0082353D01*
X0091509Y0083351D02*
X0074700Y0083351D01*
X0074700Y0084350D02*
X0091509Y0084350D01*
X0096471Y0083351D02*
X0117183Y0083351D01*
X0117057Y0082353D02*
X0098576Y0082353D01*
X0098624Y0081354D02*
X0117057Y0081354D01*
X0117057Y0080356D02*
X0098624Y0080356D01*
X0081928Y0085348D02*
X0074700Y0085348D01*
X0074700Y0086347D02*
X0081738Y0086347D01*
X0069737Y0084350D02*
X0028738Y0084350D01*
X0028260Y0083351D02*
X0069737Y0083351D01*
X0065447Y0080821D02*
X0056352Y0080821D01*
X0043656Y0068125D01*
X0029719Y0068125D01*
X0025410Y0066376D02*
X0007968Y0066376D01*
X0007968Y0065378D02*
X0025890Y0065378D01*
X0026888Y0064379D02*
X0007968Y0064379D01*
X0007968Y0063381D02*
X0026273Y0063381D01*
X0025569Y0062382D02*
X0007968Y0062382D01*
X0007968Y0061384D02*
X0018612Y0061384D01*
X0016999Y0060385D02*
X0007968Y0060385D01*
X0007968Y0059387D02*
X0016001Y0059387D01*
X0015372Y0058388D02*
X0007968Y0058388D01*
X0007968Y0057390D02*
X0014958Y0057390D01*
X0014589Y0056391D02*
X0007968Y0056391D01*
X0007968Y0055393D02*
X0014589Y0055393D01*
X0014589Y0054394D02*
X0007968Y0054394D01*
X0007968Y0053396D02*
X0014742Y0053396D01*
X0015156Y0052397D02*
X0007968Y0052397D01*
X0007968Y0051399D02*
X0015570Y0051399D01*
X0016478Y0050400D02*
X0007968Y0050400D01*
X0007968Y0049402D02*
X0017477Y0049402D01*
X0018485Y0048403D02*
X0007968Y0048403D01*
X0007968Y0047405D02*
X0016731Y0047405D01*
X0015627Y0046406D02*
X0007968Y0046406D01*
X0007968Y0045408D02*
X0014863Y0045408D01*
X0014322Y0044409D02*
X0007968Y0044409D01*
X0007968Y0043411D02*
X0013948Y0043411D01*
X0013718Y0042412D02*
X0007968Y0042412D01*
X0007968Y0041414D02*
X0020951Y0041414D01*
X0020951Y0040415D02*
X0021951Y0040415D01*
X0021951Y0039417D02*
X0020951Y0039417D01*
X0020951Y0038418D02*
X0021951Y0038418D01*
X0021951Y0037420D02*
X0020951Y0037420D01*
X0020951Y0036421D02*
X0021951Y0036421D01*
X0021951Y0035423D02*
X0020951Y0035423D01*
X0020951Y0034424D02*
X0021951Y0034424D01*
X0025452Y0034424D02*
X0049900Y0034424D01*
X0049376Y0035423D02*
X0047583Y0035423D01*
X0047699Y0036421D02*
X0049376Y0036421D01*
X0049376Y0037420D02*
X0047699Y0037420D01*
X0047699Y0038418D02*
X0049376Y0038418D01*
X0049376Y0039417D02*
X0047699Y0039417D01*
X0047699Y0040415D02*
X0049376Y0040415D01*
X0049376Y0041414D02*
X0047699Y0041414D01*
X0047699Y0042412D02*
X0049376Y0042412D01*
X0049376Y0043411D02*
X0047125Y0043411D01*
X0045506Y0044409D02*
X0050358Y0044409D01*
X0052611Y0045408D02*
X0044507Y0045408D01*
X0043509Y0046406D02*
X0052611Y0046406D01*
X0049714Y0047405D02*
X0044723Y0047405D01*
X0044963Y0048403D02*
X0049474Y0048403D01*
X0049474Y0049402D02*
X0044963Y0049402D01*
X0044963Y0050400D02*
X0049474Y0050400D01*
X0049474Y0051399D02*
X0044963Y0051399D01*
X0044963Y0052397D02*
X0049474Y0052397D01*
X0049474Y0053396D02*
X0044963Y0053396D01*
X0044963Y0054394D02*
X0049474Y0054394D01*
X0049474Y0055393D02*
X0044963Y0055393D01*
X0044302Y0056391D02*
X0050135Y0056391D01*
X0052611Y0057390D02*
X0033433Y0057390D01*
X0034387Y0056391D02*
X0032435Y0056391D01*
X0033726Y0055393D02*
X0028313Y0055393D01*
X0032245Y0054394D02*
X0033726Y0054394D01*
X0033726Y0053396D02*
X0033306Y0053396D01*
X0025168Y0049244D02*
X0025777Y0047774D01*
X0026066Y0047485D01*
X0025811Y0047681D01*
X0024922Y0048194D01*
X0023973Y0048587D01*
X0023735Y0048651D01*
X0025168Y0049244D01*
X0025516Y0048403D02*
X0024417Y0048403D01*
X0032207Y0046406D02*
X0037237Y0046406D01*
X0037563Y0045408D02*
X0028038Y0045408D01*
X0028579Y0044409D02*
X0038488Y0044409D01*
X0039337Y0043411D02*
X0039486Y0043411D01*
X0036478Y0043411D02*
X0035478Y0043411D01*
X0035478Y0042412D02*
X0036478Y0042412D01*
X0036478Y0041414D02*
X0035478Y0041414D01*
X0035478Y0040415D02*
X0036478Y0040415D01*
X0035478Y0039417D02*
X0029092Y0039417D01*
X0029252Y0040415D02*
X0031919Y0040415D01*
X0031919Y0041414D02*
X0021951Y0041414D01*
X0028954Y0043411D02*
X0032620Y0043411D01*
X0031939Y0042412D02*
X0029184Y0042412D01*
X0028793Y0038418D02*
X0031919Y0038418D01*
X0031919Y0037420D02*
X0028336Y0037420D01*
X0027688Y0036421D02*
X0031919Y0036421D01*
X0032156Y0035423D02*
X0026792Y0035423D01*
X0017449Y0034424D02*
X0007968Y0034424D01*
X0007968Y0035423D02*
X0016110Y0035423D01*
X0015214Y0036421D02*
X0007968Y0036421D01*
X0007968Y0037420D02*
X0014566Y0037420D01*
X0014109Y0038418D02*
X0007968Y0038418D01*
X0007968Y0039417D02*
X0013810Y0039417D01*
X0013650Y0040415D02*
X0007968Y0040415D01*
X0033291Y0047405D02*
X0033966Y0047405D01*
X0035478Y0038418D02*
X0036478Y0038418D01*
X0036478Y0037420D02*
X0035478Y0037420D01*
X0035478Y0036421D02*
X0036478Y0036421D01*
X0036478Y0035423D02*
X0035478Y0035423D01*
X0058514Y0034424D02*
X0061194Y0034424D01*
X0060587Y0035423D02*
X0059037Y0035423D01*
X0059037Y0036421D02*
X0060581Y0036421D01*
X0060581Y0037420D02*
X0059037Y0037420D01*
X0059037Y0038418D02*
X0060581Y0038418D01*
X0064730Y0038418D02*
X0065730Y0038418D01*
X0065730Y0037420D02*
X0064730Y0037420D01*
X0064730Y0036421D02*
X0065730Y0036421D01*
X0065730Y0035423D02*
X0064730Y0035423D01*
X0064730Y0034424D02*
X0065730Y0034424D01*
X0065447Y0053396D02*
X0065447Y0053396D01*
X0065447Y0054394D02*
X0065447Y0054394D01*
X0052611Y0058388D02*
X0042004Y0058388D01*
X0043002Y0059387D02*
X0052611Y0059387D01*
X0052611Y0060385D02*
X0044001Y0060385D01*
X0044999Y0061384D02*
X0052611Y0061384D01*
X0052611Y0062382D02*
X0045998Y0062382D01*
X0046996Y0063381D02*
X0052611Y0063381D01*
X0052611Y0064379D02*
X0047995Y0064379D01*
X0048993Y0065378D02*
X0052745Y0065378D01*
X0053399Y0066376D02*
X0049992Y0066376D01*
X0050991Y0067375D02*
X0054397Y0067375D01*
X0055396Y0068373D02*
X0051989Y0068373D01*
X0052988Y0069372D02*
X0056394Y0069372D01*
X0057734Y0070371D02*
X0053986Y0070371D01*
X0054985Y0071369D02*
X0060813Y0071369D01*
X0060994Y0072368D02*
X0055983Y0072368D01*
X0056982Y0073366D02*
X0060994Y0073366D01*
X0060994Y0073144D02*
X0065447Y0073144D01*
X0060994Y0073144D01*
X0060813Y0074365D02*
X0057980Y0074365D01*
X0058979Y0075363D02*
X0060813Y0075363D01*
X0065447Y0073144D02*
X0065447Y0073144D01*
X0049807Y0077360D02*
X0034147Y0077360D01*
X0034166Y0077483D02*
X0030203Y0077483D01*
X0030203Y0073520D01*
X0030765Y0073609D01*
X0031434Y0073826D01*
X0032061Y0074145D01*
X0032630Y0074559D01*
X0033127Y0075056D01*
X0033540Y0075625D01*
X0033860Y0076252D01*
X0034077Y0076921D01*
X0034166Y0077483D01*
X0033895Y0076362D02*
X0048808Y0076362D01*
X0047810Y0075363D02*
X0033350Y0075363D01*
X0032362Y0074365D02*
X0046811Y0074365D01*
X0045813Y0073366D02*
X0028313Y0073366D01*
X0029234Y0074365D02*
X0030203Y0074365D01*
X0030203Y0075363D02*
X0029234Y0075363D01*
X0029234Y0076362D02*
X0030203Y0076362D01*
X0030203Y0077360D02*
X0029234Y0077360D01*
X0030203Y0078359D02*
X0050805Y0078359D01*
X0051804Y0079357D02*
X0033965Y0079357D01*
X0033506Y0080356D02*
X0052802Y0080356D01*
X0053801Y0081354D02*
X0032651Y0081354D01*
X0030593Y0082353D02*
X0054799Y0082353D01*
X0058793Y0078262D02*
X0040781Y0060250D01*
X0029719Y0060250D01*
X0025155Y0061384D02*
X0024290Y0061384D01*
X0032357Y0064187D02*
X0033660Y0065491D01*
X0033848Y0065943D01*
X0043390Y0065943D01*
X0039878Y0062432D01*
X0033848Y0062432D01*
X0033660Y0062884D01*
X0032357Y0064187D01*
X0032549Y0064379D02*
X0041826Y0064379D01*
X0040827Y0063381D02*
X0033164Y0063381D01*
X0033547Y0065378D02*
X0042824Y0065378D01*
X0042817Y0070371D02*
X0033821Y0070371D01*
X0033050Y0071369D02*
X0043815Y0071369D01*
X0044814Y0072368D02*
X0031625Y0072368D01*
X0017685Y0067375D02*
X0007968Y0067375D01*
X0007968Y0068373D02*
X0016615Y0068373D01*
X0015626Y0069372D02*
X0007968Y0069372D01*
X0007968Y0070371D02*
X0015213Y0070371D01*
X0014799Y0071369D02*
X0007968Y0071369D01*
X0007968Y0072368D02*
X0014589Y0072368D01*
X0014589Y0073366D02*
X0007968Y0073366D01*
X0007968Y0074365D02*
X0014589Y0074365D01*
X0014902Y0075363D02*
X0007968Y0075363D01*
X0007968Y0076362D02*
X0015315Y0076362D01*
X0015864Y0077360D02*
X0007968Y0077360D01*
X0007968Y0078359D02*
X0016862Y0078359D01*
X0018281Y0079357D02*
X0007968Y0079357D01*
X0007968Y0080356D02*
X0017677Y0080356D01*
X0016241Y0081354D02*
X0007968Y0081354D01*
X0007968Y0082353D02*
X0015314Y0082353D01*
X0014642Y0083351D02*
X0007968Y0083351D01*
X0007968Y0084350D02*
X0014163Y0084350D01*
X0013845Y0085348D02*
X0007968Y0085348D01*
X0007968Y0086347D02*
X0013667Y0086347D01*
X0007968Y0087345D02*
X0020951Y0087345D01*
X0013913Y0089342D02*
X0007968Y0089342D01*
X0007968Y0088344D02*
X0013701Y0088344D01*
X0014268Y0090341D02*
X0007968Y0090341D01*
X0007968Y0091339D02*
X0014787Y0091339D01*
X0015508Y0092338D02*
X0007968Y0092338D01*
X0007968Y0093336D02*
X0016560Y0093336D01*
X0029201Y0088344D02*
X0054419Y0088344D01*
X0030203Y0082353D02*
X0029234Y0082353D01*
X0028844Y0082353D02*
X0027587Y0082353D01*
X0026786Y0081354D02*
X0026660Y0081354D01*
X0025931Y0080356D02*
X0025224Y0080356D01*
X0025472Y0079357D02*
X0024621Y0079357D01*
X0029234Y0079357D02*
X0030203Y0079357D01*
X0030203Y0080356D02*
X0029234Y0080356D01*
X0029234Y0081354D02*
X0030203Y0081354D01*
X0058793Y0078262D02*
X0065447Y0078262D01*
X0076541Y0068373D02*
X0089356Y0068373D01*
X0089356Y0067375D02*
X0077540Y0067375D01*
X0078538Y0066376D02*
X0089356Y0066376D01*
X0089356Y0065378D02*
X0079537Y0065378D01*
X0080535Y0064379D02*
X0089356Y0064379D01*
X0089537Y0063381D02*
X0081534Y0063381D01*
X0082532Y0062382D02*
X0089537Y0062382D01*
X0089356Y0061384D02*
X0083531Y0061384D01*
X0084529Y0060385D02*
X0089356Y0060385D01*
X0089356Y0059387D02*
X0085528Y0059387D01*
X0086526Y0058388D02*
X0089356Y0058388D01*
X0127219Y0062947D02*
X0128478Y0061687D01*
X0132219Y0061687D01*
X0132219Y0064187D01*
X0132219Y0061687D02*
X0133144Y0060762D01*
X0137789Y0060762D01*
X0132020Y0058802D02*
X0131491Y0059331D01*
X0130962Y0058802D01*
X0132020Y0058802D01*
X0141833Y0060094D02*
X0141833Y0062246D01*
X0141742Y0062337D01*
X0141833Y0062428D01*
X0141833Y0065396D01*
X0141742Y0065487D01*
X0141833Y0065578D01*
X0141833Y0067730D01*
X0142237Y0067730D01*
X0142237Y0060215D01*
X0142116Y0060094D01*
X0141833Y0060094D01*
X0141833Y0060385D02*
X0142237Y0060385D01*
X0142237Y0061384D02*
X0141833Y0061384D01*
X0141787Y0062382D02*
X0142237Y0062382D01*
X0142237Y0063381D02*
X0141833Y0063381D01*
X0141833Y0064379D02*
X0142237Y0064379D01*
X0142237Y0065378D02*
X0141833Y0065378D01*
X0141833Y0066376D02*
X0142237Y0066376D01*
X0142237Y0067375D02*
X0141833Y0067375D01*
X0133746Y0067375D02*
X0131852Y0067375D01*
X0131852Y0067172D02*
X0131742Y0067062D01*
X0132790Y0067062D01*
X0133746Y0066666D01*
X0133746Y0067730D01*
X0133201Y0067730D01*
X0132289Y0068108D01*
X0132006Y0068391D01*
X0131862Y0068247D01*
X0131852Y0068247D01*
X0131852Y0067172D01*
X0131989Y0068373D02*
X0132024Y0068373D01*
X0121315Y0071369D02*
X0119171Y0071369D01*
X0119171Y0072368D02*
X0122314Y0072368D01*
X0122585Y0073366D02*
X0119123Y0073366D01*
X0121207Y0074365D02*
X0122207Y0074365D01*
X0122207Y0075363D02*
X0121207Y0075363D01*
X0121207Y0076362D02*
X0122207Y0076362D01*
X0122207Y0077360D02*
X0121207Y0077360D01*
X0126356Y0077360D02*
X0127900Y0077360D01*
X0127900Y0076362D02*
X0126356Y0076362D01*
X0126334Y0075363D02*
X0127900Y0075363D01*
X0127900Y0078359D02*
X0126356Y0078359D01*
X0122207Y0080356D02*
X0121207Y0080356D01*
X0121207Y0081354D02*
X0122207Y0081354D01*
X0122207Y0082353D02*
X0121207Y0082353D01*
X0121207Y0083351D02*
X0122207Y0083351D01*
X0136638Y0084350D02*
X0142719Y0084350D01*
X0142719Y0083351D02*
X0137561Y0083351D01*
X0137561Y0082353D02*
X0142921Y0082353D01*
X0143357Y0081354D02*
X0137561Y0081354D01*
X0137561Y0080356D02*
X0144186Y0080356D01*
X0153144Y0076117D02*
X0153144Y0060762D01*
X0154719Y0059187D01*
X0171648Y0060762D02*
X0176972Y0060762D01*
X0178547Y0059187D01*
X0175767Y0058388D02*
X0175691Y0058388D01*
X0175691Y0058571D02*
X0175691Y0056644D01*
X0177175Y0056644D01*
X0176919Y0056750D01*
X0176110Y0057559D01*
X0175691Y0058571D01*
X0175691Y0057390D02*
X0176279Y0057390D01*
X0179919Y0056644D02*
X0180176Y0056750D01*
X0180984Y0057559D01*
X0181422Y0058616D01*
X0181422Y0058788D01*
X0184984Y0058788D01*
X0182841Y0056644D01*
X0179919Y0056644D01*
X0180815Y0057390D02*
X0183586Y0057390D01*
X0184585Y0058388D02*
X0181328Y0058388D01*
X0184797Y0062937D02*
X0183547Y0064187D01*
X0184797Y0062937D02*
X0198321Y0062937D01*
X0198321Y0064906D02*
X0186844Y0064906D01*
X0183813Y0067938D01*
X0186330Y0069372D02*
X0189672Y0069372D01*
X0189314Y0068373D02*
X0186688Y0068373D01*
X0187460Y0067375D02*
X0189314Y0067375D01*
X0192189Y0067938D02*
X0193252Y0066875D01*
X0198321Y0066875D01*
X0199809Y0069372D02*
X0194706Y0069372D01*
X0193822Y0070371D02*
X0199809Y0070371D01*
X0205939Y0070556D02*
X0205939Y0072938D01*
X0207189Y0074188D01*
X0208439Y0074188D01*
X0208439Y0079197D01*
X0207179Y0077938D02*
X0199689Y0077938D01*
X0198951Y0078676D01*
X0198951Y0082938D01*
X0194120Y0083351D02*
X0188427Y0083351D01*
X0188427Y0082353D02*
X0187427Y0082353D01*
X0187427Y0083351D02*
X0181900Y0083351D01*
X0181900Y0084350D02*
X0183278Y0084350D01*
X0183278Y0085348D02*
X0181900Y0085348D01*
X0187427Y0085348D02*
X0188427Y0085348D01*
X0188427Y0084350D02*
X0187427Y0084350D01*
X0192577Y0084350D02*
X0194120Y0084350D01*
X0194120Y0085348D02*
X0192577Y0085348D01*
X0192577Y0086347D02*
X0194120Y0086347D01*
X0194288Y0087345D02*
X0192310Y0087345D01*
X0188427Y0087345D02*
X0187427Y0087345D01*
X0187427Y0086347D02*
X0188427Y0086347D01*
X0192577Y0082353D02*
X0194120Y0082353D01*
X0194120Y0081354D02*
X0192577Y0081354D01*
X0192577Y0080356D02*
X0194120Y0080356D01*
X0194120Y0079357D02*
X0192577Y0079357D01*
X0192162Y0078359D02*
X0194459Y0078359D01*
X0197182Y0077360D02*
X0179400Y0077360D01*
X0179400Y0076362D02*
X0198180Y0076362D01*
X0204384Y0075363D02*
X0179400Y0075363D01*
X0179400Y0074365D02*
X0204282Y0074365D01*
X0200432Y0073366D02*
X0179400Y0073366D01*
X0169467Y0073366D02*
X0168211Y0073366D01*
X0168211Y0074365D02*
X0169467Y0074365D01*
X0169467Y0075363D02*
X0168211Y0075363D01*
X0168211Y0076362D02*
X0169467Y0076362D01*
X0169467Y0077360D02*
X0168211Y0077360D01*
X0168211Y0078359D02*
X0169467Y0078359D01*
X0171648Y0079758D02*
X0167219Y0084188D01*
X0167219Y0086687D01*
X0181732Y0082353D02*
X0183278Y0082353D01*
X0183278Y0081354D02*
X0181319Y0081354D01*
X0180507Y0080356D02*
X0183278Y0080356D01*
X0183278Y0079357D02*
X0179400Y0079357D01*
X0179400Y0078359D02*
X0183692Y0078359D01*
X0187427Y0078359D02*
X0188427Y0078359D01*
X0188427Y0079357D02*
X0187427Y0079357D01*
X0187427Y0080356D02*
X0188427Y0080356D01*
X0188427Y0081354D02*
X0187427Y0081354D01*
X0171648Y0079758D02*
X0171648Y0070211D01*
X0168277Y0072368D02*
X0167520Y0072368D01*
X0163469Y0067938D02*
X0162593Y0068813D01*
X0162593Y0076117D01*
X0185446Y0070371D02*
X0190556Y0070371D01*
X0208439Y0074188D02*
X0209689Y0074188D01*
X0209876Y0074000D01*
X0209876Y0070556D01*
X0217189Y0067938D02*
X0218449Y0069197D01*
X0222189Y0069197D01*
X0230939Y0069197D01*
X0226869Y0065378D02*
X0226259Y0065378D01*
X0226126Y0064379D02*
X0227002Y0064379D01*
X0217189Y0060437D02*
X0217189Y0054187D01*
X0218439Y0052937D01*
X0222179Y0052937D01*
X0222189Y0052947D01*
X0222189Y0045447D01*
X0223449Y0044187D01*
X0230929Y0044187D02*
X0238439Y0044187D01*
X0239689Y0045437D01*
X0239689Y0047947D01*
X0239699Y0047937D01*
X0242189Y0047937D01*
X0245929Y0051678D01*
X0248439Y0051678D01*
X0253073Y0051399D02*
X0254209Y0051399D01*
X0254209Y0052397D02*
X0253073Y0052397D01*
X0253073Y0053396D02*
X0254768Y0053396D01*
X0253073Y0054394D02*
X0261603Y0054394D01*
X0261305Y0055393D02*
X0252613Y0055393D01*
X0259772Y0056391D02*
X0261305Y0056391D01*
X0261305Y0057390D02*
X0260169Y0057390D01*
X0260169Y0058388D02*
X0261305Y0058388D01*
X0261305Y0059387D02*
X0260169Y0059387D01*
X0260169Y0060385D02*
X0261305Y0060385D01*
X0261486Y0061384D02*
X0260169Y0061384D01*
X0260169Y0062382D02*
X0261305Y0062382D01*
X0261305Y0063381D02*
X0260169Y0063381D01*
X0259876Y0064379D02*
X0261305Y0064379D01*
X0261305Y0065378D02*
X0261259Y0065378D01*
X0255929Y0067938D02*
X0255929Y0060437D01*
X0248449Y0060437D02*
X0248439Y0060447D01*
X0248439Y0069197D01*
X0239689Y0069197D01*
X0243838Y0072938D02*
X0244217Y0073317D01*
X0244286Y0073198D01*
X0244418Y0073066D01*
X0244064Y0072712D01*
X0243838Y0072938D01*
X0235540Y0072938D02*
X0235314Y0072712D01*
X0235088Y0072937D01*
X0235314Y0073163D01*
X0235540Y0072938D01*
X0239689Y0076678D02*
X0230939Y0076678D01*
X0226790Y0072937D02*
X0226564Y0073163D01*
X0226338Y0072937D01*
X0226564Y0072712D01*
X0226790Y0072937D01*
X0214179Y0075363D02*
X0212494Y0075363D01*
X0213073Y0076362D02*
X0213180Y0076362D01*
X0216354Y0079357D02*
X0217555Y0079357D01*
X0217978Y0080356D02*
X0215355Y0080356D01*
X0214357Y0081354D02*
X0288540Y0081354D01*
X0288622Y0082353D02*
X0213073Y0082353D01*
X0226400Y0080356D02*
X0226728Y0080356D01*
X0235150Y0080356D02*
X0235478Y0080356D01*
X0243900Y0080356D02*
X0244484Y0080356D01*
X0247939Y0080356D02*
X0248939Y0080356D01*
X0248939Y0079357D02*
X0247939Y0079357D01*
X0247939Y0078359D02*
X0248939Y0078359D01*
X0248939Y0077360D02*
X0247939Y0077360D01*
X0248939Y0077178D02*
X0248939Y0076178D01*
X0252736Y0076178D01*
X0256689Y0076178D01*
X0256689Y0077178D01*
X0248939Y0077178D01*
X0248939Y0076362D02*
X0256689Y0076362D01*
X0252814Y0073631D02*
X0252838Y0073540D01*
X0253036Y0073198D01*
X0253168Y0073066D01*
X0252814Y0072712D01*
X0252460Y0073066D01*
X0252592Y0073198D01*
X0252789Y0073540D01*
X0252814Y0073631D01*
X0252689Y0073366D02*
X0252939Y0073366D01*
X0253234Y0080356D02*
X0252394Y0080356D01*
X0297790Y0075363D02*
X0298790Y0075363D01*
X0298790Y0074365D02*
X0297790Y0074365D01*
X0297790Y0073366D02*
X0298790Y0073366D01*
X0298790Y0072368D02*
X0297790Y0072368D01*
X0297790Y0071369D02*
X0298790Y0071369D01*
X0298790Y0070371D02*
X0297790Y0070371D01*
X0265939Y0057947D02*
X0265939Y0049197D01*
X0265929Y0049187D01*
X0262248Y0053396D02*
X0262130Y0053396D01*
X0254209Y0050400D02*
X0253073Y0050400D01*
X0235540Y0051687D02*
X0235392Y0051539D01*
X0235392Y0051836D01*
X0235540Y0051687D01*
X0235055Y0052447D02*
X0231439Y0052447D01*
X0231439Y0048888D01*
X0234089Y0048888D01*
X0234471Y0048991D01*
X0234813Y0049188D01*
X0235055Y0049430D01*
X0235055Y0047951D01*
X0234185Y0048821D01*
X0227674Y0048821D01*
X0227189Y0048337D01*
X0226704Y0048821D01*
X0225952Y0048821D01*
X0226717Y0049586D01*
X0226786Y0049467D01*
X0227065Y0049188D01*
X0227407Y0048991D01*
X0227789Y0048888D01*
X0230439Y0048888D01*
X0230439Y0052447D01*
X0231439Y0052447D01*
X0231439Y0053447D01*
X0235055Y0053447D01*
X0235055Y0052447D01*
X0235055Y0053396D02*
X0231439Y0053396D01*
X0231439Y0052397D02*
X0230439Y0052397D01*
X0230439Y0052447D02*
X0226823Y0052447D01*
X0226823Y0053447D01*
X0230439Y0053447D01*
X0230439Y0052447D01*
X0230439Y0053396D02*
X0226823Y0053396D01*
X0230439Y0051399D02*
X0231439Y0051399D01*
X0231439Y0050400D02*
X0230439Y0050400D01*
X0230439Y0049402D02*
X0231439Y0049402D01*
X0234603Y0048403D02*
X0235055Y0048403D01*
X0235027Y0049402D02*
X0235055Y0049402D01*
X0227256Y0048403D02*
X0227122Y0048403D01*
X0226851Y0049402D02*
X0226533Y0049402D01*
X0205939Y0055319D02*
X0205939Y0062937D01*
X0208439Y0060437D01*
X0213557Y0060969D02*
X0216657Y0060969D01*
X0217189Y0060437D01*
X0213557Y0059000D02*
X0213557Y0039306D01*
X0213439Y0039188D01*
X0211376Y0041414D02*
X0206896Y0041414D01*
X0207094Y0042412D02*
X0211376Y0042412D01*
X0203963Y0041414D02*
X0203683Y0041414D01*
X0183805Y0045408D02*
X0167807Y0045408D01*
X0162593Y0042258D02*
X0162593Y0037563D01*
X0163469Y0036688D01*
X0203823Y0049936D02*
X0203970Y0050083D01*
X0203970Y0055319D01*
X0200543Y0052397D02*
X0198522Y0052397D01*
X0199008Y0051399D02*
X0200370Y0051399D01*
X0226338Y0056687D02*
X0226564Y0056913D01*
X0226918Y0056559D01*
X0226786Y0056427D01*
X0226717Y0056308D01*
X0226338Y0056687D01*
X0226634Y0056391D02*
X0226765Y0056391D01*
X0234960Y0056559D02*
X0235055Y0056464D01*
X0235055Y0056655D01*
X0234960Y0056559D01*
X0281030Y0051399D02*
X0282098Y0051399D01*
X0281356Y0050400D02*
X0288540Y0050400D01*
X0297790Y0048403D02*
X0298790Y0048403D01*
X0298790Y0047405D02*
X0297790Y0047405D01*
X0297790Y0046406D02*
X0298790Y0046406D01*
X0298790Y0045408D02*
X0297790Y0045408D01*
X0297790Y0044409D02*
X0298790Y0044409D01*
X0298790Y0043411D02*
X0297790Y0043411D01*
X0297790Y0042412D02*
X0298790Y0042412D01*
X0277189Y0039197D02*
X0277179Y0039188D01*
X0148939Y0051399D02*
X0147200Y0051399D01*
X0147200Y0052397D02*
X0147443Y0052397D01*
X0137789Y0054463D02*
X0130053Y0054463D01*
X0129758Y0054168D01*
X0115218Y0072368D02*
X0114219Y0072368D01*
X0114219Y0073366D02*
X0115218Y0073366D01*
X0115218Y0074365D02*
X0114219Y0074365D01*
X0203613Y0087345D02*
X0203986Y0087345D01*
D30*
X0199335Y0082554D02*
X0198951Y0082938D01*
X0199335Y0082554D02*
X0199335Y0082524D01*
X0144719Y0069188D02*
X0144719Y0059187D01*
X0143469Y0057937D01*
X0144719Y0056687D01*
X0144719Y0049187D01*
X0145742Y0048164D01*
X0171648Y0048164D01*
X0188203Y0048164D01*
X0188439Y0048006D02*
X0188508Y0048075D01*
X0188439Y0048006D02*
X0188439Y0047928D01*
X0143469Y0057937D02*
X0143144Y0057613D01*
X0137789Y0057613D01*
X0109719Y0054207D02*
X0109719Y0039247D01*
X0109679Y0039207D01*
X0109679Y0054168D02*
X0108616Y0055231D01*
X0093990Y0055231D01*
X0086175Y0055231D01*
X0072219Y0069188D01*
X0072219Y0074719D01*
X0071234Y0075703D01*
X0065447Y0075703D01*
X0071234Y0075703D02*
X0072219Y0076688D01*
X0072219Y0086687D01*
X0069719Y0089187D01*
X0085978Y0089187D01*
X0093459Y0089187D02*
X0093990Y0088656D01*
X0093990Y0080821D01*
X0069719Y0089187D02*
X0065959Y0089187D01*
X0132219Y0078676D02*
X0132219Y0071688D01*
X0133695Y0070211D01*
X0137789Y0070211D01*
X0143695Y0070211D01*
X0144719Y0069188D01*
X0132730Y0079188D02*
X0132219Y0078676D01*
X0065447Y0068026D02*
X0058557Y0068026D01*
X0055093Y0064562D01*
X0055093Y0051687D01*
X0055093Y0040073D01*
X0054207Y0039188D01*
X0043459Y0039188D02*
X0043459Y0042947D01*
X0039719Y0046687D01*
X0039719Y0051313D01*
X0039344Y0051687D01*
X0038065Y0050408D01*
X0029719Y0050408D01*
X0265732Y0039188D02*
X0277179Y0039188D01*
X0277189Y0046678D02*
X0277189Y0055447D01*
X0285939Y0055447D01*
X0285939Y0062928D02*
X0298201Y0062928D01*
X0298290Y0062839D01*
X0285939Y0062928D02*
X0285939Y0070428D01*
D31*
X0199335Y0082524D03*
X0188508Y0048075D03*
M02*
