G75*
%MOIN*%
%OFA0B0*%
%FSLAX25Y25*%
%IPPOS*%
%LPD*%
%AMOC8*
5,1,8,0,0,1.08239X$1,22.5*
%
%ADD10C,0.00000*%
D10*
X0003469Y0025437D02*
X0003469Y0100241D01*
X0306618Y0100241D01*
X0306618Y0025437D01*
X0003469Y0025437D01*
X0019089Y0055132D02*
X0019091Y0055229D01*
X0019097Y0055326D01*
X0019107Y0055422D01*
X0019121Y0055518D01*
X0019139Y0055614D01*
X0019160Y0055708D01*
X0019186Y0055802D01*
X0019215Y0055894D01*
X0019249Y0055985D01*
X0019285Y0056075D01*
X0019326Y0056163D01*
X0019370Y0056249D01*
X0019418Y0056334D01*
X0019469Y0056416D01*
X0019523Y0056497D01*
X0019581Y0056575D01*
X0019642Y0056650D01*
X0019705Y0056723D01*
X0019772Y0056794D01*
X0019842Y0056861D01*
X0019914Y0056926D01*
X0019989Y0056987D01*
X0020067Y0057046D01*
X0020146Y0057101D01*
X0020228Y0057153D01*
X0020312Y0057201D01*
X0020398Y0057246D01*
X0020486Y0057288D01*
X0020575Y0057326D01*
X0020666Y0057360D01*
X0020758Y0057390D01*
X0020851Y0057417D01*
X0020946Y0057439D01*
X0021041Y0057458D01*
X0021137Y0057473D01*
X0021233Y0057484D01*
X0021330Y0057491D01*
X0021427Y0057494D01*
X0021524Y0057493D01*
X0021621Y0057488D01*
X0021717Y0057479D01*
X0021813Y0057466D01*
X0021909Y0057449D01*
X0022004Y0057428D01*
X0022097Y0057404D01*
X0022190Y0057375D01*
X0022282Y0057343D01*
X0022372Y0057307D01*
X0022460Y0057268D01*
X0022547Y0057224D01*
X0022632Y0057178D01*
X0022715Y0057127D01*
X0022796Y0057074D01*
X0022874Y0057017D01*
X0022951Y0056957D01*
X0023024Y0056894D01*
X0023095Y0056828D01*
X0023163Y0056759D01*
X0023229Y0056687D01*
X0023291Y0056613D01*
X0023350Y0056536D01*
X0023406Y0056457D01*
X0023459Y0056375D01*
X0023509Y0056292D01*
X0023554Y0056206D01*
X0023597Y0056119D01*
X0023636Y0056030D01*
X0023671Y0055940D01*
X0023702Y0055848D01*
X0023729Y0055755D01*
X0023753Y0055661D01*
X0023773Y0055566D01*
X0023789Y0055470D01*
X0023801Y0055374D01*
X0023809Y0055277D01*
X0023813Y0055180D01*
X0023813Y0055084D01*
X0023809Y0054987D01*
X0023801Y0054890D01*
X0023789Y0054794D01*
X0023773Y0054698D01*
X0023753Y0054603D01*
X0023729Y0054509D01*
X0023702Y0054416D01*
X0023671Y0054324D01*
X0023636Y0054234D01*
X0023597Y0054145D01*
X0023554Y0054058D01*
X0023509Y0053972D01*
X0023459Y0053889D01*
X0023406Y0053807D01*
X0023350Y0053728D01*
X0023291Y0053651D01*
X0023229Y0053577D01*
X0023163Y0053505D01*
X0023095Y0053436D01*
X0023024Y0053370D01*
X0022951Y0053307D01*
X0022874Y0053247D01*
X0022796Y0053190D01*
X0022715Y0053137D01*
X0022632Y0053086D01*
X0022547Y0053040D01*
X0022460Y0052996D01*
X0022372Y0052957D01*
X0022282Y0052921D01*
X0022190Y0052889D01*
X0022097Y0052860D01*
X0022004Y0052836D01*
X0021909Y0052815D01*
X0021813Y0052798D01*
X0021717Y0052785D01*
X0021621Y0052776D01*
X0021524Y0052771D01*
X0021427Y0052770D01*
X0021330Y0052773D01*
X0021233Y0052780D01*
X0021137Y0052791D01*
X0021041Y0052806D01*
X0020946Y0052825D01*
X0020851Y0052847D01*
X0020758Y0052874D01*
X0020666Y0052904D01*
X0020575Y0052938D01*
X0020486Y0052976D01*
X0020398Y0053018D01*
X0020312Y0053063D01*
X0020228Y0053111D01*
X0020146Y0053163D01*
X0020067Y0053218D01*
X0019989Y0053277D01*
X0019914Y0053338D01*
X0019842Y0053403D01*
X0019772Y0053470D01*
X0019705Y0053541D01*
X0019642Y0053614D01*
X0019581Y0053689D01*
X0019523Y0053767D01*
X0019469Y0053848D01*
X0019418Y0053930D01*
X0019370Y0054015D01*
X0019326Y0054101D01*
X0019285Y0054189D01*
X0019249Y0054279D01*
X0019215Y0054370D01*
X0019186Y0054462D01*
X0019160Y0054556D01*
X0019139Y0054650D01*
X0019121Y0054746D01*
X0019107Y0054842D01*
X0019097Y0054938D01*
X0019091Y0055035D01*
X0019089Y0055132D01*
X0019089Y0073243D02*
X0019091Y0073340D01*
X0019097Y0073437D01*
X0019107Y0073533D01*
X0019121Y0073629D01*
X0019139Y0073725D01*
X0019160Y0073819D01*
X0019186Y0073913D01*
X0019215Y0074005D01*
X0019249Y0074096D01*
X0019285Y0074186D01*
X0019326Y0074274D01*
X0019370Y0074360D01*
X0019418Y0074445D01*
X0019469Y0074527D01*
X0019523Y0074608D01*
X0019581Y0074686D01*
X0019642Y0074761D01*
X0019705Y0074834D01*
X0019772Y0074905D01*
X0019842Y0074972D01*
X0019914Y0075037D01*
X0019989Y0075098D01*
X0020067Y0075157D01*
X0020146Y0075212D01*
X0020228Y0075264D01*
X0020312Y0075312D01*
X0020398Y0075357D01*
X0020486Y0075399D01*
X0020575Y0075437D01*
X0020666Y0075471D01*
X0020758Y0075501D01*
X0020851Y0075528D01*
X0020946Y0075550D01*
X0021041Y0075569D01*
X0021137Y0075584D01*
X0021233Y0075595D01*
X0021330Y0075602D01*
X0021427Y0075605D01*
X0021524Y0075604D01*
X0021621Y0075599D01*
X0021717Y0075590D01*
X0021813Y0075577D01*
X0021909Y0075560D01*
X0022004Y0075539D01*
X0022097Y0075515D01*
X0022190Y0075486D01*
X0022282Y0075454D01*
X0022372Y0075418D01*
X0022460Y0075379D01*
X0022547Y0075335D01*
X0022632Y0075289D01*
X0022715Y0075238D01*
X0022796Y0075185D01*
X0022874Y0075128D01*
X0022951Y0075068D01*
X0023024Y0075005D01*
X0023095Y0074939D01*
X0023163Y0074870D01*
X0023229Y0074798D01*
X0023291Y0074724D01*
X0023350Y0074647D01*
X0023406Y0074568D01*
X0023459Y0074486D01*
X0023509Y0074403D01*
X0023554Y0074317D01*
X0023597Y0074230D01*
X0023636Y0074141D01*
X0023671Y0074051D01*
X0023702Y0073959D01*
X0023729Y0073866D01*
X0023753Y0073772D01*
X0023773Y0073677D01*
X0023789Y0073581D01*
X0023801Y0073485D01*
X0023809Y0073388D01*
X0023813Y0073291D01*
X0023813Y0073195D01*
X0023809Y0073098D01*
X0023801Y0073001D01*
X0023789Y0072905D01*
X0023773Y0072809D01*
X0023753Y0072714D01*
X0023729Y0072620D01*
X0023702Y0072527D01*
X0023671Y0072435D01*
X0023636Y0072345D01*
X0023597Y0072256D01*
X0023554Y0072169D01*
X0023509Y0072083D01*
X0023459Y0072000D01*
X0023406Y0071918D01*
X0023350Y0071839D01*
X0023291Y0071762D01*
X0023229Y0071688D01*
X0023163Y0071616D01*
X0023095Y0071547D01*
X0023024Y0071481D01*
X0022951Y0071418D01*
X0022874Y0071358D01*
X0022796Y0071301D01*
X0022715Y0071248D01*
X0022632Y0071197D01*
X0022547Y0071151D01*
X0022460Y0071107D01*
X0022372Y0071068D01*
X0022282Y0071032D01*
X0022190Y0071000D01*
X0022097Y0070971D01*
X0022004Y0070947D01*
X0021909Y0070926D01*
X0021813Y0070909D01*
X0021717Y0070896D01*
X0021621Y0070887D01*
X0021524Y0070882D01*
X0021427Y0070881D01*
X0021330Y0070884D01*
X0021233Y0070891D01*
X0021137Y0070902D01*
X0021041Y0070917D01*
X0020946Y0070936D01*
X0020851Y0070958D01*
X0020758Y0070985D01*
X0020666Y0071015D01*
X0020575Y0071049D01*
X0020486Y0071087D01*
X0020398Y0071129D01*
X0020312Y0071174D01*
X0020228Y0071222D01*
X0020146Y0071274D01*
X0020067Y0071329D01*
X0019989Y0071388D01*
X0019914Y0071449D01*
X0019842Y0071514D01*
X0019772Y0071581D01*
X0019705Y0071652D01*
X0019642Y0071725D01*
X0019581Y0071800D01*
X0019523Y0071878D01*
X0019469Y0071959D01*
X0019418Y0072041D01*
X0019370Y0072126D01*
X0019326Y0072212D01*
X0019285Y0072300D01*
X0019249Y0072390D01*
X0019215Y0072481D01*
X0019186Y0072573D01*
X0019160Y0072667D01*
X0019139Y0072761D01*
X0019121Y0072857D01*
X0019107Y0072953D01*
X0019097Y0073049D01*
X0019091Y0073146D01*
X0019089Y0073243D01*
X0306618Y0084839D02*
X0306618Y0040839D01*
M02*
