G75*
%MOIN*%
%OFA0B0*%
%FSLAX25Y25*%
%IPPOS*%
%LPD*%
%AMOC8*
5,1,8,0,0,1.08239X$1,22.5*
%
%ADD10C,0.00000*%
%ADD11C,0.00600*%
%ADD12C,0.00400*%
%ADD13R,0.05709X0.02953*%
%ADD14R,0.02953X0.06693*%
%ADD15R,0.02953X0.05709*%
%ADD16C,0.00800*%
%ADD17C,0.03482*%
%ADD18R,0.05100X0.01400*%
%ADD19R,0.02000X0.02000*%
%ADD20R,0.05512X0.02559*%
%ADD21R,0.02559X0.05512*%
%ADD22C,0.02000*%
%ADD23C,0.01419*%
%ADD24C,0.00500*%
%ADD25C,0.01181*%
%ADD26C,0.01575*%
%ADD27R,0.01181X0.00984*%
%ADD28C,0.03150*%
%ADD29R,0.03839X0.01181*%
%ADD30R,0.01181X0.03839*%
D10*
X0003469Y0025437D02*
X0003469Y0100241D01*
X0298744Y0100241D01*
X0298744Y0025437D01*
X0003469Y0025437D01*
X0011215Y0055132D02*
X0011217Y0055229D01*
X0011223Y0055326D01*
X0011233Y0055422D01*
X0011247Y0055518D01*
X0011265Y0055614D01*
X0011286Y0055708D01*
X0011312Y0055802D01*
X0011341Y0055894D01*
X0011375Y0055985D01*
X0011411Y0056075D01*
X0011452Y0056163D01*
X0011496Y0056249D01*
X0011544Y0056334D01*
X0011595Y0056416D01*
X0011649Y0056497D01*
X0011707Y0056575D01*
X0011768Y0056650D01*
X0011831Y0056723D01*
X0011898Y0056794D01*
X0011968Y0056861D01*
X0012040Y0056926D01*
X0012115Y0056987D01*
X0012193Y0057046D01*
X0012272Y0057101D01*
X0012354Y0057153D01*
X0012438Y0057201D01*
X0012524Y0057246D01*
X0012612Y0057288D01*
X0012701Y0057326D01*
X0012792Y0057360D01*
X0012884Y0057390D01*
X0012977Y0057417D01*
X0013072Y0057439D01*
X0013167Y0057458D01*
X0013263Y0057473D01*
X0013359Y0057484D01*
X0013456Y0057491D01*
X0013553Y0057494D01*
X0013650Y0057493D01*
X0013747Y0057488D01*
X0013843Y0057479D01*
X0013939Y0057466D01*
X0014035Y0057449D01*
X0014130Y0057428D01*
X0014223Y0057404D01*
X0014316Y0057375D01*
X0014408Y0057343D01*
X0014498Y0057307D01*
X0014586Y0057268D01*
X0014673Y0057224D01*
X0014758Y0057178D01*
X0014841Y0057127D01*
X0014922Y0057074D01*
X0015000Y0057017D01*
X0015077Y0056957D01*
X0015150Y0056894D01*
X0015221Y0056828D01*
X0015289Y0056759D01*
X0015355Y0056687D01*
X0015417Y0056613D01*
X0015476Y0056536D01*
X0015532Y0056457D01*
X0015585Y0056375D01*
X0015635Y0056292D01*
X0015680Y0056206D01*
X0015723Y0056119D01*
X0015762Y0056030D01*
X0015797Y0055940D01*
X0015828Y0055848D01*
X0015855Y0055755D01*
X0015879Y0055661D01*
X0015899Y0055566D01*
X0015915Y0055470D01*
X0015927Y0055374D01*
X0015935Y0055277D01*
X0015939Y0055180D01*
X0015939Y0055084D01*
X0015935Y0054987D01*
X0015927Y0054890D01*
X0015915Y0054794D01*
X0015899Y0054698D01*
X0015879Y0054603D01*
X0015855Y0054509D01*
X0015828Y0054416D01*
X0015797Y0054324D01*
X0015762Y0054234D01*
X0015723Y0054145D01*
X0015680Y0054058D01*
X0015635Y0053972D01*
X0015585Y0053889D01*
X0015532Y0053807D01*
X0015476Y0053728D01*
X0015417Y0053651D01*
X0015355Y0053577D01*
X0015289Y0053505D01*
X0015221Y0053436D01*
X0015150Y0053370D01*
X0015077Y0053307D01*
X0015000Y0053247D01*
X0014922Y0053190D01*
X0014841Y0053137D01*
X0014758Y0053086D01*
X0014673Y0053040D01*
X0014586Y0052996D01*
X0014498Y0052957D01*
X0014408Y0052921D01*
X0014316Y0052889D01*
X0014223Y0052860D01*
X0014130Y0052836D01*
X0014035Y0052815D01*
X0013939Y0052798D01*
X0013843Y0052785D01*
X0013747Y0052776D01*
X0013650Y0052771D01*
X0013553Y0052770D01*
X0013456Y0052773D01*
X0013359Y0052780D01*
X0013263Y0052791D01*
X0013167Y0052806D01*
X0013072Y0052825D01*
X0012977Y0052847D01*
X0012884Y0052874D01*
X0012792Y0052904D01*
X0012701Y0052938D01*
X0012612Y0052976D01*
X0012524Y0053018D01*
X0012438Y0053063D01*
X0012354Y0053111D01*
X0012272Y0053163D01*
X0012193Y0053218D01*
X0012115Y0053277D01*
X0012040Y0053338D01*
X0011968Y0053403D01*
X0011898Y0053470D01*
X0011831Y0053541D01*
X0011768Y0053614D01*
X0011707Y0053689D01*
X0011649Y0053767D01*
X0011595Y0053848D01*
X0011544Y0053930D01*
X0011496Y0054015D01*
X0011452Y0054101D01*
X0011411Y0054189D01*
X0011375Y0054279D01*
X0011341Y0054370D01*
X0011312Y0054462D01*
X0011286Y0054556D01*
X0011265Y0054650D01*
X0011247Y0054746D01*
X0011233Y0054842D01*
X0011223Y0054938D01*
X0011217Y0055035D01*
X0011215Y0055132D01*
X0011215Y0073243D02*
X0011217Y0073340D01*
X0011223Y0073437D01*
X0011233Y0073533D01*
X0011247Y0073629D01*
X0011265Y0073725D01*
X0011286Y0073819D01*
X0011312Y0073913D01*
X0011341Y0074005D01*
X0011375Y0074096D01*
X0011411Y0074186D01*
X0011452Y0074274D01*
X0011496Y0074360D01*
X0011544Y0074445D01*
X0011595Y0074527D01*
X0011649Y0074608D01*
X0011707Y0074686D01*
X0011768Y0074761D01*
X0011831Y0074834D01*
X0011898Y0074905D01*
X0011968Y0074972D01*
X0012040Y0075037D01*
X0012115Y0075098D01*
X0012193Y0075157D01*
X0012272Y0075212D01*
X0012354Y0075264D01*
X0012438Y0075312D01*
X0012524Y0075357D01*
X0012612Y0075399D01*
X0012701Y0075437D01*
X0012792Y0075471D01*
X0012884Y0075501D01*
X0012977Y0075528D01*
X0013072Y0075550D01*
X0013167Y0075569D01*
X0013263Y0075584D01*
X0013359Y0075595D01*
X0013456Y0075602D01*
X0013553Y0075605D01*
X0013650Y0075604D01*
X0013747Y0075599D01*
X0013843Y0075590D01*
X0013939Y0075577D01*
X0014035Y0075560D01*
X0014130Y0075539D01*
X0014223Y0075515D01*
X0014316Y0075486D01*
X0014408Y0075454D01*
X0014498Y0075418D01*
X0014586Y0075379D01*
X0014673Y0075335D01*
X0014758Y0075289D01*
X0014841Y0075238D01*
X0014922Y0075185D01*
X0015000Y0075128D01*
X0015077Y0075068D01*
X0015150Y0075005D01*
X0015221Y0074939D01*
X0015289Y0074870D01*
X0015355Y0074798D01*
X0015417Y0074724D01*
X0015476Y0074647D01*
X0015532Y0074568D01*
X0015585Y0074486D01*
X0015635Y0074403D01*
X0015680Y0074317D01*
X0015723Y0074230D01*
X0015762Y0074141D01*
X0015797Y0074051D01*
X0015828Y0073959D01*
X0015855Y0073866D01*
X0015879Y0073772D01*
X0015899Y0073677D01*
X0015915Y0073581D01*
X0015927Y0073485D01*
X0015935Y0073388D01*
X0015939Y0073291D01*
X0015939Y0073195D01*
X0015935Y0073098D01*
X0015927Y0073001D01*
X0015915Y0072905D01*
X0015899Y0072809D01*
X0015879Y0072714D01*
X0015855Y0072620D01*
X0015828Y0072527D01*
X0015797Y0072435D01*
X0015762Y0072345D01*
X0015723Y0072256D01*
X0015680Y0072169D01*
X0015635Y0072083D01*
X0015585Y0072000D01*
X0015532Y0071918D01*
X0015476Y0071839D01*
X0015417Y0071762D01*
X0015355Y0071688D01*
X0015289Y0071616D01*
X0015221Y0071547D01*
X0015150Y0071481D01*
X0015077Y0071418D01*
X0015000Y0071358D01*
X0014922Y0071301D01*
X0014841Y0071248D01*
X0014758Y0071197D01*
X0014673Y0071151D01*
X0014586Y0071107D01*
X0014498Y0071068D01*
X0014408Y0071032D01*
X0014316Y0071000D01*
X0014223Y0070971D01*
X0014130Y0070947D01*
X0014035Y0070926D01*
X0013939Y0070909D01*
X0013843Y0070896D01*
X0013747Y0070887D01*
X0013650Y0070882D01*
X0013553Y0070881D01*
X0013456Y0070884D01*
X0013359Y0070891D01*
X0013263Y0070902D01*
X0013167Y0070917D01*
X0013072Y0070936D01*
X0012977Y0070958D01*
X0012884Y0070985D01*
X0012792Y0071015D01*
X0012701Y0071049D01*
X0012612Y0071087D01*
X0012524Y0071129D01*
X0012438Y0071174D01*
X0012354Y0071222D01*
X0012272Y0071274D01*
X0012193Y0071329D01*
X0012115Y0071388D01*
X0012040Y0071449D01*
X0011968Y0071514D01*
X0011898Y0071581D01*
X0011831Y0071652D01*
X0011768Y0071725D01*
X0011707Y0071800D01*
X0011649Y0071878D01*
X0011595Y0071959D01*
X0011544Y0072041D01*
X0011496Y0072126D01*
X0011452Y0072212D01*
X0011411Y0072300D01*
X0011375Y0072390D01*
X0011341Y0072481D01*
X0011312Y0072573D01*
X0011286Y0072667D01*
X0011265Y0072761D01*
X0011247Y0072857D01*
X0011233Y0072953D01*
X0011223Y0073049D01*
X0011217Y0073146D01*
X0011215Y0073243D01*
X0298744Y0084839D02*
X0298744Y0040839D01*
D11*
X0280565Y0057573D02*
X0280565Y0060802D01*
X0275565Y0060802D02*
X0275565Y0057573D01*
X0260565Y0060073D02*
X0260565Y0063302D01*
X0255565Y0063302D02*
X0255565Y0060073D01*
X0245929Y0057937D02*
X0242701Y0057937D01*
X0234315Y0053302D02*
X0234315Y0050073D01*
X0229315Y0050073D02*
X0229315Y0053302D01*
X0216815Y0055073D02*
X0216815Y0058302D01*
X0211815Y0058302D02*
X0211815Y0055073D01*
X0242701Y0062937D02*
X0245929Y0062937D01*
X0234315Y0071323D02*
X0234315Y0074552D01*
X0229315Y0074552D02*
X0229315Y0071323D01*
X0216815Y0071323D02*
X0216815Y0074552D01*
X0211815Y0074552D02*
X0211815Y0071323D01*
X0174344Y0084188D02*
X0171844Y0081688D01*
X0166844Y0081688D01*
X0164344Y0084188D01*
X0161844Y0081688D01*
X0156844Y0081688D01*
X0154344Y0084188D01*
X0151844Y0081688D01*
X0146844Y0081688D01*
X0144344Y0084188D01*
X0141844Y0081688D01*
X0136844Y0081688D01*
X0134344Y0084188D01*
X0134344Y0089187D01*
X0136844Y0091687D01*
X0141844Y0091687D01*
X0144344Y0089187D01*
X0146844Y0091687D01*
X0151844Y0091687D01*
X0154344Y0089187D01*
X0154344Y0084188D01*
X0144344Y0084188D02*
X0144344Y0089187D01*
X0154344Y0089187D02*
X0156844Y0091687D01*
X0161844Y0091687D01*
X0164344Y0089187D01*
X0166844Y0091687D01*
X0171844Y0091687D01*
X0174344Y0089187D01*
X0174344Y0084188D01*
X0164344Y0084188D02*
X0164344Y0089187D01*
X0130817Y0089964D02*
X0129750Y0088896D01*
X0126547Y0088896D01*
X0124372Y0086761D02*
X0122237Y0088896D01*
X0120102Y0086761D01*
X0120102Y0093167D01*
X0117926Y0093167D02*
X0117926Y0086761D01*
X0115791Y0088896D01*
X0113656Y0086761D01*
X0113656Y0093167D01*
X0111481Y0093167D02*
X0107211Y0093167D01*
X0107211Y0089964D01*
X0109346Y0091031D01*
X0110413Y0091031D01*
X0111481Y0089964D01*
X0111481Y0087829D01*
X0110413Y0086761D01*
X0108278Y0086761D01*
X0107211Y0087829D01*
X0105035Y0089964D02*
X0103968Y0088896D01*
X0100765Y0088896D01*
X0098590Y0088896D02*
X0098590Y0087829D01*
X0097522Y0086761D01*
X0095387Y0086761D01*
X0094320Y0087829D01*
X0095387Y0089964D02*
X0097522Y0089964D01*
X0098590Y0088896D01*
X0095387Y0089964D02*
X0094320Y0091031D01*
X0094320Y0092099D01*
X0095387Y0093167D01*
X0097522Y0093167D01*
X0098590Y0092099D01*
X0100765Y0093167D02*
X0103968Y0093167D01*
X0105035Y0092099D01*
X0105035Y0089964D01*
X0100765Y0086761D02*
X0100765Y0093167D01*
X0083459Y0091687D02*
X0080230Y0091687D01*
X0080230Y0086687D02*
X0083459Y0086687D01*
X0124372Y0086761D02*
X0124372Y0093167D01*
X0126547Y0093167D02*
X0129750Y0093167D01*
X0130817Y0092099D01*
X0130817Y0089964D01*
X0126547Y0086761D02*
X0126547Y0093167D01*
X0121844Y0068302D02*
X0121844Y0065073D01*
X0116844Y0065073D02*
X0116844Y0068302D01*
X0219320Y0086761D02*
X0219320Y0093167D01*
X0221455Y0091031D01*
X0223590Y0093167D01*
X0223590Y0086761D01*
X0225765Y0086761D02*
X0230035Y0086761D01*
X0227900Y0086761D02*
X0227900Y0093167D01*
X0225765Y0091031D01*
X0232211Y0093167D02*
X0236481Y0093167D01*
X0236481Y0092099D01*
X0232211Y0087829D01*
X0232211Y0086761D01*
X0238656Y0085694D02*
X0242926Y0085694D01*
X0245102Y0086761D02*
X0245102Y0091031D01*
X0247237Y0093167D01*
X0249372Y0091031D01*
X0249372Y0086761D01*
X0251547Y0086761D02*
X0251547Y0093167D01*
X0255817Y0086761D01*
X0255817Y0093167D01*
X0257993Y0093167D02*
X0257993Y0086761D01*
X0262263Y0086761D01*
X0264438Y0085694D02*
X0268708Y0085694D01*
X0270884Y0086761D02*
X0275154Y0086761D01*
X0273019Y0086761D02*
X0273019Y0093167D01*
X0270884Y0091031D01*
X0277329Y0087829D02*
X0278397Y0087829D01*
X0278397Y0086761D01*
X0277329Y0086761D01*
X0277329Y0087829D01*
X0280552Y0087829D02*
X0281619Y0086761D01*
X0283755Y0086761D01*
X0284822Y0087829D01*
X0284822Y0092099D01*
X0280552Y0087829D01*
X0280552Y0092099D01*
X0281619Y0093167D01*
X0283755Y0093167D01*
X0284822Y0092099D01*
X0249372Y0089964D02*
X0245102Y0089964D01*
D12*
X0203163Y0084438D02*
X0203163Y0081536D01*
X0197967Y0081438D02*
X0197967Y0084438D01*
X0189364Y0086036D02*
X0181766Y0086036D01*
X0181501Y0089614D02*
X0183035Y0091149D01*
X0184570Y0089614D01*
X0184570Y0094218D01*
X0186105Y0094218D02*
X0188407Y0094218D01*
X0189174Y0093450D01*
X0189174Y0090381D01*
X0188407Y0089614D01*
X0186105Y0089614D01*
X0186105Y0094218D01*
X0181501Y0094218D02*
X0181501Y0089614D01*
X0179966Y0090381D02*
X0179199Y0089614D01*
X0177664Y0089614D01*
X0176897Y0090381D01*
X0177664Y0091916D02*
X0179199Y0091916D01*
X0179966Y0091149D01*
X0179966Y0090381D01*
X0177664Y0091916D02*
X0176897Y0092683D01*
X0176897Y0093450D01*
X0177664Y0094218D01*
X0179199Y0094218D01*
X0179966Y0093450D01*
X0181766Y0079839D02*
X0189364Y0079839D01*
X0220467Y0074438D02*
X0220467Y0071438D01*
X0225663Y0071536D02*
X0225663Y0074438D01*
X0237967Y0074438D02*
X0237967Y0071438D01*
X0243163Y0071536D02*
X0243163Y0074438D01*
X0246717Y0074438D02*
X0246717Y0071438D01*
X0251913Y0071536D02*
X0251913Y0074438D01*
X0271565Y0074286D02*
X0274467Y0074286D01*
X0274565Y0069089D02*
X0271565Y0069089D01*
X0271913Y0060687D02*
X0271913Y0057786D01*
X0266717Y0057687D02*
X0266717Y0060687D01*
X0255717Y0051786D02*
X0252815Y0051786D01*
X0243163Y0049437D02*
X0243163Y0046437D01*
X0237967Y0046437D02*
X0237967Y0049339D01*
X0252815Y0046589D02*
X0255815Y0046589D01*
X0266717Y0044437D02*
X0266717Y0041438D01*
X0271913Y0041536D02*
X0271913Y0044437D01*
X0280243Y0039100D02*
X0282545Y0039100D01*
X0283313Y0038332D01*
X0283313Y0036798D01*
X0282545Y0036030D01*
X0280243Y0036030D01*
X0280243Y0034496D02*
X0280243Y0039100D01*
X0284847Y0039100D02*
X0287917Y0039100D01*
X0284847Y0039100D02*
X0284847Y0034496D01*
X0283313Y0034496D02*
X0281778Y0036030D01*
X0284847Y0036798D02*
X0286382Y0036798D01*
X0225663Y0055187D02*
X0225663Y0058187D01*
X0220467Y0058089D02*
X0220467Y0055187D01*
X0220815Y0046786D02*
X0217815Y0046786D01*
X0217913Y0041589D02*
X0220815Y0041589D01*
X0183163Y0042688D02*
X0183163Y0045687D01*
X0177967Y0045589D02*
X0177967Y0042688D01*
X0109443Y0065286D02*
X0109443Y0068188D01*
X0104246Y0068188D02*
X0104246Y0065187D01*
X0115545Y0076089D02*
X0123144Y0076089D01*
X0123144Y0082286D02*
X0115545Y0082286D01*
X0055844Y0086589D02*
X0052844Y0086589D01*
X0041536Y0087428D02*
X0040769Y0086661D01*
X0038467Y0086661D01*
X0038467Y0091265D01*
X0040769Y0091265D01*
X0041536Y0090498D01*
X0041536Y0089730D01*
X0040769Y0088963D01*
X0038467Y0088963D01*
X0036932Y0088196D02*
X0036932Y0087428D01*
X0036165Y0086661D01*
X0034630Y0086661D01*
X0033863Y0087428D01*
X0032328Y0087428D02*
X0031561Y0086661D01*
X0030026Y0086661D01*
X0029259Y0087428D01*
X0029259Y0091265D01*
X0032328Y0091265D02*
X0032328Y0087428D01*
X0034630Y0088963D02*
X0036165Y0088963D01*
X0036932Y0088196D01*
X0034630Y0088963D02*
X0033863Y0089730D01*
X0033863Y0090498D01*
X0034630Y0091265D01*
X0036165Y0091265D01*
X0036932Y0090498D01*
X0040769Y0088963D02*
X0041536Y0088196D01*
X0041536Y0087428D01*
X0052844Y0091786D02*
X0055746Y0091786D01*
X0055644Y0042286D02*
X0048045Y0042286D01*
X0033246Y0041786D02*
X0030344Y0041786D01*
X0030344Y0036589D02*
X0033344Y0036589D01*
X0048045Y0036089D02*
X0055644Y0036089D01*
D13*
X0106840Y0063864D03*
X0106840Y0069564D03*
X0180569Y0047011D03*
X0180569Y0041311D03*
X0223069Y0053811D03*
X0240569Y0050761D03*
X0240569Y0045061D03*
X0269310Y0045814D03*
X0269310Y0040114D03*
X0269310Y0056364D03*
X0269310Y0062064D03*
X0249310Y0070114D03*
X0240560Y0070114D03*
X0223060Y0070114D03*
X0223060Y0075814D03*
X0240560Y0075814D03*
X0249310Y0075814D03*
X0200560Y0080114D03*
X0200560Y0085814D03*
X0223069Y0059511D03*
D14*
X0190788Y0082941D03*
X0180342Y0082934D03*
X0124568Y0079191D03*
X0114121Y0079184D03*
X0057068Y0039191D03*
X0046621Y0039184D03*
D15*
X0034668Y0039183D03*
X0028968Y0039183D03*
X0051468Y0089183D03*
X0057168Y0089183D03*
X0216492Y0044192D03*
X0222192Y0044192D03*
X0251438Y0049183D03*
X0257138Y0049183D03*
X0270188Y0071683D03*
X0275888Y0071683D03*
D16*
X0197720Y0050428D02*
X0197666Y0050430D01*
X0197613Y0050435D01*
X0197560Y0050444D01*
X0197508Y0050457D01*
X0197456Y0050473D01*
X0197406Y0050493D01*
X0197358Y0050516D01*
X0197311Y0050543D01*
X0197266Y0050572D01*
X0197223Y0050605D01*
X0197183Y0050640D01*
X0197145Y0050678D01*
X0197110Y0050718D01*
X0197077Y0050761D01*
X0197048Y0050806D01*
X0197021Y0050853D01*
X0196998Y0050901D01*
X0196978Y0050951D01*
X0196962Y0051003D01*
X0196949Y0051055D01*
X0196940Y0051108D01*
X0196935Y0051161D01*
X0196933Y0051215D01*
X0186697Y0051215D01*
X0186696Y0051215D02*
X0186694Y0051161D01*
X0186689Y0051108D01*
X0186680Y0051055D01*
X0186667Y0051003D01*
X0186651Y0050951D01*
X0186631Y0050901D01*
X0186608Y0050853D01*
X0186581Y0050806D01*
X0186552Y0050761D01*
X0186519Y0050718D01*
X0186484Y0050678D01*
X0186446Y0050640D01*
X0186406Y0050605D01*
X0186363Y0050572D01*
X0186318Y0050543D01*
X0186271Y0050516D01*
X0186223Y0050493D01*
X0186173Y0050473D01*
X0186121Y0050457D01*
X0186069Y0050444D01*
X0186016Y0050435D01*
X0185963Y0050430D01*
X0185909Y0050428D01*
X0185909Y0042947D01*
X0185963Y0042945D01*
X0186016Y0042940D01*
X0186069Y0042931D01*
X0186121Y0042918D01*
X0186173Y0042902D01*
X0186223Y0042882D01*
X0186271Y0042859D01*
X0186318Y0042832D01*
X0186363Y0042803D01*
X0186406Y0042770D01*
X0186446Y0042735D01*
X0186484Y0042697D01*
X0186519Y0042657D01*
X0186552Y0042614D01*
X0186581Y0042569D01*
X0186608Y0042522D01*
X0186631Y0042474D01*
X0186651Y0042424D01*
X0186667Y0042372D01*
X0186680Y0042320D01*
X0186689Y0042267D01*
X0186694Y0042214D01*
X0186696Y0042160D01*
X0186697Y0042160D02*
X0196933Y0042160D01*
X0196935Y0042214D01*
X0196940Y0042267D01*
X0196949Y0042320D01*
X0196962Y0042372D01*
X0196978Y0042424D01*
X0196998Y0042474D01*
X0197021Y0042522D01*
X0197048Y0042569D01*
X0197077Y0042614D01*
X0197110Y0042657D01*
X0197145Y0042697D01*
X0197183Y0042735D01*
X0197223Y0042770D01*
X0197266Y0042803D01*
X0197311Y0042832D01*
X0197358Y0042859D01*
X0197406Y0042882D01*
X0197456Y0042902D01*
X0197508Y0042918D01*
X0197560Y0042931D01*
X0197613Y0042940D01*
X0197666Y0042945D01*
X0197720Y0042947D01*
X0197720Y0050428D01*
X0125230Y0050136D02*
X0125230Y0043239D01*
X0125230Y0037239D02*
X0125230Y0056136D01*
X0098459Y0056136D01*
X0098459Y0037239D01*
X0125230Y0037239D01*
X0117230Y0037239D02*
X0106459Y0037239D01*
X0098459Y0043239D02*
X0098459Y0050136D01*
X0106459Y0056136D02*
X0117230Y0056136D01*
X0082081Y0044109D02*
X0061608Y0044109D01*
X0061608Y0084266D01*
X0082081Y0084266D01*
X0082081Y0044109D01*
X0048400Y0046176D02*
X0048400Y0057199D01*
X0030289Y0057199D01*
X0030289Y0046176D01*
X0048400Y0046176D01*
D17*
X0078242Y0047652D03*
D18*
X0084794Y0047554D03*
X0084794Y0050112D03*
X0084794Y0052671D03*
X0084794Y0055230D03*
X0084794Y0057789D03*
X0084794Y0060349D03*
X0084794Y0062908D03*
X0084794Y0065467D03*
X0084794Y0068026D03*
X0084794Y0070586D03*
X0084794Y0073145D03*
X0084794Y0075704D03*
X0084794Y0078263D03*
X0084794Y0080821D03*
X0058894Y0080821D03*
X0058894Y0078263D03*
X0058894Y0075704D03*
X0058894Y0073145D03*
X0058894Y0070586D03*
X0058894Y0068026D03*
X0058894Y0065467D03*
X0058894Y0062908D03*
X0058894Y0060349D03*
X0058894Y0057789D03*
X0058894Y0055230D03*
X0058894Y0052671D03*
X0058894Y0050112D03*
X0058894Y0047554D03*
D19*
X0139344Y0086687D03*
X0149344Y0086687D03*
X0159344Y0086687D03*
X0169344Y0086687D03*
D20*
X0214309Y0075817D03*
X0231821Y0075858D03*
X0231821Y0070058D03*
X0214309Y0070017D03*
X0214321Y0059608D03*
X0231821Y0054608D03*
X0231821Y0048808D03*
X0214321Y0053808D03*
X0258071Y0058808D03*
X0258071Y0064608D03*
X0278059Y0062067D03*
X0278059Y0056267D03*
X0119350Y0063808D03*
X0119350Y0069608D03*
D21*
X0084765Y0089182D03*
X0078965Y0089182D03*
X0241394Y0060443D03*
X0247194Y0060443D03*
D22*
X0100844Y0043687D03*
D23*
X0187878Y0043932D03*
D24*
X0160624Y0045408D02*
X0133065Y0045408D01*
X0133065Y0072967D01*
X0160624Y0072967D01*
X0160624Y0045408D01*
X0190191Y0055063D02*
X0190191Y0057426D01*
X0190191Y0055063D02*
X0192553Y0055063D01*
X0190191Y0055063D02*
X0205939Y0055063D01*
X0203577Y0055063D01*
X0205939Y0055063D02*
X0205939Y0057426D01*
X0205939Y0055063D02*
X0205939Y0070812D01*
X0203577Y0070812D01*
X0205939Y0070812D02*
X0205939Y0068449D01*
X0205939Y0070812D02*
X0190191Y0070812D01*
X0190191Y0068449D01*
X0190191Y0070812D02*
X0192553Y0070812D01*
X0190191Y0070812D02*
X0190191Y0055063D01*
X0251854Y0043125D02*
X0251854Y0035250D01*
X0256776Y0035250D01*
X0256776Y0043125D01*
X0251854Y0043125D01*
X0252740Y0043125D02*
X0255890Y0043125D01*
X0255890Y0035250D02*
X0252740Y0035250D01*
D25*
X0206923Y0057032D03*
D26*
X0253528Y0041943D03*
D27*
X0251264Y0041747D03*
X0257366Y0041747D03*
X0257366Y0039188D03*
X0257366Y0036628D03*
X0251264Y0036628D03*
X0251264Y0039188D03*
D28*
X0135821Y0070211D03*
D29*
X0131047Y0070211D03*
X0131047Y0067062D03*
X0131047Y0063912D03*
X0131047Y0060762D03*
X0131047Y0057613D03*
X0131047Y0054463D03*
X0131047Y0051313D03*
X0131047Y0048164D03*
X0162642Y0048164D03*
X0162642Y0051313D03*
X0162642Y0054463D03*
X0162642Y0057613D03*
X0162642Y0060762D03*
X0162642Y0063912D03*
X0162642Y0067062D03*
X0162642Y0070211D03*
D30*
X0157868Y0074985D03*
X0154719Y0074985D03*
X0151569Y0074985D03*
X0148419Y0074985D03*
X0145270Y0074985D03*
X0142120Y0074985D03*
X0138970Y0074985D03*
X0135821Y0074985D03*
X0135821Y0043390D03*
X0138970Y0043390D03*
X0142120Y0043390D03*
X0145270Y0043390D03*
X0148419Y0043390D03*
X0151569Y0043390D03*
X0154719Y0043390D03*
X0157868Y0043390D03*
M02*
