G75*
%MOIN*%
%OFA0B0*%
%FSLAX25Y25*%
%IPPOS*%
%LPD*%
%AMOC8*
5,1,8,0,0,1.08239X$1,22.5*
%
%ADD10R,0.05906X0.05118*%
%ADD11R,0.06299X0.07087*%
%ADD12R,0.05118X0.05906*%
%ADD13R,0.05906X0.01575*%
%ADD14C,0.06000*%
%ADD15R,0.07874X0.06693*%
%ADD16R,0.06299X0.05906*%
%ADD17R,0.03543X0.02559*%
%ADD18C,0.05937*%
%ADD19C,0.12661*%
%ADD20C,0.00553*%
%ADD21R,0.10236X0.10236*%
%ADD22R,0.02362X0.02362*%
%ADD23R,0.02362X0.01575*%
%ADD24R,0.04724X0.01575*%
%ADD25R,0.01575X0.04724*%
%ADD26R,0.16500X0.07000*%
%ADD27R,0.16500X0.10500*%
%ADD28C,0.02387*%
%ADD29C,0.01000*%
%ADD30C,0.01600*%
%ADD31C,0.02781*%
D10*
X0180565Y0040447D03*
X0180565Y0047928D03*
X0214315Y0052947D03*
X0223065Y0052947D03*
X0231815Y0055428D03*
X0240565Y0051678D03*
X0231815Y0047947D03*
X0240565Y0044197D03*
X0269315Y0046678D03*
X0269315Y0039197D03*
X0269315Y0055447D03*
X0278065Y0055447D03*
X0258065Y0057947D03*
X0269315Y0062928D03*
X0278065Y0062928D03*
X0258065Y0065428D03*
X0249315Y0069197D03*
X0240565Y0069197D03*
X0231815Y0069197D03*
X0223065Y0069197D03*
X0214315Y0069197D03*
X0214315Y0076678D03*
X0223065Y0076678D03*
X0231815Y0076678D03*
X0240565Y0076678D03*
X0249315Y0076678D03*
X0200565Y0079197D03*
X0200565Y0086678D03*
X0119344Y0070428D03*
X0106844Y0070428D03*
X0106844Y0062947D03*
X0119344Y0062947D03*
X0214315Y0060428D03*
X0223065Y0060428D03*
D11*
X0191077Y0082938D03*
X0180053Y0082938D03*
X0124856Y0079188D03*
X0113833Y0079188D03*
X0057356Y0039188D03*
X0046333Y0039188D03*
D12*
X0035585Y0039188D03*
X0028104Y0039188D03*
X0050604Y0089187D03*
X0058085Y0089187D03*
X0078104Y0089187D03*
X0085585Y0089187D03*
X0215575Y0044187D03*
X0223055Y0044187D03*
X0250575Y0049187D03*
X0258055Y0049187D03*
X0248055Y0060437D03*
X0240575Y0060437D03*
X0269325Y0071688D03*
X0276805Y0071688D03*
D13*
X0086116Y0070585D03*
X0086116Y0073144D03*
X0086116Y0075703D03*
X0086116Y0078262D03*
X0086116Y0080821D03*
X0057573Y0080821D03*
X0057573Y0078262D03*
X0057573Y0075703D03*
X0057573Y0073144D03*
X0057573Y0070585D03*
X0057573Y0068026D03*
X0057573Y0065467D03*
X0057573Y0062908D03*
X0057573Y0060349D03*
X0057573Y0057790D03*
X0057573Y0055231D03*
X0057573Y0052672D03*
X0057573Y0050113D03*
X0057573Y0047554D03*
X0086116Y0047554D03*
X0086116Y0050113D03*
X0086116Y0052672D03*
X0086116Y0055231D03*
X0086116Y0057790D03*
X0086116Y0060349D03*
X0086116Y0062908D03*
X0086116Y0065467D03*
X0086116Y0068026D03*
D14*
X0139344Y0083688D02*
X0139344Y0089687D01*
X0149344Y0089687D02*
X0149344Y0083688D01*
X0159344Y0083688D02*
X0159344Y0089687D01*
X0169344Y0089687D02*
X0169344Y0083688D01*
D15*
X0047219Y0051687D03*
X0031470Y0051687D03*
D16*
X0101805Y0054168D03*
X0121884Y0054168D03*
X0121884Y0039207D03*
X0101805Y0039207D03*
D17*
X0187681Y0043439D03*
X0195949Y0043439D03*
X0195949Y0049936D03*
X0187681Y0049936D03*
D18*
X0021844Y0050408D03*
X0021844Y0060250D03*
X0021844Y0068125D03*
X0021844Y0077967D03*
D19*
X0013577Y0087219D03*
X0013577Y0041156D03*
D20*
X0191824Y0058764D02*
X0191824Y0059236D01*
X0191824Y0058764D02*
X0189070Y0058764D01*
X0189070Y0059236D01*
X0191824Y0059236D01*
X0191824Y0060733D02*
X0191824Y0061205D01*
X0191824Y0060733D02*
X0189070Y0060733D01*
X0189070Y0061205D01*
X0191824Y0061205D01*
X0191824Y0062701D02*
X0191824Y0063173D01*
X0191824Y0062701D02*
X0189070Y0062701D01*
X0189070Y0063173D01*
X0191824Y0063173D01*
X0191824Y0064670D02*
X0191824Y0065142D01*
X0191824Y0064670D02*
X0189070Y0064670D01*
X0189070Y0065142D01*
X0191824Y0065142D01*
X0191824Y0066639D02*
X0191824Y0067111D01*
X0191824Y0066639D02*
X0189070Y0066639D01*
X0189070Y0067111D01*
X0191824Y0067111D01*
X0193892Y0069179D02*
X0194364Y0069179D01*
X0193892Y0069179D02*
X0193892Y0071933D01*
X0194364Y0071933D01*
X0194364Y0069179D01*
X0194364Y0069731D02*
X0193892Y0069731D01*
X0193892Y0070283D02*
X0194364Y0070283D01*
X0194364Y0070835D02*
X0193892Y0070835D01*
X0193892Y0071387D02*
X0194364Y0071387D01*
X0195860Y0069179D02*
X0196332Y0069179D01*
X0195860Y0069179D02*
X0195860Y0071933D01*
X0196332Y0071933D01*
X0196332Y0069179D01*
X0196332Y0069731D02*
X0195860Y0069731D01*
X0195860Y0070283D02*
X0196332Y0070283D01*
X0196332Y0070835D02*
X0195860Y0070835D01*
X0195860Y0071387D02*
X0196332Y0071387D01*
X0197829Y0069179D02*
X0198301Y0069179D01*
X0197829Y0069179D02*
X0197829Y0071933D01*
X0198301Y0071933D01*
X0198301Y0069179D01*
X0198301Y0069731D02*
X0197829Y0069731D01*
X0197829Y0070283D02*
X0198301Y0070283D01*
X0198301Y0070835D02*
X0197829Y0070835D01*
X0197829Y0071387D02*
X0198301Y0071387D01*
X0199797Y0069179D02*
X0200269Y0069179D01*
X0199797Y0069179D02*
X0199797Y0071933D01*
X0200269Y0071933D01*
X0200269Y0069179D01*
X0200269Y0069731D02*
X0199797Y0069731D01*
X0199797Y0070283D02*
X0200269Y0070283D01*
X0200269Y0070835D02*
X0199797Y0070835D01*
X0199797Y0071387D02*
X0200269Y0071387D01*
X0201766Y0069179D02*
X0202238Y0069179D01*
X0201766Y0069179D02*
X0201766Y0071933D01*
X0202238Y0071933D01*
X0202238Y0069179D01*
X0202238Y0069731D02*
X0201766Y0069731D01*
X0201766Y0070283D02*
X0202238Y0070283D01*
X0202238Y0070835D02*
X0201766Y0070835D01*
X0201766Y0071387D02*
X0202238Y0071387D01*
X0204306Y0067111D02*
X0204306Y0066639D01*
X0204306Y0067111D02*
X0207060Y0067111D01*
X0207060Y0066639D01*
X0204306Y0066639D01*
X0204306Y0065142D02*
X0204306Y0064670D01*
X0204306Y0065142D02*
X0207060Y0065142D01*
X0207060Y0064670D01*
X0204306Y0064670D01*
X0204306Y0063173D02*
X0204306Y0062701D01*
X0204306Y0063173D02*
X0207060Y0063173D01*
X0207060Y0062701D01*
X0204306Y0062701D01*
X0204306Y0061205D02*
X0204306Y0060733D01*
X0204306Y0061205D02*
X0207060Y0061205D01*
X0207060Y0060733D01*
X0204306Y0060733D01*
X0204306Y0059236D02*
X0204306Y0058764D01*
X0204306Y0059236D02*
X0207060Y0059236D01*
X0207060Y0058764D01*
X0204306Y0058764D01*
X0202238Y0056696D02*
X0201766Y0056696D01*
X0202238Y0056696D02*
X0202238Y0053942D01*
X0201766Y0053942D01*
X0201766Y0056696D01*
X0201766Y0054494D02*
X0202238Y0054494D01*
X0202238Y0055046D02*
X0201766Y0055046D01*
X0201766Y0055598D02*
X0202238Y0055598D01*
X0202238Y0056150D02*
X0201766Y0056150D01*
X0200269Y0056696D02*
X0199797Y0056696D01*
X0200269Y0056696D02*
X0200269Y0053942D01*
X0199797Y0053942D01*
X0199797Y0056696D01*
X0199797Y0054494D02*
X0200269Y0054494D01*
X0200269Y0055046D02*
X0199797Y0055046D01*
X0199797Y0055598D02*
X0200269Y0055598D01*
X0200269Y0056150D02*
X0199797Y0056150D01*
X0198301Y0056696D02*
X0197829Y0056696D01*
X0198301Y0056696D02*
X0198301Y0053942D01*
X0197829Y0053942D01*
X0197829Y0056696D01*
X0197829Y0054494D02*
X0198301Y0054494D01*
X0198301Y0055046D02*
X0197829Y0055046D01*
X0197829Y0055598D02*
X0198301Y0055598D01*
X0198301Y0056150D02*
X0197829Y0056150D01*
X0196332Y0056696D02*
X0195860Y0056696D01*
X0196332Y0056696D02*
X0196332Y0053942D01*
X0195860Y0053942D01*
X0195860Y0056696D01*
X0195860Y0054494D02*
X0196332Y0054494D01*
X0196332Y0055046D02*
X0195860Y0055046D01*
X0195860Y0055598D02*
X0196332Y0055598D01*
X0196332Y0056150D02*
X0195860Y0056150D01*
X0194364Y0056696D02*
X0193892Y0056696D01*
X0194364Y0056696D02*
X0194364Y0053942D01*
X0193892Y0053942D01*
X0193892Y0056696D01*
X0193892Y0054494D02*
X0194364Y0054494D01*
X0194364Y0055046D02*
X0193892Y0055046D01*
X0193892Y0055598D02*
X0194364Y0055598D01*
X0194364Y0056150D02*
X0193892Y0056150D01*
D21*
X0198065Y0062937D03*
D22*
X0250772Y0042140D03*
X0257858Y0042140D03*
X0257858Y0036235D03*
X0250772Y0036235D03*
D23*
X0250772Y0039188D03*
X0257858Y0039188D03*
D24*
X0163774Y0048164D03*
X0163774Y0051313D03*
X0163774Y0054463D03*
X0163774Y0057613D03*
X0163774Y0060762D03*
X0163774Y0063912D03*
X0163774Y0067062D03*
X0163774Y0070211D03*
X0129915Y0070211D03*
X0129915Y0067062D03*
X0129915Y0063912D03*
X0129915Y0060762D03*
X0129915Y0057613D03*
X0129915Y0054463D03*
X0129915Y0051313D03*
X0129915Y0048164D03*
D25*
X0135821Y0042258D03*
X0138970Y0042258D03*
X0142120Y0042258D03*
X0145270Y0042258D03*
X0148419Y0042258D03*
X0151569Y0042258D03*
X0154719Y0042258D03*
X0157868Y0042258D03*
X0157868Y0076117D03*
X0154719Y0076117D03*
X0151569Y0076117D03*
X0148419Y0076117D03*
X0145270Y0076117D03*
X0142120Y0076117D03*
X0138970Y0076117D03*
X0135821Y0076117D03*
D26*
X0290416Y0062839D03*
D27*
X0290416Y0049081D03*
X0290416Y0076597D03*
D28*
X0279305Y0077249D03*
X0279305Y0080201D03*
X0269463Y0077249D03*
X0263557Y0077249D03*
X0255683Y0081186D03*
X0249778Y0083154D03*
X0240919Y0083154D03*
X0232061Y0083154D03*
X0223203Y0083154D03*
X0214344Y0083154D03*
X0207455Y0083154D03*
X0207455Y0091028D03*
X0200565Y0092997D03*
X0193675Y0091028D03*
X0173990Y0079217D03*
X0178911Y0076264D03*
X0173990Y0072327D03*
X0175939Y0067938D03*
X0184315Y0067938D03*
X0189738Y0070359D03*
X0195565Y0065437D03*
X0200565Y0065437D03*
X0206470Y0070359D03*
X0206470Y0073312D03*
X0231067Y0063794D03*
X0235004Y0061825D03*
X0246815Y0054936D03*
X0251736Y0054936D03*
X0263557Y0053626D03*
X0275368Y0049689D03*
X0279305Y0049689D03*
X0279305Y0046737D03*
X0279305Y0043784D03*
X0275368Y0042800D03*
X0281274Y0040831D03*
X0284226Y0040831D03*
X0287179Y0040831D03*
X0290132Y0040831D03*
X0293085Y0040831D03*
X0275368Y0034926D03*
X0269463Y0032957D03*
X0261815Y0035438D03*
X0246815Y0039188D03*
X0240919Y0038863D03*
X0234030Y0041815D03*
X0229108Y0039847D03*
X0219266Y0037878D03*
X0210407Y0037878D03*
X0205565Y0039188D03*
X0195644Y0038863D03*
X0187770Y0038863D03*
X0201549Y0042800D03*
X0209423Y0044768D03*
X0201549Y0049689D03*
X0189738Y0054611D03*
X0184315Y0055437D03*
X0170673Y0059187D03*
X0175673Y0064187D03*
X0195565Y0060437D03*
X0200565Y0060437D03*
X0221815Y0052937D03*
X0224315Y0052937D03*
X0261815Y0042938D03*
X0263557Y0047721D03*
X0284226Y0056579D03*
X0287179Y0056579D03*
X0290132Y0056579D03*
X0293085Y0056579D03*
X0263557Y0059532D03*
X0263557Y0065437D03*
X0263557Y0071343D03*
X0255683Y0073312D03*
X0281274Y0084138D03*
X0284226Y0084138D03*
X0287179Y0084138D03*
X0290132Y0084138D03*
X0293085Y0084138D03*
X0292100Y0092997D03*
X0265526Y0092997D03*
X0240919Y0092997D03*
X0290132Y0069375D03*
X0292100Y0032957D03*
X0173990Y0042800D03*
X0162179Y0042800D03*
X0155594Y0036688D03*
X0151844Y0034188D03*
X0149344Y0031687D03*
X0141510Y0034926D03*
X0127730Y0038863D03*
X0115919Y0038863D03*
X0111982Y0037878D03*
X0121825Y0033941D03*
X0130683Y0043784D03*
X0121825Y0044768D03*
X0111982Y0046737D03*
X0094344Y0051687D03*
X0111982Y0055595D03*
X0091844Y0059187D03*
X0095250Y0064453D03*
X0101156Y0070359D03*
X0101156Y0075280D03*
X0095250Y0075280D03*
X0107061Y0076264D03*
X0108045Y0079217D03*
X0108045Y0084138D03*
X0113951Y0085123D03*
X0133636Y0087091D03*
X0133636Y0081186D03*
X0144463Y0081186D03*
X0144463Y0093981D03*
X0133636Y0093981D03*
X0091313Y0089060D03*
X0070644Y0082170D03*
X0044069Y0085123D03*
X0044069Y0089060D03*
X0044069Y0092997D03*
X0068675Y0093981D03*
X0035211Y0081186D03*
X0027337Y0078233D03*
X0026352Y0073312D03*
X0027337Y0064453D03*
X0031274Y0064453D03*
X0040132Y0060516D03*
X0051943Y0061500D03*
X0051943Y0058548D03*
X0064738Y0061500D03*
X0051943Y0064453D03*
X0050959Y0072327D03*
X0077533Y0065437D03*
X0124344Y0064187D03*
X0146844Y0059187D03*
X0153321Y0058548D03*
X0141844Y0054187D03*
X0146431Y0052642D03*
X0158242Y0052642D03*
X0158242Y0064453D03*
X0149384Y0064453D03*
X0155594Y0067938D03*
X0070644Y0047721D03*
X0063754Y0041815D03*
X0063754Y0036894D03*
X0056864Y0032957D03*
X0028321Y0032957D03*
X0028321Y0045752D03*
X0040132Y0047721D03*
X0084423Y0034926D03*
D29*
X0147029Y0029937D02*
X0007968Y0029937D01*
X0007968Y0035690D01*
X0008403Y0035256D01*
X0009217Y0034631D01*
X0010106Y0034118D01*
X0011054Y0033725D01*
X0012046Y0033459D01*
X0013064Y0033325D01*
X0013077Y0033325D01*
X0013077Y0040656D01*
X0014077Y0040656D01*
X0014077Y0041656D01*
X0021407Y0041656D01*
X0021407Y0041669D01*
X0021273Y0042687D01*
X0021008Y0043678D01*
X0020615Y0044627D01*
X0020102Y0045516D01*
X0019477Y0046330D01*
X0019433Y0046374D01*
X0020920Y0045758D01*
X0022769Y0045758D01*
X0024478Y0046466D01*
X0025786Y0047774D01*
X0025849Y0047927D01*
X0025852Y0047927D01*
X0025852Y0047645D01*
X0026837Y0046660D01*
X0029363Y0046660D01*
X0029363Y0046194D01*
X0029741Y0045282D01*
X0030439Y0044584D01*
X0031766Y0043258D01*
X0031716Y0043209D01*
X0031584Y0043341D01*
X0031242Y0043538D01*
X0030861Y0043640D01*
X0028604Y0043640D01*
X0028604Y0039688D01*
X0027604Y0039688D01*
X0027604Y0043640D01*
X0025348Y0043640D01*
X0024966Y0043538D01*
X0024624Y0043341D01*
X0024345Y0043061D01*
X0024148Y0042719D01*
X0024045Y0042338D01*
X0024045Y0039687D01*
X0027604Y0039687D01*
X0027604Y0038688D01*
X0024045Y0038688D01*
X0024045Y0036037D01*
X0024148Y0035656D01*
X0024345Y0035314D01*
X0024624Y0035034D01*
X0024966Y0034837D01*
X0025348Y0034735D01*
X0027604Y0034735D01*
X0027604Y0038687D01*
X0028604Y0038687D01*
X0028604Y0034735D01*
X0030861Y0034735D01*
X0031242Y0034837D01*
X0031584Y0035034D01*
X0031716Y0035166D01*
X0032329Y0034554D01*
X0038840Y0034554D01*
X0039825Y0035538D01*
X0039825Y0042837D01*
X0038840Y0043821D01*
X0037908Y0043821D01*
X0037688Y0044353D01*
X0035381Y0046660D01*
X0036104Y0046660D01*
X0037089Y0047645D01*
X0037089Y0055730D01*
X0036104Y0056715D01*
X0026837Y0056715D01*
X0025852Y0055730D01*
X0025852Y0052889D01*
X0025849Y0052889D01*
X0025786Y0053042D01*
X0024478Y0054350D01*
X0022769Y0055058D01*
X0020920Y0055058D01*
X0020439Y0054858D01*
X0020439Y0055800D01*
X0020920Y0055601D01*
X0022769Y0055601D01*
X0024478Y0056309D01*
X0025786Y0057617D01*
X0025974Y0058069D01*
X0033811Y0058069D01*
X0035089Y0059347D01*
X0051823Y0076081D01*
X0052939Y0076081D01*
X0052939Y0074220D01*
X0053120Y0074038D01*
X0053120Y0073144D01*
X0053120Y0072250D01*
X0052939Y0072069D01*
X0052939Y0070507D01*
X0050190Y0070507D01*
X0049278Y0070129D01*
X0048580Y0069432D01*
X0045115Y0065967D01*
X0044737Y0065055D01*
X0044737Y0056715D01*
X0042585Y0056715D01*
X0041600Y0055730D01*
X0041600Y0047645D01*
X0042585Y0046660D01*
X0044737Y0046660D01*
X0044737Y0044412D01*
X0042487Y0044412D01*
X0041502Y0043427D01*
X0041502Y0034948D01*
X0042487Y0033963D01*
X0050179Y0033963D01*
X0051163Y0034948D01*
X0051163Y0043427D01*
X0050179Y0044412D01*
X0049700Y0044412D01*
X0049700Y0046660D01*
X0051852Y0046660D01*
X0052837Y0047645D01*
X0052837Y0055730D01*
X0051852Y0056715D01*
X0049700Y0056715D01*
X0049700Y0063534D01*
X0051711Y0065545D01*
X0053120Y0065545D01*
X0053120Y0065467D01*
X0053120Y0064573D01*
X0052939Y0064392D01*
X0052939Y0056306D01*
X0053120Y0056125D01*
X0053120Y0055231D01*
X0057573Y0055231D01*
X0062026Y0055231D01*
X0062026Y0056125D01*
X0062207Y0056306D01*
X0062207Y0064392D01*
X0062026Y0064573D01*
X0062026Y0065467D01*
X0062026Y0066361D01*
X0062207Y0066542D01*
X0062207Y0067865D01*
X0062241Y0067782D01*
X0062939Y0067084D01*
X0076896Y0053127D01*
X0077808Y0052750D01*
X0081482Y0052750D01*
X0081482Y0046070D01*
X0082467Y0045085D01*
X0089765Y0045085D01*
X0090053Y0045373D01*
X0091114Y0045373D01*
X0094554Y0048813D01*
X0094916Y0048813D01*
X0095973Y0049250D01*
X0096782Y0050059D01*
X0096974Y0050525D01*
X0096974Y0050519D01*
X0097959Y0049534D01*
X0099363Y0049534D01*
X0099363Y0043841D01*
X0097959Y0043841D01*
X0096974Y0042856D01*
X0096974Y0035558D01*
X0097959Y0034573D01*
X0105651Y0034573D01*
X0106636Y0035558D01*
X0106636Y0042856D01*
X0105651Y0043841D01*
X0104326Y0043841D01*
X0104326Y0049534D01*
X0105651Y0049534D01*
X0106636Y0050519D01*
X0106636Y0057817D01*
X0105746Y0058707D01*
X0110494Y0058707D01*
X0111478Y0059692D01*
X0111478Y0060766D01*
X0114008Y0060766D01*
X0114711Y0061469D01*
X0114711Y0059692D01*
X0115695Y0058707D01*
X0117943Y0058707D01*
X0117053Y0057817D01*
X0117053Y0050519D01*
X0118038Y0049534D01*
X0125730Y0049534D01*
X0125949Y0049753D01*
X0125963Y0049739D01*
X0125872Y0049648D01*
X0125872Y0046680D01*
X0126857Y0045695D01*
X0132974Y0045695D01*
X0133959Y0046680D01*
X0133959Y0049648D01*
X0133868Y0049739D01*
X0133959Y0049830D01*
X0133959Y0052797D01*
X0133868Y0052888D01*
X0133959Y0052979D01*
X0133959Y0055132D01*
X0134363Y0055132D01*
X0134363Y0048694D01*
X0134741Y0047782D01*
X0135439Y0047084D01*
X0136222Y0046302D01*
X0134337Y0046302D01*
X0133352Y0045317D01*
X0133352Y0039200D01*
X0134337Y0038215D01*
X0137305Y0038215D01*
X0137396Y0038306D01*
X0137487Y0038215D01*
X0140454Y0038215D01*
X0140545Y0038306D01*
X0140636Y0038215D01*
X0143604Y0038215D01*
X0143695Y0038306D01*
X0143786Y0038215D01*
X0146238Y0038215D01*
X0146238Y0031709D01*
X0146470Y0031478D01*
X0146470Y0031116D01*
X0146907Y0030059D01*
X0147029Y0029937D01*
X0146754Y0030430D02*
X0007968Y0030430D01*
X0007968Y0031429D02*
X0146470Y0031429D01*
X0146238Y0032427D02*
X0007968Y0032427D01*
X0007968Y0033426D02*
X0012302Y0033426D01*
X0013077Y0033426D02*
X0014077Y0033426D01*
X0014077Y0033325D02*
X0014090Y0033325D01*
X0015108Y0033459D01*
X0016099Y0033725D01*
X0017048Y0034118D01*
X0017937Y0034631D01*
X0018751Y0035256D01*
X0019477Y0035982D01*
X0020102Y0036796D01*
X0020615Y0037685D01*
X0021008Y0038634D01*
X0021273Y0039625D01*
X0021407Y0040643D01*
X0021407Y0040656D01*
X0014077Y0040656D01*
X0014077Y0033325D01*
X0014852Y0033426D02*
X0146238Y0033426D01*
X0146238Y0034424D02*
X0061393Y0034424D01*
X0061427Y0034444D02*
X0061706Y0034723D01*
X0061904Y0035065D01*
X0062006Y0035447D01*
X0062006Y0038688D01*
X0057856Y0038688D01*
X0057856Y0039687D01*
X0062006Y0039687D01*
X0062006Y0042928D01*
X0061904Y0043310D01*
X0061706Y0043652D01*
X0061427Y0043931D01*
X0061085Y0044129D01*
X0060703Y0044231D01*
X0057856Y0044231D01*
X0057856Y0039688D01*
X0056856Y0039688D01*
X0056856Y0044231D01*
X0054009Y0044231D01*
X0053628Y0044129D01*
X0053286Y0043931D01*
X0053006Y0043652D01*
X0052809Y0043310D01*
X0052707Y0042928D01*
X0052707Y0039687D01*
X0056856Y0039687D01*
X0056856Y0038688D01*
X0052707Y0038688D01*
X0052707Y0035447D01*
X0052809Y0035065D01*
X0053006Y0034723D01*
X0053286Y0034444D01*
X0053628Y0034246D01*
X0054009Y0034144D01*
X0056856Y0034144D01*
X0056856Y0038687D01*
X0057856Y0038687D01*
X0057856Y0034144D01*
X0060703Y0034144D01*
X0061085Y0034246D01*
X0061427Y0034444D01*
X0061999Y0035423D02*
X0097110Y0035423D01*
X0096974Y0036421D02*
X0062006Y0036421D01*
X0062006Y0037420D02*
X0096974Y0037420D01*
X0096974Y0038418D02*
X0062006Y0038418D01*
X0062006Y0040415D02*
X0096974Y0040415D01*
X0096974Y0039417D02*
X0057856Y0039417D01*
X0057856Y0040415D02*
X0056856Y0040415D01*
X0056856Y0039417D02*
X0051163Y0039417D01*
X0051163Y0040415D02*
X0052707Y0040415D01*
X0052707Y0041414D02*
X0051163Y0041414D01*
X0051163Y0042412D02*
X0052707Y0042412D01*
X0052867Y0043411D02*
X0051163Y0043411D01*
X0050181Y0044409D02*
X0099363Y0044409D01*
X0099363Y0045408D02*
X0091149Y0045408D01*
X0092148Y0046406D02*
X0099363Y0046406D01*
X0099363Y0047405D02*
X0093146Y0047405D01*
X0094145Y0048403D02*
X0099363Y0048403D01*
X0099363Y0049402D02*
X0096124Y0049402D01*
X0096923Y0050400D02*
X0097093Y0050400D01*
X0094344Y0051687D02*
X0090211Y0047554D01*
X0086116Y0047554D01*
X0081482Y0047405D02*
X0062207Y0047405D01*
X0062207Y0048403D02*
X0081482Y0048403D01*
X0081482Y0049402D02*
X0062207Y0049402D01*
X0062207Y0050400D02*
X0081482Y0050400D01*
X0081482Y0051399D02*
X0062207Y0051399D01*
X0062207Y0051596D02*
X0062026Y0051778D01*
X0062026Y0052672D01*
X0062026Y0053657D01*
X0061947Y0053951D01*
X0062026Y0054246D01*
X0062026Y0055231D01*
X0057573Y0055231D01*
X0057573Y0055231D01*
X0057573Y0055231D01*
X0057573Y0052672D01*
X0057573Y0052672D01*
X0062026Y0052672D01*
X0057573Y0052672D01*
X0057573Y0052672D01*
X0057573Y0054959D01*
X0057573Y0055231D01*
X0057573Y0055231D01*
X0053120Y0055231D01*
X0053120Y0054246D01*
X0053199Y0053951D01*
X0053120Y0053657D01*
X0053120Y0052672D01*
X0057573Y0052672D01*
X0057573Y0052672D01*
X0053120Y0052672D01*
X0053120Y0051778D01*
X0052939Y0051596D01*
X0052939Y0046070D01*
X0053924Y0045085D01*
X0061222Y0045085D01*
X0062207Y0046070D01*
X0062207Y0051596D01*
X0062026Y0052397D02*
X0081482Y0052397D01*
X0076627Y0053396D02*
X0062026Y0053396D01*
X0062026Y0054394D02*
X0075629Y0054394D01*
X0074630Y0055393D02*
X0062026Y0055393D01*
X0062207Y0056391D02*
X0073632Y0056391D01*
X0072633Y0057390D02*
X0062207Y0057390D01*
X0062207Y0058388D02*
X0071635Y0058388D01*
X0070636Y0059387D02*
X0062207Y0059387D01*
X0062207Y0060385D02*
X0069638Y0060385D01*
X0068639Y0061384D02*
X0062207Y0061384D01*
X0062207Y0062382D02*
X0067641Y0062382D01*
X0066642Y0063381D02*
X0062207Y0063381D01*
X0062207Y0064379D02*
X0065644Y0064379D01*
X0064645Y0065378D02*
X0062026Y0065378D01*
X0062026Y0065467D02*
X0057573Y0065467D01*
X0057573Y0065467D01*
X0062026Y0065467D01*
X0062041Y0066376D02*
X0063647Y0066376D01*
X0062648Y0067375D02*
X0062207Y0067375D01*
X0057573Y0065467D02*
X0057573Y0065467D01*
X0053120Y0065467D01*
X0057573Y0065467D01*
X0053120Y0065378D02*
X0051544Y0065378D01*
X0050545Y0064379D02*
X0052939Y0064379D01*
X0052939Y0063381D02*
X0049700Y0063381D01*
X0049700Y0062382D02*
X0052939Y0062382D01*
X0052939Y0061384D02*
X0049700Y0061384D01*
X0049700Y0060385D02*
X0052939Y0060385D01*
X0052939Y0059387D02*
X0049700Y0059387D01*
X0049700Y0058388D02*
X0052939Y0058388D01*
X0052939Y0057390D02*
X0049700Y0057390D01*
X0052176Y0056391D02*
X0052939Y0056391D01*
X0052837Y0055393D02*
X0053120Y0055393D01*
X0053120Y0054394D02*
X0052837Y0054394D01*
X0052837Y0053396D02*
X0053120Y0053396D01*
X0053120Y0052397D02*
X0052837Y0052397D01*
X0052837Y0051399D02*
X0052939Y0051399D01*
X0052939Y0050400D02*
X0052837Y0050400D01*
X0052837Y0049402D02*
X0052939Y0049402D01*
X0052939Y0048403D02*
X0052837Y0048403D01*
X0052939Y0047405D02*
X0052597Y0047405D01*
X0052939Y0046406D02*
X0049700Y0046406D01*
X0049700Y0045408D02*
X0053601Y0045408D01*
X0056856Y0043411D02*
X0057856Y0043411D01*
X0057856Y0042412D02*
X0056856Y0042412D01*
X0056856Y0041414D02*
X0057856Y0041414D01*
X0062006Y0041414D02*
X0096974Y0041414D01*
X0096974Y0042412D02*
X0062006Y0042412D01*
X0061845Y0043411D02*
X0097529Y0043411D01*
X0104326Y0044409D02*
X0133352Y0044409D01*
X0133352Y0043411D02*
X0125867Y0043411D01*
X0125954Y0043360D02*
X0125612Y0043558D01*
X0125231Y0043660D01*
X0122384Y0043660D01*
X0122384Y0039707D01*
X0126533Y0039707D01*
X0126533Y0042357D01*
X0126431Y0042739D01*
X0126234Y0043081D01*
X0125954Y0043360D01*
X0126519Y0042412D02*
X0133352Y0042412D01*
X0133352Y0041414D02*
X0126533Y0041414D01*
X0126533Y0040415D02*
X0133352Y0040415D01*
X0133352Y0039417D02*
X0122384Y0039417D01*
X0122384Y0039707D02*
X0122384Y0038707D01*
X0126533Y0038707D01*
X0126533Y0036057D01*
X0126431Y0035675D01*
X0126234Y0035333D01*
X0125954Y0035054D01*
X0125612Y0034857D01*
X0125231Y0034754D01*
X0122384Y0034754D01*
X0122384Y0038707D01*
X0121384Y0038707D01*
X0121384Y0034754D01*
X0118537Y0034754D01*
X0118155Y0034857D01*
X0117813Y0035054D01*
X0117534Y0035333D01*
X0117336Y0035675D01*
X0117234Y0036057D01*
X0117234Y0038707D01*
X0121384Y0038707D01*
X0121384Y0039707D01*
X0117234Y0039707D01*
X0117234Y0042357D01*
X0117336Y0042739D01*
X0117534Y0043081D01*
X0117813Y0043360D01*
X0118155Y0043558D01*
X0118537Y0043660D01*
X0121384Y0043660D01*
X0121384Y0039707D01*
X0122384Y0039707D01*
X0122384Y0040415D02*
X0121384Y0040415D01*
X0121384Y0039417D02*
X0106636Y0039417D01*
X0106636Y0040415D02*
X0117234Y0040415D01*
X0117234Y0041414D02*
X0106636Y0041414D01*
X0106636Y0042412D02*
X0117249Y0042412D01*
X0117901Y0043411D02*
X0106081Y0043411D01*
X0104326Y0045408D02*
X0133443Y0045408D01*
X0133685Y0046406D02*
X0136117Y0046406D01*
X0135118Y0047405D02*
X0133959Y0047405D01*
X0133959Y0048403D02*
X0134484Y0048403D01*
X0134363Y0049402D02*
X0133959Y0049402D01*
X0133959Y0050400D02*
X0134363Y0050400D01*
X0134363Y0051399D02*
X0133959Y0051399D01*
X0133959Y0052397D02*
X0134363Y0052397D01*
X0134363Y0053396D02*
X0133959Y0053396D01*
X0133959Y0054394D02*
X0134363Y0054394D01*
X0129915Y0054463D02*
X0122179Y0054463D01*
X0121884Y0054168D01*
X0117053Y0054394D02*
X0106636Y0054394D01*
X0106636Y0053396D02*
X0117053Y0053396D01*
X0117053Y0052397D02*
X0106636Y0052397D01*
X0106636Y0051399D02*
X0117053Y0051399D01*
X0117172Y0050400D02*
X0106517Y0050400D01*
X0104326Y0049402D02*
X0125872Y0049402D01*
X0125872Y0048403D02*
X0104326Y0048403D01*
X0104326Y0047405D02*
X0125872Y0047405D01*
X0126146Y0046406D02*
X0104326Y0046406D01*
X0091470Y0051897D02*
X0090750Y0051178D01*
X0090750Y0052750D01*
X0091673Y0052750D01*
X0091470Y0052259D01*
X0091470Y0051897D01*
X0091527Y0052397D02*
X0090750Y0052397D01*
X0090750Y0051399D02*
X0090971Y0051399D01*
X0101805Y0054168D02*
X0101844Y0054207D01*
X0101844Y0061687D01*
X0103104Y0062947D01*
X0106844Y0062947D01*
X0113104Y0062947D01*
X0114344Y0064187D01*
X0114344Y0069188D01*
X0115585Y0070428D01*
X0119344Y0070428D01*
X0123085Y0070428D01*
X0124344Y0071688D01*
X0126826Y0072715D02*
X0126826Y0073963D01*
X0128702Y0073963D01*
X0129687Y0074948D01*
X0129687Y0083427D01*
X0128702Y0084412D01*
X0121010Y0084412D01*
X0120026Y0083427D01*
X0120026Y0074948D01*
X0120306Y0074668D01*
X0118127Y0074668D01*
X0118183Y0074723D01*
X0118380Y0075065D01*
X0118482Y0075447D01*
X0118482Y0078688D01*
X0114333Y0078688D01*
X0114333Y0079687D01*
X0118482Y0079687D01*
X0118482Y0082928D01*
X0118380Y0083310D01*
X0118183Y0083652D01*
X0117903Y0083931D01*
X0117561Y0084129D01*
X0117180Y0084231D01*
X0114333Y0084231D01*
X0114333Y0079688D01*
X0113333Y0079688D01*
X0113333Y0084231D01*
X0110486Y0084231D01*
X0110104Y0084129D01*
X0109762Y0083931D01*
X0109483Y0083652D01*
X0109285Y0083310D01*
X0109183Y0082928D01*
X0109183Y0079687D01*
X0113333Y0079687D01*
X0113333Y0078688D01*
X0109183Y0078688D01*
X0109183Y0075447D01*
X0109285Y0075065D01*
X0109483Y0074723D01*
X0109719Y0074487D01*
X0107344Y0074487D01*
X0107344Y0070928D01*
X0106345Y0070928D01*
X0106345Y0074487D01*
X0103694Y0074487D01*
X0103313Y0074384D01*
X0102971Y0074187D01*
X0102691Y0073908D01*
X0102494Y0073566D01*
X0102392Y0073184D01*
X0102392Y0070928D01*
X0106344Y0070928D01*
X0106344Y0069928D01*
X0102392Y0069928D01*
X0102392Y0067671D01*
X0102494Y0067290D01*
X0102691Y0066948D01*
X0102823Y0066816D01*
X0102211Y0066203D01*
X0102211Y0065128D01*
X0102201Y0065128D01*
X0100941Y0063869D01*
X0099663Y0062591D01*
X0099663Y0058802D01*
X0097959Y0058802D01*
X0096974Y0057817D01*
X0096974Y0057712D01*
X0094345Y0057712D01*
X0094719Y0058616D01*
X0094719Y0059759D01*
X0094282Y0060816D01*
X0093473Y0061625D01*
X0092416Y0062062D01*
X0091273Y0062062D01*
X0090741Y0061842D01*
X0090569Y0062014D01*
X0090569Y0062908D01*
X0090569Y0063802D01*
X0090750Y0063983D01*
X0090750Y0082305D01*
X0089765Y0083290D01*
X0088597Y0083290D01*
X0088597Y0084554D01*
X0088840Y0084554D01*
X0089825Y0085538D01*
X0089825Y0092837D01*
X0088840Y0093821D01*
X0082329Y0093821D01*
X0081844Y0093337D01*
X0081360Y0093821D01*
X0074849Y0093821D01*
X0073864Y0092837D01*
X0073864Y0091669D01*
X0062325Y0091669D01*
X0062325Y0092837D01*
X0061340Y0093821D01*
X0054829Y0093821D01*
X0054216Y0093209D01*
X0054084Y0093341D01*
X0053742Y0093538D01*
X0053361Y0093640D01*
X0051104Y0093640D01*
X0051104Y0089688D01*
X0050104Y0089688D01*
X0050104Y0093640D01*
X0047848Y0093640D01*
X0047466Y0093538D01*
X0047124Y0093341D01*
X0046845Y0093061D01*
X0046648Y0092719D01*
X0046545Y0092338D01*
X0019519Y0092338D01*
X0019477Y0092393D02*
X0018751Y0093119D01*
X0017937Y0093744D01*
X0017048Y0094257D01*
X0016099Y0094650D01*
X0015108Y0094916D01*
X0014090Y0095050D01*
X0014077Y0095050D01*
X0014077Y0087719D01*
X0021407Y0087719D01*
X0021407Y0087732D01*
X0021273Y0088750D01*
X0021008Y0089741D01*
X0020615Y0090690D01*
X0020102Y0091579D01*
X0019477Y0092393D01*
X0020240Y0091339D02*
X0046545Y0091339D01*
X0046545Y0090341D02*
X0020760Y0090341D01*
X0021115Y0089342D02*
X0050104Y0089342D01*
X0050104Y0089687D02*
X0050104Y0088688D01*
X0046545Y0088688D01*
X0046545Y0086037D01*
X0046648Y0085656D01*
X0046845Y0085314D01*
X0047124Y0085034D01*
X0047466Y0084837D01*
X0047848Y0084735D01*
X0050104Y0084735D01*
X0050104Y0088687D01*
X0051104Y0088687D01*
X0051104Y0084735D01*
X0053361Y0084735D01*
X0053742Y0084837D01*
X0054084Y0085034D01*
X0054216Y0085166D01*
X0054829Y0084554D01*
X0061340Y0084554D01*
X0061863Y0085077D01*
X0061863Y0082648D01*
X0061222Y0083290D01*
X0053924Y0083290D01*
X0053636Y0083002D01*
X0047575Y0083002D01*
X0046297Y0081725D01*
X0034878Y0070306D01*
X0025974Y0070306D01*
X0025786Y0070758D01*
X0024478Y0072066D01*
X0022769Y0072774D01*
X0020920Y0072774D01*
X0020439Y0072575D01*
X0020439Y0073725D01*
X0020798Y0073609D01*
X0021360Y0073520D01*
X0021360Y0077483D01*
X0022329Y0077483D01*
X0022329Y0078451D01*
X0026292Y0078451D01*
X0026203Y0079013D01*
X0025986Y0079682D01*
X0025666Y0080309D01*
X0025253Y0080878D01*
X0024756Y0081375D01*
X0024186Y0081789D01*
X0023560Y0082108D01*
X0022891Y0082325D01*
X0022329Y0082415D01*
X0022329Y0078451D01*
X0021360Y0078451D01*
X0021360Y0082415D01*
X0020798Y0082325D01*
X0020129Y0082108D01*
X0019502Y0081789D01*
X0018933Y0081375D01*
X0018436Y0080878D01*
X0018023Y0080309D01*
X0017703Y0079682D01*
X0017492Y0079032D01*
X0017464Y0079060D01*
X0015861Y0079724D01*
X0016099Y0079788D01*
X0017048Y0080181D01*
X0017937Y0080694D01*
X0018751Y0081319D01*
X0019477Y0082045D01*
X0020102Y0082859D01*
X0020615Y0083748D01*
X0021008Y0084696D01*
X0021273Y0085688D01*
X0021407Y0086706D01*
X0021407Y0086719D01*
X0014077Y0086719D01*
X0014077Y0087719D01*
X0013077Y0087719D01*
X0013077Y0095050D01*
X0013064Y0095050D01*
X0012046Y0094916D01*
X0011054Y0094650D01*
X0010106Y0094257D01*
X0009217Y0093744D01*
X0008403Y0093119D01*
X0007968Y0092685D01*
X0007968Y0095741D01*
X0294244Y0095741D01*
X0294244Y0083347D01*
X0290916Y0083347D01*
X0290916Y0077097D01*
X0289916Y0077097D01*
X0289916Y0076097D01*
X0290916Y0076097D01*
X0290916Y0069847D01*
X0294244Y0069847D01*
X0294244Y0068020D01*
X0281469Y0068020D01*
X0280617Y0067168D01*
X0280546Y0067168D01*
X0280546Y0067539D01*
X0281045Y0068038D01*
X0281045Y0070347D01*
X0281245Y0070147D01*
X0281587Y0069950D01*
X0281968Y0069847D01*
X0289916Y0069847D01*
X0289916Y0076097D01*
X0280666Y0076097D01*
X0280666Y0075716D01*
X0280061Y0076321D01*
X0273550Y0076321D01*
X0272937Y0075709D01*
X0272805Y0075841D01*
X0272463Y0076038D01*
X0272081Y0076140D01*
X0269825Y0076140D01*
X0269825Y0072188D01*
X0268825Y0072188D01*
X0268825Y0076140D01*
X0266568Y0076140D01*
X0266187Y0076038D01*
X0265845Y0075841D01*
X0265565Y0075561D01*
X0265368Y0075219D01*
X0265266Y0074838D01*
X0265266Y0072187D01*
X0268825Y0072187D01*
X0268825Y0071188D01*
X0265266Y0071188D01*
X0265266Y0068537D01*
X0265368Y0068156D01*
X0265565Y0067814D01*
X0265845Y0067534D01*
X0266187Y0067337D01*
X0266568Y0067235D01*
X0268825Y0067235D01*
X0268825Y0071187D01*
X0269825Y0071187D01*
X0269825Y0067235D01*
X0272081Y0067235D01*
X0272463Y0067337D01*
X0272805Y0067534D01*
X0272937Y0067666D01*
X0273550Y0067054D01*
X0274302Y0067054D01*
X0273537Y0066289D01*
X0273468Y0066408D01*
X0273189Y0066687D01*
X0272847Y0066884D01*
X0272465Y0066987D01*
X0269815Y0066987D01*
X0269815Y0063428D01*
X0268815Y0063428D01*
X0268815Y0066987D01*
X0266165Y0066987D01*
X0265783Y0066884D01*
X0265441Y0066687D01*
X0265162Y0066408D01*
X0264964Y0066066D01*
X0264862Y0065684D01*
X0264862Y0063428D01*
X0268815Y0063428D01*
X0268815Y0062428D01*
X0264862Y0062428D01*
X0264862Y0060171D01*
X0264964Y0059790D01*
X0265162Y0059448D01*
X0265294Y0059316D01*
X0264681Y0058703D01*
X0264681Y0052192D01*
X0265666Y0051207D01*
X0266834Y0051207D01*
X0266834Y0050918D01*
X0265666Y0050918D01*
X0264681Y0049933D01*
X0264681Y0043530D01*
X0264252Y0044566D01*
X0263443Y0045375D01*
X0262387Y0045812D01*
X0262295Y0045812D01*
X0262295Y0052837D01*
X0261425Y0053707D01*
X0261714Y0053707D01*
X0262699Y0054692D01*
X0262699Y0061203D01*
X0262214Y0061687D01*
X0262699Y0062172D01*
X0262699Y0068683D01*
X0261714Y0069668D01*
X0259419Y0069668D01*
X0258968Y0070119D01*
X0257709Y0071378D01*
X0253949Y0071378D01*
X0253949Y0072453D01*
X0253336Y0073066D01*
X0253468Y0073198D01*
X0253665Y0073540D01*
X0253768Y0073921D01*
X0253768Y0076178D01*
X0249815Y0076178D01*
X0249815Y0077178D01*
X0248815Y0077178D01*
X0248815Y0080737D01*
X0246165Y0080737D01*
X0245783Y0080634D01*
X0245441Y0080437D01*
X0245162Y0080158D01*
X0244964Y0079816D01*
X0244940Y0079724D01*
X0244915Y0079816D01*
X0244718Y0080158D01*
X0244439Y0080437D01*
X0244097Y0080634D01*
X0243715Y0080737D01*
X0241065Y0080737D01*
X0241065Y0077178D01*
X0240065Y0077178D01*
X0240065Y0080737D01*
X0237415Y0080737D01*
X0237033Y0080634D01*
X0236691Y0080437D01*
X0236412Y0080158D01*
X0236343Y0080039D01*
X0235464Y0080918D01*
X0228166Y0080918D01*
X0227440Y0080192D01*
X0226714Y0080918D01*
X0219416Y0080918D01*
X0218690Y0080192D01*
X0217964Y0080918D01*
X0210666Y0080918D01*
X0209681Y0079933D01*
X0209681Y0078859D01*
X0208978Y0078859D01*
X0207746Y0080091D01*
X0206468Y0081369D01*
X0205199Y0081369D01*
X0205199Y0082453D01*
X0204586Y0083066D01*
X0204718Y0083198D01*
X0204915Y0083540D01*
X0205018Y0083921D01*
X0205018Y0086178D01*
X0201065Y0086178D01*
X0201065Y0087178D01*
X0200065Y0087178D01*
X0200065Y0090737D01*
X0197415Y0090737D01*
X0197033Y0090634D01*
X0196691Y0090437D01*
X0196412Y0090158D01*
X0196214Y0089816D01*
X0196112Y0089434D01*
X0196112Y0087178D01*
X0200065Y0087178D01*
X0200065Y0086178D01*
X0196112Y0086178D01*
X0196112Y0083921D01*
X0196214Y0083540D01*
X0196412Y0083198D01*
X0196544Y0083066D01*
X0195931Y0082453D01*
X0195931Y0080119D01*
X0195907Y0080119D01*
X0195907Y0087177D01*
X0194923Y0088162D01*
X0187231Y0088162D01*
X0186246Y0087177D01*
X0186246Y0078698D01*
X0187231Y0077713D01*
X0188955Y0077713D01*
X0189634Y0077034D01*
X0190912Y0075756D01*
X0196117Y0075756D01*
X0196916Y0074957D01*
X0197000Y0074957D01*
X0195933Y0073890D01*
X0193082Y0073890D01*
X0191935Y0072744D01*
X0191935Y0069165D01*
X0191837Y0069067D01*
X0188259Y0069067D01*
X0188247Y0069056D01*
X0186963Y0069056D01*
X0186752Y0069566D01*
X0185943Y0070375D01*
X0184887Y0070812D01*
X0183743Y0070812D01*
X0182687Y0070375D01*
X0181878Y0069566D01*
X0181440Y0068509D01*
X0181440Y0067366D01*
X0181556Y0067087D01*
X0179874Y0067087D01*
X0178814Y0068147D01*
X0178814Y0068509D01*
X0178376Y0069566D01*
X0177567Y0070375D01*
X0176511Y0070812D01*
X0175367Y0070812D01*
X0174311Y0070375D01*
X0173502Y0069566D01*
X0173064Y0068509D01*
X0173064Y0067366D01*
X0173502Y0066309D01*
X0173616Y0066195D01*
X0173236Y0065816D01*
X0172798Y0064759D01*
X0172798Y0064163D01*
X0172146Y0064815D01*
X0170868Y0066093D01*
X0169335Y0066093D01*
X0170248Y0067006D01*
X0171526Y0068284D01*
X0171526Y0079524D01*
X0171996Y0079719D01*
X0173313Y0081036D01*
X0174026Y0082756D01*
X0174026Y0090619D01*
X0173313Y0092339D01*
X0171996Y0093656D01*
X0170276Y0094369D01*
X0168413Y0094369D01*
X0166693Y0093656D01*
X0165376Y0092339D01*
X0164663Y0090619D01*
X0164663Y0082756D01*
X0165231Y0081385D01*
X0163977Y0082639D01*
X0164026Y0082756D01*
X0164026Y0090619D01*
X0163313Y0092339D01*
X0161996Y0093656D01*
X0160276Y0094369D01*
X0158413Y0094369D01*
X0156693Y0093656D01*
X0155376Y0092339D01*
X0154663Y0090619D01*
X0154663Y0082756D01*
X0155376Y0081036D01*
X0156318Y0080094D01*
X0156293Y0080069D01*
X0156202Y0080160D01*
X0153235Y0080160D01*
X0153144Y0080069D01*
X0153053Y0080160D01*
X0152437Y0080160D01*
X0153313Y0081036D01*
X0154026Y0082756D01*
X0154026Y0090619D01*
X0153313Y0092339D01*
X0151996Y0093656D01*
X0150276Y0094369D01*
X0148413Y0094369D01*
X0146693Y0093656D01*
X0145376Y0092339D01*
X0144663Y0090619D01*
X0144663Y0082756D01*
X0145376Y0081036D01*
X0146252Y0080160D01*
X0143786Y0080160D01*
X0143695Y0080069D01*
X0143604Y0080160D01*
X0142145Y0080160D01*
X0142276Y0080255D01*
X0142777Y0080756D01*
X0143193Y0081329D01*
X0143515Y0081960D01*
X0143734Y0082634D01*
X0143844Y0083333D01*
X0143844Y0086188D01*
X0139845Y0086188D01*
X0139845Y0087187D01*
X0143844Y0087187D01*
X0143844Y0090042D01*
X0143734Y0090741D01*
X0143515Y0091415D01*
X0143193Y0092046D01*
X0142777Y0092619D01*
X0142276Y0093120D01*
X0141703Y0093536D01*
X0141072Y0093858D01*
X0140398Y0094077D01*
X0139844Y0094164D01*
X0139844Y0087188D01*
X0138844Y0087188D01*
X0138844Y0094164D01*
X0138291Y0094077D01*
X0137617Y0093858D01*
X0136986Y0093536D01*
X0136413Y0093120D01*
X0135912Y0092619D01*
X0135496Y0092046D01*
X0135174Y0091415D01*
X0134955Y0090741D01*
X0134844Y0090042D01*
X0134844Y0087187D01*
X0138844Y0087187D01*
X0138844Y0086188D01*
X0134844Y0086188D01*
X0134844Y0083333D01*
X0134955Y0082634D01*
X0135174Y0081960D01*
X0135496Y0081329D01*
X0135912Y0080756D01*
X0136413Y0080255D01*
X0136793Y0079979D01*
X0135821Y0079979D01*
X0135821Y0076117D01*
X0135821Y0076117D01*
X0135821Y0079979D01*
X0134836Y0079979D01*
X0134454Y0079877D01*
X0134112Y0079679D01*
X0133833Y0079400D01*
X0133636Y0079058D01*
X0133533Y0078676D01*
X0133533Y0076117D01*
X0135821Y0076117D01*
X0138108Y0076117D01*
X0138970Y0076117D01*
X0138970Y0079979D01*
X0138844Y0079979D01*
X0138844Y0086187D01*
X0139844Y0086187D01*
X0139844Y0079979D01*
X0138971Y0079979D01*
X0138971Y0076117D01*
X0138970Y0076117D01*
X0138970Y0076117D01*
X0135821Y0076117D01*
X0135821Y0076117D01*
X0135821Y0076117D01*
X0133533Y0076117D01*
X0133533Y0073557D01*
X0133636Y0073175D01*
X0133833Y0072833D01*
X0133974Y0072692D01*
X0126849Y0072692D01*
X0126826Y0072715D01*
X0126826Y0073366D02*
X0133585Y0073366D01*
X0133533Y0074365D02*
X0129104Y0074365D01*
X0129687Y0075363D02*
X0133533Y0075363D01*
X0133533Y0076362D02*
X0129687Y0076362D01*
X0129687Y0077360D02*
X0133533Y0077360D01*
X0133533Y0078359D02*
X0129687Y0078359D01*
X0129687Y0079357D02*
X0133809Y0079357D01*
X0135821Y0079357D02*
X0135821Y0079357D01*
X0135821Y0078359D02*
X0135821Y0078359D01*
X0135821Y0077360D02*
X0135821Y0077360D01*
X0135821Y0076362D02*
X0135821Y0076362D01*
X0138970Y0076362D02*
X0138971Y0076362D01*
X0138971Y0076116D02*
X0138971Y0072254D01*
X0139939Y0072254D01*
X0139939Y0056348D01*
X0139407Y0055816D01*
X0139326Y0055619D01*
X0139326Y0057181D01*
X0139012Y0057937D01*
X0139326Y0058694D01*
X0139326Y0069681D01*
X0138948Y0070593D01*
X0138250Y0071291D01*
X0137226Y0072314D01*
X0137149Y0072346D01*
X0137187Y0072357D01*
X0137396Y0072477D01*
X0137604Y0072357D01*
X0137986Y0072254D01*
X0138970Y0072254D01*
X0138970Y0076116D01*
X0138971Y0076116D01*
X0138970Y0075363D02*
X0138971Y0075363D01*
X0138970Y0074365D02*
X0138971Y0074365D01*
X0138970Y0073366D02*
X0138971Y0073366D01*
X0138970Y0072368D02*
X0138971Y0072368D01*
X0138172Y0071369D02*
X0139939Y0071369D01*
X0139939Y0070371D02*
X0139040Y0070371D01*
X0139326Y0069372D02*
X0139939Y0069372D01*
X0139939Y0068373D02*
X0139326Y0068373D01*
X0139326Y0067375D02*
X0139939Y0067375D01*
X0139939Y0066376D02*
X0139326Y0066376D01*
X0139326Y0065378D02*
X0139939Y0065378D01*
X0139939Y0064379D02*
X0139326Y0064379D01*
X0139326Y0063381D02*
X0139939Y0063381D01*
X0139939Y0062382D02*
X0139326Y0062382D01*
X0139326Y0061384D02*
X0139939Y0061384D01*
X0139939Y0060385D02*
X0139326Y0060385D01*
X0139326Y0059387D02*
X0139939Y0059387D01*
X0139939Y0058388D02*
X0139199Y0058388D01*
X0139239Y0057390D02*
X0139939Y0057390D01*
X0139939Y0056391D02*
X0139326Y0056391D01*
X0144301Y0056391D02*
X0146083Y0056391D01*
X0146273Y0056313D02*
X0147416Y0056313D01*
X0148473Y0056750D01*
X0149282Y0057559D01*
X0149719Y0058616D01*
X0149719Y0059759D01*
X0149282Y0060816D01*
X0148473Y0061625D01*
X0147451Y0062048D01*
X0147451Y0072073D01*
X0149903Y0072073D01*
X0149994Y0072164D01*
X0150085Y0072073D01*
X0152537Y0072073D01*
X0152537Y0067910D01*
X0152720Y0067728D01*
X0152720Y0067366D01*
X0153157Y0066309D01*
X0153966Y0065500D01*
X0155023Y0065063D01*
X0156166Y0065063D01*
X0157223Y0065500D01*
X0158032Y0066309D01*
X0158469Y0067366D01*
X0158469Y0068509D01*
X0158032Y0069566D01*
X0157223Y0070375D01*
X0156900Y0070509D01*
X0156900Y0072073D01*
X0159352Y0072073D01*
X0160337Y0073058D01*
X0160337Y0079032D01*
X0161100Y0079348D01*
X0161593Y0078855D01*
X0161593Y0072680D01*
X0160715Y0072680D01*
X0159730Y0071695D01*
X0159730Y0068727D01*
X0159821Y0068636D01*
X0159730Y0068545D01*
X0159730Y0065578D01*
X0159821Y0065487D01*
X0159730Y0065396D01*
X0159730Y0062428D01*
X0159821Y0062337D01*
X0159730Y0062246D01*
X0159730Y0059279D01*
X0159821Y0059187D01*
X0159730Y0059096D01*
X0159730Y0056129D01*
X0159821Y0056038D01*
X0159730Y0055947D01*
X0159730Y0052979D01*
X0159821Y0052888D01*
X0159730Y0052797D01*
X0159730Y0050645D01*
X0139326Y0050645D01*
X0139326Y0052756D01*
X0139407Y0052559D01*
X0140216Y0051750D01*
X0141273Y0051313D01*
X0142416Y0051313D01*
X0143473Y0051750D01*
X0144282Y0052559D01*
X0144719Y0053616D01*
X0144719Y0054759D01*
X0144301Y0055769D01*
X0144301Y0057815D01*
X0144407Y0057559D01*
X0145216Y0056750D01*
X0146273Y0056313D01*
X0147606Y0056391D02*
X0159730Y0056391D01*
X0159730Y0055393D02*
X0144457Y0055393D01*
X0144719Y0054394D02*
X0159730Y0054394D01*
X0159730Y0053396D02*
X0144628Y0053396D01*
X0144120Y0052397D02*
X0159730Y0052397D01*
X0159730Y0051399D02*
X0142624Y0051399D01*
X0141065Y0051399D02*
X0139326Y0051399D01*
X0139326Y0052397D02*
X0139569Y0052397D01*
X0141844Y0054187D02*
X0142120Y0054463D01*
X0142120Y0076117D01*
X0145270Y0076117D02*
X0145270Y0060762D01*
X0146844Y0059187D01*
X0149460Y0060385D02*
X0159730Y0060385D01*
X0159730Y0059387D02*
X0149719Y0059387D01*
X0149625Y0058388D02*
X0159730Y0058388D01*
X0159730Y0057390D02*
X0149112Y0057390D01*
X0144577Y0057390D02*
X0144301Y0057390D01*
X0134363Y0060215D02*
X0134242Y0060094D01*
X0133959Y0060094D01*
X0133959Y0062246D01*
X0133868Y0062337D01*
X0133959Y0062428D01*
X0133959Y0065396D01*
X0133868Y0065487D01*
X0133959Y0065578D01*
X0133959Y0067730D01*
X0134363Y0067730D01*
X0134363Y0060215D01*
X0134363Y0060385D02*
X0133959Y0060385D01*
X0133959Y0061384D02*
X0134363Y0061384D01*
X0134363Y0062382D02*
X0133913Y0062382D01*
X0133959Y0063381D02*
X0134363Y0063381D01*
X0134363Y0064379D02*
X0133959Y0064379D01*
X0133959Y0065378D02*
X0134363Y0065378D01*
X0134363Y0066376D02*
X0133959Y0066376D01*
X0133959Y0067375D02*
X0134363Y0067375D01*
X0125872Y0067375D02*
X0123978Y0067375D01*
X0123978Y0067172D02*
X0123868Y0067062D01*
X0124916Y0067062D01*
X0125872Y0066666D01*
X0125872Y0067730D01*
X0125327Y0067730D01*
X0124415Y0068108D01*
X0124132Y0068391D01*
X0123988Y0068247D01*
X0123978Y0068247D01*
X0123978Y0067172D01*
X0124115Y0068373D02*
X0124150Y0068373D01*
X0114681Y0072609D02*
X0113441Y0071369D01*
X0112163Y0070091D01*
X0112163Y0065128D01*
X0111478Y0065128D01*
X0111478Y0066203D01*
X0110866Y0066816D01*
X0110998Y0066948D01*
X0111195Y0067290D01*
X0111297Y0067671D01*
X0111297Y0069928D01*
X0107345Y0069928D01*
X0107345Y0070928D01*
X0111297Y0070928D01*
X0111297Y0073184D01*
X0111195Y0073566D01*
X0110998Y0073908D01*
X0110761Y0074144D01*
X0113333Y0074144D01*
X0113333Y0078687D01*
X0114333Y0078687D01*
X0114333Y0074144D01*
X0115172Y0074144D01*
X0114711Y0073683D01*
X0114711Y0072609D01*
X0114681Y0072609D01*
X0114440Y0072368D02*
X0111297Y0072368D01*
X0111297Y0071369D02*
X0113441Y0071369D01*
X0112443Y0070371D02*
X0107345Y0070371D01*
X0107344Y0071369D02*
X0106345Y0071369D01*
X0106344Y0070371D02*
X0090750Y0070371D01*
X0090750Y0071369D02*
X0102392Y0071369D01*
X0102392Y0072368D02*
X0090750Y0072368D01*
X0090750Y0073366D02*
X0102440Y0073366D01*
X0103278Y0074365D02*
X0090750Y0074365D01*
X0090750Y0075363D02*
X0109205Y0075363D01*
X0109183Y0076362D02*
X0090750Y0076362D01*
X0090750Y0077360D02*
X0109183Y0077360D01*
X0109183Y0078359D02*
X0090750Y0078359D01*
X0090750Y0079357D02*
X0113333Y0079357D01*
X0113333Y0078359D02*
X0114333Y0078359D01*
X0114333Y0079357D02*
X0120026Y0079357D01*
X0120026Y0078359D02*
X0118482Y0078359D01*
X0118482Y0077360D02*
X0120026Y0077360D01*
X0120026Y0076362D02*
X0118482Y0076362D01*
X0118460Y0075363D02*
X0120026Y0075363D01*
X0114711Y0073366D02*
X0111249Y0073366D01*
X0113333Y0074365D02*
X0114333Y0074365D01*
X0114333Y0075363D02*
X0113333Y0075363D01*
X0113333Y0076362D02*
X0114333Y0076362D01*
X0114333Y0077360D02*
X0113333Y0077360D01*
X0113333Y0080356D02*
X0114333Y0080356D01*
X0114333Y0081354D02*
X0113333Y0081354D01*
X0113333Y0082353D02*
X0114333Y0082353D01*
X0114333Y0083351D02*
X0113333Y0083351D01*
X0109309Y0083351D02*
X0088597Y0083351D01*
X0088597Y0084350D02*
X0120948Y0084350D01*
X0120026Y0083351D02*
X0118356Y0083351D01*
X0118482Y0082353D02*
X0120026Y0082353D01*
X0120026Y0081354D02*
X0118482Y0081354D01*
X0118482Y0080356D02*
X0120026Y0080356D01*
X0129687Y0080356D02*
X0136312Y0080356D01*
X0135483Y0081354D02*
X0129687Y0081354D01*
X0129687Y0082353D02*
X0135047Y0082353D01*
X0134844Y0083351D02*
X0129687Y0083351D01*
X0128764Y0084350D02*
X0134844Y0084350D01*
X0134844Y0085348D02*
X0089635Y0085348D01*
X0089825Y0086347D02*
X0138844Y0086347D01*
X0138844Y0087345D02*
X0139844Y0087345D01*
X0139845Y0086347D02*
X0144663Y0086347D01*
X0144663Y0087345D02*
X0143844Y0087345D01*
X0143844Y0088344D02*
X0144663Y0088344D01*
X0144663Y0089342D02*
X0143844Y0089342D01*
X0143797Y0090341D02*
X0144663Y0090341D01*
X0144962Y0091339D02*
X0143539Y0091339D01*
X0142981Y0092338D02*
X0145375Y0092338D01*
X0146373Y0093336D02*
X0141978Y0093336D01*
X0139844Y0093336D02*
X0138844Y0093336D01*
X0138844Y0092338D02*
X0139844Y0092338D01*
X0139844Y0091339D02*
X0138844Y0091339D01*
X0138844Y0090341D02*
X0139844Y0090341D01*
X0139844Y0089342D02*
X0138844Y0089342D01*
X0138844Y0088344D02*
X0139844Y0088344D01*
X0134844Y0088344D02*
X0089825Y0088344D01*
X0089825Y0089342D02*
X0134844Y0089342D01*
X0134892Y0090341D02*
X0089825Y0090341D01*
X0089825Y0091339D02*
X0135150Y0091339D01*
X0135708Y0092338D02*
X0089825Y0092338D01*
X0089325Y0093336D02*
X0136711Y0093336D01*
X0148332Y0094335D02*
X0016860Y0094335D01*
X0018468Y0093336D02*
X0047120Y0093336D01*
X0046545Y0092338D02*
X0046545Y0089687D01*
X0050104Y0089687D01*
X0050104Y0090341D02*
X0051104Y0090341D01*
X0051104Y0091339D02*
X0050104Y0091339D01*
X0050104Y0092338D02*
X0051104Y0092338D01*
X0051104Y0093336D02*
X0050104Y0093336D01*
X0054089Y0093336D02*
X0054344Y0093336D01*
X0061825Y0093336D02*
X0074364Y0093336D01*
X0073864Y0092338D02*
X0062325Y0092338D01*
X0051104Y0088344D02*
X0050104Y0088344D01*
X0050104Y0087345D02*
X0051104Y0087345D01*
X0051104Y0086347D02*
X0050104Y0086347D01*
X0050104Y0085348D02*
X0051104Y0085348D01*
X0046825Y0085348D02*
X0021182Y0085348D01*
X0021360Y0086347D02*
X0046545Y0086347D01*
X0046545Y0087345D02*
X0014077Y0087345D01*
X0014077Y0088344D02*
X0013077Y0088344D01*
X0013077Y0089342D02*
X0014077Y0089342D01*
X0014077Y0090341D02*
X0013077Y0090341D01*
X0013077Y0091339D02*
X0014077Y0091339D01*
X0014077Y0092338D02*
X0013077Y0092338D01*
X0013077Y0093336D02*
X0014077Y0093336D01*
X0014077Y0094335D02*
X0013077Y0094335D01*
X0010293Y0094335D02*
X0007968Y0094335D01*
X0007968Y0095333D02*
X0294244Y0095333D01*
X0294244Y0094335D02*
X0170357Y0094335D01*
X0168332Y0094335D02*
X0160357Y0094335D01*
X0158332Y0094335D02*
X0150357Y0094335D01*
X0152316Y0093336D02*
X0156373Y0093336D01*
X0155375Y0092338D02*
X0153313Y0092338D01*
X0153727Y0091339D02*
X0154962Y0091339D01*
X0154663Y0090341D02*
X0154026Y0090341D01*
X0154026Y0089342D02*
X0154663Y0089342D01*
X0154663Y0088344D02*
X0154026Y0088344D01*
X0154026Y0087345D02*
X0154663Y0087345D01*
X0154663Y0086347D02*
X0154026Y0086347D01*
X0154026Y0085348D02*
X0154663Y0085348D01*
X0154663Y0084350D02*
X0154026Y0084350D01*
X0154026Y0083351D02*
X0154663Y0083351D01*
X0154831Y0082353D02*
X0153858Y0082353D01*
X0153445Y0081354D02*
X0155244Y0081354D01*
X0156056Y0080356D02*
X0152633Y0080356D01*
X0146056Y0080356D02*
X0142377Y0080356D01*
X0143206Y0081354D02*
X0145244Y0081354D01*
X0144831Y0082353D02*
X0143642Y0082353D01*
X0143844Y0083351D02*
X0144663Y0083351D01*
X0144663Y0084350D02*
X0143844Y0084350D01*
X0143844Y0085348D02*
X0144663Y0085348D01*
X0139844Y0085348D02*
X0138844Y0085348D01*
X0138844Y0084350D02*
X0139844Y0084350D01*
X0139844Y0083351D02*
X0138844Y0083351D01*
X0138844Y0082353D02*
X0139844Y0082353D01*
X0139844Y0081354D02*
X0138844Y0081354D01*
X0138844Y0080356D02*
X0139844Y0080356D01*
X0138971Y0079357D02*
X0138970Y0079357D01*
X0138970Y0078359D02*
X0138971Y0078359D01*
X0138970Y0077360D02*
X0138971Y0077360D01*
X0154719Y0076117D02*
X0154719Y0068813D01*
X0155594Y0067938D01*
X0158112Y0069372D02*
X0159730Y0069372D01*
X0159730Y0068373D02*
X0158469Y0068373D01*
X0158469Y0067375D02*
X0159730Y0067375D01*
X0159730Y0066376D02*
X0158060Y0066376D01*
X0156927Y0065378D02*
X0159730Y0065378D01*
X0159730Y0064379D02*
X0147451Y0064379D01*
X0147451Y0063381D02*
X0159730Y0063381D01*
X0159776Y0062382D02*
X0147451Y0062382D01*
X0148714Y0061384D02*
X0159730Y0061384D01*
X0163774Y0060762D02*
X0169098Y0060762D01*
X0170673Y0059187D01*
X0172907Y0060969D02*
X0169965Y0063912D01*
X0163774Y0063912D01*
X0171583Y0065378D02*
X0173055Y0065378D01*
X0172798Y0064379D02*
X0172582Y0064379D01*
X0175673Y0064187D02*
X0176923Y0062937D01*
X0190447Y0062937D01*
X0190447Y0060969D02*
X0172907Y0060969D01*
X0173548Y0058788D02*
X0177110Y0058788D01*
X0174967Y0056644D01*
X0172045Y0056644D01*
X0172302Y0056750D01*
X0173110Y0057559D01*
X0173548Y0058616D01*
X0173548Y0058788D01*
X0173454Y0058388D02*
X0176711Y0058388D01*
X0175712Y0057390D02*
X0172941Y0057390D01*
X0169301Y0056644D02*
X0167817Y0056644D01*
X0167817Y0058571D01*
X0168236Y0057559D01*
X0169045Y0056750D01*
X0169301Y0056644D01*
X0168405Y0057390D02*
X0167817Y0057390D01*
X0167817Y0058388D02*
X0167893Y0058388D01*
X0163774Y0054463D02*
X0175870Y0054463D01*
X0180407Y0059000D01*
X0190447Y0059000D01*
X0191837Y0056808D02*
X0188259Y0056808D01*
X0188247Y0056819D01*
X0186854Y0056819D01*
X0187190Y0056009D01*
X0187190Y0054866D01*
X0186752Y0053809D01*
X0185943Y0053000D01*
X0185692Y0052896D01*
X0190149Y0052896D01*
X0191134Y0051911D01*
X0191134Y0047960D01*
X0190149Y0046975D01*
X0185213Y0046975D01*
X0185199Y0046989D01*
X0185199Y0046386D01*
X0185213Y0046400D01*
X0190149Y0046400D01*
X0191134Y0045415D01*
X0191134Y0041464D01*
X0190149Y0040479D01*
X0185213Y0040479D01*
X0184745Y0040947D01*
X0181065Y0040947D01*
X0181065Y0039947D01*
X0181065Y0036388D01*
X0183715Y0036388D01*
X0184097Y0036491D01*
X0184439Y0036688D01*
X0184718Y0036967D01*
X0184915Y0037309D01*
X0185018Y0037691D01*
X0185018Y0039947D01*
X0181065Y0039947D01*
X0180065Y0039947D01*
X0180065Y0036388D01*
X0177415Y0036388D01*
X0177033Y0036491D01*
X0176691Y0036688D01*
X0176412Y0036967D01*
X0176214Y0037309D01*
X0176112Y0037691D01*
X0176112Y0039947D01*
X0180065Y0039947D01*
X0180065Y0040947D01*
X0176112Y0040947D01*
X0176112Y0043204D01*
X0176214Y0043585D01*
X0176412Y0043927D01*
X0176544Y0044059D01*
X0175931Y0044672D01*
X0175931Y0045683D01*
X0159715Y0045683D01*
X0159856Y0045542D01*
X0160053Y0045200D01*
X0160155Y0044818D01*
X0160155Y0042258D01*
X0157868Y0042258D01*
X0157868Y0042258D01*
X0160155Y0042258D01*
X0160155Y0039699D01*
X0160053Y0039317D01*
X0159856Y0038975D01*
X0159577Y0038696D01*
X0159234Y0038498D01*
X0158853Y0038396D01*
X0157951Y0038396D01*
X0158032Y0038316D01*
X0158469Y0037259D01*
X0158469Y0036116D01*
X0158032Y0035059D01*
X0157223Y0034250D01*
X0156166Y0033813D01*
X0155023Y0033813D01*
X0154719Y0033938D01*
X0154719Y0033616D01*
X0154282Y0032559D01*
X0153473Y0031750D01*
X0152416Y0031313D01*
X0152219Y0031313D01*
X0152219Y0031116D01*
X0151782Y0030059D01*
X0151660Y0029937D01*
X0294244Y0029937D01*
X0294244Y0042331D01*
X0290916Y0042331D01*
X0290916Y0048581D01*
X0289916Y0048581D01*
X0289916Y0042331D01*
X0281968Y0042331D01*
X0281587Y0042433D01*
X0281245Y0042631D01*
X0280965Y0042910D01*
X0280768Y0043252D01*
X0280666Y0043633D01*
X0280666Y0048581D01*
X0289916Y0048581D01*
X0289916Y0049581D01*
X0289916Y0055831D01*
X0282699Y0055831D01*
X0282699Y0057658D01*
X0294244Y0057658D01*
X0294244Y0055831D01*
X0290916Y0055831D01*
X0290916Y0049581D01*
X0289916Y0049581D01*
X0280666Y0049581D01*
X0280666Y0051207D01*
X0274416Y0051207D01*
X0273690Y0051933D01*
X0272964Y0051207D01*
X0271796Y0051207D01*
X0271796Y0050918D01*
X0272964Y0050918D01*
X0273949Y0049933D01*
X0273949Y0043422D01*
X0273464Y0042937D01*
X0273949Y0042453D01*
X0273949Y0035942D01*
X0272964Y0034957D01*
X0265666Y0034957D01*
X0264690Y0035933D01*
X0264690Y0034866D01*
X0264252Y0033809D01*
X0263443Y0033000D01*
X0262387Y0032563D01*
X0261243Y0032563D01*
X0260187Y0033000D01*
X0259775Y0033412D01*
X0259736Y0033373D01*
X0255981Y0033373D01*
X0254996Y0034357D01*
X0254996Y0035534D01*
X0253516Y0034054D01*
X0253330Y0034054D01*
X0252649Y0033373D01*
X0248894Y0033373D01*
X0247909Y0034357D01*
X0247909Y0038112D01*
X0248091Y0038293D01*
X0248091Y0039187D01*
X0250772Y0039187D01*
X0250772Y0039188D01*
X0248091Y0039188D01*
X0248091Y0039959D01*
X0246709Y0039959D01*
X0245199Y0041469D01*
X0245199Y0040942D01*
X0244214Y0039957D01*
X0236916Y0039957D01*
X0235931Y0040942D01*
X0235931Y0044174D01*
X0235464Y0043707D01*
X0233169Y0043707D01*
X0232718Y0043256D01*
X0231468Y0042006D01*
X0227295Y0042006D01*
X0227295Y0040538D01*
X0226311Y0039554D01*
X0219800Y0039554D01*
X0219315Y0040038D01*
X0218830Y0039554D01*
X0212319Y0039554D01*
X0211335Y0040538D01*
X0211335Y0047837D01*
X0212134Y0048636D01*
X0212134Y0048707D01*
X0210666Y0048707D01*
X0209681Y0049692D01*
X0209681Y0050756D01*
X0209662Y0050756D01*
X0208384Y0052034D01*
X0207864Y0052554D01*
X0207864Y0040954D01*
X0208002Y0040816D01*
X0208440Y0039759D01*
X0208440Y0038616D01*
X0208002Y0037559D01*
X0207193Y0036750D01*
X0206137Y0036313D01*
X0204993Y0036313D01*
X0203937Y0036750D01*
X0203128Y0037559D01*
X0202690Y0038616D01*
X0202690Y0039759D01*
X0203128Y0040816D01*
X0203502Y0041190D01*
X0203502Y0052439D01*
X0203048Y0051985D01*
X0199328Y0051985D01*
X0199402Y0051911D01*
X0199402Y0047960D01*
X0198417Y0046975D01*
X0193481Y0046975D01*
X0192496Y0047960D01*
X0192496Y0051911D01*
X0192826Y0052241D01*
X0191935Y0053131D01*
X0191935Y0056710D01*
X0191837Y0056808D01*
X0191935Y0056391D02*
X0187032Y0056391D01*
X0187190Y0055393D02*
X0191935Y0055393D01*
X0191935Y0054394D02*
X0186995Y0054394D01*
X0186339Y0053396D02*
X0191935Y0053396D01*
X0192669Y0052397D02*
X0190648Y0052397D01*
X0191134Y0051399D02*
X0192496Y0051399D01*
X0192496Y0050400D02*
X0191134Y0050400D01*
X0191134Y0049402D02*
X0192496Y0049402D01*
X0192496Y0048403D02*
X0191134Y0048403D01*
X0190579Y0047405D02*
X0193051Y0047405D01*
X0193598Y0046117D02*
X0193256Y0045919D01*
X0192977Y0045640D01*
X0192779Y0045298D01*
X0192677Y0044916D01*
X0192677Y0043579D01*
X0195809Y0043579D01*
X0195809Y0043300D01*
X0192677Y0043300D01*
X0192677Y0041962D01*
X0192779Y0041581D01*
X0192977Y0041239D01*
X0193256Y0040960D01*
X0193598Y0040762D01*
X0193980Y0040660D01*
X0195809Y0040660D01*
X0195809Y0043300D01*
X0196089Y0043300D01*
X0196089Y0043579D01*
X0199220Y0043579D01*
X0199220Y0044916D01*
X0199118Y0045298D01*
X0198921Y0045640D01*
X0198641Y0045919D01*
X0198299Y0046117D01*
X0197918Y0046219D01*
X0196089Y0046219D01*
X0196089Y0043579D01*
X0195809Y0043579D01*
X0195809Y0046219D01*
X0193980Y0046219D01*
X0193598Y0046117D01*
X0192843Y0045408D02*
X0191134Y0045408D01*
X0191134Y0044409D02*
X0192677Y0044409D01*
X0191134Y0043411D02*
X0195809Y0043411D01*
X0196089Y0043411D02*
X0203502Y0043411D01*
X0203502Y0044409D02*
X0199220Y0044409D01*
X0199055Y0045408D02*
X0203502Y0045408D01*
X0203502Y0046406D02*
X0185199Y0046406D01*
X0182573Y0049936D02*
X0180565Y0047928D01*
X0180329Y0048164D01*
X0182573Y0049936D02*
X0187681Y0049936D01*
X0184880Y0052563D02*
X0184434Y0052117D01*
X0184265Y0052117D01*
X0184214Y0052168D01*
X0180409Y0052168D01*
X0181498Y0053256D01*
X0182430Y0053256D01*
X0182687Y0053000D01*
X0183743Y0052563D01*
X0184880Y0052563D01*
X0184714Y0052397D02*
X0180639Y0052397D01*
X0180594Y0055437D02*
X0176470Y0051313D01*
X0163774Y0051313D01*
X0180594Y0055437D02*
X0184315Y0055437D01*
X0196096Y0055319D02*
X0196096Y0050083D01*
X0195949Y0049936D01*
X0199402Y0050400D02*
X0203502Y0050400D01*
X0203502Y0049402D02*
X0199402Y0049402D01*
X0199402Y0048403D02*
X0203502Y0048403D01*
X0203502Y0047405D02*
X0198847Y0047405D01*
X0196089Y0045408D02*
X0195809Y0045408D01*
X0195809Y0044409D02*
X0196089Y0044409D01*
X0196089Y0043300D02*
X0199220Y0043300D01*
X0199220Y0041962D01*
X0199118Y0041581D01*
X0198921Y0041239D01*
X0198641Y0040960D01*
X0198299Y0040762D01*
X0197918Y0040660D01*
X0196089Y0040660D01*
X0196089Y0043300D01*
X0196089Y0042412D02*
X0195809Y0042412D01*
X0195809Y0041414D02*
X0196089Y0041414D01*
X0199022Y0041414D02*
X0203502Y0041414D01*
X0203502Y0042412D02*
X0199220Y0042412D01*
X0202962Y0040415D02*
X0181065Y0040415D01*
X0181065Y0039417D02*
X0180065Y0039417D01*
X0180065Y0040415D02*
X0160155Y0040415D01*
X0160155Y0041414D02*
X0176112Y0041414D01*
X0176112Y0042412D02*
X0160155Y0042412D01*
X0160155Y0043411D02*
X0176168Y0043411D01*
X0176194Y0044409D02*
X0160155Y0044409D01*
X0159933Y0045408D02*
X0175931Y0045408D01*
X0191134Y0042412D02*
X0192677Y0042412D01*
X0192876Y0041414D02*
X0191084Y0041414D01*
X0185018Y0039417D02*
X0202690Y0039417D01*
X0202772Y0038418D02*
X0185018Y0038418D01*
X0184945Y0037420D02*
X0203267Y0037420D01*
X0204731Y0036421D02*
X0183838Y0036421D01*
X0181065Y0036421D02*
X0180065Y0036421D01*
X0180065Y0037420D02*
X0181065Y0037420D01*
X0181065Y0038418D02*
X0180065Y0038418D01*
X0176112Y0038418D02*
X0158935Y0038418D01*
X0158403Y0037420D02*
X0176185Y0037420D01*
X0177292Y0036421D02*
X0158469Y0036421D01*
X0158182Y0035423D02*
X0247909Y0035423D01*
X0247909Y0036421D02*
X0206399Y0036421D01*
X0207863Y0037420D02*
X0247909Y0037420D01*
X0248091Y0038418D02*
X0208358Y0038418D01*
X0208440Y0039417D02*
X0248091Y0039417D01*
X0246253Y0040415D02*
X0244672Y0040415D01*
X0245199Y0041414D02*
X0245254Y0041414D01*
X0247612Y0042140D02*
X0245565Y0044187D01*
X0240575Y0044187D01*
X0240565Y0044197D01*
X0235931Y0043411D02*
X0232873Y0043411D01*
X0231874Y0042412D02*
X0235931Y0042412D01*
X0235931Y0041414D02*
X0227295Y0041414D01*
X0227172Y0040415D02*
X0236458Y0040415D01*
X0247612Y0042140D02*
X0250772Y0042140D01*
X0248364Y0044473D02*
X0248283Y0044554D01*
X0248445Y0044554D01*
X0248364Y0044473D01*
X0246335Y0046369D02*
X0245199Y0046369D01*
X0245199Y0047453D01*
X0244714Y0047937D01*
X0245199Y0048422D01*
X0245199Y0054933D01*
X0244214Y0055918D01*
X0243944Y0055918D01*
X0244315Y0056288D01*
X0244800Y0055804D01*
X0251311Y0055804D01*
X0252295Y0056788D01*
X0252295Y0064087D01*
X0251425Y0064957D01*
X0252964Y0064957D01*
X0253431Y0065424D01*
X0253431Y0062172D01*
X0253916Y0061687D01*
X0253431Y0061203D01*
X0253431Y0054692D01*
X0254416Y0053707D01*
X0254686Y0053707D01*
X0254315Y0053337D01*
X0253830Y0053821D01*
X0247319Y0053821D01*
X0246335Y0052837D01*
X0246335Y0046369D01*
X0246335Y0046406D02*
X0245199Y0046406D01*
X0245199Y0047405D02*
X0246335Y0047405D01*
X0246335Y0048403D02*
X0245180Y0048403D01*
X0245199Y0049402D02*
X0246335Y0049402D01*
X0246335Y0050400D02*
X0245199Y0050400D01*
X0245199Y0051399D02*
X0246335Y0051399D01*
X0246335Y0052397D02*
X0245199Y0052397D01*
X0245199Y0053396D02*
X0246894Y0053396D01*
X0245199Y0054394D02*
X0253729Y0054394D01*
X0253431Y0055393D02*
X0244739Y0055393D01*
X0251898Y0056391D02*
X0253431Y0056391D01*
X0253431Y0057390D02*
X0252295Y0057390D01*
X0252295Y0058388D02*
X0253431Y0058388D01*
X0253431Y0059387D02*
X0252295Y0059387D01*
X0252295Y0060385D02*
X0253431Y0060385D01*
X0253612Y0061384D02*
X0252295Y0061384D01*
X0252295Y0062382D02*
X0253431Y0062382D01*
X0253431Y0063381D02*
X0252295Y0063381D01*
X0252002Y0064379D02*
X0253431Y0064379D01*
X0253431Y0065378D02*
X0253385Y0065378D01*
X0258065Y0065428D02*
X0258065Y0067938D01*
X0256805Y0069197D01*
X0249315Y0069197D01*
X0248055Y0067938D01*
X0248055Y0060437D01*
X0240575Y0060437D02*
X0240565Y0060447D01*
X0240565Y0069197D01*
X0231815Y0069197D01*
X0223065Y0069197D02*
X0214315Y0069197D01*
X0210575Y0069197D01*
X0209315Y0067938D01*
X0209315Y0065437D01*
X0208783Y0064906D01*
X0205683Y0064906D01*
X0205683Y0062937D02*
X0209315Y0062937D01*
X0210565Y0061687D01*
X0213055Y0061687D01*
X0214315Y0060428D01*
X0223065Y0060428D01*
X0230575Y0060428D01*
X0231815Y0059187D01*
X0231815Y0055428D01*
X0227181Y0056464D02*
X0227086Y0056559D01*
X0227181Y0056655D01*
X0227181Y0056464D01*
X0227181Y0053447D02*
X0223565Y0053447D01*
X0223565Y0052447D01*
X0223565Y0048888D01*
X0226215Y0048888D01*
X0226597Y0048991D01*
X0226939Y0049188D01*
X0227181Y0049430D01*
X0227181Y0047951D01*
X0226311Y0048821D01*
X0219800Y0048821D01*
X0219315Y0048337D01*
X0218830Y0048821D01*
X0218078Y0048821D01*
X0218843Y0049586D01*
X0218912Y0049467D01*
X0219191Y0049188D01*
X0219533Y0048991D01*
X0219915Y0048888D01*
X0222565Y0048888D01*
X0222565Y0052447D01*
X0223565Y0052447D01*
X0227181Y0052447D01*
X0227181Y0053447D01*
X0227181Y0053396D02*
X0223565Y0053396D01*
X0223565Y0052397D02*
X0222565Y0052397D01*
X0222565Y0052447D02*
X0218949Y0052447D01*
X0218949Y0053447D01*
X0222565Y0053447D01*
X0222565Y0052447D01*
X0222565Y0053396D02*
X0218949Y0053396D01*
X0214315Y0052947D02*
X0214305Y0052937D01*
X0210565Y0052937D01*
X0209315Y0054187D01*
X0209315Y0060437D01*
X0208783Y0060969D01*
X0205683Y0060969D01*
X0200565Y0060437D02*
X0198065Y0062937D01*
X0198065Y0055319D01*
X0203461Y0052397D02*
X0203502Y0052397D01*
X0203502Y0051399D02*
X0199402Y0051399D01*
X0207864Y0051399D02*
X0209019Y0051399D01*
X0209681Y0050400D02*
X0207864Y0050400D01*
X0207864Y0049402D02*
X0209971Y0049402D01*
X0211901Y0048403D02*
X0207864Y0048403D01*
X0207864Y0047405D02*
X0211335Y0047405D01*
X0211335Y0046406D02*
X0207864Y0046406D01*
X0207864Y0045408D02*
X0211335Y0045408D01*
X0211335Y0044409D02*
X0207864Y0044409D01*
X0207864Y0043411D02*
X0211335Y0043411D01*
X0211335Y0042412D02*
X0207864Y0042412D01*
X0207864Y0041414D02*
X0211335Y0041414D01*
X0211458Y0040415D02*
X0208168Y0040415D01*
X0205683Y0039306D02*
X0205565Y0039188D01*
X0205683Y0039306D02*
X0205683Y0059000D01*
X0218464Y0056687D02*
X0218690Y0056913D01*
X0219044Y0056559D01*
X0218912Y0056427D01*
X0218843Y0056308D01*
X0218464Y0056687D01*
X0218760Y0056391D02*
X0218891Y0056391D01*
X0214315Y0052947D02*
X0214315Y0045447D01*
X0215575Y0044187D01*
X0223055Y0044187D02*
X0230565Y0044187D01*
X0231815Y0045437D01*
X0231815Y0047947D01*
X0231825Y0047937D01*
X0234315Y0047937D01*
X0238055Y0051678D01*
X0240565Y0051678D01*
X0250575Y0049187D02*
X0250575Y0047928D01*
X0254315Y0044187D01*
X0254315Y0037938D01*
X0252612Y0036235D01*
X0250772Y0036235D01*
X0247909Y0034424D02*
X0157397Y0034424D01*
X0154641Y0033426D02*
X0248841Y0033426D01*
X0252702Y0033426D02*
X0255928Y0033426D01*
X0254996Y0034424D02*
X0253886Y0034424D01*
X0254885Y0035423D02*
X0254996Y0035423D01*
X0257858Y0036235D02*
X0261018Y0036235D01*
X0261815Y0035438D01*
X0264690Y0035423D02*
X0265200Y0035423D01*
X0264681Y0036030D02*
X0264401Y0036706D01*
X0264681Y0036706D01*
X0264681Y0036030D01*
X0264681Y0036421D02*
X0264519Y0036421D01*
X0264507Y0034424D02*
X0294244Y0034424D01*
X0294244Y0033426D02*
X0263869Y0033426D01*
X0273429Y0035423D02*
X0294244Y0035423D01*
X0294244Y0036421D02*
X0273949Y0036421D01*
X0273949Y0037420D02*
X0294244Y0037420D01*
X0294244Y0038418D02*
X0273949Y0038418D01*
X0273949Y0039417D02*
X0294244Y0039417D01*
X0294244Y0040415D02*
X0273949Y0040415D01*
X0273949Y0041414D02*
X0294244Y0041414D01*
X0290916Y0042412D02*
X0289916Y0042412D01*
X0289916Y0043411D02*
X0290916Y0043411D01*
X0290916Y0044409D02*
X0289916Y0044409D01*
X0289916Y0045408D02*
X0290916Y0045408D01*
X0290916Y0046406D02*
X0289916Y0046406D01*
X0289916Y0047405D02*
X0290916Y0047405D01*
X0290916Y0048403D02*
X0289916Y0048403D01*
X0289916Y0049402D02*
X0273949Y0049402D01*
X0273949Y0048403D02*
X0280666Y0048403D01*
X0280666Y0047405D02*
X0273949Y0047405D01*
X0273949Y0046406D02*
X0280666Y0046406D01*
X0280666Y0045408D02*
X0273949Y0045408D01*
X0273949Y0044409D02*
X0280666Y0044409D01*
X0280725Y0043411D02*
X0273937Y0043411D01*
X0273949Y0042412D02*
X0281665Y0042412D01*
X0269315Y0039197D02*
X0269305Y0039188D01*
X0264681Y0041669D02*
X0264401Y0041669D01*
X0264681Y0042345D01*
X0264681Y0041669D01*
X0264690Y0042461D02*
X0264690Y0043414D01*
X0265166Y0042937D01*
X0264690Y0042461D01*
X0264690Y0043411D02*
X0264693Y0043411D01*
X0264681Y0044409D02*
X0264317Y0044409D01*
X0264681Y0045408D02*
X0263363Y0045408D01*
X0262295Y0046406D02*
X0264681Y0046406D01*
X0264681Y0047405D02*
X0262295Y0047405D01*
X0262295Y0048403D02*
X0264681Y0048403D01*
X0264681Y0049402D02*
X0262295Y0049402D01*
X0262295Y0050400D02*
X0265148Y0050400D01*
X0265474Y0051399D02*
X0262295Y0051399D01*
X0262295Y0052397D02*
X0264681Y0052397D01*
X0264681Y0053396D02*
X0261736Y0053396D01*
X0262401Y0054394D02*
X0264681Y0054394D01*
X0264681Y0055393D02*
X0262699Y0055393D01*
X0262699Y0056391D02*
X0264681Y0056391D01*
X0264681Y0057390D02*
X0262699Y0057390D01*
X0262699Y0058388D02*
X0264681Y0058388D01*
X0265223Y0059387D02*
X0262699Y0059387D01*
X0262699Y0060385D02*
X0264862Y0060385D01*
X0264862Y0061384D02*
X0262518Y0061384D01*
X0262699Y0062382D02*
X0264862Y0062382D01*
X0262699Y0063381D02*
X0268815Y0063381D01*
X0268815Y0064379D02*
X0269815Y0064379D01*
X0269815Y0065378D02*
X0268815Y0065378D01*
X0268815Y0066376D02*
X0269815Y0066376D01*
X0269825Y0067375D02*
X0268825Y0067375D01*
X0268825Y0068373D02*
X0269825Y0068373D01*
X0269825Y0069372D02*
X0268825Y0069372D01*
X0268825Y0070371D02*
X0269825Y0070371D01*
X0268825Y0071369D02*
X0257718Y0071369D01*
X0258716Y0070371D02*
X0265266Y0070371D01*
X0265266Y0069372D02*
X0262010Y0069372D01*
X0262699Y0068373D02*
X0265310Y0068373D01*
X0266121Y0067375D02*
X0262699Y0067375D01*
X0262699Y0066376D02*
X0265144Y0066376D01*
X0264862Y0065378D02*
X0262699Y0065378D01*
X0262699Y0064379D02*
X0264862Y0064379D01*
X0272529Y0067375D02*
X0273228Y0067375D01*
X0273486Y0066376D02*
X0273625Y0066376D01*
X0280546Y0067375D02*
X0280824Y0067375D01*
X0281045Y0068373D02*
X0294244Y0068373D01*
X0294244Y0069372D02*
X0281045Y0069372D01*
X0278065Y0070428D02*
X0276805Y0071688D01*
X0269825Y0072368D02*
X0268825Y0072368D01*
X0268825Y0073366D02*
X0269825Y0073366D01*
X0269825Y0074365D02*
X0268825Y0074365D01*
X0268825Y0075363D02*
X0269825Y0075363D01*
X0265451Y0075363D02*
X0253768Y0075363D01*
X0253768Y0074365D02*
X0265266Y0074365D01*
X0265266Y0073366D02*
X0253565Y0073366D01*
X0253949Y0072368D02*
X0265266Y0072368D01*
X0249815Y0076362D02*
X0289916Y0076362D01*
X0289916Y0077097D02*
X0280666Y0077097D01*
X0280666Y0082045D01*
X0280768Y0082426D01*
X0280965Y0082768D01*
X0281245Y0083048D01*
X0281587Y0083245D01*
X0281968Y0083347D01*
X0289916Y0083347D01*
X0289916Y0077097D01*
X0289916Y0077360D02*
X0290916Y0077360D01*
X0290916Y0078359D02*
X0289916Y0078359D01*
X0289916Y0079357D02*
X0290916Y0079357D01*
X0290916Y0080356D02*
X0289916Y0080356D01*
X0289916Y0081354D02*
X0290916Y0081354D01*
X0290916Y0082353D02*
X0289916Y0082353D01*
X0294244Y0083351D02*
X0204807Y0083351D01*
X0205018Y0084350D02*
X0294244Y0084350D01*
X0294244Y0085348D02*
X0205018Y0085348D01*
X0201065Y0086347D02*
X0294244Y0086347D01*
X0294244Y0087345D02*
X0205018Y0087345D01*
X0205018Y0087178D02*
X0205018Y0089434D01*
X0204915Y0089816D01*
X0204718Y0090158D01*
X0204439Y0090437D01*
X0204097Y0090634D01*
X0203715Y0090737D01*
X0201065Y0090737D01*
X0201065Y0087178D01*
X0205018Y0087178D01*
X0205018Y0088344D02*
X0294244Y0088344D01*
X0294244Y0089342D02*
X0205018Y0089342D01*
X0204535Y0090341D02*
X0294244Y0090341D01*
X0294244Y0091339D02*
X0173727Y0091339D01*
X0174026Y0090341D02*
X0196595Y0090341D01*
X0196112Y0089342D02*
X0174026Y0089342D01*
X0174026Y0088344D02*
X0196112Y0088344D01*
X0196112Y0087345D02*
X0195739Y0087345D01*
X0195907Y0086347D02*
X0200065Y0086347D01*
X0200065Y0087345D02*
X0201065Y0087345D01*
X0201065Y0088344D02*
X0200065Y0088344D01*
X0200065Y0089342D02*
X0201065Y0089342D01*
X0201065Y0090341D02*
X0200065Y0090341D01*
X0186414Y0087345D02*
X0184436Y0087345D01*
X0184403Y0087402D02*
X0184124Y0087681D01*
X0183782Y0087879D01*
X0183400Y0087981D01*
X0180553Y0087981D01*
X0180553Y0083438D01*
X0179553Y0083438D01*
X0179553Y0087981D01*
X0176706Y0087981D01*
X0176325Y0087879D01*
X0175983Y0087681D01*
X0175703Y0087402D01*
X0175506Y0087060D01*
X0175404Y0086678D01*
X0175404Y0083437D01*
X0179553Y0083437D01*
X0179553Y0082438D01*
X0175404Y0082438D01*
X0175404Y0079197D01*
X0175506Y0078815D01*
X0175703Y0078473D01*
X0175983Y0078194D01*
X0176325Y0077996D01*
X0176706Y0077894D01*
X0179553Y0077894D01*
X0179553Y0082437D01*
X0180553Y0082437D01*
X0180553Y0077894D01*
X0183400Y0077894D01*
X0183782Y0077996D01*
X0184124Y0078194D01*
X0184403Y0078473D01*
X0184601Y0078815D01*
X0184703Y0079197D01*
X0184703Y0082438D01*
X0180553Y0082438D01*
X0180553Y0083437D01*
X0184703Y0083437D01*
X0184703Y0086678D01*
X0184601Y0087060D01*
X0184403Y0087402D01*
X0184703Y0086347D02*
X0186246Y0086347D01*
X0186246Y0085348D02*
X0184703Y0085348D01*
X0184703Y0084350D02*
X0186246Y0084350D01*
X0186246Y0083351D02*
X0180553Y0083351D01*
X0180553Y0082353D02*
X0179553Y0082353D01*
X0179553Y0083351D02*
X0174026Y0083351D01*
X0174026Y0084350D02*
X0175404Y0084350D01*
X0175404Y0085348D02*
X0174026Y0085348D01*
X0174026Y0086347D02*
X0175404Y0086347D01*
X0175671Y0087345D02*
X0174026Y0087345D01*
X0169344Y0086687D02*
X0169344Y0069188D01*
X0167219Y0067062D01*
X0163774Y0067062D01*
X0169618Y0066376D02*
X0173474Y0066376D01*
X0173064Y0067375D02*
X0170616Y0067375D01*
X0171526Y0068373D02*
X0173064Y0068373D01*
X0173422Y0069372D02*
X0171526Y0069372D01*
X0171526Y0070371D02*
X0174306Y0070371D01*
X0171526Y0071369D02*
X0191935Y0071369D01*
X0191935Y0070371D02*
X0185948Y0070371D01*
X0186832Y0069372D02*
X0191935Y0069372D01*
X0190447Y0066875D02*
X0185378Y0066875D01*
X0184315Y0067938D01*
X0181797Y0069372D02*
X0178456Y0069372D01*
X0178814Y0068373D02*
X0181440Y0068373D01*
X0181440Y0067375D02*
X0179586Y0067375D01*
X0178970Y0064906D02*
X0175939Y0067938D01*
X0177572Y0070371D02*
X0182682Y0070371D01*
X0191935Y0072368D02*
X0171526Y0072368D01*
X0171526Y0073366D02*
X0192557Y0073366D01*
X0196407Y0074365D02*
X0171526Y0074365D01*
X0171526Y0075363D02*
X0196510Y0075363D01*
X0198065Y0072938D02*
X0199315Y0074188D01*
X0200565Y0074188D01*
X0200565Y0079197D01*
X0200575Y0079188D01*
X0205565Y0079188D01*
X0208075Y0076678D01*
X0214315Y0076678D01*
X0209681Y0074497D02*
X0207171Y0074497D01*
X0205199Y0076469D01*
X0205199Y0075942D01*
X0204214Y0074957D01*
X0204130Y0074957D01*
X0204183Y0074904D01*
X0204183Y0072755D01*
X0204195Y0072744D01*
X0204195Y0069165D01*
X0204293Y0069067D01*
X0207360Y0069067D01*
X0208412Y0070119D01*
X0209671Y0071378D01*
X0209681Y0071378D01*
X0209681Y0072453D01*
X0210166Y0072937D01*
X0209681Y0073422D01*
X0209681Y0074497D01*
X0209681Y0074365D02*
X0204183Y0074365D01*
X0204183Y0073366D02*
X0209737Y0073366D01*
X0209681Y0072368D02*
X0204195Y0072368D01*
X0204195Y0071369D02*
X0209662Y0071369D01*
X0208663Y0070371D02*
X0204195Y0070371D01*
X0204195Y0069372D02*
X0207665Y0069372D01*
X0202002Y0070556D02*
X0202002Y0074000D01*
X0201815Y0074188D01*
X0200565Y0074188D01*
X0198065Y0072938D02*
X0198065Y0070556D01*
X0204620Y0075363D02*
X0206305Y0075363D01*
X0205306Y0076362D02*
X0205199Y0076362D01*
X0200565Y0079197D02*
X0199305Y0077938D01*
X0191815Y0077938D01*
X0191077Y0078676D01*
X0191077Y0082938D01*
X0186246Y0082353D02*
X0184703Y0082353D01*
X0184703Y0081354D02*
X0186246Y0081354D01*
X0186246Y0080356D02*
X0184703Y0080356D01*
X0184703Y0079357D02*
X0186246Y0079357D01*
X0186585Y0078359D02*
X0184288Y0078359D01*
X0180553Y0078359D02*
X0179553Y0078359D01*
X0179553Y0079357D02*
X0180553Y0079357D01*
X0180553Y0080356D02*
X0179553Y0080356D01*
X0179553Y0081354D02*
X0180553Y0081354D01*
X0175404Y0081354D02*
X0173445Y0081354D01*
X0173858Y0082353D02*
X0175404Y0082353D01*
X0175404Y0080356D02*
X0172633Y0080356D01*
X0171526Y0079357D02*
X0175404Y0079357D01*
X0175818Y0078359D02*
X0171526Y0078359D01*
X0171526Y0077360D02*
X0189308Y0077360D01*
X0190306Y0076362D02*
X0171526Y0076362D01*
X0167163Y0076362D02*
X0165955Y0076362D01*
X0165955Y0077360D02*
X0167163Y0077360D01*
X0167163Y0078359D02*
X0165955Y0078359D01*
X0165955Y0079357D02*
X0167163Y0079357D01*
X0167163Y0079524D02*
X0167163Y0072348D01*
X0166832Y0072680D01*
X0165955Y0072680D01*
X0165955Y0080457D01*
X0166693Y0079719D01*
X0167163Y0079524D01*
X0166056Y0080356D02*
X0165955Y0080356D01*
X0163774Y0079758D02*
X0159344Y0084188D01*
X0159344Y0086687D01*
X0164026Y0086347D02*
X0164663Y0086347D01*
X0164663Y0087345D02*
X0164026Y0087345D01*
X0164026Y0088344D02*
X0164663Y0088344D01*
X0164663Y0089342D02*
X0164026Y0089342D01*
X0164026Y0090341D02*
X0164663Y0090341D01*
X0164962Y0091339D02*
X0163727Y0091339D01*
X0163313Y0092338D02*
X0165375Y0092338D01*
X0166373Y0093336D02*
X0162316Y0093336D01*
X0172316Y0093336D02*
X0294244Y0093336D01*
X0294244Y0092338D02*
X0173313Y0092338D01*
X0179553Y0087345D02*
X0180553Y0087345D01*
X0180553Y0086347D02*
X0179553Y0086347D01*
X0179553Y0085348D02*
X0180553Y0085348D01*
X0180553Y0084350D02*
X0179553Y0084350D01*
X0164831Y0082353D02*
X0164264Y0082353D01*
X0164026Y0083351D02*
X0164663Y0083351D01*
X0164663Y0084350D02*
X0164026Y0084350D01*
X0164026Y0085348D02*
X0164663Y0085348D01*
X0163774Y0079758D02*
X0163774Y0070211D01*
X0159730Y0070371D02*
X0157227Y0070371D01*
X0156900Y0071369D02*
X0159730Y0071369D01*
X0159646Y0072368D02*
X0160403Y0072368D01*
X0160337Y0073366D02*
X0161593Y0073366D01*
X0161593Y0074365D02*
X0160337Y0074365D01*
X0160337Y0075363D02*
X0161593Y0075363D01*
X0161593Y0076362D02*
X0160337Y0076362D01*
X0160337Y0077360D02*
X0161593Y0077360D01*
X0161593Y0078359D02*
X0160337Y0078359D01*
X0165955Y0075363D02*
X0167163Y0075363D01*
X0167163Y0074365D02*
X0165955Y0074365D01*
X0165955Y0073366D02*
X0167163Y0073366D01*
X0167144Y0072368D02*
X0167163Y0072368D01*
X0152537Y0071369D02*
X0147451Y0071369D01*
X0147451Y0070371D02*
X0152537Y0070371D01*
X0152537Y0069372D02*
X0147451Y0069372D01*
X0147451Y0068373D02*
X0152537Y0068373D01*
X0152720Y0067375D02*
X0147451Y0067375D01*
X0147451Y0066376D02*
X0153129Y0066376D01*
X0154262Y0065378D02*
X0147451Y0065378D01*
X0129915Y0060762D02*
X0125270Y0060762D01*
X0124344Y0061687D01*
X0120604Y0061687D01*
X0119344Y0062947D01*
X0114711Y0061384D02*
X0114625Y0061384D01*
X0114711Y0060385D02*
X0111478Y0060385D01*
X0111173Y0059387D02*
X0115016Y0059387D01*
X0117625Y0058388D02*
X0106064Y0058388D01*
X0106636Y0057390D02*
X0117053Y0057390D01*
X0117053Y0056391D02*
X0106636Y0056391D01*
X0106636Y0055393D02*
X0117053Y0055393D01*
X0123088Y0058802D02*
X0124146Y0058802D01*
X0123617Y0059331D01*
X0123088Y0058802D01*
X0124344Y0061687D02*
X0124344Y0064187D01*
X0112163Y0065378D02*
X0111478Y0065378D01*
X0111305Y0066376D02*
X0112163Y0066376D01*
X0112163Y0067375D02*
X0111218Y0067375D01*
X0111297Y0068373D02*
X0112163Y0068373D01*
X0112163Y0069372D02*
X0111297Y0069372D01*
X0107344Y0072368D02*
X0106345Y0072368D01*
X0106345Y0073366D02*
X0107344Y0073366D01*
X0107344Y0074365D02*
X0106345Y0074365D01*
X0102392Y0069372D02*
X0090750Y0069372D01*
X0090750Y0068373D02*
X0102392Y0068373D01*
X0102471Y0067375D02*
X0090750Y0067375D01*
X0090750Y0066376D02*
X0102384Y0066376D01*
X0102211Y0065378D02*
X0090750Y0065378D01*
X0090750Y0064379D02*
X0101452Y0064379D01*
X0100453Y0063381D02*
X0090569Y0063381D01*
X0090569Y0062908D02*
X0086116Y0062908D01*
X0086116Y0062908D01*
X0081663Y0062908D01*
X0081663Y0063802D01*
X0081482Y0063983D01*
X0081482Y0082305D01*
X0082467Y0083290D01*
X0083635Y0083290D01*
X0083635Y0084554D01*
X0082329Y0084554D01*
X0081844Y0085038D01*
X0081360Y0084554D01*
X0074849Y0084554D01*
X0073864Y0085538D01*
X0073864Y0086706D01*
X0066826Y0086706D01*
X0066826Y0076194D01*
X0066622Y0075703D01*
X0066826Y0075213D01*
X0066826Y0070215D01*
X0079329Y0057712D01*
X0081482Y0057712D01*
X0081482Y0061833D01*
X0081663Y0062014D01*
X0081663Y0062908D01*
X0086116Y0062908D01*
X0086116Y0062908D01*
X0090569Y0062908D01*
X0090569Y0062382D02*
X0099663Y0062382D01*
X0099663Y0061384D02*
X0093714Y0061384D01*
X0094460Y0060385D02*
X0099663Y0060385D01*
X0099663Y0059387D02*
X0094719Y0059387D01*
X0094625Y0058388D02*
X0097546Y0058388D01*
X0091844Y0059187D02*
X0090447Y0057790D01*
X0086116Y0057790D01*
X0081482Y0058388D02*
X0078652Y0058388D01*
X0077654Y0059387D02*
X0081482Y0059387D01*
X0081482Y0060385D02*
X0076655Y0060385D01*
X0075657Y0061384D02*
X0081482Y0061384D01*
X0081663Y0062382D02*
X0074658Y0062382D01*
X0073660Y0063381D02*
X0081663Y0063381D01*
X0081482Y0064379D02*
X0072661Y0064379D01*
X0071663Y0065378D02*
X0081482Y0065378D01*
X0081482Y0066376D02*
X0070664Y0066376D01*
X0069666Y0067375D02*
X0081482Y0067375D01*
X0081482Y0068373D02*
X0068667Y0068373D01*
X0067669Y0069372D02*
X0081482Y0069372D01*
X0081482Y0070371D02*
X0066826Y0070371D01*
X0066826Y0071369D02*
X0081482Y0071369D01*
X0081482Y0072368D02*
X0066826Y0072368D01*
X0066826Y0073366D02*
X0081482Y0073366D01*
X0081482Y0074365D02*
X0066826Y0074365D01*
X0066763Y0075363D02*
X0081482Y0075363D01*
X0081482Y0076362D02*
X0066826Y0076362D01*
X0066826Y0077360D02*
X0081482Y0077360D01*
X0081482Y0078359D02*
X0066826Y0078359D01*
X0066826Y0079357D02*
X0081482Y0079357D01*
X0081482Y0080356D02*
X0066826Y0080356D01*
X0066826Y0081354D02*
X0081482Y0081354D01*
X0081530Y0082353D02*
X0066826Y0082353D01*
X0066826Y0083351D02*
X0083635Y0083351D01*
X0083635Y0084350D02*
X0066826Y0084350D01*
X0066826Y0085348D02*
X0074054Y0085348D01*
X0073864Y0086347D02*
X0066826Y0086347D01*
X0061863Y0084350D02*
X0020864Y0084350D01*
X0020386Y0083351D02*
X0061863Y0083351D01*
X0057573Y0080821D02*
X0048478Y0080821D01*
X0035781Y0068125D01*
X0021844Y0068125D01*
X0017536Y0066376D02*
X0007968Y0066376D01*
X0007968Y0065378D02*
X0018016Y0065378D01*
X0017903Y0065491D02*
X0019206Y0064187D01*
X0017903Y0062884D01*
X0017195Y0061175D01*
X0017195Y0061061D01*
X0014942Y0061995D01*
X0012212Y0061995D01*
X0009690Y0060950D01*
X0007968Y0059229D01*
X0007968Y0069146D01*
X0009690Y0067425D01*
X0012212Y0066380D01*
X0014942Y0066380D01*
X0017195Y0067314D01*
X0017195Y0067200D01*
X0017903Y0065491D01*
X0019014Y0064379D02*
X0007968Y0064379D01*
X0007968Y0063381D02*
X0018399Y0063381D01*
X0017695Y0062382D02*
X0007968Y0062382D01*
X0007968Y0061384D02*
X0010738Y0061384D01*
X0009125Y0060385D02*
X0007968Y0060385D01*
X0007968Y0059387D02*
X0008127Y0059387D01*
X0016416Y0061384D02*
X0017281Y0061384D01*
X0021844Y0060250D02*
X0032907Y0060250D01*
X0050919Y0078262D01*
X0057573Y0078262D01*
X0052939Y0075363D02*
X0051105Y0075363D01*
X0050106Y0074365D02*
X0052939Y0074365D01*
X0053120Y0073366D02*
X0049108Y0073366D01*
X0048109Y0072368D02*
X0053120Y0072368D01*
X0053120Y0073144D02*
X0057573Y0073144D01*
X0057573Y0073144D01*
X0053120Y0073144D01*
X0052939Y0071369D02*
X0047111Y0071369D01*
X0046112Y0070371D02*
X0049860Y0070371D01*
X0048520Y0069372D02*
X0045114Y0069372D01*
X0044115Y0068373D02*
X0047522Y0068373D01*
X0046523Y0067375D02*
X0043116Y0067375D01*
X0042118Y0066376D02*
X0045525Y0066376D01*
X0044871Y0065378D02*
X0041119Y0065378D01*
X0040121Y0064379D02*
X0044737Y0064379D01*
X0044737Y0063381D02*
X0039122Y0063381D01*
X0038124Y0062382D02*
X0044737Y0062382D01*
X0044737Y0061384D02*
X0037125Y0061384D01*
X0036127Y0060385D02*
X0044737Y0060385D01*
X0044737Y0059387D02*
X0035128Y0059387D01*
X0034130Y0058388D02*
X0044737Y0058388D01*
X0044737Y0057390D02*
X0025559Y0057390D01*
X0026513Y0056391D02*
X0024561Y0056391D01*
X0025852Y0055393D02*
X0020439Y0055393D01*
X0024371Y0054394D02*
X0025852Y0054394D01*
X0025852Y0053396D02*
X0025432Y0053396D01*
X0036428Y0056391D02*
X0042261Y0056391D01*
X0041600Y0055393D02*
X0037089Y0055393D01*
X0037089Y0054394D02*
X0041600Y0054394D01*
X0041600Y0053396D02*
X0037089Y0053396D01*
X0037089Y0052397D02*
X0041600Y0052397D01*
X0041600Y0051399D02*
X0037089Y0051399D01*
X0037089Y0050400D02*
X0041600Y0050400D01*
X0041600Y0049402D02*
X0037089Y0049402D01*
X0037089Y0048403D02*
X0041600Y0048403D01*
X0041840Y0047405D02*
X0036849Y0047405D01*
X0035635Y0046406D02*
X0044737Y0046406D01*
X0044737Y0045408D02*
X0036633Y0045408D01*
X0037632Y0044409D02*
X0042484Y0044409D01*
X0041502Y0043411D02*
X0039251Y0043411D01*
X0039825Y0042412D02*
X0041502Y0042412D01*
X0041502Y0041414D02*
X0039825Y0041414D01*
X0039825Y0040415D02*
X0041502Y0040415D01*
X0041502Y0039417D02*
X0039825Y0039417D01*
X0039825Y0038418D02*
X0041502Y0038418D01*
X0041502Y0037420D02*
X0039825Y0037420D01*
X0039825Y0036421D02*
X0041502Y0036421D01*
X0041502Y0035423D02*
X0039709Y0035423D01*
X0042026Y0034424D02*
X0017578Y0034424D01*
X0018918Y0035423D02*
X0024282Y0035423D01*
X0024045Y0036421D02*
X0019814Y0036421D01*
X0020462Y0037420D02*
X0024045Y0037420D01*
X0024045Y0038418D02*
X0020919Y0038418D01*
X0021218Y0039417D02*
X0027604Y0039417D01*
X0027604Y0040415D02*
X0028604Y0040415D01*
X0028604Y0041414D02*
X0027604Y0041414D01*
X0027604Y0042412D02*
X0028604Y0042412D01*
X0028604Y0043411D02*
X0027604Y0043411D01*
X0024746Y0043411D02*
X0021080Y0043411D01*
X0021310Y0042412D02*
X0024065Y0042412D01*
X0024045Y0041414D02*
X0014077Y0041414D01*
X0014077Y0040415D02*
X0013077Y0040415D01*
X0013077Y0039417D02*
X0014077Y0039417D01*
X0014077Y0038418D02*
X0013077Y0038418D01*
X0013077Y0037420D02*
X0014077Y0037420D01*
X0014077Y0036421D02*
X0013077Y0036421D01*
X0013077Y0035423D02*
X0014077Y0035423D01*
X0014077Y0034424D02*
X0013077Y0034424D01*
X0009575Y0034424D02*
X0007968Y0034424D01*
X0007968Y0035423D02*
X0008236Y0035423D01*
X0021377Y0040415D02*
X0024045Y0040415D01*
X0027604Y0038418D02*
X0028604Y0038418D01*
X0028604Y0037420D02*
X0027604Y0037420D01*
X0027604Y0036421D02*
X0028604Y0036421D01*
X0028604Y0035423D02*
X0027604Y0035423D01*
X0031463Y0043411D02*
X0031612Y0043411D01*
X0030614Y0044409D02*
X0020705Y0044409D01*
X0020164Y0045408D02*
X0029689Y0045408D01*
X0029363Y0046406D02*
X0024333Y0046406D01*
X0025417Y0047405D02*
X0026092Y0047405D01*
X0018192Y0047485D02*
X0017937Y0047681D01*
X0017048Y0048194D01*
X0016099Y0048587D01*
X0015861Y0048651D01*
X0017294Y0049244D01*
X0017903Y0047774D01*
X0018192Y0047485D01*
X0017642Y0048403D02*
X0016543Y0048403D01*
X0011293Y0048651D02*
X0011054Y0048587D01*
X0010106Y0048194D01*
X0009217Y0047681D01*
X0008403Y0047056D01*
X0007968Y0046622D01*
X0007968Y0051036D01*
X0009690Y0049315D01*
X0011293Y0048651D01*
X0010611Y0048403D02*
X0007968Y0048403D01*
X0007968Y0047405D02*
X0008857Y0047405D01*
X0009603Y0049402D02*
X0007968Y0049402D01*
X0007968Y0050400D02*
X0008604Y0050400D01*
X0024483Y0064187D02*
X0025786Y0062884D01*
X0025974Y0062432D01*
X0032004Y0062432D01*
X0035516Y0065943D01*
X0025974Y0065943D01*
X0025786Y0065491D01*
X0024483Y0064187D01*
X0024675Y0064379D02*
X0033952Y0064379D01*
X0032953Y0063381D02*
X0025290Y0063381D01*
X0025673Y0065378D02*
X0034950Y0065378D01*
X0034943Y0070371D02*
X0025947Y0070371D01*
X0025175Y0071369D02*
X0035941Y0071369D01*
X0036940Y0072368D02*
X0023751Y0072368D01*
X0023560Y0073826D02*
X0022891Y0073609D01*
X0022329Y0073520D01*
X0022329Y0077483D01*
X0026292Y0077483D01*
X0026203Y0076921D01*
X0025986Y0076252D01*
X0025666Y0075625D01*
X0025253Y0075056D01*
X0024756Y0074559D01*
X0024186Y0074145D01*
X0023560Y0073826D01*
X0024488Y0074365D02*
X0038937Y0074365D01*
X0039936Y0075363D02*
X0025476Y0075363D01*
X0026021Y0076362D02*
X0040934Y0076362D01*
X0041933Y0077360D02*
X0026273Y0077360D01*
X0022329Y0077360D02*
X0021360Y0077360D01*
X0021360Y0076362D02*
X0022329Y0076362D01*
X0022329Y0075363D02*
X0021360Y0075363D01*
X0021360Y0074365D02*
X0022329Y0074365D01*
X0020439Y0073366D02*
X0037938Y0073366D01*
X0042931Y0078359D02*
X0022329Y0078359D01*
X0022329Y0079357D02*
X0021360Y0079357D01*
X0021360Y0080356D02*
X0022329Y0080356D01*
X0022329Y0081354D02*
X0021360Y0081354D01*
X0021360Y0082353D02*
X0022329Y0082353D01*
X0022719Y0082353D02*
X0046925Y0082353D01*
X0045927Y0081354D02*
X0024777Y0081354D01*
X0025632Y0080356D02*
X0044928Y0080356D01*
X0043930Y0079357D02*
X0026091Y0079357D01*
X0018912Y0081354D02*
X0018786Y0081354D01*
X0018057Y0080356D02*
X0017350Y0080356D01*
X0017598Y0079357D02*
X0016747Y0079357D01*
X0011293Y0079724D02*
X0009690Y0079060D01*
X0007968Y0077339D01*
X0007968Y0081753D01*
X0008403Y0081319D01*
X0009217Y0080694D01*
X0010106Y0080181D01*
X0011054Y0079788D01*
X0011293Y0079724D01*
X0010407Y0079357D02*
X0007968Y0079357D01*
X0007968Y0078359D02*
X0008988Y0078359D01*
X0007990Y0077360D02*
X0007968Y0077360D01*
X0007968Y0080356D02*
X0009803Y0080356D01*
X0008367Y0081354D02*
X0007968Y0081354D01*
X0019713Y0082353D02*
X0020970Y0082353D01*
X0021327Y0088344D02*
X0046545Y0088344D01*
X0008686Y0093336D02*
X0007968Y0093336D01*
X0007968Y0068373D02*
X0008741Y0068373D01*
X0007968Y0067375D02*
X0009811Y0067375D01*
X0057573Y0054394D02*
X0057573Y0054394D01*
X0057573Y0053396D02*
X0057573Y0053396D01*
X0062207Y0046406D02*
X0081482Y0046406D01*
X0082144Y0045408D02*
X0061545Y0045408D01*
X0057856Y0038418D02*
X0056856Y0038418D01*
X0056856Y0037420D02*
X0057856Y0037420D01*
X0057856Y0036421D02*
X0056856Y0036421D01*
X0056856Y0035423D02*
X0057856Y0035423D01*
X0057856Y0034424D02*
X0056856Y0034424D01*
X0053320Y0034424D02*
X0050640Y0034424D01*
X0051163Y0035423D02*
X0052713Y0035423D01*
X0052707Y0036421D02*
X0051163Y0036421D01*
X0051163Y0037420D02*
X0052707Y0037420D01*
X0052707Y0038418D02*
X0051163Y0038418D01*
X0106500Y0035423D02*
X0117482Y0035423D01*
X0117234Y0036421D02*
X0106636Y0036421D01*
X0106636Y0037420D02*
X0117234Y0037420D01*
X0117234Y0038418D02*
X0106636Y0038418D01*
X0121384Y0038418D02*
X0122384Y0038418D01*
X0122384Y0037420D02*
X0121384Y0037420D01*
X0121384Y0036421D02*
X0122384Y0036421D01*
X0122384Y0035423D02*
X0121384Y0035423D01*
X0126285Y0035423D02*
X0146238Y0035423D01*
X0146238Y0036421D02*
X0126533Y0036421D01*
X0126533Y0037420D02*
X0146238Y0037420D01*
X0154719Y0037563D02*
X0155594Y0036688D01*
X0154719Y0037563D02*
X0154719Y0042258D01*
X0151569Y0042258D02*
X0151569Y0034463D01*
X0151844Y0034188D01*
X0154150Y0032427D02*
X0294244Y0032427D01*
X0294244Y0031429D02*
X0152696Y0031429D01*
X0151935Y0030430D02*
X0294244Y0030430D01*
X0261815Y0042938D02*
X0261018Y0042140D01*
X0257858Y0042140D01*
X0258055Y0049187D02*
X0258065Y0049197D01*
X0258065Y0057947D01*
X0254374Y0053396D02*
X0254256Y0053396D01*
X0237205Y0055918D02*
X0236449Y0056674D01*
X0236449Y0055451D01*
X0236916Y0055918D01*
X0237205Y0055918D01*
X0236732Y0056391D02*
X0236449Y0056391D01*
X0236335Y0058797D02*
X0235464Y0059668D01*
X0233996Y0059668D01*
X0233996Y0060091D01*
X0231478Y0062609D01*
X0227699Y0062609D01*
X0227699Y0063683D01*
X0226714Y0064668D01*
X0219416Y0064668D01*
X0218690Y0063942D01*
X0217964Y0064668D01*
X0211496Y0064668D01*
X0211496Y0064957D01*
X0217964Y0064957D01*
X0218690Y0065683D01*
X0219416Y0064957D01*
X0226714Y0064957D01*
X0227440Y0065683D01*
X0228166Y0064957D01*
X0235464Y0064957D01*
X0236190Y0065683D01*
X0236916Y0064957D01*
X0237205Y0064957D01*
X0236335Y0064087D01*
X0236335Y0058797D01*
X0236335Y0059387D02*
X0235745Y0059387D01*
X0236335Y0060385D02*
X0233702Y0060385D01*
X0232703Y0061384D02*
X0236335Y0061384D01*
X0236335Y0062382D02*
X0231705Y0062382D01*
X0227699Y0063381D02*
X0236335Y0063381D01*
X0236628Y0064379D02*
X0227002Y0064379D01*
X0227135Y0065378D02*
X0227745Y0065378D01*
X0235885Y0065378D02*
X0236495Y0065378D01*
X0243944Y0064957D02*
X0244315Y0064587D01*
X0244800Y0065071D01*
X0245552Y0065071D01*
X0244940Y0065683D01*
X0244214Y0064957D01*
X0243944Y0064957D01*
X0244635Y0065378D02*
X0245245Y0065378D01*
X0244940Y0072712D02*
X0245294Y0073066D01*
X0245162Y0073198D01*
X0244964Y0073540D01*
X0244940Y0073631D01*
X0244915Y0073540D01*
X0244718Y0073198D01*
X0244586Y0073066D01*
X0244940Y0072712D01*
X0244815Y0073366D02*
X0245065Y0073366D01*
X0236544Y0073066D02*
X0236190Y0072712D01*
X0235964Y0072938D01*
X0236343Y0073317D01*
X0236412Y0073198D01*
X0236544Y0073066D01*
X0241065Y0076178D02*
X0241065Y0077178D01*
X0248815Y0077178D01*
X0248815Y0076178D01*
X0244862Y0076178D01*
X0241065Y0076178D01*
X0241065Y0076362D02*
X0248815Y0076362D01*
X0248815Y0077360D02*
X0249815Y0077360D01*
X0249815Y0077178D02*
X0249815Y0080737D01*
X0252465Y0080737D01*
X0252847Y0080634D01*
X0253189Y0080437D01*
X0253468Y0080158D01*
X0253665Y0079816D01*
X0253768Y0079434D01*
X0253768Y0077178D01*
X0249815Y0077178D01*
X0249815Y0078359D02*
X0248815Y0078359D01*
X0248815Y0079357D02*
X0249815Y0079357D01*
X0249815Y0080356D02*
X0248815Y0080356D01*
X0245360Y0080356D02*
X0244520Y0080356D01*
X0241065Y0080356D02*
X0240065Y0080356D01*
X0240065Y0079357D02*
X0241065Y0079357D01*
X0241065Y0078359D02*
X0240065Y0078359D01*
X0240065Y0077360D02*
X0241065Y0077360D01*
X0236610Y0080356D02*
X0236026Y0080356D01*
X0227604Y0080356D02*
X0227276Y0080356D01*
X0218854Y0080356D02*
X0218526Y0080356D01*
X0210104Y0080356D02*
X0207481Y0080356D01*
X0206483Y0081354D02*
X0280666Y0081354D01*
X0280666Y0080356D02*
X0253270Y0080356D01*
X0253768Y0079357D02*
X0280666Y0079357D01*
X0280666Y0078359D02*
X0253768Y0078359D01*
X0253768Y0077360D02*
X0280666Y0077360D01*
X0289916Y0075363D02*
X0290916Y0075363D01*
X0290916Y0074365D02*
X0289916Y0074365D01*
X0289916Y0073366D02*
X0290916Y0073366D01*
X0290916Y0072368D02*
X0289916Y0072368D01*
X0289916Y0071369D02*
X0290916Y0071369D01*
X0290916Y0070371D02*
X0289916Y0070371D01*
X0273916Y0059187D02*
X0273690Y0058962D01*
X0273336Y0059316D01*
X0273468Y0059448D01*
X0273537Y0059567D01*
X0273916Y0059187D01*
X0273716Y0059387D02*
X0273407Y0059387D01*
X0282699Y0057390D02*
X0294244Y0057390D01*
X0294244Y0056391D02*
X0282699Y0056391D01*
X0289916Y0055393D02*
X0290916Y0055393D01*
X0290916Y0054394D02*
X0289916Y0054394D01*
X0289916Y0053396D02*
X0290916Y0053396D01*
X0290916Y0052397D02*
X0289916Y0052397D01*
X0289916Y0051399D02*
X0290916Y0051399D01*
X0290916Y0050400D02*
X0289916Y0050400D01*
X0280666Y0050400D02*
X0273482Y0050400D01*
X0273156Y0051399D02*
X0274224Y0051399D01*
X0227666Y0051687D02*
X0227518Y0051539D01*
X0227518Y0051836D01*
X0227666Y0051687D01*
X0223565Y0051399D02*
X0222565Y0051399D01*
X0222565Y0050400D02*
X0223565Y0050400D01*
X0223565Y0049402D02*
X0222565Y0049402D01*
X0219382Y0048403D02*
X0219248Y0048403D01*
X0218977Y0049402D02*
X0218659Y0049402D01*
X0226729Y0048403D02*
X0227181Y0048403D01*
X0227152Y0049402D02*
X0227181Y0049402D01*
X0208021Y0052397D02*
X0207864Y0052397D01*
X0218252Y0064379D02*
X0219128Y0064379D01*
X0218995Y0065378D02*
X0218385Y0065378D01*
X0218690Y0072712D02*
X0218464Y0072937D01*
X0218690Y0073163D01*
X0218916Y0072937D01*
X0218690Y0072712D01*
X0223065Y0076678D02*
X0231815Y0076678D01*
X0227666Y0072938D02*
X0227440Y0072712D01*
X0227214Y0072937D01*
X0227440Y0073163D01*
X0227666Y0072938D01*
X0209681Y0079357D02*
X0208480Y0079357D01*
X0205199Y0082353D02*
X0280748Y0082353D01*
X0196323Y0083351D02*
X0195907Y0083351D01*
X0195907Y0082353D02*
X0195931Y0082353D01*
X0195907Y0081354D02*
X0195931Y0081354D01*
X0195907Y0080356D02*
X0195931Y0080356D01*
X0195907Y0084350D02*
X0196112Y0084350D01*
X0196112Y0085348D02*
X0195907Y0085348D01*
X0137585Y0072368D02*
X0137206Y0072368D01*
X0109183Y0080356D02*
X0090750Y0080356D01*
X0090750Y0081354D02*
X0109183Y0081354D01*
X0109183Y0082353D02*
X0090702Y0082353D01*
X0089825Y0087345D02*
X0134844Y0087345D01*
X0178970Y0064906D02*
X0190447Y0064906D01*
X0122384Y0043411D02*
X0121384Y0043411D01*
X0121384Y0042412D02*
X0122384Y0042412D01*
X0122384Y0041414D02*
X0121384Y0041414D01*
X0126533Y0038418D02*
X0134134Y0038418D01*
X0148419Y0042258D02*
X0148419Y0032613D01*
X0149344Y0031687D01*
X0160080Y0039417D02*
X0176112Y0039417D01*
D30*
X0180565Y0047928D02*
X0180565Y0048006D01*
X0180634Y0048075D01*
X0180329Y0048164D02*
X0163774Y0048164D01*
X0137868Y0048164D01*
X0136844Y0049187D01*
X0136844Y0056687D01*
X0135594Y0057937D01*
X0136844Y0059187D01*
X0136844Y0069188D01*
X0135821Y0070211D01*
X0129915Y0070211D01*
X0125821Y0070211D01*
X0124344Y0071688D01*
X0124344Y0078676D01*
X0124856Y0079188D01*
X0086116Y0080821D02*
X0086116Y0088656D01*
X0085585Y0089187D01*
X0078104Y0089187D02*
X0061844Y0089187D01*
X0058085Y0089187D01*
X0061844Y0089187D02*
X0064344Y0086687D01*
X0064344Y0076688D01*
X0063360Y0075703D01*
X0064344Y0074719D01*
X0064344Y0069188D01*
X0078301Y0055231D01*
X0086116Y0055231D01*
X0100742Y0055231D01*
X0101805Y0054168D01*
X0101844Y0054207D02*
X0101844Y0039247D01*
X0101805Y0039207D01*
X0047219Y0040073D02*
X0046333Y0039188D01*
X0047219Y0040073D02*
X0047219Y0051687D01*
X0047219Y0064562D01*
X0050683Y0068026D01*
X0057573Y0068026D01*
X0057573Y0075703D02*
X0063360Y0075703D01*
X0129915Y0057613D02*
X0135270Y0057613D01*
X0135594Y0057937D01*
X0191077Y0082938D02*
X0191461Y0082554D01*
X0191461Y0082524D01*
X0269315Y0055447D02*
X0278065Y0055447D01*
X0269315Y0055447D02*
X0269315Y0046678D01*
X0269305Y0039188D02*
X0257858Y0039188D01*
X0278065Y0062928D02*
X0290327Y0062928D01*
X0290416Y0062839D01*
X0278065Y0062928D02*
X0278065Y0070428D01*
X0035585Y0042947D02*
X0035585Y0039188D01*
X0035585Y0042947D02*
X0031844Y0046687D01*
X0031844Y0051313D01*
X0031470Y0051687D01*
X0030191Y0050408D01*
X0021844Y0050408D01*
D31*
X0180634Y0048075D03*
X0191461Y0082524D03*
M02*
