G75*
%MOIN*%
%OFA0B0*%
%FSLAX25Y25*%
%IPPOS*%
%LPD*%
%AMOC8*
5,1,8,0,0,1.08239X$1,22.5*
%
%ADD10R,0.06706X0.05918*%
%ADD11R,0.07099X0.07887*%
%ADD12R,0.05918X0.06706*%
%ADD13R,0.06706X0.02375*%
%ADD14C,0.06800*%
%ADD15R,0.08674X0.07493*%
%ADD16R,0.07099X0.06706*%
%ADD17R,0.04343X0.03359*%
%ADD18C,0.06737*%
%ADD19C,0.13461*%
%ADD20C,0.05524*%
%ADD21C,0.00985*%
%ADD22R,0.11036X0.11036*%
%ADD23R,0.03162X0.03162*%
%ADD24R,0.03162X0.02375*%
%ADD25R,0.05118X0.01969*%
%ADD26R,0.01969X0.05118*%
%ADD27R,0.17300X0.07800*%
%ADD28R,0.17300X0.11300*%
D10*
X0180565Y0040447D03*
X0180565Y0047928D03*
X0214315Y0052947D03*
X0223065Y0052947D03*
X0231815Y0055428D03*
X0240565Y0051678D03*
X0231815Y0047947D03*
X0240565Y0044197D03*
X0269315Y0046678D03*
X0269315Y0039197D03*
X0269315Y0055447D03*
X0278065Y0055447D03*
X0258065Y0057947D03*
X0269315Y0062928D03*
X0278065Y0062928D03*
X0258065Y0065428D03*
X0249315Y0069197D03*
X0240565Y0069197D03*
X0231815Y0069197D03*
X0223065Y0069197D03*
X0214315Y0069197D03*
X0214315Y0076678D03*
X0223065Y0076678D03*
X0231815Y0076678D03*
X0240565Y0076678D03*
X0249315Y0076678D03*
X0200565Y0079197D03*
X0200565Y0086678D03*
X0119344Y0070428D03*
X0106844Y0070428D03*
X0106844Y0062947D03*
X0119344Y0062947D03*
X0214315Y0060428D03*
X0223065Y0060428D03*
D11*
X0191077Y0082938D03*
X0180053Y0082938D03*
X0124856Y0079188D03*
X0113833Y0079188D03*
X0057356Y0039188D03*
X0046333Y0039188D03*
D12*
X0028104Y0039188D03*
X0035585Y0039188D03*
X0050604Y0089187D03*
X0058085Y0089187D03*
X0078104Y0089187D03*
X0085585Y0089187D03*
X0215575Y0044187D03*
X0223055Y0044187D03*
X0250575Y0049187D03*
X0258055Y0049187D03*
X0248055Y0060437D03*
X0240575Y0060437D03*
X0269325Y0071688D03*
X0276805Y0071688D03*
D13*
X0086116Y0070585D03*
X0086116Y0073144D03*
X0086116Y0075703D03*
X0086116Y0078262D03*
X0086116Y0080821D03*
X0057573Y0080821D03*
X0057573Y0078262D03*
X0057573Y0075703D03*
X0057573Y0073144D03*
X0057573Y0070585D03*
X0057573Y0068026D03*
X0057573Y0065467D03*
X0057573Y0062908D03*
X0057573Y0060349D03*
X0057573Y0057790D03*
X0057573Y0055231D03*
X0057573Y0052672D03*
X0057573Y0050113D03*
X0057573Y0047554D03*
X0086116Y0047554D03*
X0086116Y0050113D03*
X0086116Y0052672D03*
X0086116Y0055231D03*
X0086116Y0057790D03*
X0086116Y0060349D03*
X0086116Y0062908D03*
X0086116Y0065467D03*
X0086116Y0068026D03*
D14*
X0139344Y0083688D02*
X0139344Y0089687D01*
X0149344Y0089687D02*
X0149344Y0083688D01*
X0159344Y0083688D02*
X0159344Y0089687D01*
X0169344Y0089687D02*
X0169344Y0083688D01*
D15*
X0047219Y0051687D03*
X0031470Y0051687D03*
D16*
X0101805Y0054168D03*
X0121884Y0054168D03*
X0121884Y0039207D03*
X0101805Y0039207D03*
D17*
X0187681Y0043439D03*
X0195949Y0043439D03*
X0195949Y0049936D03*
X0187681Y0049936D03*
D18*
X0021844Y0050408D03*
X0021844Y0060250D03*
X0021844Y0068125D03*
X0021844Y0077967D03*
D19*
X0013577Y0087219D03*
X0013577Y0041156D03*
D20*
X0013577Y0055132D03*
X0013577Y0073243D03*
D21*
X0192008Y0067295D02*
X0192008Y0066455D01*
X0188886Y0066455D01*
X0188886Y0067295D01*
X0192008Y0067295D01*
X0192008Y0065326D02*
X0192008Y0064486D01*
X0188886Y0064486D01*
X0188886Y0065326D01*
X0192008Y0065326D01*
X0192008Y0063357D02*
X0192008Y0062517D01*
X0188886Y0062517D01*
X0188886Y0063357D01*
X0192008Y0063357D01*
X0192008Y0061389D02*
X0192008Y0060549D01*
X0188886Y0060549D01*
X0188886Y0061389D01*
X0192008Y0061389D01*
X0192008Y0059420D02*
X0192008Y0058580D01*
X0188886Y0058580D01*
X0188886Y0059420D01*
X0192008Y0059420D01*
X0193708Y0056880D02*
X0194548Y0056880D01*
X0194548Y0053758D01*
X0193708Y0053758D01*
X0193708Y0056880D01*
X0193708Y0054742D02*
X0194548Y0054742D01*
X0194548Y0055726D02*
X0193708Y0055726D01*
X0193708Y0056710D02*
X0194548Y0056710D01*
X0195676Y0056880D02*
X0196516Y0056880D01*
X0196516Y0053758D01*
X0195676Y0053758D01*
X0195676Y0056880D01*
X0195676Y0054742D02*
X0196516Y0054742D01*
X0196516Y0055726D02*
X0195676Y0055726D01*
X0195676Y0056710D02*
X0196516Y0056710D01*
X0197645Y0056880D02*
X0198485Y0056880D01*
X0198485Y0053758D01*
X0197645Y0053758D01*
X0197645Y0056880D01*
X0197645Y0054742D02*
X0198485Y0054742D01*
X0198485Y0055726D02*
X0197645Y0055726D01*
X0197645Y0056710D02*
X0198485Y0056710D01*
X0199613Y0056880D02*
X0200453Y0056880D01*
X0200453Y0053758D01*
X0199613Y0053758D01*
X0199613Y0056880D01*
X0199613Y0054742D02*
X0200453Y0054742D01*
X0200453Y0055726D02*
X0199613Y0055726D01*
X0199613Y0056710D02*
X0200453Y0056710D01*
X0201582Y0056880D02*
X0202422Y0056880D01*
X0202422Y0053758D01*
X0201582Y0053758D01*
X0201582Y0056880D01*
X0201582Y0054742D02*
X0202422Y0054742D01*
X0202422Y0055726D02*
X0201582Y0055726D01*
X0201582Y0056710D02*
X0202422Y0056710D01*
X0204122Y0058580D02*
X0204122Y0059420D01*
X0207244Y0059420D01*
X0207244Y0058580D01*
X0204122Y0058580D01*
X0204122Y0060549D02*
X0204122Y0061389D01*
X0207244Y0061389D01*
X0207244Y0060549D01*
X0204122Y0060549D01*
X0204122Y0062517D02*
X0204122Y0063357D01*
X0207244Y0063357D01*
X0207244Y0062517D01*
X0204122Y0062517D01*
X0204122Y0064486D02*
X0204122Y0065326D01*
X0207244Y0065326D01*
X0207244Y0064486D01*
X0204122Y0064486D01*
X0204122Y0066455D02*
X0204122Y0067295D01*
X0207244Y0067295D01*
X0207244Y0066455D01*
X0204122Y0066455D01*
X0202422Y0068995D02*
X0201582Y0068995D01*
X0201582Y0072117D01*
X0202422Y0072117D01*
X0202422Y0068995D01*
X0202422Y0069979D02*
X0201582Y0069979D01*
X0201582Y0070963D02*
X0202422Y0070963D01*
X0202422Y0071947D02*
X0201582Y0071947D01*
X0200453Y0068995D02*
X0199613Y0068995D01*
X0199613Y0072117D01*
X0200453Y0072117D01*
X0200453Y0068995D01*
X0200453Y0069979D02*
X0199613Y0069979D01*
X0199613Y0070963D02*
X0200453Y0070963D01*
X0200453Y0071947D02*
X0199613Y0071947D01*
X0198485Y0068995D02*
X0197645Y0068995D01*
X0197645Y0072117D01*
X0198485Y0072117D01*
X0198485Y0068995D01*
X0198485Y0069979D02*
X0197645Y0069979D01*
X0197645Y0070963D02*
X0198485Y0070963D01*
X0198485Y0071947D02*
X0197645Y0071947D01*
X0196516Y0068995D02*
X0195676Y0068995D01*
X0195676Y0072117D01*
X0196516Y0072117D01*
X0196516Y0068995D01*
X0196516Y0069979D02*
X0195676Y0069979D01*
X0195676Y0070963D02*
X0196516Y0070963D01*
X0196516Y0071947D02*
X0195676Y0071947D01*
X0194548Y0068995D02*
X0193708Y0068995D01*
X0193708Y0072117D01*
X0194548Y0072117D01*
X0194548Y0068995D01*
X0194548Y0069979D02*
X0193708Y0069979D01*
X0193708Y0070963D02*
X0194548Y0070963D01*
X0194548Y0071947D02*
X0193708Y0071947D01*
D22*
X0198065Y0062937D03*
D23*
X0250772Y0042140D03*
X0257858Y0042140D03*
X0257858Y0036235D03*
X0250772Y0036235D03*
D24*
X0250772Y0039188D03*
X0257858Y0039188D03*
D25*
X0163774Y0048164D03*
X0163774Y0051313D03*
X0163774Y0054463D03*
X0163774Y0057613D03*
X0163774Y0060762D03*
X0163774Y0063912D03*
X0163774Y0067062D03*
X0163774Y0070211D03*
X0129915Y0070211D03*
X0129915Y0067062D03*
X0129915Y0063912D03*
X0129915Y0060762D03*
X0129915Y0057613D03*
X0129915Y0054463D03*
X0129915Y0051313D03*
X0129915Y0048164D03*
D26*
X0135821Y0042258D03*
X0138970Y0042258D03*
X0142120Y0042258D03*
X0145270Y0042258D03*
X0148419Y0042258D03*
X0151569Y0042258D03*
X0154719Y0042258D03*
X0157868Y0042258D03*
X0157868Y0076117D03*
X0154719Y0076117D03*
X0151569Y0076117D03*
X0148419Y0076117D03*
X0145270Y0076117D03*
X0142120Y0076117D03*
X0138970Y0076117D03*
X0135821Y0076117D03*
D27*
X0290416Y0062839D03*
D28*
X0290416Y0049081D03*
X0290416Y0076597D03*
M02*
