%
M48
M72
T01C0.00787
T02C0.01181
T03C0.03937
T04C0.04000
T05C0.04724
T06C0.08661
%
T01
X28321Y32957
X56864Y32957
X63754Y36894
X63754Y41815
X70644Y47721
X94344Y51687
X111982Y55595
X91844Y59187
X95250Y64453
X101156Y70359
X101156Y75280
X95250Y75280
X107061Y76264
X108045Y79217
X108045Y84138
X113951Y85123
X133636Y87091
X133636Y81186
X144463Y81186
X173990Y79217
X178911Y76264
X173990Y72327
X175939Y67938
X184315Y67938
X189738Y70359
X195565Y65437
X200565Y65437
X206470Y70359
X206470Y73312
X231067Y63794
X235004Y61825
X246815Y54936
X251736Y54936
X263557Y53626
X275368Y49689
X279305Y49689
X279305Y46737
X279305Y43784
X275368Y42800
X281274Y40831
X284226Y40831
X287179Y40831
X290132Y40831
X293085Y40831
X275368Y34926
X269463Y32957
X261815Y35438
X246815Y39188
X240919Y38863
X234030Y41815
X229108Y39847
X219266Y37878
X210407Y37878
X205565Y39188
X195644Y38863
X187770Y38863
X201549Y42800
X209423Y44768
X201549Y49689
X189738Y54611
X184315Y55437
X170673Y59187
X175673Y64187
X195565Y60437
X200565Y60437
X221815Y52937
X224315Y52937
X261815Y42938
X263557Y47721
X284226Y56579
X287179Y56579
X290132Y56579
X293085Y56579
X263557Y59532
X263557Y65437
X263557Y71343
X255683Y73312
X263557Y77249
X269463Y77249
X279305Y77249
X279305Y80201
X281274Y84138
X284226Y84138
X287179Y84138
X290132Y84138
X293085Y84138
X292100Y92997
X265526Y92997
X240919Y92997
X240919Y83154
X232061Y83154
X223203Y83154
X214344Y83154
X207455Y83154
X207455Y91028
X200565Y92997
X193675Y91028
X144463Y93981
X133636Y93981
X91313Y89060
X70644Y82170
X44069Y85123
X44069Y89060
X44069Y92997
X68675Y93981
X35211Y81186
X27337Y78233
X26352Y73312
X27337Y64453
X31274Y64453
X40132Y60516
X51943Y61500
X51943Y58548
X64738Y61500
X51943Y64453
X50959Y72327
X77533Y65437
X124344Y64187
X146844Y59187
X153321Y58548
X141844Y54187
X146431Y52642
X158242Y52642
X130683Y43784
X121825Y44768
X111982Y46737
X115919Y38863
X111982Y37878
X121825Y33941
X127730Y38863
X141510Y34926
X149344Y31687
X151844Y34188
X155594Y36688
X162179Y42800
X173990Y42800
X158242Y64453
X149384Y64453
X155594Y67938
X249778Y83154
X255683Y81186
X290132Y69375
X292100Y32957
X84423Y34926
X40132Y47721
X28321Y45752
T02
X180634Y48075
X191461Y82524
T03
X21844Y77967
X21844Y68125
X21844Y60250
X21844Y50408
T04
X139344Y86687
X149344Y86687
X159344Y86687
X169344Y86687
T05
X13577Y73243
X13577Y55132
T06
X13577Y41156
X13577Y87219
M30
