%
M48
M72
T01C0.00787
T02C0.01181
T03C0.03937
T04C0.04000
T05C0.04724
T06C0.08661
%
T01
X21431Y31973
X14541Y34926
X28321Y34926
X36195Y32957
X64738Y32957
X71628Y36894
X71628Y41815
X78518Y47721
X102219Y51687
X119856Y55595
X99719Y59187
X103124Y64453
X109030Y70359
X109030Y75280
X103124Y75280
X114935Y76264
X115919Y79217
X115919Y84138
X121825Y85123
X141510Y87091
X141510Y81186
X152337Y81186
X181864Y79217
X186785Y76264
X181864Y72327
X183813Y67938
X192189Y67938
X197612Y70359
X203439Y65437
X208439Y65437
X214344Y70359
X214344Y73312
X238941Y63794
X242878Y61825
X254689Y54936
X259610Y54936
X271431Y53626
X283242Y49689
X287179Y49689
X287179Y46737
X287179Y43784
X283242Y42800
X289148Y40831
X292100Y40831
X295053Y40831
X298006Y40831
X300959Y40831
X283242Y34926
X277337Y32957
X269689Y35438
X254689Y39188
X248793Y38863
X241904Y41815
X236982Y39847
X227140Y37878
X218281Y37878
X213439Y39188
X203518Y38863
X195644Y38863
X209423Y42800
X217297Y44768
X209423Y49689
X197612Y54611
X192189Y55437
X178547Y59187
X183547Y64187
X166116Y64453
X163469Y67938
X157258Y64453
X154719Y59187
X161195Y58548
X149719Y54187
X154305Y52642
X166116Y52642
X138557Y43784
X129699Y44768
X119856Y46737
X123793Y38863
X119856Y37878
X129699Y33941
X135604Y38863
X149384Y34926
X157219Y31687
X159719Y34188
X163469Y36688
X170053Y42800
X181864Y42800
X229689Y52937
X232189Y52937
X208439Y60437
X203439Y60437
X263557Y73312
X271431Y71343
X271431Y65437
X271431Y59532
X292100Y56579
X295053Y56579
X298006Y56579
X300959Y56579
X271431Y47721
X269689Y42938
X299974Y32957
X298006Y69375
X287179Y77249
X287179Y80201
X277337Y77249
X271431Y77249
X263557Y81186
X257652Y83154
X248793Y83154
X239935Y83154
X231077Y83154
X222219Y83154
X215329Y83154
X215329Y91028
X208439Y92997
X201549Y91028
X248793Y92997
X273400Y92997
X299974Y92997
X300959Y84138
X298006Y84138
X295053Y84138
X292100Y84138
X289148Y84138
X152337Y93981
X141510Y93981
X99187Y89060
X78518Y82170
X51943Y85123
X51943Y89060
X51943Y92997
X30289Y88075
X30289Y83154
X43085Y81186
X35211Y78233
X34226Y73312
X35211Y64453
X39148Y64453
X48006Y60516
X59817Y61500
X59817Y58548
X72612Y61500
X59817Y64453
X58833Y72327
X85407Y65437
X132219Y64187
X48006Y47721
X36195Y45752
X30289Y41815
X12573Y41815
X14541Y47721
X92297Y34926
X14541Y81186
X12573Y88075
X14541Y93981
X28321Y93981
X76549Y93981
T02
X199335Y82524
X188508Y48075
T03
X29719Y50408
X29719Y60250
X29719Y68125
X29719Y77967
T04
X147219Y86687
X157219Y86687
X167219Y86687
X177219Y86687
T05
X21451Y73243
X21451Y55132
T06
X21451Y41156
X21451Y87219
M30
