G75*
%MOIN*%
%OFA0B0*%
%FSLAX25Y25*%
%IPPOS*%
%LPD*%
%AMOC8*
5,1,8,0,0,1.08239X$1,22.5*
%
%ADD10C,0.06000*%
%ADD11C,0.05937*%
%ADD12C,0.12661*%
%ADD13R,0.16500X0.10500*%
%ADD14C,0.02387*%
%ADD15C,0.01000*%
%ADD16C,0.02781*%
%ADD17C,0.01600*%
D10*
X0139344Y0083688D02*
X0139344Y0089687D01*
X0149344Y0089687D02*
X0149344Y0083688D01*
X0159344Y0083688D02*
X0159344Y0089687D01*
X0169344Y0089687D02*
X0169344Y0083688D01*
D11*
X0021844Y0077967D03*
X0021844Y0068125D03*
X0021844Y0060250D03*
X0021844Y0050408D03*
D12*
X0013577Y0041156D03*
X0013577Y0087219D03*
D13*
X0290416Y0076597D03*
X0290416Y0049081D03*
D14*
X0279305Y0049689D03*
X0275368Y0049689D03*
X0279305Y0046737D03*
X0279305Y0043784D03*
X0275368Y0042800D03*
X0281274Y0040831D03*
X0284226Y0040831D03*
X0287179Y0040831D03*
X0290132Y0040831D03*
X0293085Y0040831D03*
X0275368Y0034926D03*
X0269463Y0032957D03*
X0261815Y0035438D03*
X0246815Y0039188D03*
X0240919Y0038863D03*
X0234030Y0041815D03*
X0229108Y0039847D03*
X0219266Y0037878D03*
X0210407Y0037878D03*
X0205565Y0039188D03*
X0195644Y0038863D03*
X0187770Y0038863D03*
X0201549Y0042800D03*
X0209423Y0044768D03*
X0201549Y0049689D03*
X0189738Y0054611D03*
X0184315Y0055437D03*
X0170673Y0059187D03*
X0175673Y0064187D03*
X0175939Y0067938D03*
X0184315Y0067938D03*
X0189738Y0070359D03*
X0195565Y0065437D03*
X0200565Y0065437D03*
X0206470Y0070359D03*
X0206470Y0073312D03*
X0178911Y0076264D03*
X0173990Y0079217D03*
X0173990Y0072327D03*
X0155594Y0067938D03*
X0158242Y0064453D03*
X0149384Y0064453D03*
X0146844Y0059187D03*
X0153321Y0058548D03*
X0141844Y0054187D03*
X0146431Y0052642D03*
X0158242Y0052642D03*
X0130683Y0043784D03*
X0121825Y0044768D03*
X0111982Y0046737D03*
X0094344Y0051687D03*
X0111982Y0055595D03*
X0091844Y0059187D03*
X0095250Y0064453D03*
X0101156Y0070359D03*
X0101156Y0075280D03*
X0095250Y0075280D03*
X0107061Y0076264D03*
X0108045Y0079217D03*
X0108045Y0084138D03*
X0113951Y0085123D03*
X0133636Y0087091D03*
X0133636Y0081186D03*
X0144463Y0081186D03*
X0144463Y0093981D03*
X0133636Y0093981D03*
X0091313Y0089060D03*
X0070644Y0082170D03*
X0044069Y0085123D03*
X0044069Y0089060D03*
X0044069Y0092997D03*
X0068675Y0093981D03*
X0035211Y0081186D03*
X0027337Y0078233D03*
X0026352Y0073312D03*
X0027337Y0064453D03*
X0031274Y0064453D03*
X0040132Y0060516D03*
X0051943Y0061500D03*
X0051943Y0058548D03*
X0064738Y0061500D03*
X0051943Y0064453D03*
X0050959Y0072327D03*
X0077533Y0065437D03*
X0124344Y0064187D03*
X0070644Y0047721D03*
X0063754Y0041815D03*
X0063754Y0036894D03*
X0056864Y0032957D03*
X0028321Y0032957D03*
X0028321Y0045752D03*
X0040132Y0047721D03*
X0084423Y0034926D03*
X0111982Y0037878D03*
X0115919Y0038863D03*
X0127730Y0038863D03*
X0141510Y0034926D03*
X0149344Y0031687D03*
X0151844Y0034188D03*
X0155594Y0036688D03*
X0162179Y0042800D03*
X0173990Y0042800D03*
X0221815Y0052937D03*
X0224315Y0052937D03*
X0246815Y0054936D03*
X0251736Y0054936D03*
X0263557Y0053626D03*
X0263557Y0047721D03*
X0261815Y0042938D03*
X0292100Y0032957D03*
X0293085Y0056579D03*
X0290132Y0056579D03*
X0287179Y0056579D03*
X0284226Y0056579D03*
X0263557Y0059532D03*
X0263557Y0065437D03*
X0263557Y0071343D03*
X0255683Y0073312D03*
X0263557Y0077249D03*
X0269463Y0077249D03*
X0279305Y0077249D03*
X0279305Y0080201D03*
X0281274Y0084138D03*
X0284226Y0084138D03*
X0287179Y0084138D03*
X0290132Y0084138D03*
X0293085Y0084138D03*
X0292100Y0092997D03*
X0265526Y0092997D03*
X0240919Y0092997D03*
X0240919Y0083154D03*
X0232061Y0083154D03*
X0223203Y0083154D03*
X0214344Y0083154D03*
X0207455Y0083154D03*
X0207455Y0091028D03*
X0200565Y0092997D03*
X0193675Y0091028D03*
X0249778Y0083154D03*
X0255683Y0081186D03*
X0290132Y0069375D03*
X0235004Y0061825D03*
X0231067Y0063794D03*
X0200565Y0060437D03*
X0195565Y0060437D03*
X0121825Y0033941D03*
D15*
X0007968Y0035690D02*
X0007968Y0029937D01*
X0147029Y0029937D01*
X0146907Y0030059D01*
X0146470Y0031116D01*
X0146470Y0032259D01*
X0146907Y0033316D01*
X0147716Y0034125D01*
X0148773Y0034562D01*
X0148970Y0034562D01*
X0148970Y0034759D01*
X0149407Y0035816D01*
X0150216Y0036625D01*
X0151273Y0037062D01*
X0152416Y0037062D01*
X0152720Y0036937D01*
X0152720Y0037259D01*
X0153157Y0038316D01*
X0153966Y0039125D01*
X0155023Y0039562D01*
X0156166Y0039562D01*
X0157223Y0039125D01*
X0158032Y0038316D01*
X0158320Y0037619D01*
X0200912Y0037619D01*
X0202690Y0039397D01*
X0202690Y0039759D01*
X0203128Y0040816D01*
X0203937Y0041625D01*
X0204993Y0042062D01*
X0206137Y0042062D01*
X0207193Y0041625D01*
X0208002Y0040816D01*
X0208440Y0039759D01*
X0208440Y0038616D01*
X0208002Y0037559D01*
X0207193Y0036750D01*
X0206137Y0036313D01*
X0205775Y0036313D01*
X0204581Y0035119D01*
X0253412Y0035119D01*
X0259490Y0041197D01*
X0259378Y0041309D01*
X0258940Y0042366D01*
X0258940Y0043509D01*
X0259378Y0044566D01*
X0260187Y0045375D01*
X0261243Y0045812D01*
X0262387Y0045812D01*
X0263443Y0045375D01*
X0264252Y0044566D01*
X0264690Y0043509D01*
X0264690Y0042366D01*
X0264252Y0041309D01*
X0263996Y0041053D01*
X0263996Y0039534D01*
X0262661Y0038199D01*
X0263443Y0037875D01*
X0264252Y0037066D01*
X0264690Y0036009D01*
X0264690Y0034866D01*
X0264252Y0033809D01*
X0263996Y0033553D01*
X0263996Y0033284D01*
X0260649Y0029937D01*
X0294244Y0029937D01*
X0294244Y0042331D01*
X0290916Y0042331D01*
X0290916Y0048581D01*
X0289916Y0048581D01*
X0289916Y0042331D01*
X0281968Y0042331D01*
X0281587Y0042433D01*
X0281245Y0042631D01*
X0280965Y0042910D01*
X0280768Y0043252D01*
X0280666Y0043633D01*
X0280666Y0048581D01*
X0289916Y0048581D01*
X0289916Y0049581D01*
X0289916Y0055831D01*
X0281968Y0055831D01*
X0281587Y0055729D01*
X0281245Y0055531D01*
X0280965Y0055252D01*
X0280768Y0054910D01*
X0280666Y0054528D01*
X0280666Y0049581D01*
X0289916Y0049581D01*
X0290916Y0049581D01*
X0290916Y0055831D01*
X0294244Y0055831D01*
X0294244Y0069847D01*
X0290916Y0069847D01*
X0290916Y0076097D01*
X0289916Y0076097D01*
X0289916Y0069847D01*
X0281968Y0069847D01*
X0281587Y0069950D01*
X0281245Y0070147D01*
X0280965Y0070426D01*
X0280768Y0070768D01*
X0280666Y0071150D01*
X0280666Y0076097D01*
X0289916Y0076097D01*
X0289916Y0077097D01*
X0280666Y0077097D01*
X0280666Y0082045D01*
X0280768Y0082426D01*
X0280965Y0082768D01*
X0281245Y0083048D01*
X0281587Y0083245D01*
X0281968Y0083347D01*
X0289916Y0083347D01*
X0289916Y0077097D01*
X0290916Y0077097D01*
X0290916Y0083347D01*
X0294244Y0083347D01*
X0294244Y0095741D01*
X0007968Y0095741D01*
X0007968Y0092685D01*
X0008403Y0093119D01*
X0009217Y0093744D01*
X0010106Y0094257D01*
X0011054Y0094650D01*
X0012046Y0094916D01*
X0013064Y0095050D01*
X0013077Y0095050D01*
X0013077Y0087719D01*
X0014077Y0087719D01*
X0021407Y0087719D01*
X0021407Y0087732D01*
X0021273Y0088750D01*
X0021008Y0089741D01*
X0020615Y0090690D01*
X0020102Y0091579D01*
X0019477Y0092393D01*
X0018751Y0093119D01*
X0017937Y0093744D01*
X0017048Y0094257D01*
X0016099Y0094650D01*
X0015108Y0094916D01*
X0014090Y0095050D01*
X0014077Y0095050D01*
X0014077Y0087719D01*
X0014077Y0086719D01*
X0021407Y0086719D01*
X0021407Y0086706D01*
X0021273Y0085688D01*
X0021008Y0084696D01*
X0020615Y0083748D01*
X0020102Y0082859D01*
X0019477Y0082045D01*
X0018751Y0081319D01*
X0017937Y0080694D01*
X0017048Y0080181D01*
X0016099Y0079788D01*
X0015861Y0079724D01*
X0017464Y0079060D01*
X0017492Y0079032D01*
X0017703Y0079682D01*
X0018023Y0080309D01*
X0018436Y0080878D01*
X0018933Y0081375D01*
X0019502Y0081789D01*
X0020129Y0082108D01*
X0020798Y0082325D01*
X0021360Y0082415D01*
X0021360Y0078451D01*
X0022329Y0078451D01*
X0026292Y0078451D01*
X0026203Y0079013D01*
X0025986Y0079682D01*
X0025666Y0080309D01*
X0025253Y0080878D01*
X0024756Y0081375D01*
X0024186Y0081789D01*
X0023560Y0082108D01*
X0022891Y0082325D01*
X0022329Y0082415D01*
X0022329Y0078451D01*
X0022329Y0077483D01*
X0026292Y0077483D01*
X0026203Y0076921D01*
X0025986Y0076252D01*
X0025666Y0075625D01*
X0025253Y0075056D01*
X0024756Y0074559D01*
X0024186Y0074145D01*
X0023560Y0073826D01*
X0022891Y0073609D01*
X0022329Y0073520D01*
X0022329Y0077483D01*
X0021360Y0077483D01*
X0021360Y0073520D01*
X0020798Y0073609D01*
X0020439Y0073725D01*
X0020439Y0072575D01*
X0020920Y0072774D01*
X0022769Y0072774D01*
X0024478Y0072066D01*
X0025786Y0070758D01*
X0026494Y0069049D01*
X0026494Y0067200D01*
X0025786Y0065491D01*
X0024483Y0064187D01*
X0025786Y0062884D01*
X0026494Y0061175D01*
X0026494Y0059326D01*
X0025786Y0057617D01*
X0024478Y0056309D01*
X0022769Y0055601D01*
X0020920Y0055601D01*
X0020439Y0055800D01*
X0020439Y0054858D01*
X0020920Y0055058D01*
X0022769Y0055058D01*
X0024478Y0054350D01*
X0025786Y0053042D01*
X0026494Y0051333D01*
X0026494Y0049483D01*
X0025786Y0047774D01*
X0024478Y0046466D01*
X0022769Y0045758D01*
X0020920Y0045758D01*
X0019433Y0046374D01*
X0019477Y0046330D01*
X0020102Y0045516D01*
X0020615Y0044627D01*
X0021008Y0043678D01*
X0021273Y0042687D01*
X0021407Y0041669D01*
X0021407Y0041656D01*
X0014077Y0041656D01*
X0014077Y0040656D01*
X0021407Y0040656D01*
X0021407Y0040643D01*
X0021273Y0039625D01*
X0021008Y0038634D01*
X0020615Y0037685D01*
X0020102Y0036796D01*
X0019477Y0035982D01*
X0018751Y0035256D01*
X0017937Y0034631D01*
X0017048Y0034118D01*
X0016099Y0033725D01*
X0015108Y0033459D01*
X0014090Y0033325D01*
X0014077Y0033325D01*
X0014077Y0040656D01*
X0013077Y0040656D01*
X0013077Y0033325D01*
X0013064Y0033325D01*
X0012046Y0033459D01*
X0011054Y0033725D01*
X0010106Y0034118D01*
X0009217Y0034631D01*
X0008403Y0035256D01*
X0007968Y0035690D01*
X0007968Y0035423D02*
X0008236Y0035423D01*
X0007968Y0034424D02*
X0009575Y0034424D01*
X0007968Y0033426D02*
X0012302Y0033426D01*
X0013077Y0033426D02*
X0014077Y0033426D01*
X0014852Y0033426D02*
X0147017Y0033426D01*
X0146539Y0032427D02*
X0007968Y0032427D01*
X0007968Y0031429D02*
X0146470Y0031429D01*
X0146754Y0030430D02*
X0007968Y0030430D01*
X0013077Y0034424D02*
X0014077Y0034424D01*
X0014077Y0035423D02*
X0013077Y0035423D01*
X0013077Y0036421D02*
X0014077Y0036421D01*
X0014077Y0037420D02*
X0013077Y0037420D01*
X0013077Y0038418D02*
X0014077Y0038418D01*
X0014077Y0039417D02*
X0013077Y0039417D01*
X0013077Y0040415D02*
X0014077Y0040415D01*
X0014077Y0041414D02*
X0203726Y0041414D01*
X0202962Y0040415D02*
X0021377Y0040415D01*
X0021218Y0039417D02*
X0154671Y0039417D01*
X0153260Y0038418D02*
X0020919Y0038418D01*
X0020462Y0037420D02*
X0152786Y0037420D01*
X0155594Y0036688D02*
X0156844Y0035438D01*
X0201815Y0035438D01*
X0205565Y0039188D01*
X0208168Y0040415D02*
X0258708Y0040415D01*
X0259334Y0041414D02*
X0207404Y0041414D01*
X0208440Y0039417D02*
X0257710Y0039417D01*
X0256711Y0038418D02*
X0208358Y0038418D01*
X0207863Y0037420D02*
X0255713Y0037420D01*
X0254714Y0036421D02*
X0206399Y0036421D01*
X0204885Y0035423D02*
X0253716Y0035423D01*
X0257081Y0032619D02*
X0259054Y0034592D01*
X0259077Y0034534D01*
X0257162Y0032619D01*
X0257081Y0032619D01*
X0257888Y0033426D02*
X0257969Y0033426D01*
X0258886Y0034424D02*
X0258967Y0034424D01*
X0261815Y0034188D02*
X0258065Y0030437D01*
X0150594Y0030437D01*
X0149344Y0031687D01*
X0151844Y0034188D02*
X0153094Y0032938D01*
X0254315Y0032938D01*
X0261815Y0040438D01*
X0261815Y0042938D01*
X0264317Y0044409D02*
X0280666Y0044409D01*
X0280666Y0045408D02*
X0263363Y0045408D01*
X0260266Y0045408D02*
X0182220Y0045408D01*
X0182374Y0045471D02*
X0183238Y0046335D01*
X0183705Y0047464D01*
X0183705Y0048686D01*
X0183238Y0049815D01*
X0183115Y0049938D01*
X0183115Y0052823D01*
X0183743Y0052563D01*
X0184887Y0052563D01*
X0185943Y0053000D01*
X0186752Y0053809D01*
X0187190Y0054866D01*
X0187190Y0056009D01*
X0186752Y0057066D01*
X0186496Y0057322D01*
X0186496Y0066053D01*
X0186752Y0066309D01*
X0187190Y0067366D01*
X0187190Y0068509D01*
X0186752Y0069566D01*
X0185943Y0070375D01*
X0184887Y0070812D01*
X0183743Y0070812D01*
X0183115Y0070552D01*
X0183115Y0070670D01*
X0184614Y0072169D01*
X0190970Y0072169D01*
X0191882Y0072547D01*
X0192866Y0073531D01*
X0193564Y0074229D01*
X0193942Y0075141D01*
X0193942Y0080661D01*
X0194065Y0080784D01*
X0194532Y0081913D01*
X0194532Y0083135D01*
X0194065Y0084264D01*
X0193201Y0085128D01*
X0192072Y0085596D01*
X0190850Y0085596D01*
X0189721Y0085128D01*
X0188857Y0084264D01*
X0188389Y0083135D01*
X0188389Y0081913D01*
X0188857Y0080784D01*
X0188980Y0080661D01*
X0188980Y0077131D01*
X0183093Y0077131D01*
X0182181Y0076753D01*
X0181483Y0076056D01*
X0178530Y0073103D01*
X0178153Y0072191D01*
X0178153Y0069789D01*
X0177567Y0070375D01*
X0176511Y0070812D01*
X0175367Y0070812D01*
X0174311Y0070375D01*
X0174054Y0070119D01*
X0157479Y0070119D01*
X0157223Y0070375D01*
X0156166Y0070812D01*
X0155023Y0070812D01*
X0153966Y0070375D01*
X0153157Y0069566D01*
X0152720Y0068509D01*
X0152720Y0067366D01*
X0153157Y0066309D01*
X0153966Y0065500D01*
X0155023Y0065063D01*
X0156166Y0065063D01*
X0157223Y0065500D01*
X0157479Y0065756D01*
X0173211Y0065756D01*
X0172798Y0064759D01*
X0172798Y0064397D01*
X0170463Y0062062D01*
X0170101Y0062062D01*
X0169045Y0061625D01*
X0168236Y0060816D01*
X0167798Y0059759D01*
X0167798Y0058616D01*
X0168236Y0057559D01*
X0169045Y0056750D01*
X0170101Y0056313D01*
X0171245Y0056313D01*
X0172302Y0056750D01*
X0173110Y0057559D01*
X0173548Y0058616D01*
X0173548Y0058978D01*
X0175883Y0061313D01*
X0176245Y0061313D01*
X0177302Y0061750D01*
X0178110Y0062559D01*
X0178153Y0062661D01*
X0178153Y0049938D01*
X0178030Y0049815D01*
X0177562Y0048686D01*
X0177562Y0047464D01*
X0178030Y0046335D01*
X0178894Y0045471D01*
X0180023Y0045004D01*
X0181245Y0045004D01*
X0182374Y0045471D01*
X0183267Y0046406D02*
X0280666Y0046406D01*
X0280666Y0047405D02*
X0183681Y0047405D01*
X0183705Y0048403D02*
X0280666Y0048403D01*
X0280666Y0050400D02*
X0183115Y0050400D01*
X0183115Y0051399D02*
X0280666Y0051399D01*
X0280666Y0052397D02*
X0183115Y0052397D01*
X0186339Y0053396D02*
X0280666Y0053396D01*
X0280666Y0054394D02*
X0186995Y0054394D01*
X0187190Y0055393D02*
X0281106Y0055393D01*
X0289916Y0055393D02*
X0290916Y0055393D01*
X0290916Y0054394D02*
X0289916Y0054394D01*
X0289916Y0053396D02*
X0290916Y0053396D01*
X0290916Y0052397D02*
X0289916Y0052397D01*
X0289916Y0051399D02*
X0290916Y0051399D01*
X0290916Y0050400D02*
X0289916Y0050400D01*
X0289916Y0049402D02*
X0183409Y0049402D01*
X0178153Y0050400D02*
X0141142Y0050400D01*
X0140248Y0049506D02*
X0142054Y0051313D01*
X0142416Y0051313D01*
X0143473Y0051750D01*
X0144282Y0052559D01*
X0144719Y0053616D01*
X0144719Y0054759D01*
X0144282Y0055816D01*
X0143473Y0056625D01*
X0142551Y0057006D01*
X0144960Y0057006D01*
X0145216Y0056750D01*
X0146273Y0056313D01*
X0147416Y0056313D01*
X0148473Y0056750D01*
X0149282Y0057559D01*
X0149719Y0058616D01*
X0149719Y0059759D01*
X0149282Y0060816D01*
X0148473Y0061625D01*
X0147416Y0062062D01*
X0146273Y0062062D01*
X0145216Y0061625D01*
X0144960Y0061369D01*
X0125051Y0061369D01*
X0125973Y0061750D01*
X0126782Y0062559D01*
X0127219Y0063616D01*
X0127219Y0064759D01*
X0126782Y0065816D01*
X0126526Y0066072D01*
X0126526Y0073284D01*
X0127748Y0074506D01*
X0147748Y0074506D01*
X0149026Y0075784D01*
X0151526Y0078284D01*
X0151526Y0079524D01*
X0151996Y0079719D01*
X0153313Y0081036D01*
X0154026Y0082756D01*
X0154026Y0090619D01*
X0153313Y0092339D01*
X0151996Y0093656D01*
X0150276Y0094369D01*
X0148413Y0094369D01*
X0146693Y0093656D01*
X0145376Y0092339D01*
X0144663Y0090619D01*
X0144663Y0082756D01*
X0145376Y0081036D01*
X0146693Y0079719D01*
X0146763Y0079690D01*
X0145941Y0078869D01*
X0125941Y0078869D01*
X0123441Y0076369D01*
X0122163Y0075091D01*
X0122163Y0066072D01*
X0121907Y0065816D01*
X0121470Y0064759D01*
X0121470Y0063616D01*
X0121907Y0062559D01*
X0122716Y0061750D01*
X0123638Y0061369D01*
X0093729Y0061369D01*
X0093473Y0061625D01*
X0092416Y0062062D01*
X0091273Y0062062D01*
X0090216Y0061625D01*
X0089407Y0060816D01*
X0088970Y0059759D01*
X0088970Y0058616D01*
X0089407Y0057559D01*
X0090216Y0056750D01*
X0091273Y0056313D01*
X0092416Y0056313D01*
X0093473Y0056750D01*
X0093729Y0057006D01*
X0141138Y0057006D01*
X0140216Y0056625D01*
X0139407Y0055816D01*
X0138970Y0054759D01*
X0138970Y0054397D01*
X0138441Y0053869D01*
X0096229Y0053869D01*
X0095973Y0054125D01*
X0094916Y0054562D01*
X0093773Y0054562D01*
X0092716Y0054125D01*
X0091907Y0053316D01*
X0091470Y0052259D01*
X0091470Y0051116D01*
X0091907Y0050059D01*
X0092716Y0049250D01*
X0093773Y0048813D01*
X0094916Y0048813D01*
X0095973Y0049250D01*
X0096229Y0049506D01*
X0140248Y0049506D01*
X0139344Y0051687D02*
X0141844Y0054187D01*
X0139232Y0055393D02*
X0020439Y0055393D01*
X0024371Y0054394D02*
X0093367Y0054394D01*
X0091987Y0053396D02*
X0025432Y0053396D01*
X0026053Y0052397D02*
X0091527Y0052397D01*
X0091470Y0051399D02*
X0026467Y0051399D01*
X0026494Y0050400D02*
X0091766Y0050400D01*
X0092565Y0049402D02*
X0026460Y0049402D01*
X0026047Y0048403D02*
X0177562Y0048403D01*
X0177587Y0047405D02*
X0025417Y0047405D01*
X0024333Y0046406D02*
X0178000Y0046406D01*
X0179047Y0045408D02*
X0020164Y0045408D01*
X0020705Y0044409D02*
X0259313Y0044409D01*
X0258940Y0043411D02*
X0021080Y0043411D01*
X0021310Y0042412D02*
X0258940Y0042412D01*
X0263996Y0040415D02*
X0294244Y0040415D01*
X0294244Y0039417D02*
X0263879Y0039417D01*
X0262880Y0038418D02*
X0294244Y0038418D01*
X0294244Y0037420D02*
X0263898Y0037420D01*
X0264519Y0036421D02*
X0294244Y0036421D01*
X0294244Y0035423D02*
X0264690Y0035423D01*
X0264507Y0034424D02*
X0294244Y0034424D01*
X0294244Y0033426D02*
X0263996Y0033426D01*
X0263139Y0032427D02*
X0294244Y0032427D01*
X0294244Y0031429D02*
X0262141Y0031429D01*
X0261142Y0030430D02*
X0294244Y0030430D01*
X0294244Y0041414D02*
X0264295Y0041414D01*
X0264690Y0042412D02*
X0281665Y0042412D01*
X0280725Y0043411D02*
X0264690Y0043411D01*
X0261815Y0035438D02*
X0261815Y0034188D01*
X0289916Y0042412D02*
X0290916Y0042412D01*
X0290916Y0043411D02*
X0289916Y0043411D01*
X0289916Y0044409D02*
X0290916Y0044409D01*
X0290916Y0045408D02*
X0289916Y0045408D01*
X0289916Y0046406D02*
X0290916Y0046406D01*
X0290916Y0047405D02*
X0289916Y0047405D01*
X0289916Y0048403D02*
X0290916Y0048403D01*
X0294244Y0056391D02*
X0187032Y0056391D01*
X0186496Y0057390D02*
X0294244Y0057390D01*
X0294244Y0058388D02*
X0186496Y0058388D01*
X0186496Y0059387D02*
X0294244Y0059387D01*
X0294244Y0060385D02*
X0186496Y0060385D01*
X0186496Y0061384D02*
X0294244Y0061384D01*
X0294244Y0062382D02*
X0186496Y0062382D01*
X0186496Y0063381D02*
X0294244Y0063381D01*
X0294244Y0064379D02*
X0186496Y0064379D01*
X0186496Y0065378D02*
X0294244Y0065378D01*
X0294244Y0066376D02*
X0186780Y0066376D01*
X0187190Y0067375D02*
X0294244Y0067375D01*
X0294244Y0068373D02*
X0187190Y0068373D01*
X0186832Y0069372D02*
X0294244Y0069372D01*
X0290916Y0070371D02*
X0289916Y0070371D01*
X0289916Y0071369D02*
X0290916Y0071369D01*
X0290916Y0072368D02*
X0289916Y0072368D01*
X0289916Y0073366D02*
X0290916Y0073366D01*
X0290916Y0074365D02*
X0289916Y0074365D01*
X0289916Y0075363D02*
X0290916Y0075363D01*
X0289916Y0076362D02*
X0193942Y0076362D01*
X0193942Y0077360D02*
X0280666Y0077360D01*
X0280666Y0078359D02*
X0193942Y0078359D01*
X0193942Y0079357D02*
X0280666Y0079357D01*
X0280666Y0080356D02*
X0193942Y0080356D01*
X0194301Y0081354D02*
X0280666Y0081354D01*
X0280748Y0082353D02*
X0194532Y0082353D01*
X0194443Y0083351D02*
X0294244Y0083351D01*
X0294244Y0084350D02*
X0193979Y0084350D01*
X0192669Y0085348D02*
X0294244Y0085348D01*
X0294244Y0086347D02*
X0174026Y0086347D01*
X0174026Y0087345D02*
X0294244Y0087345D01*
X0294244Y0088344D02*
X0174026Y0088344D01*
X0174026Y0089342D02*
X0294244Y0089342D01*
X0294244Y0090341D02*
X0174026Y0090341D01*
X0174026Y0090619D02*
X0173313Y0092339D01*
X0171996Y0093656D01*
X0170276Y0094369D01*
X0168413Y0094369D01*
X0166693Y0093656D01*
X0165376Y0092339D01*
X0164663Y0090619D01*
X0164663Y0082756D01*
X0165376Y0081036D01*
X0166693Y0079719D01*
X0168413Y0079006D01*
X0170276Y0079006D01*
X0171996Y0079719D01*
X0173313Y0081036D01*
X0174026Y0082756D01*
X0174026Y0090619D01*
X0173727Y0091339D02*
X0294244Y0091339D01*
X0294244Y0092338D02*
X0173313Y0092338D01*
X0172316Y0093336D02*
X0294244Y0093336D01*
X0294244Y0094335D02*
X0170357Y0094335D01*
X0168332Y0094335D02*
X0160357Y0094335D01*
X0160276Y0094369D02*
X0158413Y0094369D01*
X0156693Y0093656D01*
X0155376Y0092339D01*
X0154663Y0090619D01*
X0154663Y0082756D01*
X0155376Y0081036D01*
X0156693Y0079719D01*
X0158413Y0079006D01*
X0160276Y0079006D01*
X0161996Y0079719D01*
X0163313Y0081036D01*
X0164026Y0082756D01*
X0164026Y0090619D01*
X0163313Y0092339D01*
X0161996Y0093656D01*
X0160276Y0094369D01*
X0158332Y0094335D02*
X0150357Y0094335D01*
X0148332Y0094335D02*
X0016860Y0094335D01*
X0018468Y0093336D02*
X0136711Y0093336D01*
X0136986Y0093536D02*
X0136413Y0093120D01*
X0135912Y0092619D01*
X0135496Y0092046D01*
X0135174Y0091415D01*
X0134955Y0090741D01*
X0134844Y0090042D01*
X0134844Y0087187D01*
X0138844Y0087187D01*
X0138844Y0086188D01*
X0134844Y0086188D01*
X0134844Y0083333D01*
X0134955Y0082634D01*
X0135174Y0081960D01*
X0135496Y0081329D01*
X0135912Y0080756D01*
X0136413Y0080255D01*
X0136986Y0079839D01*
X0137617Y0079517D01*
X0138291Y0079298D01*
X0138844Y0079211D01*
X0138844Y0086187D01*
X0139844Y0086187D01*
X0139844Y0079211D01*
X0140398Y0079298D01*
X0141072Y0079517D01*
X0141703Y0079839D01*
X0142276Y0080255D01*
X0142777Y0080756D01*
X0143193Y0081329D01*
X0143515Y0081960D01*
X0143734Y0082634D01*
X0143844Y0083333D01*
X0143844Y0086188D01*
X0139845Y0086188D01*
X0139845Y0087187D01*
X0143844Y0087187D01*
X0143844Y0090042D01*
X0143734Y0090741D01*
X0143515Y0091415D01*
X0143193Y0092046D01*
X0142777Y0092619D01*
X0142276Y0093120D01*
X0141703Y0093536D01*
X0141072Y0093858D01*
X0140398Y0094077D01*
X0139844Y0094164D01*
X0139844Y0087188D01*
X0138844Y0087188D01*
X0138844Y0094164D01*
X0138291Y0094077D01*
X0137617Y0093858D01*
X0136986Y0093536D01*
X0135708Y0092338D02*
X0019519Y0092338D01*
X0020240Y0091339D02*
X0135150Y0091339D01*
X0134892Y0090341D02*
X0020760Y0090341D01*
X0021115Y0089342D02*
X0134844Y0089342D01*
X0134844Y0088344D02*
X0021327Y0088344D01*
X0021360Y0086347D02*
X0138844Y0086347D01*
X0138844Y0087345D02*
X0139844Y0087345D01*
X0139845Y0086347D02*
X0144663Y0086347D01*
X0144663Y0087345D02*
X0143844Y0087345D01*
X0143844Y0088344D02*
X0144663Y0088344D01*
X0144663Y0089342D02*
X0143844Y0089342D01*
X0143797Y0090341D02*
X0144663Y0090341D01*
X0144962Y0091339D02*
X0143539Y0091339D01*
X0142981Y0092338D02*
X0145375Y0092338D01*
X0146373Y0093336D02*
X0141978Y0093336D01*
X0139844Y0093336D02*
X0138844Y0093336D01*
X0138844Y0092338D02*
X0139844Y0092338D01*
X0139844Y0091339D02*
X0138844Y0091339D01*
X0138844Y0090341D02*
X0139844Y0090341D01*
X0139844Y0089342D02*
X0138844Y0089342D01*
X0138844Y0088344D02*
X0139844Y0088344D01*
X0134844Y0087345D02*
X0014077Y0087345D01*
X0014077Y0088344D02*
X0013077Y0088344D01*
X0013077Y0089342D02*
X0014077Y0089342D01*
X0014077Y0090341D02*
X0013077Y0090341D01*
X0013077Y0091339D02*
X0014077Y0091339D01*
X0014077Y0092338D02*
X0013077Y0092338D01*
X0013077Y0093336D02*
X0014077Y0093336D01*
X0014077Y0094335D02*
X0013077Y0094335D01*
X0010293Y0094335D02*
X0007968Y0094335D01*
X0007968Y0095333D02*
X0294244Y0095333D01*
X0290916Y0082353D02*
X0289916Y0082353D01*
X0289916Y0081354D02*
X0290916Y0081354D01*
X0290916Y0080356D02*
X0289916Y0080356D01*
X0289916Y0079357D02*
X0290916Y0079357D01*
X0290916Y0078359D02*
X0289916Y0078359D01*
X0289916Y0077360D02*
X0290916Y0077360D01*
X0280666Y0075363D02*
X0193942Y0075363D01*
X0193620Y0074365D02*
X0280666Y0074365D01*
X0280666Y0073366D02*
X0192701Y0073366D01*
X0191449Y0072368D02*
X0280666Y0072368D01*
X0280666Y0071369D02*
X0183814Y0071369D01*
X0185948Y0070371D02*
X0281021Y0070371D01*
X0190252Y0085348D02*
X0174026Y0085348D01*
X0174026Y0084350D02*
X0188942Y0084350D01*
X0188478Y0083351D02*
X0174026Y0083351D01*
X0173858Y0082353D02*
X0188389Y0082353D01*
X0188621Y0081354D02*
X0173445Y0081354D01*
X0172633Y0080356D02*
X0188980Y0080356D01*
X0188980Y0079357D02*
X0171122Y0079357D01*
X0167567Y0079357D02*
X0161122Y0079357D01*
X0162633Y0080356D02*
X0166056Y0080356D01*
X0165244Y0081354D02*
X0163445Y0081354D01*
X0163858Y0082353D02*
X0164831Y0082353D01*
X0164663Y0083351D02*
X0164026Y0083351D01*
X0164026Y0084350D02*
X0164663Y0084350D01*
X0164663Y0085348D02*
X0164026Y0085348D01*
X0164026Y0086347D02*
X0164663Y0086347D01*
X0164663Y0087345D02*
X0164026Y0087345D01*
X0164026Y0088344D02*
X0164663Y0088344D01*
X0164663Y0089342D02*
X0164026Y0089342D01*
X0164026Y0090341D02*
X0164663Y0090341D01*
X0164962Y0091339D02*
X0163727Y0091339D01*
X0163313Y0092338D02*
X0165375Y0092338D01*
X0166373Y0093336D02*
X0162316Y0093336D01*
X0156373Y0093336D02*
X0152316Y0093336D01*
X0153313Y0092338D02*
X0155375Y0092338D01*
X0154962Y0091339D02*
X0153727Y0091339D01*
X0154026Y0090341D02*
X0154663Y0090341D01*
X0154663Y0089342D02*
X0154026Y0089342D01*
X0154026Y0088344D02*
X0154663Y0088344D01*
X0154663Y0087345D02*
X0154026Y0087345D01*
X0154026Y0086347D02*
X0154663Y0086347D01*
X0154663Y0085348D02*
X0154026Y0085348D01*
X0154026Y0084350D02*
X0154663Y0084350D01*
X0154663Y0083351D02*
X0154026Y0083351D01*
X0153858Y0082353D02*
X0154831Y0082353D01*
X0155244Y0081354D02*
X0153445Y0081354D01*
X0152633Y0080356D02*
X0156056Y0080356D01*
X0157567Y0079357D02*
X0151526Y0079357D01*
X0151526Y0078359D02*
X0188980Y0078359D01*
X0188980Y0077360D02*
X0150602Y0077360D01*
X0149603Y0076362D02*
X0181789Y0076362D01*
X0180791Y0075363D02*
X0148605Y0075363D01*
X0146844Y0076688D02*
X0126844Y0076688D01*
X0124344Y0074188D01*
X0124344Y0064187D01*
X0121470Y0064379D02*
X0024675Y0064379D01*
X0025290Y0063381D02*
X0121567Y0063381D01*
X0122084Y0062382D02*
X0025994Y0062382D01*
X0026408Y0061384D02*
X0089975Y0061384D01*
X0089229Y0060385D02*
X0026494Y0060385D01*
X0026494Y0059387D02*
X0088970Y0059387D01*
X0089064Y0058388D02*
X0026106Y0058388D01*
X0025559Y0057390D02*
X0089577Y0057390D01*
X0091083Y0056391D02*
X0024561Y0056391D01*
X0017195Y0061061D02*
X0014942Y0061995D01*
X0012212Y0061995D01*
X0009690Y0060950D01*
X0007968Y0059229D01*
X0007968Y0069146D01*
X0009690Y0067425D01*
X0012212Y0066380D01*
X0014942Y0066380D01*
X0017195Y0067314D01*
X0017195Y0067200D01*
X0017903Y0065491D01*
X0019206Y0064187D01*
X0017903Y0062884D01*
X0017195Y0061175D01*
X0017195Y0061061D01*
X0017281Y0061384D02*
X0016416Y0061384D01*
X0017695Y0062382D02*
X0007968Y0062382D01*
X0007968Y0061384D02*
X0010738Y0061384D01*
X0009125Y0060385D02*
X0007968Y0060385D01*
X0007968Y0059387D02*
X0008127Y0059387D01*
X0007968Y0063381D02*
X0018399Y0063381D01*
X0019014Y0064379D02*
X0007968Y0064379D01*
X0007968Y0065378D02*
X0018016Y0065378D01*
X0017536Y0066376D02*
X0007968Y0066376D01*
X0007968Y0067375D02*
X0009811Y0067375D01*
X0008741Y0068373D02*
X0007968Y0068373D01*
X0020439Y0073366D02*
X0122163Y0073366D01*
X0122163Y0072368D02*
X0023751Y0072368D01*
X0025175Y0071369D02*
X0122163Y0071369D01*
X0122163Y0070371D02*
X0025947Y0070371D01*
X0026360Y0069372D02*
X0122163Y0069372D01*
X0122163Y0068373D02*
X0026494Y0068373D01*
X0026494Y0067375D02*
X0122163Y0067375D01*
X0122163Y0066376D02*
X0026153Y0066376D01*
X0025673Y0065378D02*
X0121726Y0065378D01*
X0126526Y0066376D02*
X0153129Y0066376D01*
X0152720Y0067375D02*
X0126526Y0067375D01*
X0126526Y0068373D02*
X0152720Y0068373D01*
X0153077Y0069372D02*
X0126526Y0069372D01*
X0126526Y0070371D02*
X0153962Y0070371D01*
X0157227Y0070371D02*
X0174306Y0070371D01*
X0177572Y0070371D02*
X0178153Y0070371D01*
X0178153Y0071369D02*
X0126526Y0071369D01*
X0126526Y0072368D02*
X0178226Y0072368D01*
X0178794Y0073366D02*
X0126608Y0073366D01*
X0127606Y0074365D02*
X0179792Y0074365D01*
X0175939Y0067938D02*
X0155594Y0067938D01*
X0154262Y0065378D02*
X0126963Y0065378D01*
X0127219Y0064379D02*
X0172781Y0064379D01*
X0173055Y0065378D02*
X0156927Y0065378D01*
X0148714Y0061384D02*
X0168804Y0061384D01*
X0168058Y0060385D02*
X0149460Y0060385D01*
X0149719Y0059387D02*
X0167798Y0059387D01*
X0167893Y0058388D02*
X0149625Y0058388D01*
X0149112Y0057390D02*
X0168405Y0057390D01*
X0169911Y0056391D02*
X0147606Y0056391D01*
X0146083Y0056391D02*
X0143706Y0056391D01*
X0144457Y0055393D02*
X0178153Y0055393D01*
X0178153Y0056391D02*
X0171435Y0056391D01*
X0172941Y0057390D02*
X0178153Y0057390D01*
X0178153Y0058388D02*
X0173454Y0058388D01*
X0173957Y0059387D02*
X0178153Y0059387D01*
X0178153Y0060385D02*
X0174956Y0060385D01*
X0176417Y0061384D02*
X0178153Y0061384D01*
X0178153Y0062382D02*
X0177934Y0062382D01*
X0175673Y0064187D02*
X0170673Y0059187D01*
X0170784Y0062382D02*
X0126605Y0062382D01*
X0127122Y0063381D02*
X0171782Y0063381D01*
X0177997Y0065930D02*
X0178153Y0066086D01*
X0178153Y0065714D01*
X0178110Y0065816D01*
X0177997Y0065930D01*
X0184315Y0067938D02*
X0184315Y0055437D01*
X0178153Y0054394D02*
X0144719Y0054394D01*
X0144628Y0053396D02*
X0178153Y0053396D01*
X0178153Y0052397D02*
X0144120Y0052397D01*
X0142624Y0051399D02*
X0178153Y0051399D01*
X0177859Y0049402D02*
X0096124Y0049402D01*
X0094344Y0051687D02*
X0139344Y0051687D01*
X0138967Y0054394D02*
X0095322Y0054394D01*
X0092606Y0056391D02*
X0139983Y0056391D01*
X0146844Y0059187D02*
X0091844Y0059187D01*
X0093714Y0061384D02*
X0123601Y0061384D01*
X0125088Y0061384D02*
X0144975Y0061384D01*
X0122163Y0074365D02*
X0024488Y0074365D01*
X0025476Y0075363D02*
X0122436Y0075363D01*
X0123434Y0076362D02*
X0026021Y0076362D01*
X0026273Y0077360D02*
X0124433Y0077360D01*
X0125431Y0078359D02*
X0022329Y0078359D01*
X0022329Y0079357D02*
X0021360Y0079357D01*
X0021360Y0080356D02*
X0022329Y0080356D01*
X0022329Y0081354D02*
X0021360Y0081354D01*
X0021360Y0082353D02*
X0022329Y0082353D01*
X0022719Y0082353D02*
X0135047Y0082353D01*
X0134844Y0083351D02*
X0020386Y0083351D01*
X0020864Y0084350D02*
X0134844Y0084350D01*
X0134844Y0085348D02*
X0021182Y0085348D01*
X0020970Y0082353D02*
X0019713Y0082353D01*
X0018912Y0081354D02*
X0018786Y0081354D01*
X0018057Y0080356D02*
X0017350Y0080356D01*
X0017598Y0079357D02*
X0016747Y0079357D01*
X0011293Y0079724D02*
X0009690Y0079060D01*
X0007968Y0077339D01*
X0007968Y0081753D01*
X0008403Y0081319D01*
X0009217Y0080694D01*
X0010106Y0080181D01*
X0011054Y0079788D01*
X0011293Y0079724D01*
X0010407Y0079357D02*
X0007968Y0079357D01*
X0007968Y0078359D02*
X0008988Y0078359D01*
X0007990Y0077360D02*
X0007968Y0077360D01*
X0007968Y0080356D02*
X0009803Y0080356D01*
X0008367Y0081354D02*
X0007968Y0081354D01*
X0021360Y0077360D02*
X0022329Y0077360D01*
X0022329Y0076362D02*
X0021360Y0076362D01*
X0021360Y0075363D02*
X0022329Y0075363D01*
X0022329Y0074365D02*
X0021360Y0074365D01*
X0026091Y0079357D02*
X0138110Y0079357D01*
X0138844Y0079357D02*
X0139844Y0079357D01*
X0140579Y0079357D02*
X0146430Y0079357D01*
X0146056Y0080356D02*
X0142377Y0080356D01*
X0143206Y0081354D02*
X0145244Y0081354D01*
X0144831Y0082353D02*
X0143642Y0082353D01*
X0143844Y0083351D02*
X0144663Y0083351D01*
X0144663Y0084350D02*
X0143844Y0084350D01*
X0143844Y0085348D02*
X0144663Y0085348D01*
X0139844Y0085348D02*
X0138844Y0085348D01*
X0138844Y0084350D02*
X0139844Y0084350D01*
X0139844Y0083351D02*
X0138844Y0083351D01*
X0138844Y0082353D02*
X0139844Y0082353D01*
X0139844Y0081354D02*
X0138844Y0081354D01*
X0138844Y0080356D02*
X0139844Y0080356D01*
X0136312Y0080356D02*
X0025632Y0080356D01*
X0024777Y0081354D02*
X0135483Y0081354D01*
X0146844Y0076688D02*
X0149344Y0079188D01*
X0149344Y0086687D01*
X0018192Y0047485D02*
X0017937Y0047681D01*
X0017048Y0048194D01*
X0016099Y0048587D01*
X0015861Y0048651D01*
X0017294Y0049244D01*
X0017903Y0047774D01*
X0018192Y0047485D01*
X0017642Y0048403D02*
X0016543Y0048403D01*
X0011293Y0048651D02*
X0011054Y0048587D01*
X0010106Y0048194D01*
X0009217Y0047681D01*
X0008403Y0047056D01*
X0007968Y0046622D01*
X0007968Y0051036D01*
X0009690Y0049315D01*
X0011293Y0048651D01*
X0010611Y0048403D02*
X0007968Y0048403D01*
X0007968Y0047405D02*
X0008857Y0047405D01*
X0009603Y0049402D02*
X0007968Y0049402D01*
X0007968Y0050400D02*
X0008604Y0050400D01*
X0019814Y0036421D02*
X0150013Y0036421D01*
X0149244Y0035423D02*
X0018918Y0035423D01*
X0017578Y0034424D02*
X0148439Y0034424D01*
X0157929Y0038418D02*
X0201711Y0038418D01*
X0202690Y0039417D02*
X0156518Y0039417D01*
X0008686Y0093336D02*
X0007968Y0093336D01*
D16*
X0180634Y0048075D03*
X0191461Y0082524D03*
D17*
X0191461Y0075634D01*
X0190476Y0074650D01*
X0183587Y0074650D01*
X0180634Y0071697D01*
X0180634Y0048075D01*
M02*
